<?xml version="1.0" encoding="utf-8"?>
<!-- Generator: Adobe Illustrator 25.2.0, SVG Export Plug-In . SVG Version: 6.00 Build 0)  -->
<svg version="1.1" id="Layer_1" xmlns="http://www.w3.org/2000/svg" xmlns:xlink="http://www.w3.org/1999/xlink" x="0px" y="0px" viewBox="0 0 386 369.1" style="enable-background:new 0 0 386 369.1;" xml:space="preserve">
<style>
	.st0{fill:#263238;}
	.st1{fill:#EBEBEB;}
	.st2{fill:#DBDBDB;}
	.st3{fill:#FFFFFF;}
	.st4{fill:#C7C7C7;}
	.st5{fill:#A6A6A6;}
	.st6{fill:#FFC4C0;}
	.st7{fill:#C27B14;}
	.st8{opacity:0.1;enable-background:new    ;}
	.st9{fill:#455A64;}
	.st10{fill:#FF99BA;}
	.st11{opacity:0.2;fill:#263238;enable-background:new    ;}
	.st12{fill:#37474F;}

</style>
<g>
	<g id="freepik--Table--inject-18">
		<polygon class="st0" points="12.7,348.8 56.1,348.6 99.5,348.5 186.4,348.3 273.2,348.5 316.6,348.6 360,348.8 316.6,349.1 
			273.2,349.2 186.4,349.3 99.5,349.2 56.1,349.1 		"></polygon>
	</g>
	<g>
		<g id="freepik--background-complete--inject-18">
			<path class="st1" d="M358.2,267.4l-13.1,0.3l-6.7,0.1c-2.2,0-4.5,0-6.7,0.1h-0.4v-0.5l-0.1-11.2v-0.5h0.5l13.2,0.1
				c4.4,0,8.8,0.1,13.2,0.2h0.3v0.3c0,1.9-0.1,3.8-0.1,5.7L358.2,267.4z M358.2,267.4l-0.1-5.6c0-1.9-0.1-3.7-0.1-5.5l0.3,0.3
				c-4.4,0-8.8,0.2-13.2,0.2l-13.2,0.1l0.5-0.5v11.2l-0.5-0.4c2.2,0,4.4,0,6.5,0l6.5,0.2L358.2,267.4z"></path>
			<path class="st1" d="M343.5,281.5l-13.1,0.3l-6.7,0.1c-2.2,0-4.5,0-6.7,0.1h-0.4v-0.5v-11.2v-0.5h0.5l13.2,0.1
				c4.4,0,8.8,0.1,13.2,0.2h0.3v0.3c0,1.9-0.1,3.8-0.1,5.7L343.5,281.5z M343.5,281.5l-0.1-5.6c0-1.9-0.1-3.7-0.1-5.5l0.3,0.3
				c-4.4,0-8.8,0.2-13.2,0.2l-13.2,0.1l0.5-0.5v11.2l-0.5-0.4c2.2,0,4.4,0,6.5,0l6.6,0.1L343.5,281.5z"></path>
			<path class="st1" d="M373,281.5l-13.1,0.3l-6.7,0.1c-2.2,0-4.5,0-6.7,0.1h-0.4v-0.5l-0.1-11.2v-0.5h0.5l13.2,0.1
				c4.4,0,8.8,0.1,13.2,0.2h0.3v0.3c0,1.9-0.1,3.8-0.1,5.7L373,281.5z M373,281.5l-0.1-5.6c0-1.9-0.1-3.7-0.1-5.5l0.3,0.3
				c-4.4,0-8.8,0.2-13.2,0.2l-13.2,0.1l0.5-0.5v11.2l-0.5-0.4c2.2,0,4.4,0,6.5,0l6.6,0.1L373,281.5z"></path>
			<path class="st1" d="M203.7,134.3l-13.1,0.3l-6.7,0.1c-2.2,0.1-4.5,0-6.7,0.1h-0.4v-0.4l-0.1-11.2v-0.5h0.5l13.2,0.1
				c4.4,0,8.8,0.1,13.2,0.2h0.3v0.3c0,1.9-0.1,3.8-0.1,5.6L203.7,134.3z M203.7,134.3l-0.1-5.6c0-1.9-0.1-3.7-0.1-5.5l0.3,0.3
				c-4.4,0.1-8.8,0.2-13.2,0.2l-13.2,0.1l0.5-0.5l0,11.2l-0.5-0.4c2.2,0,4.4,0,6.5,0.1l6.6,0.1L203.7,134.3z"></path>
			<path class="st1" d="M356.7,25.6l-13.1,0.3l-6.7,0.1c-2.2,0-4.5,0-6.7,0.1h-0.4v-0.4V14.4v-0.5h0.5l13.2,0.1
				c4.4,0,8.8,0.1,13.2,0.2h0.3v0.3c0,1.9-0.1,3.8-0.1,5.7L356.7,25.6z M356.7,25.6l-0.1-5.7c0-1.9-0.1-3.7-0.1-5.5l0.3,0.3
				c-4.4,0-8.8,0.2-13.2,0.2l-13.2,0.1l0.5-0.5l0,11.2l-0.5-0.4c2.2,0,4.4,0,6.5,0.1l6.6,0.1L356.7,25.6z"></path>
			<path class="st1" d="M371.5,39.7L358.4,40l-6.7,0.1c-2.2,0.1-4.5,0-6.7,0.1h-0.4v-0.4l-0.1-11.2V28h0.5l13.2,0.1
				c4.4,0,8.8,0.1,13.2,0.2h0.3v0.3c0,1.9-0.1,3.8-0.1,5.7L371.5,39.7z M371.5,39.7l-0.1-5.7c0-1.9-0.1-3.7-0.1-5.5l0.3,0.3
				c-4.4,0.1-8.8,0.2-13.2,0.2L345,29l0.5-0.5v11.2l-0.5-0.4c2.2,0,4.4,0,6.5,0.1l6.6,0.1L371.5,39.7z"></path>
			<g id="freepik--ZZtZDI--inject-18">
				<path class="st1" d="M76,174.6c-1,0.9-2.2,1.6-3.5,1.9c-0.8,0.2-1.7,0.3-2.5,0.5H67c-1.2-0.2-2.4-0.3-3.6-0.6
					c-4.3-0.9-8.5-2.7-12.1-5.3c-9.6-6.3-17.7-14.7-23.7-24.5c-2-3.2-3.4-6.8-4.1-10.6c-0.2-1-0.3-2-0.5-3v-2.9
					c0.2-1.1,0.4-2.2,0.7-3.3c0.3-1,0.8-2,1.6-2.7c0.1,0.1,0.3,0.2,0.4,0.4c4.6,4.6,9.2,9.2,13.9,13.8c0.3,0.3,0.4,0.7,0.3,1
					c-0.7,2.3-0.1,4.9,1.5,6.7c3.9,4.5,8.2,8.7,12.6,12.6c1.8,1.6,4.4,2.2,6.7,1.5c0.3-0.1,0.6-0.1,0.9,0.1
					c4.7,4.7,9.4,9.5,14.2,14.2C75.9,174.4,75.9,174.5,76,174.6z"></path>
				<path class="st1" d="M85.1,164.2v1c-0.4,0.6-0.9,1.2-1.4,1.7c-1.4,1.5-2.9,2.9-4.4,4.4l-0.4,0.4l-14.2-14.2
					c1.9-1.8,3.7-3.7,5.6-5.6c0.9-0.8,2.2-0.7,3,0.1c0,0,0,0,0,0c1.1,1,2.1,2.1,3.2,3.2c2.5,2.5,5,5,7.4,7.5
					C84.4,163.1,84.8,163.6,85.1,164.2z"></path>
				<path class="st1" d="M47.7,130.2c-1.8,1.7-3.6,3.4-5.3,5l-14.1-14.1c0.3-0.3,0.7-0.6,1-0.9c1.3-1.3,2.6-2.6,3.9-3.9
					c0.5-0.5,1.1-0.9,1.7-1.3h1c0.5,0.3,1.1,0.7,1.5,1.1c3.5,3.4,6.9,6.9,10.3,10.3C49,127.7,49,128.9,47.7,130.2z"></path>
			</g>
			<rect x="237.4" y="148.1" class="st2" width="115.7" height="64.8"></rect>
			<polygon class="st2" points="215.7,212.9 237.4,212.9 237.4,190.3 			"></polygon>
			<rect x="251" y="181.9" class="st3" width="77.4" height="1.4"></rect>
			<rect x="251" y="189.5" class="st3" width="61.5" height="1.4"></rect>
			<rect x="251" y="166.8" class="st3" width="66.2" height="1.4"></rect>
			<rect x="251" y="159.3" class="st3" width="86.4" height="1.4"></rect>
			<rect x="251" y="197" class="st3" width="67.9" height="1.4"></rect>
			<rect x="82.1" y="79.3" class="st1" width="212.5" height="9.3"></rect>
			<rect x="94" y="88.6" class="st1" width="9.3" height="30.8"></rect>
			<rect x="94" y="88.6" class="st2" width="9.3" height="9.5"></rect>
			<rect x="273.4" y="88.6" class="st1" width="9.3" height="30.8"></rect>
			<rect x="273.4" y="88.6" class="st2" width="9.3" height="9.5"></rect>
			<rect x="121.8" y="19.9" class="st4" width="15" height="59.4"></rect>
			<rect x="121.8" y="16.7" class="st2" width="15" height="6.5"></rect>
			<rect x="121.8" y="31.6" class="st2" width="15" height="2.4"></rect>
			<rect x="121.8" y="65" class="st2" width="16.8" height="6.5"></rect>
			<rect x="136.8" y="10" class="st2" width="10.4" height="69.3"></rect>
			<rect x="138.8" y="16.5" class="st1" width="6.3" height="26.6"></rect>
			
				<rect x="188" y="16.6" transform="matrix(0.703 -0.7112 0.7112 0.703 20.9359 152.633)" class="st4" width="10.4" height="69.3"></rect>
			
				<rect x="193.7" y="41.5" transform="matrix(0.703 -0.7112 0.7112 0.703 19.4961 156.2629)" class="st2" width="6.3" height="26.7"></rect>
			<rect x="147.2" y="26.7" class="st5" width="17.8" height="52.6"></rect>
			<rect x="147.2" y="68.8" class="st4" width="17.8" height="4.9"></rect>
			<rect x="147.2" y="63.7" class="st4" width="17.8" height="1.9"></rect>
			<rect x="109.5" y="29.8" class="st5" width="12.3" height="49.5"></rect>
			<rect x="109.5" y="69.4" class="st4" width="12.3" height="4.6"></rect>
			<rect x="109.5" y="40" class="st4" width="12.3" height="4.6"></rect>
			<rect x="109.5" y="47.8" class="st4" width="12.3" height="1.8"></rect>
			<polygon class="st2" points="272.3,56.2 271,59.8 270.1,61.9 268.8,65.5 263.6,79.3 235.4,79.3 230.1,65.5 228.8,61.9 228,59.8 
				226.6,56.2 237,41.1 231.6,31 267.3,31 261.9,41.1 			"></polygon>
			<polygon class="st5" points="272.3,56.2 271,59.8 228,59.8 226.6,56.2 			"></polygon>
			<polygon class="st5" points="270.1,61.9 268.8,65.5 230.1,65.5 228.8,61.9 			"></polygon>
		</g>
		<g id="freepik--character-2--inject-18">
			<polygon class="st2" points="32.2,348.8 154.9,348.8 130.4,206.5 38.7,206.5 			"></polygon>
			<polygon class="st5" points="32.2,348.8 43,348.8 49,206.5 38.7,206.5 			"></polygon>
			<path class="st6" d="M138.8,234.4c13.9,31,47.4,82.4,62.4,69.7c22.4-19.1,37.6-61.2,43.6-78.3c3.4-9.5-45.3-25.5-48.3-16.9
				c-4.2,12.3-10.9,38.1-14.7,41.7c-2,1.9-17.9-20.5-30-31.1C134.5,204.4,134.4,224.5,138.8,234.4z"></path>
			<path class="st6" d="M257,211.5c-4.3,9.7-21,26.2-26.5,28.6s-34.8-24-34.2-30.2s18.1-38.8,27.7-43.8S261.5,201.4,257,211.5z"></path>
			<path class="st6" d="M198.6,203.1c0,0,0.7-13.9-2.8-25.6c-2.9-9.9-8.4-24.1-3.2-25.9c10.8-3.6,24.4,32,24.4,32s3.5,16.7-6.8,21.3
				C203.7,207.7,198.6,203.1,198.6,203.1z"></path>
			<path class="st6" d="M210.7,176.8c0.7,5.6,6.9,1.6,6.9,1.6s-7.5,8-4.6,13.5c2.9,5.3,10.2,0.1,10.7-0.2c-0.4,0.4-7.1,7.9-3.6,13.1
				c3.7,5.4,10.2-1,10.6-1.4c-0.2,0.5-3.4,7.4,0.2,10.8c6.2,5.8,14.7-11.7,21.3-13.6c0,0,4.6,10.7,4.8,11c0,0,8.5-16.4,5.3-25.1
				c-0.9-2.6-3.5-4.3-6.2-3.9c0,0,3.3-5,0.7-9.2c-1.4-2.1-6-1.9-6-1.9s2.5-4.1-0.1-7.7c-2.1-2.9-6.4-2.1-6.4-2.1s0.5-5.1-2.5-7.3
				C235.5,149.7,209.2,164.8,210.7,176.8z"></path>
			<path class="st0" d="M243.5,161.5c0.1-0.1,0-0.2,0-0.1c-9.9,2.9-19.8,9-26.2,17.2c-0.2,0.3,0.1,0.7,0.4,0.5
				C225.9,171.9,233.6,166.2,243.5,161.5z"></path>
			<path class="st0" d="M250.8,171.2c0.1-0.1,0-0.2-0.1-0.2c-10.2,3-21.2,10.3-27.4,20.5c-0.2,0.4,0,0.9,0.2,0.5
				C228.2,185.5,241.9,175.4,250.8,171.2z"></path>
			<path class="st0" d="M230.6,204.2c6.3-9.6,15.1-16.2,25.1-21.7c0.1-0.1,0-0.2-0.1-0.2c-5.6,1.4-11.6,5.5-16,9.1
				c-4.1,3.3-7.4,7.6-9.3,12.5C230.2,204.2,230.5,204.4,230.6,204.2z"></path>
			<path class="st0" d="M217.4,178.4c-0.2,0.3,0.5,0.3,0.3,0.7c-1,1.4-6.3,10.2-3.9,13c2,2.2,6.3,1.1,7.8,0l3.8-2.7l-2.6,3.9
				c-1.2,1.7-2,3.6-2.6,5.6c-0.6,1.8-0.4,3.8,0.5,5.5c0.9,1.6,2.8,2.3,4.5,1.8c1.9-0.6,3.6-1.8,4.9-3.2l3.8-4l-2.3,5
				c-0.6,1.4-1.1,2.8-1.4,4.3c-0.3,1.4-0.2,2.9,0.3,4.2c0.5,1.2,1.7,2,3,2.1c1.5-0.1,2.8-0.7,4-1.6c2.5-1.9,4.9-4.1,7.1-6.4
				c1.2-1.1,2.3-2.2,3.5-3.3c1.1-1.1,2.5-2,4-2.6c-1.4,0.7-2.7,1.7-3.7,2.9c-1.1,1.1-2.2,2.4-3.2,3.6c-2.1,2.5-4.4,4.8-6.9,6.9
				c-1.3,1.1-3,1.9-4.7,2.1c-2,0-3.8-1.1-4.6-2.9c-0.7-1.6-0.9-3.5-0.5-5.2c0.3-1.7,0.8-3.3,1.5-4.9l1.5,1c-1.5,1.8-3.5,3.1-5.7,3.9
				c-1.2,0.4-2.6,0.3-3.8-0.1c-1.2-0.5-2.2-1.4-2.8-2.4c-1.2-2.1-1.4-4.7-0.6-7c0.6-2.2,1.6-4.2,3-6.1l1.2,1.1
				c-2,1.3-6.6,3.1-10.1,0.1C208.5,188.7,215.9,179.9,217.4,178.4z"></path>
			<path class="st0" d="M217.6,178.4c-1.1,0.4-2.2,0.7-3.4,0.8c-0.9,0.1-1.9-0.3-2.4-1.1c-0.5-0.9-0.7-2-0.5-3
				c0.1-1.1,0.2-2.3,0.4-3.6c-0.8,1-1.3,2.2-1.6,3.4c-0.4,1.3-0.2,2.8,0.5,4c0.4,0.6,1.1,1.1,1.8,1.4c0.7,0.2,1.4,0.3,2.1,0.1
				C215.6,180,216.8,179.3,217.6,178.4z"></path>
			<path class="st7" d="M193.6,209.9l50.6,35.3c0,0-30.2,62.7-48.9,62.5s-45.7-47.1-55-67.4s-3.8-37.5,15.1-19s25.6,26.1,26.2,25.9
				C182.8,246.7,193.6,209.9,193.6,209.9z"></path>
			<path class="st7" d="M244.3,245.2c0,0-21,43.5-38.8,57.9c-3.6,2.9-7,4.6-10.2,4.6c-18.7-0.2-45.7-47.1-55-67.4
				c-5.8-12.6-5.8-23.9-0.6-26.4c3.2-1.5,8.5,0.4,15.7,7.4c19,18.6,25.6,26.1,26.2,25.8c1.2-0.5,12.1-37.2,12.1-37.2L244.3,245.2z"></path>
			<path class="st3" d="M212.9,295.7c-0.6,0.7-1.2,1.4-1.9,2.1c-5.7,3.6-12.1,5.9-18.8,6.9c-1.8,0.2-3.7,0.3-5.5,0.2l-1.2-0.7
				c2.2,0.1,4.4,0.1,6.6-0.2c2.6-0.3,5.2-0.9,7.7-1.8l1.9-0.6l1.8-0.8c0.6-0.3,1.2-0.5,1.8-0.8l1.8-0.9
				C209.2,298.1,211.1,297,212.9,295.7z M174.5,240.5c-5.8,2.6-11,6.3-15.6,10.7c-2.9,2.9-5.6,6-8.1,9.3c0.1,0.2,0.2,0.5,0.4,0.7
				c2.5-3.4,5.2-6.5,8.2-9.4c3.8-3.7,8.1-6.9,12.8-9.3l1.8-0.9c0.3-0.2,0.7-0.3,1-0.4L174.5,240.5z M218.3,243.7
				c-4.8-2.4-9.8-4.2-15-5.6c-0.5-0.1-1.1-0.3-1.6-0.4c-0.3-0.1-0.7-0.2-1.1-0.2c-4.4-0.9-8.9-1.1-13.3-0.7
				c-0.7,0.1-1.3,0.2-1.9,0.3c-0.1,0.2-0.2,0.5-0.2,0.7c0.7-0.1,1.5-0.2,2.2-0.3c4.1-0.4,8.3-0.3,12.4,0.5l1.1,0.2
				c0.8,0.2,1.5,0.3,2.3,0.5c5.1,1.3,10.1,3.2,14.9,5.5c7.1,3.5,14.1,7.4,20.7,11.8c0.1-0.2,0.2-0.3,0.3-0.5
				C232.3,251.1,225.4,247.2,218.3,243.7z M223.5,230.7c-8.1,0.3-16,2.7-23,6.8l-0.9,0.5c-1.8,1.1-3.5,2.2-5.1,3.5
				c-8.6,6.5-15.4,14.9-21.9,23.3c-3.3,4.2-6.5,8.5-9.8,12.6c-0.2,0.3-0.5,0.6-0.7,0.9l0.4,0.5c0.3-0.3,0.6-0.7,0.9-1
				c3.4-4.1,6.6-8.4,9.9-12.6c6.5-8.4,13.3-16.7,21.8-23.2c1.8-1.4,3.8-2.7,5.8-3.9c0.3-0.2,0.5-0.3,0.8-0.5
				c2.3-1.3,4.8-2.4,7.3-3.4l1.9-0.7c0.6-0.2,1.3-0.4,1.9-0.6l1.9-0.5l2-0.4c2.6-0.6,5.2-0.9,7.9-0.8h0.1L223.5,230.7z M161.4,227.2
				c-3.5,1.6-7.1,2.7-10.9,3.5l-2,0.4c-0.6,0.1-1.3,0.2-2,0.2l-2,0.2l-2,0.1c-1.8,0.1-3.7,0.1-5.5-0.1l0.2,0.7
				c8.5,0.6,16.9-0.9,24.6-4.4C161.7,227.6,161.6,227.4,161.4,227.2L161.4,227.2z M146.9,214.8c-3.5,2.4-7.2,4.6-11,6.6
				c0,0.3,0,0.5,0,0.8c4-2.1,7.9-4.5,11.7-7.1C147.4,215.1,147.2,214.9,146.9,214.8L146.9,214.8z"></path>
			<path class="st0" d="M232.3,251.1c-1.3-1.1-2.7-2.2-4-3.3c-2.8-2.2-5.5-4.4-8.3-6.5c-5.5-4.3-11.1-8.4-16.8-12.5
				c-3.2-2.3-6.4-4.8-9.7-6.9c-0.1,0-0.2,0-0.2,0c0,0.1,0,0.2,0,0.2c2.6,2.3,5.5,4.4,8.2,6.6s5.4,4.4,8.2,6.6
				c5.5,4.3,11.1,8.5,16.7,12.6c1.6,1.2,3.1,2.4,4.8,3.5c0.8,0.6,1.6,1.2,2.5,1.7s1.7,1,2.6,1.6c0,0,0.1,0,0.1,0c0,0,0-0.1,0-0.1
				C235,253.4,233.7,252.2,232.3,251.1z"></path>
			<path class="st0" d="M182,246c-1.9,5.2-3.5,10.6-4.8,16c-0.7,2.7-1.2,5.4-1.7,8.1c-0.5,2.7-0.9,5.4-1.1,8.1c0,0.1,0.1,0.1,0.2,0
				c0.8-2.6,1.5-5.3,2.1-8s1.3-5.4,1.9-8c1.2-5.4,2.6-10.7,3.7-16.1c0-0.1,0-0.2-0.1-0.2C182.1,245.9,182,246,182,246z"></path>
			<path class="st8" d="M205.5,303.1c-3.6,2.9-7,4.6-10.2,4.6c-18.7-0.2-45.7-47.1-55-67.4c-5.8-12.6-5.8-23.9-0.6-26.4L205.5,303.1
				z"></path>
			<path class="st7" d="M176.5,348.8H54.9c-1.3-2.5,18.6-108.9,59.6-138.9c9.1-6.6,25.2-2.4,29.7,4.1
				C166.8,246.5,176.5,348.8,176.5,348.8z"></path>
			<path class="st3" d="M170.2,301.5c-3-1.1-6-2.3-8.9-3.7c-4.1-2-8-4.1-11.9-6.4l-0.6-0.3c-4-2.4-8-4.9-11.9-7.4l-0.6-0.4l-2.7-1.7
				c-9-5.8-17.9-11.7-27.5-16.3c-4.8-2.4-9.8-4.1-15-5.2c-2.6-0.5-5.3-0.6-7.9-0.4c-0.7,0-1.3,0.1-2,0.2c-0.5,0.1-0.9,0.1-1.4,0.2
				c0.1-0.2,0.1-0.3,0.2-0.5c0.4-0.1,0.7-0.1,1.1-0.2c0.7-0.1,1.3-0.2,2-0.2c2.7-0.2,5.4,0,8,0.4c5.3,1,10.4,2.8,15.2,5.2
				c9.7,4.6,18.6,10.6,27.6,16.3l2.6,1.7l0.6,0.4c4,2.6,8,5.1,12.1,7.5l0.6,0.3c3.8,2.2,7.7,4.3,11.6,6.2c2.8,1.3,5.6,2.5,8.5,3.5
				L170.2,301.5z M159.4,250.8l-0.4,0.4c-7.7,7.5-13.5,16.7-18.9,25.8c-1.1,2-2.3,3.9-3.5,5.9c-0.1,0.2-0.2,0.3-0.3,0.5
				c-1.5,2.5-3,5-4.5,7.4c-1.4,2.1-2.8,4.2-4.3,6.3c-0.1,0.2-0.3,0.4-0.4,0.6c-1.5,2.1-3.2,4-4.9,5.9c-1.8,1.9-3.8,3.7-6,5.2
				l-0.8,0.6c-0.3,0.2-0.6,0.3-0.9,0.5l-1.7,1c-1.2,0.6-2.4,1.1-3.6,1.5c-5,1.7-10.3,2.5-15.6,2.5c-5.3,0-10.6-0.6-15.7-1.8
				c-5-1.1-9.9-2.5-14.7-3.9c0,0.2-0.1,0.3-0.1,0.5c4.9,1.4,9.8,2.9,14.8,3.9c5.2,1.2,10.6,1.8,15.9,1.8c5.4,0,10.7-0.9,15.8-2.5
				c1.3-0.4,2.5-1,3.7-1.6l1.8-1c0.3-0.2,0.6-0.3,0.9-0.5l0.8-0.6c2.2-1.5,4.2-3.3,6.1-5.3c1.9-2,3.6-4.1,5.2-6.3
				c0.1-0.2,0.3-0.4,0.4-0.6c1.4-1.9,2.8-3.9,4-6c1.5-2.4,3-4.9,4.5-7.4l0.3-0.5l3.5-5.9c5.4-9.1,11.2-18.2,18.8-25.7l0.1-0.1
				C159.5,251.3,159.4,251,159.4,250.8z M165.1,274.5c-0.8,1-1.5,1.9-2.3,2.9c-3.3,4.2-7,8-11,11.5c-0.8,0.6-1.6,1.3-2.4,1.9
				l-0.5,0.4c-1.2,0.8-2.4,1.6-3.6,2.2l-0.9,0.5c-0.3,0.2-0.6,0.3-0.9,0.4l-1.8,0.8c-1.2,0.4-2.5,0.8-3.8,1.1c-3.1,0.7-6.3,1-9.4,1
				h-0.8c-1.9,0-3.8-0.1-5.6-0.4c-5.3-0.7-10.5-1.9-15.5-3.7c-5-1.7-9.9-3.9-14.8-6c-4.9-2.2-9.9-4.1-15-5.7c-1.5-0.4-3-0.8-4.6-1.1
				l-0.1,0.4c1.6,0.3,3.1,0.7,4.6,1.1c5.1,1.6,10.1,3.5,14.9,5.7c4.9,2.1,9.8,4.2,14.9,6c5,1.8,10.3,3.1,15.6,3.8
				c1.8,0.2,3.5,0.3,5.3,0.4c0.3,0,0.5,0,0.8,0c3.4,0.1,6.7-0.3,10-0.9c1.3-0.3,2.6-0.7,3.9-1.1l1.9-0.8c0.3-0.1,0.6-0.2,0.9-0.4
				l0.9-0.5c1.4-0.7,2.7-1.5,3.9-2.4l0.5-0.4c0.8-0.5,1.5-1.1,2.2-1.7c4.1-3.5,7.8-7.3,11.2-11.5c0.7-0.8,1.3-1.6,2-2.5
				C165.3,275.1,165.2,274.8,165.1,274.5z M152.6,230.3c-0.7,0.2-1.4,0.3-2.1,0.5l-2,0.4c-0.6,0.1-1.3,0.2-2,0.2l-2,0.2l-2,0.1
				c-2.6,0.2-5.3,0-7.9-0.4c-4.1-0.7-8.1-2-11.8-3.9l-1-0.5c-0.7-0.4-1.4-0.7-2.1-1.1c-4.6-2.7-8.9-5.8-12.8-9.4l-0.4,0.4
				c4,3.6,8.3,6.8,12.9,9.5c0.5,0.3,1,0.5,1.5,0.8l1,0.5c4,2.1,8.2,3.5,12.6,4.3c6.1,0.9,12.3,0.5,18.3-1
				C152.7,230.7,152.7,230.5,152.6,230.3z M145.5,215.8c-5.3,3.6-11,6.6-16.9,9c-2.2,0.8-4.4,1.5-6.6,2.1l-0.9,0.2
				c-2.6,0.6-5.2,1-7.9,1.2l-2,0.1c-0.7,0-1.3,0-2,0h-2l-2-0.2c-2.4-0.1-4.8-0.5-7.1-1.2c-0.1,0.2-0.3,0.4-0.4,0.6
				c8,2,16.3,2,24.3-0.1l1-0.2c2-0.5,4-1.2,5.9-1.9c6-2.4,11.7-5.4,17-9L145.5,215.8z M175.4,338.3c-1,0-2.1,0.1-3.1,0.1h-0.1
				l-0.6,0c-5.1,0.5-10.1,2-14.7,4.4c-3.3,1.7-6.4,3.7-9.4,5.9h0.6c2.8-2.1,5.8-3.9,8.9-5.6c4.6-2.4,9.7-3.8,14.8-4.3h0.4h0.2
				c1,0,1.9-0.1,2.9-0.1C175.4,338.6,175.4,338.5,175.4,338.3z M175.9,342.9c-1.1-1.4-2.2-2.7-3.4-4.1c-0.1-0.1-0.2-0.3-0.4-0.4
				l-0.4-0.5c-3.5-4.1-7.5-7.7-12-10.7c-2.3-1.5-4.7-2.7-7.2-3.5c-0.6-0.2-1.3-0.4-1.9-0.6s-1.3-0.3-2-0.4c-1.3-0.2-2.7-0.3-4-0.4
				c-5.4-0.2-10.7,0.7-15.8,2.5c-5,1.9-9.8,4.4-14.2,7.3c-8,5.1-15.3,11.2-23.1,16.6h0.3c7.8-5.3,15-11.2,22.9-16.3
				c4.5-2.9,9.2-5.4,14.2-7.2c5-1.8,10.3-2.7,15.6-2.5c1.3,0.1,2.6,0.2,4,0.4c0.7,0.1,1.3,0.3,1.9,0.4s1.3,0.4,1.9,0.6
				c2.5,0.9,4.9,2,7.1,3.5c4.4,3,8.4,6.6,11.8,10.6c0.1,0.1,0.1,0.1,0.2,0.2l0.4,0.4c1.4,1.6,2.8,3.3,4.1,5
				C176,343.6,175.9,343.3,175.9,342.9L175.9,342.9z"></path>
			<path class="st6" d="M98.4,222.9c-24.8,28.6-58.1,79.2-44.5,90.4c22.4,18.4,87.9,29,102.9,30.8c6.5,0.8,19.5-41.6,15.1-47.1
				s-73.5-9.4-74-13.6c-0.3-2.4,10.2-23.4,17-49.1C122.7,204.7,105.3,214.9,98.4,222.9z"></path>
			<path class="st6" d="M160.6,293.5c0,0,19.9-0.1,32.8,0.4c7.2,0.3,19.6,1.9,24.9,4.5c7.8,4,38,25.5,32.9,32.9
				c-4.6,6.7-28.2-15.1-28.2-15.1s25.7,19.9,18.7,27s-30.4-21.1-30.4-21.1s26,21,17.6,27.2c-6.3,4.6-28.9-19.7-28.9-19.7
				S222.3,348,216,353c-7,5.6-29.2-15.5-29.2-15.5c-18.2,10.2-31,7.6-40,4.6C144.6,341.4,160.6,293.5,160.6,293.5z"></path>
			<path class="st0" d="M214.6,308.8c3.1,2.2,6.3,4.5,9.2,7s5.7,5.1,8.4,7.9c6.5,6.8,9.5,12,9.3,11.7c-5.2-7.2-15.5-16.3-18.4-18.8
				s-5.7-5.1-8.6-7.6C214.4,308.9,214.5,308.8,214.6,308.8z"></path>
			<path class="st0" d="M205.4,319.1c3.8,3,7.8,5.9,11.5,9s8.7,7.8,12.2,11.2c0.3,0.3,0,0.8-0.3,0.5c-3.6-3.3-9-7.8-12.6-11
				S209,322.3,205.4,319.1C205.2,319.2,205.3,319.1,205.4,319.1z"></path>
			<path class="st0" d="M195.9,326.6c6.1,4.3,11.4,9.7,16.5,15.2c0.3,0.3,0,0.3-0.3,0c-5.4-5.1-9.6-9.2-16.3-15
				C195.6,326.7,195.8,326.5,195.9,326.6z"></path>
			<path class="st0" d="M157.8,292.9c9.1-0.1,35.7-0.1,44.7,0.6c8,0.6,14.6,2.3,21.3,6.8c14.4,9.5,23.7,20.7,26,24
				c1.4,2,3.4,5.2,1.6,7.5c-2.3,2.7-10.6,0.1-19.4-7.9c-0.3-0.3-0.1-0.5,0.2-0.2c12.4,10,17.3,8.9,18.6,7.1c0.8-1.1,0-3-0.7-4.5
				c-1.2-2.1-2.7-4.1-4.4-5.8c-5.7-6.1-12-11.6-18.8-16.4c-7.3-5.4-15.9-8.7-25-9.4c-9.3-0.8-34.9-0.5-44.1-1.4
				C157.5,293.2,157.6,292.9,157.8,292.9z"></path>
			<path class="st0" d="M243.2,339.3c-0.5-2.5-2.3-4.7-3.7-6.8c-1.7-2.6-3.7-5-5.9-7.1c-0.1-0.1-0.3,0-0.2,0.1
				c1.9,2.2,3.6,4.5,5.2,6.9c0.8,1.3,1.6,2.7,2.3,4.1c0.7,1.4,1.4,2.9,1.1,4.5c-0.6,2.9-4.4,2.9-6.6,2.1c-1.4-0.5-2.8-1.2-4.1-2
				c-1.8-1.1-3.5-2.4-5.1-3.8c-0.1-0.1-0.5-0.1-0.3,0.1c3.3,3.1,9.5,9.7,14.7,7.3C242.6,343.6,243.7,341.4,243.2,339.3z"></path>
			<path class="st7" d="M160.9,291l-23.8,54c0,0-83.1-18.8-88-34.5s21.2-58,44.7-84.4c23.1-25.9,26.5-8.3,20.8,11.7
				s-15.2,43.1-14.1,44.9S160.9,291,160.9,291z"></path>
			<path class="st3" d="M105.9,264.6c-0.1,0.1-0.1,0.3-0.2,0.5c-4.6-2.3-9.5-3.9-14.6-4.9c-2.6-0.5-5.3-0.6-7.9-0.4
				c-0.7,0-1.3,0.1-2,0.2s-1.3,0.2-1.9,0.4c-1.3,0.3-2.5,0.8-3.8,1.2c-4.9,1.9-9.4,4.7-13.2,8.2l0.6-1.1c3.7-3.2,7.9-5.8,12.5-7.5
				c1.3-0.4,2.5-0.9,3.9-1.2c0.6-0.2,1.3-0.3,2-0.4s1.3-0.2,2-0.2c2.7-0.2,5.4,0,8,0.4C96.3,260.7,101.2,262.3,105.9,264.6z
				 M149.9,291.1l-0.6-0.3l-2.3-1.4l-1.4-0.2c1,0.6,2.1,1.3,3.1,1.9l0.6,0.3c3,1.8,6,3.4,9.1,5l0.2-0.5
				C155.7,294.4,152.8,292.7,149.9,291.1z M133.6,287.8c-0.6,1-1.2,2-1.8,3c-1.4,2.1-2.8,4.2-4.3,6.3c-0.1,0.2-0.3,0.4-0.4,0.6
				c-1.5,2.1-3.2,4-4.9,5.9c-1.8,1.9-3.8,3.7-6,5.2l-0.8,0.6c-0.3,0.2-0.6,0.3-0.9,0.5l-1.7,1c-1.2,0.6-2.4,1.1-3.6,1.5
				c-5,1.7-10.3,2.5-15.6,2.5c-5.3,0-10.6-0.6-15.7-1.8c-5.2-1.1-10.3-2.6-15.5-4.1c-4.5-1.3-9.1-2.6-13.8-3.5c0,0.2,0,0.3,0,0.5
				c4.6,0.9,9.2,2.2,13.7,3.5c5.1,1.5,10.2,3,15.5,4.1c5.2,1.2,10.6,1.8,15.9,1.8c5.4,0,10.7-0.9,15.8-2.5c1.3-0.4,2.5-1,3.7-1.6
				l1.8-1c0.3-0.2,0.6-0.3,0.9-0.5l0.8-0.6c2.2-1.5,4.2-3.3,6.1-5.3c1.9-2,3.6-4.1,5.2-6.3c0.1-0.2,0.3-0.4,0.4-0.6
				c1.4-1.9,2.8-3.9,4-6c0.7-1.1,1.3-2.1,2-3.2L133.6,287.8z M150.6,289.8c-0.4,0.3-0.8,0.6-1.3,0.9l-0.5,0.4
				c-1.2,0.8-2.4,1.6-3.6,2.2l-0.9,0.5c-0.3,0.2-0.6,0.3-0.9,0.4l-1.8,0.8c-1.2,0.4-2.5,0.8-3.8,1.1c-3.1,0.7-6.3,1-9.4,1h-0.8
				c-1.9,0-3.8-0.1-5.6-0.4c-5.3-0.7-10.5-1.9-15.5-3.7c-5-1.7-9.9-3.9-14.8-6c-4.9-2.2-9.9-4.1-15-5.7c-5.1-1.5-10.6-2.3-15.9-1.2
				c-1.7,0.3-3.3,0.9-4.9,1.7c-0.1,0.2-0.2,0.4-0.3,0.6c1.6-0.9,3.4-1.5,5.2-1.9c5.2-1,10.6-0.2,15.7,1.2c5.1,1.6,10.1,3.5,14.9,5.7
				c4.9,2.1,9.8,4.2,14.9,6c5.1,1.8,10.3,3.1,15.6,3.8c1.8,0.2,3.5,0.3,5.3,0.4c0.3,0,0.5,0,0.8,0c3.4,0.1,6.7-0.3,10-0.9
				c1.3-0.3,2.6-0.7,3.9-1.1l1.9-0.8c0.3-0.1,0.6-0.2,0.9-0.4l0.9-0.5c1.4-0.7,2.7-1.5,3.9-2.4l0.5-0.4c0.5-0.4,1-0.8,1.6-1.2
				L150.6,289.8z M107,216.3c-0.4-0.4-0.9-0.8-1.3-1.1l-0.5,0.4l1.4,1.2c3.3,2.9,6.7,5.6,10.4,8c0-0.2,0-0.5,0-0.7
				C113.5,221.7,110.2,219.1,107,216.3L107,216.3z M113.1,228.3l-2,0.1c-0.7,0-1.3,0-2,0h-2l-2-0.2c-2.6-0.2-5.3-0.6-7.8-1.4
				c-1.1-0.3-2.2-0.7-3.3-1.1l-0.2,0.3l-0.2,0.3c1.2,0.5,2.4,0.9,3.6,1.3c6.3,1.7,12.9,2.1,19.4,1.1c0-0.2,0.1-0.5,0.1-0.7
				C115.5,228.1,114.3,228.3,113.1,228.3L113.1,228.3z M144.7,322.4c-5.4-0.2-10.7,0.7-15.8,2.5c-5,1.9-9.8,4.4-14.2,7.3
				c-2.5,1.6-4.9,3.3-7.4,5.1l0.4,0.1l0,0c2.3-1.7,4.7-3.3,7.1-4.9c4.5-2.9,9.2-5.4,14.2-7.2c5-1.8,10.3-2.7,15.6-2.5
				c0.7,0.1,1.4,0.1,2.1,0.2l0.2-0.4C146.2,322.5,145.4,322.5,144.7,322.4L144.7,322.4z"></path>
			<path class="st0" d="M127.5,336c0.8-1.5,1.6-3.1,2.4-4.6c1.6-3.1,3.1-6.3,4.7-9.4c3.1-6.3,6-12.6,8.8-19
				c1.6-3.6,3.4-7.2,4.8-10.9c0-0.1,0-0.2-0.1-0.2c-0.1,0-0.2,0-0.2,0.1l0,0c-1.7,3-3.2,6.2-4.8,9.4s-3.2,6.2-4.8,9.4
				c-3.1,6.3-6,12.6-8.9,18.9c-0.8,1.8-1.7,3.5-2.4,5.4c-0.4,0.9-0.8,1.8-1.2,2.8s-0.6,1.9-1,2.8c0,0,0,0.1,0,0.1c0,0,0.1,0,0.1,0
				l0,0C125.8,339.1,126.7,337.6,127.5,336z"></path>
			<path class="st0" d="M138.9,341.3l-1.7,3.8l0,0.1H137c-7.9-1.5-15.7-3.2-23.5-5.2s-15.5-4.2-23.1-6.6c-7.7-2.4-15.2-5.3-22.5-8.6
				c-3.7-1.7-7.2-3.6-10.6-5.7c-1.7-1.1-3.3-2.3-4.8-3.7c-1.5-1.3-2.7-3-3.4-4.9c0.9,1.8,2.2,3.3,3.8,4.5c1.6,1.2,3.3,2.3,5,3.2
				c3.5,1.9,7.1,3.7,10.7,5.1c7.4,3,14.9,5.6,22.5,8.1s15.2,4.7,22.9,6.9s15.4,4.3,23.1,6.4l-0.2,0.1L138.9,341.3z"></path>
			<path class="st0" d="M159.9,293.1l0.8-2.1l0.1,0.1c-8.3-0.5-16.7-1.2-25-2.1s-16.6-1.8-24.9-3.1c-2.1-0.3-4.1-0.7-6.2-1.1
				c-1-0.2-2.1-0.4-3.1-0.7c-0.3-0.1-0.5-0.2-0.8-0.3c-0.2-0.1-0.3-0.1-0.5-0.2c-0.1-0.1-0.2-0.1-0.3-0.2c-0.1-0.1-0.2-0.2-0.3-0.3
				c0-0.1-0.1-0.2-0.1-0.2c0,0,0-0.1,0-0.1c0-0.4,0-0.8,0.1-1.1c0-0.3,0.1-0.6,0.2-0.8c1.1-4.1,2.4-8.1,3.8-12
				c2.7-7.9,5.7-15.7,8.8-23.5c-2.4,8-4.9,16-7.3,24c-1.2,4-2.5,8-3.4,12c-0.1,0.2-0.1,0.5-0.1,0.7s0,0.5,0,0.4s0,0,0,0
				c0-0.1,0-0.1-0.1-0.1c0-0.1-0.2-0.2-0.1-0.2s0,0,0,0l0.2,0.1l0.7,0.2c1,0.3,2,0.5,3,0.6c2,0.4,4.1,0.7,6.1,1
				c4.1,0.6,8.2,1.2,12.4,1.8l12.4,1.7c8.3,1.1,16.5,2.3,24.8,3.5h0.1l-0.1,0.1L159.9,293.1z"></path>
			<path class="st0" d="M113.3,250.5c-0.6,1.4-1.3,2.8-2.2,4c-0.8,1.3-1.8,2.4-3,3.4c0.8-1.3,1.6-2.6,2.4-3.8
				C111.3,252.8,112.2,251.6,113.3,250.5z"></path>
			<path class="st6" d="M137.5,232c-7.1,2-19.8-8.3-25-16.9c-0.4-0.6,1.1-24.9,0.8-29.8c0-1,30.7,6,30.7,6s-2.5,10.3-2.1,18.8
				C142,210.8,144.3,230,137.5,232z"></path>
			<path class="st0" d="M112.9,200.5c14.4,10.2,28.4,6.3,29,6.1c0.2-5.2,0.9-10.3,2.1-15.3c0,0-30.8-7-30.8-6
				C113.4,187.6,113.2,194.1,112.9,200.5z"></path>
			<path class="st9" d="M143.9,171.3c0.8,7.2,6.5,12.4,12.8,11.7s10.8-7.1,10-14.2s-6.5-12.4-12.8-11.7S143.1,164.1,143.9,171.3z"></path>
			<path class="st4" d="M140.3,172.1c0.9,8,7.3,13.8,14.3,13.1s12-7.9,11.1-15.9s-7.3-13.8-14.3-13.1S139.4,164.1,140.3,172.1z"></path>
			<path class="st6" d="M109.1,148.7c-3.4,10.8,2.1,42,9.8,49c11.1,10.1,29.3,11.2,37.9-2.1c8.4-12.9,0.5-53.5-8.1-59.8
				C136.2,126.4,114,132.8,109.1,148.7z"></path>
			<path class="st0" d="M135,168.3c0-0.1-0.1,0.1-0.1,0.2c0.5,2.1,0.6,4.6-1.1,5.6c-0.1,0,0,0.1,0,0.1
				C136.1,173.5,135.8,170.2,135,168.3z"></path>
			<path class="st0" d="M132.7,166.5c-3.4,0.4-2.4,7.2,0.8,6.9S135.6,166.2,132.7,166.5z"></path>
			<path class="st0" d="M147.2,166.7c0-0.1,0.2,0.1,0.2,0.2c0.2,2.1,0.9,4.5,2.9,4.9c0.1,0,0.1,0.1,0,0.1
				C147.9,171.9,147.1,168.8,147.2,166.7z"></path>
			<path class="st0" d="M148.7,164.2c3.4-0.8,4.6,6,1.5,6.7S145.9,164.9,148.7,164.2z"></path>
			<path class="st0" d="M129.6,163.8c0.9-0.4,1.7-0.8,2.5-1.3c0.9-0.3,1.7-1,2.3-1.8c0.2-0.6,0-1.3-0.5-1.7
				c-1.2-0.6-2.6-0.5-3.6,0.2c-1.2,0.5-2.2,1.5-2.7,2.7c-0.3,0.8,0.1,1.7,0.9,2C128.8,164,129.2,164,129.6,163.8z"></path>
			<path class="st0" d="M150.9,160.4c-0.9,0-1.9-0.1-2.8-0.3c-1,0-2-0.3-2.8-0.8c-0.5-0.5-0.5-1.2-0.2-1.8c0.9-1,2.2-1.5,3.5-1.2
				c1.3,0.1,2.6,0.6,3.5,1.5c0.6,0.6,0.5,1.6-0.1,2.2C151.6,160.2,151.2,160.4,150.9,160.4z"></path>
			<path class="st0" d="M136.2,188.1c0.6,0.4,1.2,1,2,1c0.8-0.1,1.5-0.4,2.2-0.9c0,0,0.1,0,0.1,0c0,0,0,0.1,0,0.1
				c-0.5,0.9-1.5,1.5-2.5,1.6c-0.9-0.1-1.7-0.7-1.9-1.6C135.9,188.2,136.1,188.1,136.2,188.1z"></path>
			<path class="st0" d="M137.4,181.5c1.3,1.5,3.3,2.4,5.3,2.5c0.9,0,1.8-0.1,2.6-0.3c0.2,0,0.3-0.1,0.5-0.1c0.2,0,0.3-0.1,0.5-0.1
				c0.2-0.1,0.4-0.3,0.4-0.5l0,0c0-0.1,0-0.1,0-0.2l0,0v-0.2c-0.2-1.6-0.7-4.1-0.7-4.1c0.6,0.2,3.9,1.1,3.7,0.3
				c-1.5-7-3.1-14.7-6.1-21.3c0-0.1-0.2-0.1-0.3-0.1c-0.1,0-0.1,0.1-0.1,0.2c1.2,6.8,3.5,13.2,4.8,20c-1.2-0.3-2.3-0.5-3.5-0.5
				c-0.2,0.1,1.1,4.7,1.1,5.4c0,0,0,0.1,0,0.1c-2.7,0.8-4.9,0.2-7.8-1.2C137.4,181.2,137.3,181.3,137.4,181.5z"></path>
			<path class="st0" d="M144.2,183c-0.7,1.3-1.7,2.4-3,3.2c-0.7,0.4-1.5,0.6-2.3,0.5c-1.8-0.2-2-1.7-1.9-3.1
				c0.1-0.7,0.2-1.4,0.5-2.1C139.5,182.7,141.9,183.2,144.2,183z"></path>
			<path class="st10" d="M141.2,186.2c-0.7,0.4-1.5,0.6-2.3,0.5c-1.8-0.2-2-1.7-1.9-3.1C138.9,183.5,140.8,184.4,141.2,186.2z"></path>
			<path class="st11" d="M114.2,159.8c-1.2,3.1-3.8,10.4-5.2,10.9c-1.4-10.1-1.4-19.3,1.1-24.9c1-2.3,2.5-4.4,4.3-6.2
				C114.6,142.2,115.5,156.6,114.2,159.8z"></path>
			<path class="st0" d="M141.2,145.4c-1.7,3-4.9,4.9-8.4,5c-3.5,0.1-6.9-1.7-8.8-4.6c0,0-0.1-0.1-0.1,0c0,0-0.1,0.1,0,0.1
				c1.8,3.3,5.2,5.4,9,5.4c3.7-0.2,7-2.4,8.6-5.6c0-0.1,0-0.2,0-0.2C141.4,145.3,141.3,145.3,141.2,145.4z"></path>
			<path class="st0" d="M162.1,129.3c-1.4-2.7-3.8-4.7-6.6-5.8c-3.9-1.5-7.8-0.5-11.7,0.6c0,0-0.1,0-0.1,0.1s0,0.1,0.1,0.1
				c3.3-0.9,6.7-1.7,10-0.7c2.8,0.8,5.2,2.6,6.8,5c3.3,5.1,2.3,11.9-2.3,15.9c-2.7,2.2-6.1,3.2-9.5,2.7c-0.1,0-0.2,0.2,0,0.2
				c6.8,1.2,13.3-3.4,14.4-10.3C163.7,134.5,163.3,131.7,162.1,129.3L162.1,129.3z"></path>
			<path class="st0" d="M108.2,155c0,0-7.2-9.3-3.7-16c2-3.8,10.6-4.9,10.6-4.9s2-4.4,8.8-7.3s16-1.2,16-1.2s6.1-5.1,13.1-2.6
				c9.8,3.5,11,17.2,2.8,23.1c-5.7,4.1-15.2,0.1-15.2,0.1c-0.8,0.2-8.3,6.8-15.9,0.4c0,0-4.4,5.5-9.5,3.1
				C114.1,152.8,111.3,154.9,108.2,155z"></path>
			<path class="st6" d="M115.6,174.2c0,0-7.2-10-11.7-7.4s1,17.1,6.4,19c2.8,1.2,6,0,7.2-2.8c0-0.1,0.1-0.1,0.1-0.2L115.6,174.2z"></path>
			<path class="st0" d="M105.5,170.9c-0.1,0-0.1,0.1,0,0.1c3.8,1.5,5.8,4.9,7.3,8.5c-1.1-1.4-2.7-2.1-4.5-0.8
				c-0.1,0.1,0,0.2,0.1,0.2c1.3-0.4,2.8,0,3.7,1.2c0.7,0.9,1.3,1.9,1.8,3c0.2,0.3,0.8,0.1,0.6-0.2v-0.1
				C114.5,178,110.7,171.3,105.5,170.9z"></path>
			<path class="st4" d="M109.6,167.2c0,0-3.9-15.5-0.9-25c3.4-10.6,16.1-20.9,31.1-16.5c0,0-16.7,2.1-24.8,16.1
				c-3.7,6.4-0.1,24.9-0.1,24.9L109.6,167.2z"></path>
			<path class="st4" d="M125.7,172.4c1.5,8-2.9,15.5-9.9,16.9s-13.9-4-15.5-12s2.9-15.5,9.9-16.9S124.2,164.4,125.7,172.4z"></path>
			<path class="st9" d="M122,172.7c1.4,7.2-2.6,14-8.9,15.2s-12.5-3.6-13.9-10.8s2.6-14,8.9-15.2S120.6,165.5,122,172.7z"></path>
		</g>
		<g id="freepik--speech-bubbles--inject-18">
			<path class="st3" d="M239.9,125c-1.8,17.1-17.1,29.6-34.3,27.8c-6.7-0.7-12.9-3.5-17.9-8.1l-15.6,2.3l7.8-13.5
				c-6.5-16,1.2-34.2,17.2-40.6c16-6.5,34.2,1.2,40.6,17.2C239.7,114.9,240.4,120,239.9,125L239.9,125z"></path>
			<path class="st0" d="M239.9,125c-0.6,5.8-2.8,11.2-6.3,15.8c-0.9,1.1-1.8,2.2-2.8,3.2c-1,1-2.1,1.9-3.3,2.8
				c-2.3,1.7-4.8,3.2-7.5,4.2c-2.7,1.1-5.5,1.7-8.4,2c-1.4,0.1-2.9,0.2-4.3,0.1c-1.4,0-2.9-0.2-4.3-0.4c-5.8-1.1-11.1-3.7-15.4-7.6
				l0.4,0.1l-15.6,2.4l-1.1,0.2l0.6-1l7.8-13.5v0.5c-3.7-9.1-3-19.3,1.9-27.8c2.4-4.2,5.8-7.7,9.8-10.4c8.1-5.4,18.2-6.7,27.4-3.7
				c4.5,1.5,8.6,4.1,12,7.4C237.4,106,240.9,115.5,239.9,125z M239.9,125c1.8-17-10.5-32.2-27.4-34c-2.6-0.3-5.3-0.2-8,0.2
				c-4.6,0.7-9,2.4-12.9,5.1c-3.8,2.7-7,6.1-9.3,10.2c-2.3,4-3.7,8.6-4,13.2c-0.3,4.6,0.5,9.3,2.2,13.6l0.1,0.3l-0.2,0.2l-7.9,13.5
				l-0.6-0.8l15.6-2.2h0.2l0.2,0.1c4.2,3.9,9.3,6.6,15,7.7c1.4,0.3,2.8,0.5,4.2,0.5c1.4,0.1,2.8,0.1,4.3,0c2.9-0.2,5.7-0.8,8.3-1.8
				c2.7-1,5.2-2.3,7.5-4.1c2.3-1.7,4.4-3.7,6.1-6C237,136.3,239.2,130.8,239.9,125z"></path>
			<circle class="st0" cx="222.4" cy="122.7" r="3.8"></circle>
			<circle class="st0" cx="208.9" cy="122.7" r="3.8"></circle>
			<path class="st0" d="M199.1,122.7c0,2.1-1.7,3.8-3.8,3.8c-2.1,0-3.8-1.7-3.8-3.8c0-2.1,1.7-3.8,3.8-3.8c0,0,0,0,0,0
				C197.4,119,199.1,120.7,199.1,122.7z"></path>
		</g>
		<g id="freepik--Devices--inject-18">
			<rect x="177.8" y="346.4" class="st9" width="6.7" height="4.4"></rect>
			<rect x="186.5" y="346.1" class="st9" width="6.7" height="4.4"></rect>
			<rect x="195.2" y="345.8" class="st9" width="6.7" height="4.4"></rect>
			<rect x="203.9" y="345.5" class="st9" width="6.7" height="4.4"></rect>
			<rect x="212.5" y="345.2" class="st9" width="6.7" height="4.4"></rect>
			<rect x="221.2" y="344.9" class="st9" width="6.7" height="4.4"></rect>
			<rect x="229.9" y="344.6" class="st9" width="6.7" height="4.4"></rect>
			<rect x="238.6" y="344.3" class="st9" width="6.7" height="4.4"></rect>
			<rect x="247.3" y="344.1" class="st9" width="6.7" height="4.4"></rect>
			<polygon class="st12" points="255.6,353.2 176.2,353.2 176.2,347.9 255.6,345.7 			"></polygon>
			<polygon class="st9" points="333.1,332.3 202,332.3 222.9,234.7 353.9,234.7 			"></polygon>
			<polygon class="st12" points="337.9,332.3 206.9,332.3 227.7,234.7 358.7,234.7 			"></polygon>
			<path class="st0" d="M294.1,277.9c-0.8,4.6-4.7,7.9-9.4,8.1c-3.7,0.1-6.8-2.8-7-6.5c0-0.5,0-1.1,0.1-1.6c0.8-4.6,4.7-8,9.4-8.1
				c3.7-0.1,6.8,2.8,7,6.5C294.3,276.8,294.2,277.3,294.1,277.9z"></path>
			<polygon class="st9" points="300.8,357.8 236.4,357.8 236.4,352.8 300.8,350.7 			"></polygon>
			<polygon class="st9" points="318.4,357.8 283.8,357.8 262.9,303.1 297.5,303.1 			"></polygon>
			<polygon class="st0" points="324.1,357.8 289.5,357.8 268.6,303.1 303.2,303.1 			"></polygon>
			<path class="st12" d="M173.8,359.1h-66.5c-5.7,0,2.5-16.1,23.2-22.3S180.3,353,173.8,359.1z"></path>
			<path class="st0" d="M147.7,359.1c0-1.8,0.4-3.7,0.9-5.4c0.5-1.8,1.3-3.5,2.2-5.1c1-1.6,2.1-3,3.5-4.3c1.4-1.2,3-2.2,4.7-2.9
				c-0.7,0.6-1.5,1-2.2,1.6l-1,0.9l-0.9,1c-1.2,1.3-2.3,2.7-3.2,4.2c-0.9,1.5-1.7,3.1-2.4,4.8C148.7,355.6,148.1,357.4,147.7,359.1z
				"></path>
			<path class="st0" d="M155.5,343.7c4,1.3,7.7,3.1,11.1,5.5c1.7,1.2,3.3,2.6,4.6,4.2c1.4,1.6,2.3,3.6,2.5,5.7
				c-0.6-2-1.6-3.7-3.1-5.1c-1.4-1.4-3-2.7-4.6-3.9c-1.6-1.2-3.4-2.3-5.1-3.3S157.4,344.7,155.5,343.7z"></path>
		</g>
	</g>
</g>
</svg>
