<svg xmlns="http://www.w3.org/2000/svg" viewBox="0 0 500 500"><g id="freepik--background-simple--inject-226"><path d="M265 78.55c-16-10.66-40.24-11.25-57-5.19-30 10.84-26 35-52 52s-51 11-76 33.06-27.26 63.81-17 83.34 22 33.86 12 67.47-9 72.65 31 93.2 71-23.26 97-14.25 75 48.9 129 37 30-52.84 65-64.49 55-51.87 43-94.34-42-50.64-35-77.35c5.28-20.17 12.36-39.58-1.1-59-17.37-25.06-47.1-35.81-75.9-33.27-10.73 1-23 1.33-34.21-1.27-12.74-2.98-18.63-10.13-28.79-16.91Z" style="fill:#717171"/><path d="M265 78.55c-16-10.66-40.24-11.25-57-5.19-30 10.84-26 35-52 52s-51 11-76 33.06-27.26 63.81-17 83.34 22 33.86 12 67.47-9 72.65 31 93.2 71-23.26 97-14.25 75 48.9 129 37 30-52.84 65-64.49 55-51.87 43-94.34-42-50.64-35-77.35c5.28-20.17 12.36-39.58-1.1-59-17.37-25.06-47.1-35.81-75.9-33.27-10.73 1-23 1.33-34.21-1.27-12.74-2.98-18.63-10.13-28.79-16.91Z" style="fill:#fff;opacity:.7000000000000001"/><path d="m419.69 227.42-168.17 39.83-.16-.11 153.25-76.4c.12-.58.23-1.16.39-1.76 2.45-9.37 5.29-18.58 6.28-27.7L251.45 266.37h-.18l141.47-149.12a77.78 77.78 0 0 0-21.06-13.61L251.09 265.57h-.19L324.19 97a119.14 119.14 0 0 1-23.32-.34l-50.39 168.28-.18.09 11.53-188.41a60 60 0 0 0-23.46-6.8l11.31 194.74-.13.14-54.63-184.43c-7.72 5.77-12.07 13-16.72 20.46l70.61 163.75-.08.17-100-135.11a108.11 108.11 0 0 1-21 7.74L248 264.69v.2L83.14 155.8c-1 .83-2.09 1.69-3.14 2.61a61.12 61.12 0 0 0-12.92 16.27l180.15 90.51.06.18L57.47 219.8c.59 8.53 2.53 16.2 5.53 21.95.5 1 1 1.9 1.51 2.83l182.21 21.32.11.16-168 19.14a78.74 78.74 0 0 1-3.23 22l170.92-40.48.16.11-176.11 87.81A63 63 0 0 0 78.76 378l167.79-110.37h.18l-131.4 138.51c10.49 3 20.34 2 29.63-.81l101.95-136.9h.19l-51.54 118.5a22.86 22.86 0 0 1 7.44 1.24 83.63 83.63 0 0 1 7.87 3.26l36.65-122.37.18-.09-8.39 137.14c5.51 2.81 11.34 5.64 17.43 8.28l-8.42-144.95.13-.14L294.87 426a104.63 104.63 0 0 0 22.31 1.17l-68-157.67.08-.17 107.44 145.2c6.77-5.26 10.56-11.54 13.37-18L250 269.31v-.2l141.66 93.76a39.33 39.33 0 0 1 5.29-2.2 63.76 63.76 0 0 0 18-9.37l-164.18-82.49-.06-.18 189.52 45.49a82.13 82.13 0 0 0 3.25-23.53l-192.2-22.49-.11-.16 181.35-20.66a133.44 133.44 0 0 0-12.83-19.86Zm-173.08 39.3.58-.14-.43.22Zm.22.86h-.18l.51-.34Zm.32.7h-.16l.36-.48ZM247 266l-.11-.12.6.07Zm.74 2.8-.14.09.17-.58Zm-.29-3.44-.06-.15.54.27Zm2.28-.71v.6l-.14-.46Zm-.83-.1.24.56-.29-.39Zm-.81.2.41.44-.4-.27Zm.26 4.52v-.6l.14.46Zm.83.1-.24-.56.29.39Zm-.09-1.57h-.29l-.26-.13-.2-.21-.11-.27v-.29l.08-.28.18-.23.24-.16.28-.07h.29l.26.13.2.21.11.27v.29l-.08.28-.18.23-.24.16Zm.49.93.4.27v.17Zm1.63-2.35h.18l-.51.34Zm-.32-.7h.16l-.36.48Zm-.55-.56.14-.09-.17.57Zm-.19 3.32.48.12.06.15Zm.44-.47.41.03.11.12Zm.26-.59.43-.22.15.08Z" style="fill:#fff"/></g><ellipse cx="247" cy="425.06" rx="156.5" ry="8.06" style="fill:#263238" id="freepik--Shadow--inject-226"/><g id="freepik--Device--inject-226"><path d="M154.84 282.15h193.31a4.29 4.29 0 0 1 4.29 4.29v124.1h0-201.9 0v-124.1a4.29 4.29 0 0 1 4.3-4.29Z" style="fill:#717171;stroke:#263238;stroke-linecap:round;stroke-linejoin:round"/><path d="M165.21 291.89h172.57a4.29 4.29 0 0 1 4.29 4.29v116.09h0-181.16 0V296.19a4.29 4.29 0 0 1 4.3-4.3Z" style="fill:#263238;stroke:#263238;stroke-linecap:round;stroke-linejoin:round"/><path d="M350.71 420.91H143.29c-9.55 0-17.29-5.78-17.29-12.91h242c0 7.13-7.74 12.91-17.29 12.91Z" style="fill:#717171;stroke:#263238;stroke-linecap:round;stroke-linejoin:round"/></g><g id="freepik--Shield--inject-226"><path d="M250.63 163.93c-13.32 12.67-47.39 25.47-87.12 52.62 0 0 2.48 91.74 87.12 141.89Z" style="fill:#717171;stroke:#263238;stroke-linecap:round;stroke-linejoin:round"/><path d="M250.63 163.93c13.31 12.67 47.39 25.47 87.12 52.62 0 0-2.48 91.74-87.12 141.89Z" style="fill:#263238;stroke:#263238;stroke-linecap:round;stroke-linejoin:round"/><path d="M250.63 171.74c-16.07 11.39-43.92 22.25-80.73 47.4 0 0 2.3 85 80.73 131.49 78.43-46.47 80.73-131.49 80.73-131.49-36.82-25.14-64.54-36.01-80.73-47.4Z" style="fill:#263238;stroke:#263238;stroke-linecap:round;stroke-linejoin:round"/><path d="M317.6 210.11c-56.16 17-99 66.35-118.48 92.38a160.89 160.89 0 0 0 51.51 48.14c78.43-46.47 80.73-131.49 80.73-131.49q-7.11-4.84-13.76-9.03Z" style="fill:#717171;stroke:#263238;stroke-linecap:round;stroke-linejoin:round"/><path d="M281.21 257.45H221a5 5 0 0 1-5-5v-28.34a35.09 35.09 0 0 1 70.17 0v28.34a5 5 0 0 1-4.96 5Zm-55.17-10h50.17v-23.34a25.09 25.09 0 0 0-50.17 0Z" style="fill:#fff;stroke:#263238;stroke-linecap:round;stroke-linejoin:round"/><path style="fill:#fff;stroke:#263238;stroke-linecap:round;stroke-linejoin:round" d="M212.33 243.79h76.6v64.73h-76.6z"/><path d="M258.59 270.67a8.34 8.34 0 1 0-12.3 7.34l-1.4 14.7h10.72l-1.4-14.7a8.32 8.32 0 0 0 4.38-7.34Z" style="fill:#263238;stroke:#263238;stroke-linecap:round;stroke-linejoin:round"/></g><g id="freepik--Icons--inject-226"><path d="m401.55 258.09-.12-1.5" style="fill:none;stroke:#263238;stroke-linecap:round;stroke-linejoin:round"/><path d="M401.14 253.6a155 155 0 0 0-307.4-6.89q-.64 4.26-1 8.55" style="fill:none;stroke:#263238;stroke-linecap:round;stroke-linejoin:round;stroke-dasharray:3.0079100131988525,3.0079100131988525"/><path d="m92.56 256.74-.12 1.49" style="fill:none;stroke:#263238;stroke-linecap:round;stroke-linejoin:round"/><path style="fill:#263238;stroke:#263238;stroke-linecap:round;stroke-linejoin:round" d="m126.99 232.03 8.86-36.05h-26.88l18.02 36.05z"/><path style="fill:#717171;stroke:#263238;stroke-linecap:round;stroke-linejoin:round" d="m126.99 232.03 1.97-34.68h-17.11l15.14 34.68z"/><path style="fill:#717171;stroke:#263238;stroke-linecap:round;stroke-linejoin:round" d="m126.99 232.03-1.83-37.38h-17.11l18.94 37.38z"/><path style="fill:#263238;stroke:#263238;stroke-linecap:round;stroke-linejoin:round" d="m95.05 192.92-4.41-4.99H67.42l10.89 44.1h48.68l-7.72-39.11H95.05z"/><rect x="117" y="124.67" width="65.33" height="38.67" rx="3.67" style="fill:#263238;stroke:#263238;stroke-linecap:round;stroke-linejoin:round"/><path style="fill:#717171;stroke:#263238;stroke-linecap:round;stroke-linejoin:round" d="M117 132h65.33v14H117z"/><path d="M168.54 157.16a2.73 2.73 0 1 0-2.73 2.73 2.73 2.73 0 0 0 2.73-2.73ZM176.13 157.16a2.73 2.73 0 1 0-2.73 2.73 2.73 2.73 0 0 0 2.73-2.73Z" style="fill:#fff;stroke:#263238;stroke-linecap:round;stroke-linejoin:round"/><path style="fill:#717171;stroke:#263238;stroke-linecap:round;stroke-linejoin:round" d="M217.11 98.76h69.96v45.36h-69.96z"/><path style="fill:#263238;stroke:#263238;stroke-linecap:round;stroke-linejoin:round" d="M220.52 101.64h63.38v39.23h-63.38z"/><path d="M239.06 129c0-4.28-3.48-11.64-7.76-11.64s-7.77 7.36-7.77 11.64 3.48 5.34 7.77 5.34 7.76-1.09 7.76-5.34Z" style="fill:#fff;stroke:#263238;stroke-linecap:round;stroke-linejoin:round"/><circle cx="231.3" cy="113.44" r="5.34" style="fill:#fff;stroke:#263238;stroke-linecap:round;stroke-linejoin:round"/><path style="fill:none;stroke:#fff;stroke-linecap:round;stroke-linejoin:round;stroke-width:2px" d="M246.82 109.11h12.93M246.82 114.71h12.93M246.82 124.63h30.17M246.82 131.96h30.17"/><rect x="324.95" y="124.67" width="63.69" height="38.74" rx="5.83" style="fill:#263238;stroke:#263238;stroke-linecap:round;stroke-linejoin:round;stroke-width:2px"/><path d="m359.34 143.07 29.3-14.82v-.68a2.9 2.9 0 0 0-2.9-2.9h-57.88a2.91 2.91 0 0 0-2.91 2.9v.81l28.77 14.76a6.25 6.25 0 0 0 5.62-.07Z" style="fill:#717171;stroke:#263238;stroke-linecap:round;stroke-linejoin:round;stroke-width:2px"/><rect x="360.43" y="192.21" width="64.37" height="32.49" rx="4.05" style="fill:#263238"/><path style="fill:#263238" d="M360.44 216.2v17.45l9.73-11.2"/><path d="M382.88 209.05a3.34 3.34 0 1 0-3.33 3.33 3.34 3.34 0 0 0 3.33-3.33ZM397.17 209.05a3.34 3.34 0 1 0-3.33 3.33 3.34 3.34 0 0 0 3.33-3.33ZM411.47 209.05a3.34 3.34 0 1 0-3.34 3.33 3.35 3.35 0 0 0 3.34-3.33Z" style="fill:#717171"/><path d="M126.65 273.27a1.68 1.68 0 0 0-1.33-.66h-43.2l-1.66-5a1.68 1.68 0 0 0-1.59-1.14H67.93a1.68 1.68 0 0 0 0 3.35h9.73l10.55 31.65a1.67 1.67 0 0 0 1.59 1.14h.61a5.71 5.71 0 0 0-.92 3.11 5.78 5.78 0 1 0 10.63-3.11h8a5.71 5.71 0 0 0-.92 3.11 5.78 5.78 0 1 0 11.55 0 5.71 5.71 0 0 0-.92-3.11h1.29a1.68 1.68 0 1 0 0-3.35H91l-1.85-5.53h31.38a1.68 1.68 0 0 0 1.62-1.24l4.78-17.76a1.66 1.66 0 0 0-.28-1.46Zm-31.39 34.87a2.42 2.42 0 1 1 2.42-2.42 2.43 2.43 0 0 1-2.42 2.42Zm17.77 0a2.42 2.42 0 1 1 2.42-2.42 2.43 2.43 0 0 1-2.45 2.42Zm4.47-17.76h-6.21V276h6.21ZM101.72 276h6.21v14.41h-6.21Zm-3.35 14.41h-6.21V276h6.21ZM83.24 276h5.56v14.41h-.75Zm37.61 8.48V276h2.28ZM399.15 265.17a24.17 24.17 0 1 0 24.16 24.16 24.19 24.19 0 0 0-24.16-24.16Zm0 3c2 0 4.18 2.62 5.72 7h-11.44c1.57-4.38 3.69-7 5.72-7Zm6.59 10a47 47 0 0 1 1.21 9.63h-15.61a47 47 0 0 1 1.21-9.63Zm1.26 12.66a45 45 0 0 1-1.66 11.17H393a45 45 0 0 1-1.61-11.13Zm-18.62-3h-10.33a21.09 21.09 0 0 1 3.12-9.63h8.28a50.92 50.92 0 0 0-1.12 9.63Zm0 3a49.49 49.49 0 0 0 1.43 11.17h-7.61a21 21 0 0 1-4.15-11.13Zm2.37 14.17a21.46 21.46 0 0 0 2.34 4.65 21.15 21.15 0 0 1-8.17-4.65Zm3.25 0h10.29c-1.47 3.5-3.36 5.54-5.14 5.54s-3.67-2.08-5.15-5.54Zm13.54 0h5.83a21.15 21.15 0 0 1-8.17 4.65 21.46 21.46 0 0 0 2.34-4.65Zm.94-3a48.93 48.93 0 0 0 1.52-11.17h10.28a21 21 0 0 1-4.19 11.17Zm1.52-14.17a50.92 50.92 0 0 0-1.12-9.63h8.28a21.09 21.09 0 0 1 3.12 9.63Zm4.9-12.63h-6.81a23.22 23.22 0 0 0-2.85-6.14 21.23 21.23 0 0 1 9.62 6.14Zm-21.77-6.14a22.91 22.91 0 0 0-2.84 6.14h-6.82a21.23 21.23 0 0 1 9.62-6.14Z" style="fill:#263238"/></g></svg>