<svg version="1.1" id="freepik_stories-secure-data" xmlns="http://www.w3.org/2000/svg" x="0" y="0" viewBox="0 0 500 500" style="enable-background:new 0 0 500 500" xml:space="preserve"><style>.st0{fill:#263238}.st1{fill:#ebebeb}.st2{fill:#c7c7c7}.st3{fill:#a6a6a6}.st4{fill:#dbdbdb}.st5{fill:#ffc4c0}.st6{fill:#bf8215}.st7{opacity:.1}.st8{fill:#455a64}.st11{fill:#37474f}.st12{opacity:.2}.st12,.st13{enable-background:new}.st13{opacity:.1}.st14{fill:#fff}</style><g id="freepik--Floor--inject-8"><path id="elnajh7i13he" class="st0" d="m32.8 447.5 57.1-.3 57.3-.1 114.3-.2 114.3.2 57.1.1 57.3.3-57.3.3-57.1.1-114.3.1-114.3-.1-57.3-.1z"/></g><g id="freepik--Shadows--inject-8"><ellipse id="eld4eqgjeg1fc" class="st1" cx="92.4" cy="488.2" rx="51" ry="9.8"/><ellipse id="elljurd4sb51" class="st1" cx="282.1" cy="487.4" rx="199.3" ry="19.6"/></g><g id="freepik--Character--inject-8"><path id="elhfx8spe50ti" class="st2" d="m337.1 316.9-3.3 20.1L311 459.9h-3.7L323.8 337l2.5-20.1z"/><path id="els7h1zdit0sp" class="st3" d="M326.3 316.9h10.8l-3.3 20.1h-10z"/><path id="el138dhjnspmn" class="st2" d="M408.5 459.9h-3.6L382.1 337l-3.4-20.1h10.8L392 337z"/><path id="elmjfql5rpfj" class="st3" d="M389.5 316.9 392 337h-9.9l-3.4-20.1z"/><path id="el4huipysjiuz" class="st2" d="M476.7 459.9h-3.6L450.4 337l-3.4-20.1h10.8l2.4 20.1z"/><path id="elsarn1yj1u5i" class="st3" d="M460.2 337h-9.8l-3.4-20.1h10.8z"/><path id="elz2d5vfaknrk" class="st2" d="M471 326.4H304.2v-17.6h62.5l32.5-182.1h88.4z"/><path id="elhvjfxxzu0f" class="st4" d="M470.3 308.8H304.2v17.6h166.7z"/><path id="el7xl0ztgzkbw" class="st4" d="M471 326.4h-9.1L479 126.7h8.6z"/><path id="elxi84b0zl08p" class="st5" d="M473.1 101.2c-2.6-2.8-13.1-10.7-22.2-15-4.4-2.1-17.7-6.8-19.6-3.6-1.9 3.3 1.9 5 1.9 5s-5.9-1.2-7.5 2.3 4.3 6 4.3 6-6.2-.8-7.5 2.8c-1.4 3.6 5 5 5 5s-5.6-1-5.5 2.5c.2 4.1 10.7 4.6 15.4 7.2 1.1.6 21 13.4 21 13.4l14.7-25.6z"/><path id="el98199he1l1" class="st0" d="M427.6 103.8c7.7.4 11.1 1.9 17.3 6.4.1.1.3-.1.2-.2-5.7-4.9-9.6-7.4-17.5-6.6-.4.1-.3.4 0 .4z"/><path id="eli0568wo8t1" class="st0" d="M429.7 95.8c8 1.2 11.6 2.8 18.4 6.9.1 0 .2-.1.1-.2-6.4-4.6-10.3-7-18.4-7.1-.3-.1-.4.3-.1.4z"/><path id="elqszsuxeeo5" class="st0" d="M433.8 87.8c7.6 1.6 11.7 3.3 17.8 8.1.2.1.3-.1.2-.2-5.8-5.6-10.8-7.6-17.9-8.2-.5 0-.6.2-.1.3z"/><path id="el0e4r3r6bg50o" class="st5" d="M462 131.2s-9.6-1.3-13.7-2.7c-4.1-1.4-17.4-12.5-15.1-15.6 2.9-3.9 11.9 1.1 15.9 4 0 0 6.7-9 13.8-6.9 7.1 2.1-.9 21.2-.9 21.2z"/><path id="el7oprlb0ukm9" class="st0" d="M434.2 112.1c5.2-1.6 10.3 2.6 14.5 5.2.2.1.5.1.6-.1 0 0 .1-.1.1-.2 3.1-3.6 8.4-7.7 13.3-7.2.1 0 .1-.1.1-.1 0-.1-.1-.1-.1-.1-5.2-1.3-10.8 2.4-13.9 6.6-4.3-2.9-9.6-6.9-14.6-4.1 0-.1 0 0 0 0z"/><path id="elcd9fj2ppaw" class="st5" d="M380.5 91.4c3.5-1.5 16.9-5.6 26.9-5.9 4.9-.1 18.9 1 19.3 4.7.5 3.8-3.7 3.8-3.7 3.8s5.9 1.4 5.9 5.1c0 3.8-6.4 3.7-6.4 3.7s5.9 1.8 5.7 5.6c-.2 3.8-6.7 2.6-6.7 2.6s5.5 1.4 4 4.4c-1.8 3.7-11.7-.1-17.1.3-1.3.1-24.7 3.7-24.7 3.7l-3.2-28z"/><path id="elz3zlbsmlbki" class="st0" d="M421.5 111.1c-7.2-2.8-10.9-2.7-18.3-1.2-.2 0-.2-.2-.1-.2 7.2-2.1 11.8-2.9 18.6 1.1.2.2.1.4-.2.3z"/><path id="eltnugec30ps" class="st0" d="M422.9 102.9c-7.7-2.2-11.7-2.2-19.7-1.2-.1 0-.2-.2 0-.2 7.7-1.6 12.3-2.3 19.8 1 .3.1.2.5-.1.4z"/><path id="el6vf0h7l7v5n" class="st0" d="M422.4 93.9c-7.7-1.6-12-1.7-19.6.2-.1 0-.2 0-.2-.1s0-.2.1-.2c7.5-2.8 12.9-2.6 19.7-.2.5.3.5.4 0 .3z"/><path id="elmuvqa2fwwe" class="st5" d="M379 122.2s9.3 2.8 13.6 3.1c4.3.3 21-4.4 20.2-8.1-1.1-4.7-11.2-3.9-16.1-2.8 0 0-2.4-10.9-9.8-11.9-7.5-.9-7.9 19.7-7.9 19.7z"/><path id="eldsdjcrqbub" class="st0" d="M412.1 116c-4.1-3.6-10.4-1.8-15.3-1.2-.3.1-.5-.1-.5-.4v-.2c-1.4-4.5-4.5-10.5-9.3-12.1-.1 0-.1-.3 0-.2 5.3 1 8.9 6.6 10 11.7 5.1-.6 11.6-2.2 15.1 2.4.1-.1.1 0 0 0z"/><path id="ellcan3vk3s9" class="st5" d="M407 162.2c-26.3-7.1-67.9-31-64.1-42.5 3.7-11.2 19.3-22.8 39.2-29 2.9-.9 2.3 5.2 3.7 15.8.7 5 9.5 18.5 5.2 18.5-2.2.1-4.4.6-6.5 1.4-1.5.6 17.2 13.1 27.6 20.9 14.2 10.6 6.2 18-5.1 14.9z"/><path id="elv3v5kk4ho3" class="st6" d="m369 154.2 29.2-18.3s17.6 10.7 21.9 16.6 1 12.4-12.6 12.4c-15.8-.1-38.5-10.7-38.5-10.7z"/><g class="st7" id="el7e68661zljt"><path id="el46mh5v13w53" d="M405.6 140.6h-15.1l2.7-1.6h9.9l2.5 1.6z"/><path id="elvgy722r7t5" d="M413.4 146.1h-31.7l2.7-1.6h26.8l2.2 1.6z"/><path id="el0mzwrrgpnvw" d="M419.5 151.6h-46.6l2.7-1.6H418c.5.6 1 1.2 1.5 1.6z"/><path id="elkgu6ikq2asc" d="M421.8 157.2h-45.4c-1.6-.6-3-1.2-4.1-1.6h49.4c0 .5.1 1.1.1 1.6z"/><path id="eln3403i0u9s" d="M420.2 161.1c-.7.7-1.4 1.3-2.3 1.6h-24.5c-2-.5-4.1-1.1-6.1-1.6h32.9z"/></g><path id="el2u1mdzbvkib" class="st0" d="M376.7 156.4c11.8-7.2 23.4-15.3 25.4-16.9.1-.1 0-.2-.1-.2-8.8 5.1-17.3 10.7-25.4 16.9 0 0-.1.1.1.2 0-.1 0 0 0 0z"/><path id="ellihbpodovj" class="st0" d="M407.4 164.7c-5.8-.2-11.5-1.1-17-2.8 7.6-5.1 16.7-11.2 23.3-15.4 2.3 1.7 4.4 3.7 6.3 5.9 4.5 5.9 1 12.3-12.6 12.3z"/><path id="elcjq9o8hzp8j" class="st5" d="M310.7 483.3c3.3.3 91.6-20.7 94.3-23.5.4-.3-1.4-8.3-4-19.3v-.2c-1.6-6.9-27.3-63-27.3-63l-57.2 15.9 26 52s-10.8 7.8-20 15.2c-5.7 4.5-10.6 8.6-11.7 9.9-2.7 3.4-3.3 12.7-.1 13z"/><path id="elcmgn7w7v35i" class="st1" d="M310.7 483.3c3.2.3 91.5-20.7 94.3-23.5.3-.3-1.4-8.3-4-19.3v-.2c-.6-2.6-4.5-12.1-9.3-22.8-9.5 2.5-43.1 11.7-55.5 15.4l6.2 12.4s-10.8 7.8-20.1 15.2c-5.7 4.5-10.6 8.6-11.7 9.9-2.5 3.3-3.2 12.7.1 12.9z"/><path id="ellmcsnwjeqbe" class="st6" d="M310.4 483.7c3.4.3 91.7-20.9 94.5-23.9 1.1-1.2-.9-15.1-5.7-29.8l-56.9 13.8s-29 23.1-31.8 26.5c-2.9 3.5-3.4 13.2-.1 13.4z"/><path id="eltxp4puigoze" class="st0" d="M310.8 479.9c14.8-4 74.5-18.4 89.3-21.1.1 0 .2.1 0 .1-14.5 4.2-74.4 18.1-89.2 21.3-.3 0-.4-.2-.1-.3z"/><path id="elpojwn4a9i2m" class="st0" d="M315.3 465.8c3.3-.9 6.9-.4 9.7 1.4 2.6 1.6 4.4 4.1 5.2 7.1 0 .1-.1.1-.2 0-2.4-5.7-8.4-9.2-14.7-8.5 0 .1 0 .1 0 0z"/><path id="elhlcotaoolx5" class="st0" d="M338 446.4c5.9-1.5 13.3-1.1 18.1 2.9.2.2 0 .4-.2.4-5.9-1.4-11.9-2.3-17.8-2.5-.2 0-.4-.2-.3-.5 0-.2.1-.3.2-.3z"/><path id="el3ew4efdw54x" class="st0" d="M333.9 449.3c5.9-1.5 13.3-1.1 18.1 2.9.2.2 0 .4-.2.4-5.8-1.4-11.8-2.3-17.8-2.5-.2 0-.4-.1-.4-.4-.1-.2.1-.4.3-.4z"/><path id="el4356z8pxne6" class="st0" d="M329.7 452.1c5.9-1.5 13.3-1.1 18.1 2.9.2.2 0 .4-.2.4-5.8-1.4-11.8-2.3-17.8-2.5-.2 0-.4-.2-.4-.4.1-.2.2-.3.3-.4z"/><path id="elt8n48gyu2jg" class="st0" d="M325.6 455c5.9-1.5 13.3-1.1 18.1 2.9.2.2 0 .4-.2.4-5.8-1.4-11.8-2.3-17.8-2.5-.2 0-.4-.1-.4-.4 0-.1.1-.3.3-.4z"/><path id="elhqfpyf44p74" class="st0" d="M393 445.5c6.7-1.5 9.2 8.8 2.5 10.3-6.7 1.8-9.2-8.6-2.5-10.3z"/><path id="el5b4makbj6tf" class="st0" d="M330.4 440.7c4.1 3.4 9.6 4.8 14.6 6.7.4.1.8-.1 1-.5v-.2c.1 0 .2-.1.2-.2v-.1c-1.7-5.3-4.8-10.1-9.1-13.8-2.5-2.1-6.9-3.7-9.3-.5-2.2 3 .2 6.6 2.6 8.6zm-1.5-4.9c-1-6.6 6.1-3 7.8-1.4 1.2 1.1 2.1 2.2 3.1 3.5 1.9 2.6 3.8 5.2 5.4 8-2.3-1.1-4.8-1.9-7.2-3-2.8-1.1-8.6-3.4-9.1-7.1z"/><path id="el3ux2pw2n8qc" class="st0" d="M366.2 437.5c-1.4-3.8-6-3.6-9-2.2-5.1 2.4-9.4 6.1-12.5 10.7-.1.1 0 .2 0 .2-.1.4.1.8.5 1h.2c5.2-.5 10.9-.3 15.9-2.3 2.9-1 6.2-3.8 4.9-7.4zm-13 7.6c-2.6.3-5.2.4-7.7.8 2.4-2.1 4.9-4.2 7.5-6.1 1.3-.9 2.6-1.7 4-2.4 2.1-1.1 9.8-2.5 7 3.6-1.4 3.2-7.7 3.8-10.8 4.1z"/><path id="el5wwt174pouc" class="st0" d="m337.4 438.4 60.8-16.3s-53.4-110.8-49.1-116.8c2.1-3.1 59.1-5.6 76.8-21.5 23-20.6 6.3-50.7 6.3-50.7h-63.7s1.2 13.3-1.3 15.3c-1.5 1.4-77.2 10-84.8 35.9-9.3 31.7 55 154.1 55 154.1z"/><path id="el8t4j5wydibw" class="st8" d="M336.4 429.5c1.6-.8 3.3-1.4 5-1.9 1.7-.6 3.6-1.3 5.3-1.8 3.5-1.2 7-2.2 10.5-3.3 7.1-2 14.2-4.1 21.4-5.9 3.8-1 11.7-3.1 12.3-3 .2 0 .3.5.1.5-6.9 2.5-14 4.6-20.9 6.9-7 2.2-14 4.3-21.1 6.2-1.9.5-4 1-5.9 1.4-2 .6-4.1 1.1-6.3 1.4-.4 0-.6-.4-.4-.5z"/><path id="elcqzgklsjjio" class="st8" d="M338.1 300.3c1.3-1.2 3.2-1.4 4.7-1.6l27.4-5.4c8.6-1.7 17.2-3.3 25.7-5.1 7-1.5 14.2-3.7 20.2-7.6 5.9-4 10.1-9.9 12.1-16.8 1.9-6.9 1.8-14.1 1-21-.2-1.7-.6-3.4-1-5.1 0-.1.2-.2.2 0 2.7 12.9 3.4 28.1-6.1 38.8-4.6 5.2-11.1 8.4-17.7 10.5-7.5 2.4-15.3 3.7-23.1 5.2l-27.4 5.4c-4.4.9-8.9 1.5-13.2 2.6-.9.1-1.7.6-2.3 1.2-.6 1-.8 2.1-.3 3.2.5 2.1 1.2 4.2 1.8 6.4 5.5 17 44.3 97.4 45.3 99.3.1.2-.2.4-.3.2-8.9-14.8-37.7-76.9-43.8-92.9-1.5-4.1-2.9-8.3-4-12.5-.4-1.8-.6-3.5.8-4.8z"/><path id="eloa41vdzl07h" class="st5" d="M155.3 485.5c3 1.3 93.7 5.9 97.2 3.9.4-.2 1-8.4 1.6-19.6l.5-10.6c.2-3.6 46.8-55.6 46.8-55.6l-65-4-39.8 58.2s-12.5 4.4-23.4 9c-6.8 2.8-12.6 5.3-14.1 6.3-3.7 2.5-6.9 11.2-3.8 12.4z"/><path id="elgly7qolax8f" class="st1" d="M266.3 443.6c-6.8 8.1-11.9 14.5-11.9 15.6l-.5 10.6c-.6 11.2-1.3 19.4-1.6 19.6-3.5 1.9-94.1-2.7-97.2-3.9-3.1-1.2.2-9.9 3.8-12.4 1.4-1 7.2-3.5 14-6.3 10.9-4.4 23.4-8.9 23.4-8.9l11.5-16.8 58.5 2.5z"/><path id="elcs5fps0isz7" class="st6" d="M154.8 485.9c3.1 1.3 93.9 5.6 97.4 3.6 1.4-.8 3.5-14.7 2.9-30.2l-58.5-2.8s-34.3 13.9-38 16.5c-3.6 2.6-6.9 11.6-3.8 12.9z"/><path id="ela8bpo48o6x5" class="st0" d="M156.3 482.3c15.2.4 76.6 3.3 91.7 4.8.1 0 .1.1 0 .1-15.1 0-76.5-3.5-91.7-4.6-.4-.1-.4-.3 0-.3z"/><path id="el9xyc3i2a755" class="st0" d="M164.6 470c3.5.1 6.7 1.5 9 4.1 2 2.3 3.1 5.2 3 8.3 0 .1-.2.1-.2 0-.8-6.3-5.5-11.2-11.8-12.3-.1.1-.1.1 0-.1-.1 0-.1 0 0 0z"/><path id="el0zgmn5fe85fe" class="st0" d="M191.8 457.8c6.1.2 13 2.7 16.6 7.9.1.2-.2.4-.3.3-5.2-3.1-10.7-5.5-16.4-7.4-.2-.1-.3-.3-.2-.5 0-.2.1-.3.3-.3z"/><path id="el775lwkoj1h3" class="st0" d="M187 459.3c6.1.2 13 2.7 16.6 7.9.1.2-.2.4-.3.3-5.2-3.1-10.7-5.5-16.4-7.4-.2 0-.4-.2-.3-.5 0-.2.2-.3.4-.3z"/><path id="elqpm4q6hdjg" class="st0" d="M182.2 461c6.1.2 13 2.7 16.6 7.8.1.2-.2.4-.3.3-5.2-3.1-10.7-5.5-16.4-7.4-.2-.1-.3-.3-.2-.5 0-.1.2-.2.3-.2z"/><path id="el0683etc2md9" class="st0" d="M177.4 462.5c6.1.2 13 2.7 16.6 7.9.1.2-.2.4-.3.3-5.2-3.1-10.6-5.5-16.3-7.4-.2-.1-.3-.3-.2-.5 0-.1.1-.2.2-.3z"/><path id="eltftjut7ayop" class="st0" d="M244.8 472.5c6.9.4 6.3 11-.6 10.6-6.8-.4-6.3-11 .6-10.6z"/><path id="el50bprzk84jr" class="st0" d="M186 450.2c3.1 4.4 8 7.3 12.2 10.5.4.2.8.2 1.1-.2.1-.1.1-.2.1-.3.1 0 .2 0 .2-.1-.2-5.6-1.8-11-4.8-15.8-1.7-2.7-5.5-5.4-8.8-3-3.1 2.3-1.7 6.3 0 8.9zm0-5.1c1-6.6 6.7-1.3 7.9.9.8 1.4 1.4 2.8 2 4.2 1.2 3 2.1 6.1 3 9.3-1.9-1.7-4.1-3.2-6.1-4.8-2.3-2.1-7.2-6-6.8-9.6z"/><path id="elnun9s1wwtj" class="st0" d="M221.3 457.2c-.3-4-4.8-5.1-8.1-4.6-5.5.9-10.7 3.3-15.1 6.8-.1.1-.1.2 0 .2-.3.3-.2.8.2 1.1.1.1.2.1.3.1 5.2 1.1 10.6 2.8 15.9 2.3 3.2-.4 7.1-2.1 6.8-5.9zm-14.5 3.6c-2.6-.5-5.1-1.1-7.6-1.4 2.9-1.4 5.9-2.7 8.9-3.8 1.4-.5 3-1 4.5-1.3 2.4-.5 10.2.4 5.8 5.4-2.5 2.8-8.5 1.7-11.6 1.1z"/><path id="elslqvgl7id7" class="st0" d="m193.7 445.7 72.7 9s71.9-86 77.7-91.8c18-17.8 82.5-48.4 101.8-76.9 17.3-25.6-.2-53-.2-53h-71c1.8 7.5 4.2 15 7.2 22.1 0 0-59 44.4-90.3 76-20.4 20.7-97.9 114.6-97.9 114.6z"/><path id="eltmeixhblh18" class="st8" d="M369.2 250.6c2 .4 4.1 1 6.1 1.7s4.1 1.5 6.1 2.4c3.9 1.8 7.7 3.8 11.4 6 .1.1 0 .2-.1.2-3.9-1.8-7.9-3.6-12-5.1l-5.8-2.3c-2-.7-4-1.4-5.9-2.4-.2 0 0-.5.2-.5z"/><path id="ele117ptw1ga" class="st8" d="M372.9 233.1c.9 3.2 1.7 6.5 2.7 9.6.5 1.4 1 2.9 1.5 4.3.5 1.2 1.3 2.5 2.7 2.8 1.6.3 2-1.2 1.8-2.4-.3-1.4-.6-3-1-4.4-.4-1.6-2.3-9.7-2.3-9.8 0-.1 0-.2.1-.3h.1c.3.2 2.3 6.4 2.7 7.9.4 1.5.9 3.1 1.3 4.6.5 1.2.6 2.4.4 3.6-.3 1.2-1.3 2-2.5 2.1.1.1.1.2.2.3.2.3.3.7.4 1s.3.7.4 1c0 .2.1.3.1.5v.6c.1.1 0 .3-.2.4-.2.1-.3 0-.4-.2-.1-.2-.2-.3-.3-.5-.1-.2-.2-.4-.3-.5-.1-.3-.2-.7-.3-1-.1-.3-.2-.7-.3-1 0-.2-.1-.4-.1-.6-.7 0-1.4-.3-1.9-.7-1-.8-1.6-1.7-2-2.9-.5-1.4-1-2.7-1.4-4.1-1.1-3.4-1.9-6.9-2.3-10.3 0-.2.1-.3.3-.4.4.1.6.3.6.4z"/><path id="eluqo7xthaows" class="st8" d="M415.4 239.8c.4 1.5.6 3.2 1 4.8.4 1.5.9 3.1 1.4 4.6.5 1.4 1.2 2.9 2.1 4.1 1 1.2 2 2.2 3.3 3.1 2.3 1.7 4.9 3.1 7.7 4 1.4.5 2.8.9 4.2 1.2.8.1 1.5.3 2.3.3.6 0 1.3.1 1.8.4.2.1.2.3.1.5 0 .1-.1.1-.1.1-1.1.4-2.2.4-3.4.2-3.7-.3-7.2-1.4-10.5-3.2-2.1-1.2-4.1-2.7-5.8-4.4-1.5-1.9-2.7-4.1-3.3-6.6-.9-2.9-1.3-6-1.3-9 .3-.1.4-.2.5-.1-.1-.1 0 0 0 0z"/><path id="el7he8oy08oc" class="st8" d="M209.6 435c1.9-.1 4 0 5.9.2 2 .1 4.1.3 6.2.4 4.1.3 8.1.7 12.1 1.2 8.1 1 16.2 1.8 24.3 3 4.2.6 13.2 1.8 13.7 2 .1.1.2.3.1.4s-.1.1-.2.1c-8.1-.4-16.1-1.3-24.2-1.9-8.1-.8-16.1-1.5-24.2-2.7-2.2-.3-4.4-.7-6.7-1.1-2.3-.3-4.7-.7-7-1.3-.2.2-.2-.3 0-.3z"/><path id="el3am1kn1x4y2" class="st8" d="M366.1 346.4c-3.8 2.4-7.4 5-11.1 7.6-3.5 2.3-6.9 4.7-10 7.4-1.5 1.4-3.1 3.1-4.4 4.7l-4.3 5c-2.9 3.4-5.8 6.7-8.6 10-1.6 1.9-3.2 3.9-4.8 5.8-1.6 2-3.2 4.1-4.9 6.1v.2h.2c3-3.4 6.1-6.6 9.1-9.8 3-3.4 5.9-6.7 8.8-10 2.9-3.4 5.5-6.7 8.5-9.7 3.1-2.9 6.4-5.5 9.9-7.8 4.1-2.9 8.1-5.8 12.1-8.8.2-.5-.1-.9-.5-.7z"/><path id="eld5m7ed53l5a" class="st8" d="M380.6 255.8c-12.2 8.5-24.7 18-36.1 27.4-11.4 9.5-22.7 19.1-33.7 28.9l-9.3 8.4c-3.1 2.9-6.1 6.5-9.2 9.3-.2.2.1.4.3.3 5.5-4.9 11.3-10.3 16.9-15.2 5.6-4.9 11.2-9.6 16.8-14.5 11.3-9.6 22.7-19.1 34.3-28.5 6.4-5.2 13.8-10.4 20.2-15.8.4-.2.1-.5-.2-.3z"/><path id="eltwcsgnxw3mh" class="st8" d="M443.4 241.5c-.7-2-1.4-4.1-2.2-6.1 0-.1-.2 0-.2.1 2.9 8.4 5.8 17.1 6.1 26.1.2 4.3-.4 8.6-1.8 12.6-1.4 3.9-3.7 7.4-6.5 10.5-5.7 6.4-12.8 11.4-19.6 16.5-7.3 5.5-14.9 10.9-22.5 16.1-7.6 5.2-15.3 10.1-23.3 15-7.9 4.8-15.8 9.2-23.6 13.8-3.8 2.2-7.3 4.8-10.6 7.8-3.3 3.1-6.2 6.5-9.2 9.8-6.3 7.2-12.5 14.5-18.7 21.8-12.4 14.6-24.6 29.4-36.6 44.5-1.4 1.8-2.9 3.7-4.3 5.5-.1.1 0 .2.1.1 12.3-15.1 24.7-30 37.2-44.9 6.3-7.3 12.5-14.7 18.8-22 6.1-6.9 11.9-14.4 19.6-19.6 3.8-2.5 7.7-4.7 11.6-6.9 4.1-2.3 8.1-4.6 12.2-7.1 8-4.8 15.9-9.8 23.6-15 7.7-5.2 15.3-10.4 22.8-16 3.8-2.8 7.4-5.6 11.1-8.4 3.2-2.4 6.2-5 9.1-7.7s5.3-5.8 7.3-9.3c2-3.6 3.2-7.6 3.7-11.7 1-8.5-1.3-17.3-4.1-25.5z"/><path id="elpo134pkyz4" class="st6" d="M363.1 245.6c1.3 2.4 89.9 22.9 90.5 22.5 1.5-1.2 6.7-82.3-16.8-118.6-4.1-6.4-14.1-7.6-19.3-6.3-2.6.7-13.1 9.6-17.9 18.6-4.9 9.1-37.3 82.3-36.5 83.8z"/><g class="st7" id="ela382rj4p19a"><path id="elyz4ap4lnpu" d="M433.6 146.1h-20.5c.8-.7 1.5-1.3 2.2-1.6h15.1c1.2.4 2.3 1 3.2 1.6z"/><path id="el4x7fqzrg1gi" d="M438.2 151.6h-30.9c.6-.6 1.1-1.2 1.6-1.6h28.3c.3.6.7 1.1 1 1.6z"/><path id="elx97kftxdibg" d="M441.1 157.2h-38.5c.4-.6.9-1.2 1.3-1.6h36.4c.3.5.6 1.1.8 1.6z"/><path id="elcqxuk9qkwne" d="M443.6 162.7h-44.3l.4-.8c.2-.3.3-.6.5-.9h42.7c.2.6.4 1.2.7 1.7z"/><path id="eln6hd00nqxac" d="M445.5 168.2h-49l.8-1.6h47.6c.2.6.4 1.2.6 1.6z"/><path id="eljtf94d43y5" d="M447.2 173.8H394l.8-1.6h52c.1.5.2 1.1.4 1.6z"/><path id="elolphyxihtbj" d="M448.7 179.3h-57.2c.3-.6.5-1.2.8-1.6h56.1l.3 1.6z"/><path id="elorf3q6npgq" d="M449.9 184.8h-61c.3-.6.5-1.2.8-1.6h59.8c.1.5.3 1.1.4 1.6z"/><path id="elhy3k3hyfedp" d="M451 190.3h-64.5c.3-.6.5-1.2.8-1.6h63.5c0 .6.1 1.2.2 1.6z"/><path id="elqbxjpkb2m9r" d="M451.9 195.9H384c.3-.6.5-1.2.8-1.6h66.9l.2 1.6z"/><path id="el6q9zq7g0yg" d="M452.7 201.4h-71.2c.3-.6.5-1.2.8-1.6h70.1c.1.5.2 1.1.3 1.6z"/><path id="el6ymqoncq7k3" d="M453.4 206.9h-74.2c.3-.6.5-1.2.8-1.6h73.3c-.1.6 0 1.1.1 1.6z"/><path id="el2g59gh4lx9l" d="M453.9 212.4h-77.2c.2-.6.5-1.2.8-1.6h76.2c.1.6.2 1.1.2 1.6z"/><path id="el29pxw3b09t3" d="M454.4 218h-80.1c.2-.6.5-1.2.8-1.6h79.2c0 .5 0 1 .1 1.6z"/><path id="elppdpecmzsxd" d="M454.7 223.5h-82.8l.7-1.6h82c.1.5.1 1.1.1 1.6z"/><path id="elk7t0abcrfv" d="M454.9 229h-85.4l.7-1.6h84.6c0 .6.1 1.1.1 1.6z"/><path id="elontev4sd75m" d="M455 234.5h-87.8l.7-1.6H455v1.6z"/><path id="el66g0rh1ao1" d="M455.1 240.1h-90.2c.2-.5.4-1.1.7-1.6h89.5v1.6z"/><path id="ela0mgvxzuozf" d="M455.1 244v1.6h-92c0-.6.2-1.2.4-1.6h91.6z"/><path id="elqmoeov00xxm" d="M455 249.6v1.6h-73.7c-2.3-.6-4.4-1.2-6.4-1.6H455z"/><path id="el5lqm27bvrv6" d="M454.9 255c0 .6 0 1.2-.1 1.6h-51.3c-2.3-.6-4.6-1.2-6.9-1.6h58.3z"/><path id="elej2xsuuurpp" d="M454.7 260.5c0 .6-.1 1.2-.1 1.6h-27.7l-7.2-1.6h35z"/><path id="elx90b1b9kms" d="M454.1 266.1c-.1.6-.2 1.2-.3 1.6h-2.3c-1.7-.4-4.4-1-7.8-1.6h10.4z"/></g><path id="elkibk8uxq4j" class="st5" d="M432.8 168.1c15.9-1.3 42.4-7 56.7-15 8.6-4.8 9.9-11.3 10.3-15.8 1.2-11.7-18.3-30.7-28.6-37.7-1.4-1-3.3 6-9.6 13.6-5.2 6.6-15.1 13.9-13.6 15.1 2.2 1.8 12.4 8.9 11.9 9.6-.9 1.4-10.2 5.4-24.3 12.3-18.8 9.4-13.9 18.9-2.8 17.9z"/><path id="elgrwvys3ztnw" class="st6" d="m474.8 163.7-27.3-21s-18.5 9-23.3 14.4c-4.9 5.5-2.1 12.2 11.5 13.5 15.4 1.5 39.1-6.9 39.1-6.9z"/><path id="el4xuxqil6c5k" class="st0" d="M467.9 164.4c-10.3-9.2-21.5-17.8-23.5-19.3-.1-.1-.2.1-.1.2 7.4 6.9 15.3 13.3 23.5 19.3.1 0 .2-.2.1-.2z"/><path id="eluxtelr3q7xm" class="st0" d="M451.4 168.4c-2 .4-4.1 1.2-5.8 2.3-.9.6-1.5 1.4-2.2 2.1-.3.4-.6.8-.9 1.3-.3.4-.5.9-.7 1.4 0 .1.1.2.2.1.3-.3.6-.8 1-1.1s.7-.7 1.1-1.1c.8-.7 1.4-1.4 2.3-1.9 1.5-1.3 3.3-2.2 5.1-2.9.1 0 .1-.1.1-.2h-.2z"/><g class="st7" id="elxhi14may2f"><path id="elfecjkxp4294" d="M452 146.1h-11.4c1.2-.6 2.3-1.2 3.2-1.6h6l2.2 1.6z"/><path id="el0y3ac3s4eov" d="M459.2 151.6h-28.1c.9-.6 1.8-1.2 2.7-1.6H457l2.2 1.6z"/><path id="elysbra7h0i8l" d="M466.3 157.2h-42.5l.1-.2c.5-.6 1.1-1.1 1.6-1.5H464l2.3 1.7z"/><path id="elzqu1tcjqr5" d="M473.6 162.7h-51.7c-.1-.6 0-1.2.1-1.6h49.4l2.2 1.6z"/><path id="elan0dic5q9m" d="M465.3 166.6c-2 .6-4.3 1.2-6.8 1.6h-31.9c-.9-.5-1.7-1-2.5-1.6h41.2z"/></g><path id="elfozz1nc6dxi" class="st5" d="M415.2 158.3c4.6 1.9 13.9-4 18.1-9.4.3-.4 1.3-16.8 1.8-20 .1-.7-21.1 1.5-21.1 1.5.5 4.2.5 8.5-.1 12.7 0 .5-3.1 13.3 1.3 15.2z"/><path id="eljiqzrkq7rxd" class="st0" d="M413.6 144.5c0 .1 0 .1-.1.2h.1c.7.2 1.3.4 1.9.5 11.1 1.5 17.1-11.4 18.9-16.4-3.5-.1-20.5 1.6-20.5 1.6.5 4.2.5 8.5-.1 12.7 0 .2-.1.3-.1.5.1.3 0 .6-.1.9z"/><path id="eliqmizt34r8e" class="st0" d="M411.3 92.7s-6.9 2.8-8.3 9.7c-1.4 6.9.2 14.4.8 14.7.7.4 7.5-24.4 7.5-24.4z"/><path id="elecf7ya8pc1j" class="st5" d="M438 103.1c2.2 7.3-1.6 28.4-6.9 33-7.5 6.8-19.8 7.4-25.6-1.6-5.6-8.8 0-36.1 5.8-40.3 8.5-6.3 23.4-1.9 26.7 8.9z"/><path id="elt1ec4g8xacf" class="st0" d="M404 111.1c-.5 1.9-.7 3.9-.8 5.9-.1 2-.2 4.1-.2 6.1 0 .1.2.1.2 0 0-2 .1-4.1.3-6s.5-4 .5-6c.2-.1.1-.1 0 0z"/><path id="elz7jt0f2z7pc" d="M431.6 135.9" style="fill:none"/><path id="el3k6dorxogmc" class="st0" d="M417 115.8s.1.1 0 0c-.2 1.5-.3 3.2.9 3.9v.1c-1.6-.5-1.4-2.7-.9-4z"/><path id="elj0mlf1huo5m" class="st0" d="M418.6 114.6c2.3.3 1.6 4.8-.5 4.6-2.1-.3-1.5-4.8.5-4.6z"/><path id="elheoc7joyrbp" class="st0" d="M409.1 115c0-.1-.1 0 0 0-.3 1.5-.7 3.2-2 3.5v.1c1.6-.1 2.1-2.3 2-3.6z"/><path id="elw40lsv921qi" class="st0" d="M408 113.2c-2.3-.5-3.1 4.1-1 4.5 2.2.6 3-4 1-4.5z"/><path id="elfx211es6g5g" class="st0" d="M420.7 112.7c-.6-.3-1.2-.6-1.7-.9-.7-.2-1.2-.7-1.5-1.3-.2-.4 0-.9.3-1.2.8-.4 1.7-.4 2.5.1.8.4 1.4 1 1.8 1.8.2.6-.1 1.2-.7 1.4-.2.2-.4.2-.7.1z"/><path id="elu0u2qkcmu9a" class="st0" d="M406.7 110.7c.7 0 1.3-.1 1.9-.2.7 0 1.4-.2 1.9-.6.3-.3.3-.8.1-1.2-.6-.7-1.4-1-2.3-.8-.9 0-1.7.4-2.3 1.1-.4.5-.3 1.2.2 1.4 0 .2.2.2.5.3z"/><path id="elm20m2xl50kt" class="st0" d="M416.9 129.3c-.4.3-.8.7-1.4.7-.5-.1-1.1-.3-1.4-.6 0 0-.1 0-.1.1.3.7 1 1.1 1.7 1.1.7-.2 1.2-.7 1.2-1.3.1 0 0 0 0 0z"/><path id="el2cxp0u2audc" class="st0" d="M416 124.8c-.9 1.1-2.2 1.6-3.6 1.7-.6 0-1.2 0-1.7-.2l-.3-.1c-.1 0-.2-.1-.3-.1-.2 0-.3-.2-.3-.4v-.2c.1-1.2.5-2.8.5-2.8-.4.2-2.6.8-2.5.2.8-4.9 2.1-9.7 4-14.5.1-.2.3-.1.3.1-.8 4.6-2.3 9-3.1 13.5.8-.2 1.5-.4 2.4-.4.2.1-.7 3.2-.8 3.7 1.8.5 3.7.1 5.2-.9.2.2.3.3.2.4z"/><path id="elbw1hg692ijq" class="st0" d="M411.4 125.9c.5.9 1.2 1.6 2 2.1.5.3 1.1.4 1.5.3 1.2-.1 1.4-1.2 1.3-2.1 0-.5-.2-1-.3-1.4-1.3.8-2.8 1.2-4.5 1.1z"/><path id="el3lsfsh6tg3w" d="M413.5 128c.5.3 1.1.4 1.5.3 1.2-.1 1.4-1.2 1.3-2.1-1.2-.1-2.4.6-2.8 1.8z" style="fill:#ff98b9"/><path id="elrggkz00tdn" class="st0" d="M436.3 120.2c-2.4.4-4-6.9-4.3-9.7-.3-2.4.1-10 .1-10.5s-11.1 5-16.6 2.4-8.6-8.4-8.3-10.9c.3-2.4 8.5-7.5 14.8-6.9 6.3.7 13.5 9.9 13.5 9.9-.9-1.4-1.5-2.7-2.2-4.1.2-.3 4 1.9 4.2 4.9 0 0-.3-3.8.1-3.8.3 0 3 3.6 1.9 5.8 0 0 3.1 3.7 2.9 7.2-.3 3.5-3.3 15.3-6.1 15.7z"/><path id="elyv90gxiixm" class="st0" d="M411.5 100.4c1.5 1.2 3.3 2.1 5.2 2.8 2.1.5 4.3.5 6.5 0 2.1-.5 4.1-1.3 6-2.4 1.6-1 3.2-2.2 4.8-3 .4-.2.8.4.5.8-3.2 3.3-7.2 5.4-11.8 6.1-4.2.6-8.5-.9-11.2-4.3 0 .1 0 0 0 0z"/><path id="elx8yc6vchrcf" class="st6" d="M417.9 122.7c-3.3-.9-5.2-4.2-4.3-7.5.9-3.3 4.2-5.2 7.5-4.3 3.3.9 5.2 4.2 4.3 7.5-.8 2.7-3.2 4.6-6 4.5-.4 0-1-.1-1.5-.2zm-3.6-7.4c-.8 2.9 1 5.8 3.8 6.6 2.9.8 5.8-1 6.6-3.8.8-2.9-1-5.8-3.8-6.6-.4-.1-.9-.2-1.4-.2-2.4 0-4.5 1.7-5.2 4z"/><path id="elsdx2j5436lo" class="st6" d="M405.1 121c-2.5-.3-4.1-3.4-3.8-6.8.2-1.5.8-3 1.8-4.1 1.4-1.6 3.8-1.9 5.4-.6.5.4.9.9 1.2 1.4.7 1.4 1 2.9.8 4.4-.4 3.2-2.6 5.6-4.9 5.5l-.5.2zm-1.4-10.4c-.9 1.1-1.4 2.3-1.6 3.7-.4 2.9 1 5.5 3.1 5.8 2 .3 4.1-1.9 4.4-4.8.2-1.4 0-2.7-.7-4-.5-1-1.4-1.6-2.4-1.8h-.3c-1 0-1.9.5-2.5 1.1z"/><path id="elfp9miwrbag" class="st6" d="m413.6 115.8.6-.6c-.9-.9-2.8-2.2-4.5-.8l.5.7c1.6-1.3 3.3.7 3.4.7z"/><path id="el9fk0puk9xx" class="st6" d="m440.8 121 .8-.3c-.1-.4-1.4-3.6-3.1-4.1-1.7-.5-12.7-.9-13.2-1v.9c3.2.1 11.8.5 13 .9 1.1.4 2.1 2.7 2.5 3.6z"/><path id="el64s1ivouq6i" class="st5" d="M433.4 120.3s4.9-6.7 8-4.9c3.1 1.7-.8 11.5-4.4 12.8-1.8.8-4.1-.1-4.8-1.9 0-.1 0-.1-.1-.2l1.3-5.8z"/><path id="eloogifw5lnj" class="st0" d="M440.3 118.2c-2.6 1-4 3.3-4.9 5.8.6-1 1.8-1.3 2.8-.7.1.1.2.1.3.2.1 0 0 .2-.1.1-.9-.3-1.9 0-2.5.8-.5.6-.9 1.3-1.3 2-.1.2-.5.1-.5-.2 0-3.4 2.7-7.8 6.2-8z"/><path id="el9my1hnrahpo" class="st0" d="M441.9 115.4c-.7-.5-1.6-.7-2.4-.4-.1 0-.1.1 0 .1.5-.1 1-.1 1.4 0 .4.1 1.5.6 1.5 3-.2 1.9-.7 3.8-1.5 5.4 0 .1.1.1.1.1.6-1.1 1-2.2 1.4-3.4.4-1.3.8-3.8-.5-4.8z"/><path id="elh1utt0doqxv" class="st0" d="M435.1 150.5c-.8.9-1.5 1.8-2.4 2.7-.9.9-1.8 1.7-2.7 2.5-1.8 1.5-3.9 2.8-6 4-2.2 1.4-4.7 1.9-7.3 1.6-2.3-.4-4.3-2-5-4.3-1.1-2.9-.4-6 .4-9 0-.1-.1-.2-.2 0-.8 3.1-1.4 5.7-.9 8.6.4 2.3 1.8 4.2 4 5.2 5.1 2.1 10.5-1.5 14.3-4.7 1.1-1 2.1-1.9 3.2-3s2-2.2 2.9-3.5c-.1-.1-.2-.2-.3-.1z"/></g><g id="freepik--Table--inject-8"><path id="eldypy454eln" class="st11" d="M64.1 262.4h413.1v14.7H64.1z"/><path id="el3w3az6reiqk" class="st8" d="M64.1 271.4h413.1v5.7H64.1z"/><path id="el9bn1ns5bo5" class="st8" d="M78.9 483.3H73l17.3-206.1h15.2z"/><path id="el706ybhsgex" class="st0" d="m105.5 277.2-1.9 13.8H89.2l1.1-13.8z"/><path id="eld4amlqoqs5q" class="st8" d="M462.5 483.3h5.9l-17.3-206.1h-15.2z"/><path id="elxexf1zkz70f" class="st0" d="m435.9 277.2 1.8 13.8h14.5l-1.1-13.8z"/></g><g id="freepik--Device--inject-8"><path id="elcq9wgfw02f" class="st8" d="M319.5 262.4h63.8v-4.9l-63.8-2.1z"/><path id="el7sap0nv9s1l" class="st11" d="M269.3 262.3h42.2c3.6 0-1.6-10.2-14.8-14.2-13.1-3.8-31.5 10.4-27.4 14.2z"/><path id="el2aaa6dv82cf" class="st0" d="M285.8 262.3c-.7-2.1-1.6-4.2-2.7-6.2-.6-1-1.3-1.8-1.9-2.7-.8-.9-1.6-1.6-2.5-2.3 1.2.3 2.2.9 3.1 1.6.9.8 1.7 1.7 2.3 2.7.6 1.1 1.1 2.1 1.4 3.3.2 1.3.4 2.5.3 3.6z"/><path id="elgkjyv5t401l" class="st0" d="M280.8 252.6c-2.2 1.4-4.4 2.7-6.5 4.2-1.1.7-2 1.5-2.9 2.4-1 .9-1.6 1.9-2.1 3.1 0-1.4.6-2.7 1.4-3.7.9-1.1 1.8-1.9 2.9-2.7 1.1-.8 2.2-1.4 3.5-2 1.2-.6 2.4-1 3.7-1.3z"/><path id="elekwsog2u91c" class="st8" d="M239.1 242.5h102.4l-16.3-76.2H222.8z"/><path id="el24xnoiepwu6" class="st11" d="M235.3 242.5h102.3l-16.2-76.2H219z"/><path id="elotn0trx0zma" class="st0" d="M290.5 215.2h2.4l-3.6-17h-2.4z"/><path id="eli78ufupgoaf" class="st0" d="M285.8 215.2h2.3l-3.6-17h-2.4z"/><path id="el6v3gzlgdqa" class="st0" d="M281.1 215.2h2.3l-3.6-17h-2.4z"/><path id="elebjsk5hoaul" class="st0" d="M276.2 215.2h2.5l-3.6-17h-2.4z"/><path id="elglnynhan4cf" class="st0" d="M271.5 215.2h2.4l-3.6-17h-2.4z"/><path id="elwgtcok2gb9h" class="st0" d="M266.8 215.2h2.4l-3.7-17h-2.4z"/><path id="elvwzilfoywmj" class="st0" d="M262.1 215.2h2.4l-3.7-17h-2.4z"/><path id="el10815fhyhgd8" class="st8" d="M264.3 262.4h50.3v-3.8l-50.3-1.7z"/><path id="el1pdjhxbd54n" class="st8" d="M250.6 262.4h27l16.3-42.6h-27.1z"/><path id="elm1448i5adk" class="st0" d="M246.1 262.4h27.1l16.2-42.6h-27z"/></g><g id="freepik--Shield--inject-8"><path id="elp1xm0br1gkq" class="st6" d="M241.2 105.1s-6.2 50.3-16.6 61.6c-12.4 13.5-21.3 11.5-26.3 18.5-5-7-14-5-26.3-18.6-10.3-11.3-16.6-61.6-16.6-61.6 27.2-13.2 42.9-28 42.9-28 .4.6 16.1 15.1 42.9 28.1z"/><path class="st12" d="M198.2 77.2v108.1c-5-7-14-5-26.3-18.6-10.3-11.3-16.6-61.6-16.6-61.6 27.2-13.2 42.9-27.9 42.9-27.9z" id="el9vnhy6m7lv6"/><path class="st13" d="M241.2 105.1s-6.2 50.3-16.6 61.6c-12.4 13.5-21.3 11.5-26.3 18.5v-108c.4.4 16.1 14.9 42.9 27.9z" id="elau09896uhpl"/><path id="eleq4r6qoanke" class="st6" d="M234.5 109.2s-5.3 42.5-14 52c-10.4 11.5-18 9.7-22.3 15.7-4.2-5.9-11.8-4.2-22.3-15.7-8.7-9.6-14-52-14-52 23-11.1 36.3-23.6 36.3-23.6s13.4 12.4 36.3 23.6z"/><path id="elql24h9lhhai" class="st14" d="M187.4 125.1h21.8v19.8h-21.8z"/><path id="elxemj5mlqais" class="st14" d="M207 131.3h-2.2v-8.8c-.2-3.6-3.2-6.4-6.8-6.2-3.4.1-6.1 2.8-6.2 6.2v8.8h-2.2v-8.8c.2-4.8 4.2-8.6 9.1-8.4 4.5.2 8.2 3.9 8.4 8.4l-.1 8.8z"/><path id="elhisyp6e1ayq" class="st11" d="m199.2 135.2.9 4.3h-3.9l.9-4.3c-.9-.6-1.2-1.7-.6-2.7.6-.9 1.7-1.2 2.7-.6.9.6 1.2 1.7.6 2.7-.2.4-.4.5-.6.6z"/></g><g id="freepik--Letter--inject-8"><path id="el1d54co0ed9r" class="st6" d="M127.2 243.7H64.1v-53.4l31.5-19.9 31.6 19.9z"/><path class="st12" d="M127.2 243.7H64.1v-53.4l31.5-19.9 31.6 19.9z" id="el7z813p4td2j"/><path id="eli9q7cvmnp2" class="st1" d="M123.6 235.2h-56v-71.8h41.5l14.5 13.6z"/><path id="el17qp9zpda6x" class="st4" d="m109.1 163.4 14.5 13.6h-14.5z"/><path class="st4" d="M73.1 175.5h31.1v1.8H73.1z" id="elmixz7mq6pt"/><path class="st4" d="M73.1 180.1h31.1v1.8H73.1z" id="el7jwtzfqcson"/><path class="st4" d="M73.1 184.7h31.1v1.8H73.1z" id="elhue9lcd6ygf"/><path class="st4" d="M73.1 189.4h45.5v1.8H73.1z" id="elpyroywbdn1h"/><path class="st4" d="M73.1 194h45.5v1.8H73.1z" id="elufakg0zmuxo"/><path class="st4" d="M73.1 198.7h45.5v1.8H73.1z" id="el2i85kpbgv3f"/><path class="st4" d="M73.1 203.4h45.5v1.8H73.1z" id="el7lf8o4qojg3"/><path class="st4" d="M73.1 208h45.5v1.8H73.1z" id="el3omlppopwf5"/><path class="st4" d="M73.1 212.6h45.5v1.8H73.1z" id="elfwuyfs2d02d"/><path class="st4" d="M73.1 217.4h45.5v1.8H73.1z" id="el500kshhf2vy"/><path class="st4" d="M73.1 222h45.5v1.8H73.1z" id="elnas7x7vuhah"/><path class="st4" d="M73.1 226.6h45.5v1.8H73.1z" id="el9o3p1qz7doq"/><path id="eljos5byepqd" class="st6" d="M127.2 203.7v39.9H64.1v-39.9c2.7 1.5 5.4 3.1 8.1 4.7 2.7 1.5 5.3 3.2 8 4.8 3 1.8 5.9 3.6 8.9 5.5h.1l-.1.1 6.7 4.1c2.2-1.4 4.4-2.8 6.7-4.1l-.1-.1h.1c3-1.8 5.9-3.7 8.9-5.5 2.6-1.6 5.3-3.2 8-4.8 2.4-1.6 5.1-3.2 7.8-4.7z"/><path id="elokf3v0anf2p" class="st14" d="M127.2 203.7c-2.5 1.8-5.1 3.5-7.7 5.2-2.6 1.8-5.2 3.5-7.8 5.1-2.6 1.7-5.4 3.6-8.2 5.3l-.3.2-7.2 4.6-.4.2-.4-.2c-2.4-1.5-4.8-3.1-7.2-4.6-.1 0-.2-.1-.3-.2-2.7-1.7-5.5-3.5-8.2-5.3s-5.2-3.5-7.7-5.1c-2.6-1.6-5.2-3.5-7.7-5.2 2.7 1.5 5.4 3.1 8.1 4.7 2.7 1.5 5.3 3.2 8 4.8 3 1.8 5.9 3.6 8.9 5.5l6.7 4.1c2.2-1.4 4.4-2.8 6.7-4.1 3-1.8 5.9-3.7 8.9-5.5 2.6-1.6 5.3-3.2 8-4.8 2.4-1.6 5.1-3.2 7.8-4.7z"/><path id="elt64wedvxzi9" class="st14" d="m89.1 218.6-1.1.9c-1.5 1.4-3.2 2.6-4.8 3.9-2 1.5-4.1 3-6.1 4.4-2 1.4-4.1 2.9-6.3 4.2s-4.2 2.7-6.5 4c1.9-1.6 3.9-3.3 5.9-4.7 2-1.5 4.1-3 6.1-4.4s4.1-2.9 6.3-4.2c1.7-1.2 3.5-2.1 5.2-3.2l1.3-.9z"/><path id="elf2s2szs02qe" class="st14" d="M127 236c-2.2-1.3-4.3-2.6-6.5-4l-6.3-4.2c-2.1-1.4-4.1-2.9-6.2-4.4-1.6-1.3-3.3-2.5-4.8-3.9-.4-.3-.7-.6-1-.9l-.1-.1h.1l1.3.7c1.7 1 3.5 2 5.2 3.2l6.3 4.2c2 1.4 4.1 2.9 6.1 4.4 1.9 1.7 4 3.3 5.9 5z"/><circle id="el3kdgsn7tpmr" class="st11" cx="127" cy="243.5" r="10.3"/><path id="elqp9fgry70me" class="st14" d="M121.9 240.9h10.3v9.4h-10.3z"/><path id="ela54ealds94g" class="st14" d="M131.1 243.8h-1v-4.1c-.1-1.7-1.5-3-3.3-2.9-1.5.1-2.8 1.4-2.9 2.9v4.1h-1.1v-4.1c-.1-2.3 1.6-4.2 3.9-4.3 2.3-.1 4.2 1.6 4.3 3.9v4.5z"/><path id="elt6aivyp43g" class="st11" d="m127.4 245.6.5 2H126l.4-2c-.3-.2-.4-.5-.4-.8 0-.5.4-1 .9-1s1 .4 1 .9c0 .4-.2.8-.5.9z"/></g><g id="freepik--Password--inject-8"><path id="elfnb6dz9f3cu" class="st14" d="M68.2 138.6H174v16H68.2z"/><path id="elswq9y7bo0x" class="st1" d="M174.7 155.2h-107V138h106.9l.1 17.2zm-105.9-1.1h104.7v-14.9H68.8v14.9z"/><circle id="elr7c479p1xg" class="st11" cx="65.4" cy="146.6" r="10.3"/><path id="elnl5bcut4kf" class="st14" d="M60.3 144h10.3v9.4H60.3z"/><path id="elisfiqi3dje" class="st14" d="M69.6 146.9h-1.1v-4.1c0-1.7-1.4-3.1-3.1-3.1-1.7 0-3.1 1.4-3.1 3.1v4.1h-1.1v-4.1c0-2.3 1.8-4.1 4.1-4.1s4.1 1.8 4.1 4.1v4.1z"/><path id="eljnrupeikjcm" class="st11" d="m65.9 148.8.4 2h-1.8l.5-2c-.3-.2-.5-.5-.5-.8.1-.5.5-.9 1.1-.8.4 0 .8.4.8.8-.1.4-.3.7-.5.8z"/><path id="elvpvrwqy5y6" class="st11" d="M85.5 143.3h1.2v7.3h-1.2z"/><path id="elrmimnf316se" class="st11" d="M82.4 146.3h7.3v1.2h-7.3z"/><path class="st11" d="M82.4 146.3h7.3v1.2h-7.3z" id="ela8xorotb09"/><path class="st11" d="M85.5 143.3h1.2v7.3h-1.2z" id="el0vrr5d1r5aw"/><path id="elxzm3c8ud8h" class="st11" d="M97.9 143.3h1.2v7.3h-1.2z"/><path id="el5torvpvyn7f" class="st11" d="M94.9 146.3h7.3v1.2h-7.3z"/><path class="st11" d="M94.9 146.3h7.3v1.2h-7.3z" id="el1d9hz2a2jo"/><path class="st11" d="M97.9 143.3h1.2v7.3h-1.2z" id="elm3g9ol7z4e"/><path id="elvlm7s0afbfm" class="st11" d="M110.4 143.3h1.2v7.3h-1.2z"/><path id="ely8iyj3xslwr" class="st11" d="M107.3 146.3h7.3v1.2h-7.3z"/><path class="st11" d="M107.3 146.3h7.3v1.2h-7.3z" id="elnl5xsf8urvl"/><path class="st11" d="M110.4 143.3h1.2v7.3h-1.2z" id="el8estwdm8pdx"/><path id="el981aipjvhc6" class="st11" d="M122.8 143.3h1.2v7.3h-1.2z"/><path id="elbg1nqe6pe3n" class="st11" d="M119.8 146.3h7.3v1.2h-7.3z"/><path class="st11" d="M119.8 146.3h7.3v1.2h-7.3z" id="el78z3i2u42p"/><path class="st11" d="M122.8 143.3h1.2v7.3h-1.2z" id="elg1ebt8omq9c"/><path id="elvbu5illwu9q" class="st11" d="M135.3 143.3h1.2v7.3h-1.2z"/><path id="el8tom2xgfphk" class="st11" d="M132.2 146.3h7.3v1.2h-7.3z"/><path class="st11" d="M132.2 146.3h7.3v1.2h-7.3z" id="elmvf82m8x6m"/><path class="st11" d="M135.3 143.3h1.2v7.3h-1.2z" id="el5zmqjcyk1um"/><path id="eleujucf283w9" class="st11" d="M147.7 143.3h1.2v7.3h-1.2z"/><path id="eluwx5i9qq97r" class="st11" d="M144.6 146.3h7.3v1.2h-7.3z"/><path class="st11" d="M144.6 146.3h7.3v1.2h-7.3z" id="elz2f9kvebb4h"/><path class="st11" d="M147.7 143.3h1.2v7.3h-1.2z" id="ele3zal1t4rqe"/></g><g id="freepik--Plant--inject-8"><path id="eljnz432uogi" class="st6" d="M84.6 393.4S59 387.6 45 374.7c-14-12.9-21.8-36-21.8-36 9.7 1.8 19.3 4.4 28.7 7.5 2.3 2.4 6.7 7.5 8.7 12.3.2-2.9.3-5.9.1-8.8 3.3 1.4 6.4 3.3 9.1 5.5 11.5 10.3 14.8 38.2 14.8 38.2z"/><path id="elv4uct3c5dj" class="st0" d="M39.2 350c-3.5-2.4-7-4.7-10.5-7.1-.1-.1-.1-.2 0-.3.1-.1.1-.1.2-.1 6.6 4 13.1 8.1 19.4 12.5 2.2 1.5 4.3 3.1 6.5 4.7l-.5-.8c-.8-1.3-1.5-2.5-2.4-3.8-1.6-2.6-3.4-5-5.4-7.2-.1-.1 0-.2.1-.1 2 2.3 4 4.6 5.8 6.9.9 1.2 1.6 2.3 2.4 3.6.4.7.8 1.3 1.2 1.9l.4.7c3.3 2.6 6.6 5.3 9.6 8.2 1.9 1.7 3.8 3.6 5.5 5.5-1-3.1-1.8-6.2-3-9.3 0-.1.1-.1.2 0 1.2 3.2 2.3 6.4 3.2 9.6 1.9 2.1 3.9 4.3 5.6 6.6 0-.1 0-.3-.1-.4l-.9-3.6c-.6-2.3-1.3-4.6-2.1-6.9-1.4-4.7-3.9-9.1-6.9-12.9-.1-.1 0-.2.1-.1 5 5.9 7.9 13 9.7 20.5.3 1.1.5 2.2.8 3.3.1.6.3 1.2.4 1.7.8 1.1 1.5 2.1 2.3 3.2 4.3 6.7 8 13.8 10.8 21.2 3.2 8.4 5.9 16.9 8.2 25.5 0 .2-.2.2-.3.1-5-15-10.1-30.1-18.6-43.4-1.8-2.8-3.8-5.5-5.8-8.2-4.2-.3-8.4-1.1-12.4-2.5-4.3-1.4-8.6-3.5-12.4-6-2.2-1.4-4.3-3.1-6.4-4.8 0 0-.1-.1 0-.1 0 0 .1-.1.1 0 3.6 2.9 7.5 5.2 11.7 7 4.1 1.9 8.5 3.4 12.9 4.3 1.9.4 3.8.7 5.8 1-2.3-2.9-4.9-5.7-7.5-8.4-.9-.9-1.7-1.6-2.6-2.5-3-2.1-6.2-3.9-9.5-5.4-4.1-2-8.3-4.1-12.4-6.3-2.3-1.2-4.6-2.4-7-3.6-.1-.1 0-.2.1-.2 4.2 2 8.5 4 12.6 5.9 4 1.8 8.1 3.7 11.9 5.8l.5.3c-3.5-3-7-5.9-10.7-8.7-3.7-2.4-7-4.9-10.6-7.3z"/><path id="el0nzw52zwc9ko" class="st0" d="M40.7 363.1c2 .9 4.1 1.7 6.3 2.7 2.1 1 4.1 2.1 6.2 3.4.1.1 0 .2-.1.1-2-1-4.1-1.9-6.1-2.9-2-1.1-4.1-2.1-6.3-3.1-.2 0-.2-.2 0-.2z"/><path id="elklndck0cebm" class="st6" d="M167.6 264.7c-4.7 6.1-7.4 13.5-7.6 21.2-.1 2.3.3 5.5.6 9.3-9.6 5-16.7 14.3-16.7 14.3 5.4-3.3 12.8-4.6 16.9-4.1-.1 2.6-.5 5.1-1 7.6-1.7-.1-5.2.1-10.8 2.1 3.4 0 6.7.6 9.7 1.9-4.5 14.5-18 29.3-55.5 35.7-4-17.8-1.6-36.4 6.7-52.6 11.1-21.9 57.7-35.4 57.7-35.4z"/><path id="el5ptmt0z7656" class="st0" d="M90.2 414.8c.7-6.2 1.4-12.4 2.4-18.5 1.9-12.4 4.4-24.5 7.5-36.6 1.4-5.7 3.3-11.2 5.4-16.7-.1-1-.2-2-.1-3v-3.6c0-2.4.1-4.8.4-7.1.4-4.7 1.2-9.5 2.3-14 .7-2.7 1.4-5.3 2.3-7.9 0-.1.2-.1.2 0-1.3 4.6-2.1 9.3-2.8 14-.7 4.6-1.1 9.4-1.3 14 0 1.3-.1 2.6-.1 3.9v1.6c1.8-4.4 4-8.8 6.3-12.9 3.8-6.7 8.1-13.1 12.8-19.1 0-.7.1-1.4.3-2.1.2-.9.4-1.6.6-2.5.4-1.7.8-3.5 1.3-5.1 1-3.4 2.1-6.7 3.2-10 0-.1.2-.1.2 0-1 3.3-1.6 6.8-2.4 10.1-.4 1.6-.8 3.4-1.2 5-.2.9-.4 1.6-.6 2.5v.2c1.5-1.9 3.1-3.8 4.6-5.6 7.1-8.4 15-16.1 22.9-23.7 1-1 1.9-1.8 2.9-2.8h.1v.1c-7.5 7.8-15 15.8-22 24.1-1.6 2-3.3 4-4.9 6 .9-.6 1.7-1.2 2.5-1.6 2.2-1.4 4.3-2.8 6.7-4.1 2.3-1.3 4.5-2.5 6.9-3.7 2.4-1.2 4.9-2.1 7.2-3.5.1-.1.2.1.1.2-2.3 1.1-4.6 2.3-6.9 3.8-2.3 1.4-4.6 2.7-6.8 4.1-2.2 1.4-4.4 2.8-6.6 4.1-1.8 1.2-3.6 2.5-5.5 3.6-4.3 5.6-8.3 11.4-12 17.5-2.2 3.8-4.3 7.7-6.2 11.8l1.4-.6 3.5-1.5c2.2-1 4.4-1.9 6.7-2.9 4.1-1.8 8.5-3.5 12.5-5.5 2.3-1.1 4.5-2.3 6.8-3.8.1-.1.2.1.1.2-7.6 5.3-16.3 9-24.7 12.7l-3.7 1.6c-1.1.5-2 1-3.1 1.4-2.5 5.6-4.6 11.4-6.4 17.3-3.3 11.9-6 23.9-8.1 36.2-2.1 12.2-3.6 24.5-4.7 36.9-.2 1.5-.3 3.1-.5 4.6 0 .3-.2.5-.5.5s-.5-.2-.5-.5c.3-6.6.9-12.9 1.5-19.1z"/><path id="elcn3umbv0dsh" class="st0" d="M113 311.6c.7-3.8 1.7-7.5 2.7-11.2 0-.1.2-.1.2 0-1 3.7-1.6 7.3-2.3 11.1-.7 3.7-1.4 7.5-1.8 11.4 0 .1-.1.1-.1 0 .1-3.9.6-7.6 1.3-11.3z"/><path id="elayc0uu4zl78" class="st0" d="M129.1 321.8c2.6-1.7 5.3-3.3 8.1-4.6 1.4-.7 2.7-1.4 4.1-2 1.4-.7 2.9-1.3 4.3-1.9.1 0 .1 0 .1.1v.1c-1.4.7-2.7 1.5-4.1 2.2s-2.8 1.5-4.1 2.3c-2.7 1.4-5.4 3.1-8.3 4.2-.1.1-.2 0-.3-.1.1-.1.1-.2.2-.3z"/><path d="M84.1 349.2s-23.6-5.7-34.4-21.5c-10.3-15.1-13.7-40.9-14-43.2.4 2 5.3 24.6 21.4 35.1 12.3 8.1 24.2 14.7 27 29.6z" style="fill:#263238;enable-background:new;opacity:.1" id="elis1niby75wb"/><path id="el1bstmens2tgj" class="st0" d="M62.3 308.3c4.2 3.9 7.2 8.9 8.7 14.4m0 0c-1.7-5.4-4.7-10.3-8.8-14.3-.1 0 0-.2.1-.1l8.7 14.4z"/><path id="elr4vvstyzsfg" class="st6" d="M84.1 349.2s-23.6-5.7-34.4-21.5c-10.3-15.1-13.7-40.9-14-43.2v-.2s11.4 16.1 23.3 20.3c11.8 4.1 28.6 18.3 25.1 44.6z"/><path id="elpv5yer00g5" class="st0" d="M39.9 293.2c2.1 4.3 4.5 8.5 7.2 12.4 2.8 3.8 6 7.1 9.7 10 3.2 2.5 6.7 4.8 9.8 7.3l-.1-.1c-.6-.9-1.3-1.8-1.9-2.6-1.4-1.7-2.8-3.4-4.3-5-2.9-3.2-6-6.3-8.6-9.7-1.4-1.9-2.7-4-3.8-6.1 0-.1.1-.2.2 0 3.9 8 11.5 13.1 17 19.9.8 1 1.5 1.9 2.2 3 .6.8 1 1.5 1.4 2.4 3 2.4 5.7 5.1 8.1 8.1-.2-1.5-.5-3.1-1-4.6-.6-2.1-1.4-4.1-2.5-6 0-.1.1-.2.2-.1 1.2 1.8 2 3.9 2.8 6 .5 1.6.8 3.4.9 5.1 1.2 1.5 2.2 3.3 3.2 4.9-.1-.5-.2-1.1-.3-1.5-.5-2.3-1-4.7-1.5-7-1.2-4.7-3-9.2-5.7-13.2 0-.1 0-.1.1-.1h.1c2.7 4.1 4.8 8.4 6.3 13 .8 2.3 1.4 4.6 1.9 7 .3 1.2.5 2.3.7 3.5.1.6.3 1.3.4 1.8 2.3 5.1 4.1 10.5 5.4 16 2.3 9.8 4.1 19.9 5 29.9 1.3 10.5 1.7 21.1 1.6 31.7 0 1.4-.1 2.6-.2 4 0 .3-.5.4-.6 0-.2-5.2-.4-10.5-.7-15.7-.3-5.2-.8-10.5-1.4-15.7-1.1-10.2-2.7-20.5-4.9-30.6-1.9-8.7-4.4-17.4-9.2-24.9-2.3-3.8-5.2-7.1-8.5-10.1s-6.9-5.6-10.3-8.3c-3.6-2.7-6.8-5.8-9.6-9.3-2.9-3.8-5.5-7.9-7.6-12.2-.5-1-1.1-2.1-1.5-3.2-.2 0 0-.1 0 0z"/><path id="eludac7q7q1z" class="st0" d="M43.9 296.7c1.5 3.2 3.3 6.3 5.3 9.3 0 .1-.1.1-.1.1-2-3-3.7-6.1-5.2-9.4-.2 0 0-.1 0 0z"/><path id="el06nymamh8k1y" class="st6" d="M170.9 338.7s.4 33.6-19.7 43.3-30.9 1.6-44.5 4.9c.5-.8 10.2-14.8 25.8-18.6 15.9-4 33.6-15.6 38.4-29.6z"/><path class="st13" d="M170.9 338.7s.4 33.6-19.7 43.3-30.9 1.6-44.5 4.9c7.2-3.5 15-5.7 22.9-6.8 12.6-1.5 36.8-9.7 41.3-41.4z" id="elgexlwspdpq9"/><path id="el8526muboc97" class="st0" d="M105.4 387.6c2.4-2.2 5.1-4 8-5.4.5-.2.9-.4 1.4-.6.2-.3.5-.5.7-.8.6-.7 1.3-1.3 1.9-1.8 1.3-1.1 2.6-2 4.1-2.9 3.4-1.9 6.9-3.4 10.3-5.1h.1v.1c-1.6.9-3.3 1.8-4.9 2.8-1.6 1-3.2 1.8-4.7 2.8-1.4.9-2.7 1.9-4 3-.4.3-.7.7-1.1 1 2.2-.8 4.5-1.4 6.8-1.8 3.7-.8 7.4-1.3 11.1-2 1.8-.4 3.6-.9 5.3-1.4 1.6-1.4 3.4-2.7 4.9-4.1 1.9-1.7 3.7-3.7 5.2-5.8.1-.1.2 0 .2.1-2.4 3.3-5.2 6.4-8.2 9.1.9-.3 1.7-.7 2.6-1.1 6.9-3.1 12.8-8 17.1-14.2.1-.1.2 0 .2.1-3.7 5.3-8.4 9.8-13.8 13.3-2.7 1.7-5.7 3.1-8.8 4.1-3.6 1.2-7.2 1.9-10.9 2.6-3.6.6-7.1 1.4-10.6 2.5-3.2 1.1-6.2 2.7-8.9 4.7-5.1 4-9.3 9.1-12.1 15-3.8 7.6-5.6 16.1-6.7 24.5 0 .4-.6.4-.6 0 .7-14.3 4.5-29 15.4-38.7z"/><path id="elg0t3s91t1r" class="st0" d="M128.7 376.6c1.1-1.5 2.5-2.9 4.1-3.8 1.9-1 3.6-2.4 4.9-4.1.1-.1.2 0 .2.1-1.2 1.5-2.7 2.9-4.3 3.9-1.8 1-3.5 2.3-4.7 3.9-.2.1-.3 0-.2 0z"/><path id="elr4vr1jwqag" class="st11" d="m118 412.3-.9 18.5-2.8 56.4H72.2l-2.8-56.4-.9-18.5z"/><path id="eldfpgmv1crfo" class="st0" d="m118 412.3-.9 18.5H69.4l-.9-18.5z"/><path id="elxh4rgqbjcm8" class="st11" d="M65.5 404.6H121v17.7H65.5z"/></g></svg>