<svg version="1.1" id="Layer_1" xmlns="http://www.w3.org/2000/svg" x="0" y="0" viewBox="0 0 386 369.1" style="enable-background:new 0 0 386 369.1" xml:space="preserve"><style>.st0{fill:#263238}.st1{fill:#ebebeb}.st2{fill:#dbdbdb}.st3{fill:#fff}.st4{fill:#c7c7c7}.st5{fill:#a6a6a6}.st6{fill:#ffc4c0}.st7{fill:#c27b14}.st9{fill:#455a64}.st12{fill:#37474f}</style><path class="st0" d="m12.7 348.8 43.4-.2 43.4-.1 86.9-.2 86.8.2 43.4.1 43.4.2-43.4.3-43.4.1-86.8.1-86.9-.1-43.4-.1z" id="freepik--Table--inject-18"/><g id="freepik--background-complete--inject-18"><path class="st1" d="m358.2 267.4-13.1.3-6.7.1c-2.2 0-4.5 0-6.7.1h-.4v-.5l-.1-11.2v-.5h.5l13.2.1c4.4 0 8.8.1 13.2.2h.3v.3c0 1.9-.1 3.8-.1 5.7l-.1 5.4zm0 0-.1-5.6c0-1.9-.1-3.7-.1-5.5l.3.3c-4.4 0-8.8.2-13.2.2l-13.2.1.5-.5v11.2l-.5-.4h6.5l6.5.2h13.3zM343.5 281.5l-13.1.3-6.7.1c-2.2 0-4.5 0-6.7.1h-.4v-12.2h.5l13.2.1c4.4 0 8.8.1 13.2.2h.3v.3c0 1.9-.1 3.8-.1 5.7l-.2 5.4zm0 0-.1-5.6c0-1.9-.1-3.7-.1-5.5l.3.3c-4.4 0-8.8.2-13.2.2l-13.2.1.5-.5v11.2l-.5-.4h6.5l6.6.1 13.2.1zM373 281.5l-13.1.3-6.7.1c-2.2 0-4.5 0-6.7.1h-.4v-.5l-.1-11.2v-.5h.5l13.2.1c4.4 0 8.8.1 13.2.2h.3v.3c0 1.9-.1 3.8-.1 5.7l-.1 5.4zm0 0-.1-5.6c0-1.9-.1-3.7-.1-5.5l.3.3c-4.4 0-8.8.2-13.2.2l-13.2.1.5-.5v11.2l-.5-.4h6.5l6.6.1 13.2.1zM203.7 134.3l-13.1.3-6.7.1c-2.2.1-4.5 0-6.7.1h-.4v-.4l-.1-11.2v-.5h.5l13.2.1c4.4 0 8.8.1 13.2.2h.3v.3c0 1.9-.1 3.8-.1 5.6l-.1 5.4zm0 0-.1-5.6c0-1.9-.1-3.7-.1-5.5l.3.3c-4.4.1-8.8.2-13.2.2l-13.2.1.5-.5v11.2l-.5-.4c2.2 0 4.4 0 6.5.1l6.6.1h13.2zM356.7 25.6l-13.1.3-6.7.1c-2.2 0-4.5 0-6.7.1h-.4V13.9h.5l13.2.1c4.4 0 8.8.1 13.2.2h.3v.3c0 1.9-.1 3.8-.1 5.7l-.2 5.4zm0 0-.1-5.7c0-1.9-.1-3.7-.1-5.5l.3.3c-4.4 0-8.8.2-13.2.2l-13.2.1.5-.5v11.2l-.5-.4c2.2 0 4.4 0 6.5.1l6.6.1 13.2.1zM371.5 39.7l-13.1.3-6.7.1c-2.2.1-4.5 0-6.7.1h-.4v-.4l-.1-11.2V28h.5l13.2.1c4.4 0 8.8.1 13.2.2h.3v.3c0 1.9-.1 3.8-.1 5.7l-.1 5.4zm0 0-.1-5.7c0-1.9-.1-3.7-.1-5.5l.3.3c-4.4.1-8.8.2-13.2.2H345l.5-.5v11.2l-.5-.4c2.2 0 4.4 0 6.5.1l6.6.1 13.4.2z"/><g id="freepik--ZZtZDI--inject-18"><path class="st1" d="M76 174.6c-1 .9-2.2 1.6-3.5 1.9-.8.2-1.7.3-2.5.5h-3c-1.2-.2-2.4-.3-3.6-.6-4.3-.9-8.5-2.7-12.1-5.3-9.6-6.3-17.7-14.7-23.7-24.5-2-3.2-3.4-6.8-4.1-10.6-.2-1-.3-2-.5-3v-2.9c.2-1.1.4-2.2.7-3.3.3-1 .8-2 1.6-2.7.1.1.3.2.4.4 4.6 4.6 9.2 9.2 13.9 13.8.3.3.4.7.3 1-.7 2.3-.1 4.9 1.5 6.7 3.9 4.5 8.2 8.7 12.6 12.6 1.8 1.6 4.4 2.2 6.7 1.5.3-.1.6-.1.9.1 4.7 4.7 9.4 9.5 14.2 14.2.1 0 .1.1.2.2zM85.1 164.2v1c-.4.6-.9 1.2-1.4 1.7-1.4 1.5-2.9 2.9-4.4 4.4l-.4.4-14.2-14.2c1.9-1.8 3.7-3.7 5.6-5.6.9-.8 2.2-.7 3 .1 1.1 1 2.1 2.1 3.2 3.2 2.5 2.5 5 5 7.4 7.5.5.4.9.9 1.2 1.5zM47.7 130.2c-1.8 1.7-3.6 3.4-5.3 5l-14.1-14.1c.3-.3.7-.6 1-.9l3.9-3.9c.5-.5 1.1-.9 1.7-1.3h1c.5.3 1.1.7 1.5 1.1 3.5 3.4 6.9 6.9 10.3 10.3 1.3 1.3 1.3 2.5 0 3.8z"/></g><path class="st2" d="M237.4 148.1h115.7v64.8H237.4zM215.7 212.9h21.7v-22.6z"/><path class="st3" d="M251 181.9h77.4v1.4H251zM251 189.5h61.5v1.4H251zM251 166.8h66.2v1.4H251zM251 159.3h86.4v1.4H251zM251 197h67.9v1.4H251z"/><path class="st1" d="M82.1 79.3h212.5v9.3H82.1zM94 88.6h9.3v30.8H94z"/><path class="st2" d="M94 88.6h9.3v9.5H94z"/><path class="st1" d="M273.4 88.6h9.3v30.8h-9.3z"/><path class="st2" d="M273.4 88.6h9.3v9.5h-9.3z"/><path class="st4" d="M121.8 19.9h15v59.4h-15z"/><path class="st2" d="M121.8 16.7h15v6.5h-15zM121.8 31.6h15V34h-15zM121.8 65h16.8v6.5h-16.8z"/><path class="st2" d="M136.8 10h10.4v69.3h-10.4z"/><path class="st1" d="M138.8 16.5h6.3v26.6h-6.3z"/><path transform="rotate(-45.332 193.212 51.249)" class="st4" d="M188 16.6h10.4v69.3H188z"/><path transform="rotate(-45.332 196.838 54.787)" class="st2" d="M193.7 41.5h6.3v26.7h-6.3z"/><path class="st5" d="M147.2 26.7H165v52.6h-17.8z"/><path class="st4" d="M147.2 68.8H165v4.9h-17.8zM147.2 63.7H165v1.9h-17.8z"/><path class="st5" d="M109.5 29.8h12.3v49.5h-12.3z"/><path class="st4" d="M109.5 69.4h12.3V74h-12.3zM109.5 40h12.3v4.6h-12.3zM109.5 47.8h12.3v1.8h-12.3z"/><path class="st2" d="m272.3 56.2-1.3 3.6-.9 2.1-1.3 3.6-5.2 13.8h-28.2l-5.3-13.8-1.3-3.6-.8-2.1-1.4-3.6L237 41.1 231.6 31h35.7l-5.4 10.1z"/><path class="st5" d="m272.3 56.2-1.3 3.6h-43l-1.4-3.6zM270.1 61.9l-1.3 3.6h-38.7l-1.3-3.6z"/></g><g id="freepik--character-2--inject-18"><path class="st2" d="M32.2 348.8h122.7l-24.5-142.3H38.7z"/><path class="st5" d="M32.2 348.8H43l6-142.3H38.7z"/><path class="st6" d="M138.8 234.4c13.9 31 47.4 82.4 62.4 69.7 22.4-19.1 37.6-61.2 43.6-78.3 3.4-9.5-45.3-25.5-48.3-16.9-4.2 12.3-10.9 38.1-14.7 41.7-2 1.9-17.9-20.5-30-31.1-17.3-15.1-17.4 5-13 14.9z"/><path class="st6" d="M257 211.5c-4.3 9.7-21 26.2-26.5 28.6s-34.8-24-34.2-30.2 18.1-38.8 27.7-43.8 37.5 35.3 33 45.4z"/><path class="st6" d="M198.6 203.1s.7-13.9-2.8-25.6c-2.9-9.9-8.4-24.1-3.2-25.9 10.8-3.6 24.4 32 24.4 32s3.5 16.7-6.8 21.3c-6.5 2.8-11.6-1.8-11.6-1.8z"/><path class="st6" d="M210.7 176.8c.7 5.6 6.9 1.6 6.9 1.6s-7.5 8-4.6 13.5c2.9 5.3 10.2.1 10.7-.2-.4.4-7.1 7.9-3.6 13.1 3.7 5.4 10.2-1 10.6-1.4-.2.5-3.4 7.4.2 10.8 6.2 5.8 14.7-11.7 21.3-13.6 0 0 4.6 10.7 4.8 11 0 0 8.5-16.4 5.3-25.1-.9-2.6-3.5-4.3-6.2-3.9 0 0 3.3-5 .7-9.2-1.4-2.1-6-1.9-6-1.9s2.5-4.1-.1-7.7c-2.1-2.9-6.4-2.1-6.4-2.1s.5-5.1-2.5-7.3c-6.3-4.7-32.6 10.4-31.1 22.4z"/><path class="st0" d="M243.5 161.5c.1-.1 0-.2 0-.1-9.9 2.9-19.8 9-26.2 17.2-.2.3.1.7.4.5 8.2-7.2 15.9-12.9 25.8-17.6zM250.8 171.2c.1-.1 0-.2-.1-.2-10.2 3-21.2 10.3-27.4 20.5-.2.4 0 .9.2.5 4.7-6.5 18.4-16.6 27.3-20.8zM230.6 204.2c6.3-9.6 15.1-16.2 25.1-21.7.1-.1 0-.2-.1-.2-5.6 1.4-11.6 5.5-16 9.1-4.1 3.3-7.4 7.6-9.3 12.5-.1.3.2.5.3.3z"/><path class="st0" d="M217.4 178.4c-.2.3.5.3.3.7-1 1.4-6.3 10.2-3.9 13 2 2.2 6.3 1.1 7.8 0l3.8-2.7-2.6 3.9c-1.2 1.7-2 3.6-2.6 5.6-.6 1.8-.4 3.8.5 5.5.9 1.6 2.8 2.3 4.5 1.8 1.9-.6 3.6-1.8 4.9-3.2l3.8-4-2.3 5c-.6 1.4-1.1 2.8-1.4 4.3-.3 1.4-.2 2.9.3 4.2.5 1.2 1.7 2 3 2.1 1.5-.1 2.8-.7 4-1.6 2.5-1.9 4.9-4.1 7.1-6.4 1.2-1.1 2.3-2.2 3.5-3.3 1.1-1.1 2.5-2 4-2.6-1.4.7-2.7 1.7-3.7 2.9-1.1 1.1-2.2 2.4-3.2 3.6-2.1 2.5-4.4 4.8-6.9 6.9-1.3 1.1-3 1.9-4.7 2.1-2 0-3.8-1.1-4.6-2.9-.7-1.6-.9-3.5-.5-5.2.3-1.7.8-3.3 1.5-4.9l1.5 1c-1.5 1.8-3.5 3.1-5.7 3.9-1.2.4-2.6.3-3.8-.1-1.2-.5-2.2-1.4-2.8-2.4-1.2-2.1-1.4-4.7-.6-7 .6-2.2 1.6-4.2 3-6.1l1.2 1.1c-2 1.3-6.6 3.1-10.1.1-4.2-5 3.2-13.8 4.7-15.3z"/><path class="st0" d="M217.6 178.4c-1.1.4-2.2.7-3.4.8-.9.1-1.9-.3-2.4-1.1-.5-.9-.7-2-.5-3 .1-1.1.2-2.3.4-3.6-.8 1-1.3 2.2-1.6 3.4-.4 1.3-.2 2.8.5 4 .4.6 1.1 1.1 1.8 1.4.7.2 1.4.3 2.1.1 1.1-.4 2.3-1.1 3.1-2z"/><path class="st7" d="m193.6 209.9 50.6 35.3s-30.2 62.7-48.9 62.5-45.7-47.1-55-67.4-3.8-37.5 15.1-19 25.6 26.1 26.2 25.9c1.2-.5 12-37.3 12-37.3z"/><path class="st7" d="M244.3 245.2s-21 43.5-38.8 57.9c-3.6 2.9-7 4.6-10.2 4.6-18.7-.2-45.7-47.1-55-67.4-5.8-12.6-5.8-23.9-.6-26.4 3.2-1.5 8.5.4 15.7 7.4 19 18.6 25.6 26.1 26.2 25.8 1.2-.5 12.1-37.2 12.1-37.2l50.6 35.3z"/><path class="st3" d="M212.9 295.7c-.6.7-1.2 1.4-1.9 2.1-5.7 3.6-12.1 5.9-18.8 6.9-1.8.2-3.7.3-5.5.2l-1.2-.7c2.2.1 4.4.1 6.6-.2 2.6-.3 5.2-.9 7.7-1.8l1.9-.6 1.8-.8c.6-.3 1.2-.5 1.8-.8l1.8-.9c2.1-1 4-2.1 5.8-3.4zm-38.4-55.2c-5.8 2.6-11 6.3-15.6 10.7-2.9 2.9-5.6 6-8.1 9.3.1.2.2.5.4.7 2.5-3.4 5.2-6.5 8.2-9.4 3.8-3.7 8.1-6.9 12.8-9.3l1.8-.9c.3-.2.7-.3 1-.4l-.5-.7zm43.8 3.2c-4.8-2.4-9.8-4.2-15-5.6-.5-.1-1.1-.3-1.6-.4-.3-.1-.7-.2-1.1-.2-4.4-.9-8.9-1.1-13.3-.7-.7.1-1.3.2-1.9.3-.1.2-.2.5-.2.7.7-.1 1.5-.2 2.2-.3 4.1-.4 8.3-.3 12.4.5l1.1.2c.8.2 1.5.3 2.3.5 5.1 1.3 10.1 3.2 14.9 5.5 7.1 3.5 14.1 7.4 20.7 11.8.1-.2.2-.3.3-.5-6.8-4.4-13.7-8.3-20.8-11.8zm5.2-13c-8.1.3-16 2.7-23 6.8l-.9.5c-1.8 1.1-3.5 2.2-5.1 3.5-8.6 6.5-15.4 14.9-21.9 23.3-3.3 4.2-6.5 8.5-9.8 12.6-.2.3-.5.6-.7.9l.4.5c.3-.3.6-.7.9-1 3.4-4.1 6.6-8.4 9.9-12.6 6.5-8.4 13.3-16.7 21.8-23.2 1.8-1.4 3.8-2.7 5.8-3.9.3-.2.5-.3.8-.5 2.3-1.3 4.8-2.4 7.3-3.4l1.9-.7c.6-.2 1.3-.4 1.9-.6l1.9-.5 2-.4c2.6-.6 5.2-.9 7.9-.8h.1l-1.2-.5zm-62.1-3.5c-3.5 1.6-7.1 2.7-10.9 3.5l-2 .4c-.6.1-1.3.2-2 .2l-2 .2-2 .1c-1.8.1-3.7.1-5.5-.1l.2.7c8.5.6 16.9-.9 24.6-4.4-.1-.2-.2-.4-.4-.6zm-14.5-12.4c-3.5 2.4-7.2 4.6-11 6.6v.8c4-2.1 7.9-4.5 11.7-7.1-.2 0-.4-.2-.7-.3z"/><path class="st0" d="M232.3 251.1c-1.3-1.1-2.7-2.2-4-3.3-2.8-2.2-5.5-4.4-8.3-6.5-5.5-4.3-11.1-8.4-16.8-12.5-3.2-2.3-6.4-4.8-9.7-6.9h-.2v.2c2.6 2.3 5.5 4.4 8.2 6.6s5.4 4.4 8.2 6.6c5.5 4.3 11.1 8.5 16.7 12.6 1.6 1.2 3.1 2.4 4.8 3.5.8.6 1.6 1.2 2.5 1.7s1.7 1 2.6 1.6h.1v-.1c-1.4-1.2-2.7-2.4-4.1-3.5zM182 246c-1.9 5.2-3.5 10.6-4.8 16-.7 2.7-1.2 5.4-1.7 8.1-.5 2.7-.9 5.4-1.1 8.1 0 .1.1.1.2 0 .8-2.6 1.5-5.3 2.1-8s1.3-5.4 1.9-8c1.2-5.4 2.6-10.7 3.7-16.1 0-.1 0-.2-.1-.2s-.2.1-.2.1z"/><path d="M205.5 303.1c-3.6 2.9-7 4.6-10.2 4.6-18.7-.2-45.7-47.1-55-67.4-5.8-12.6-5.8-23.9-.6-26.4l65.8 89.2z" style="enable-background:new;opacity:.1"/><path class="st7" d="M176.5 348.8H54.9c-1.3-2.5 18.6-108.9 59.6-138.9 9.1-6.6 25.2-2.4 29.7 4.1 22.6 32.5 32.3 134.8 32.3 134.8z"/><path class="st3" d="M170.2 301.5c-3-1.1-6-2.3-8.9-3.7-4.1-2-8-4.1-11.9-6.4l-.6-.3c-4-2.4-8-4.9-11.9-7.4l-.6-.4-2.7-1.7c-9-5.8-17.9-11.7-27.5-16.3-4.8-2.4-9.8-4.1-15-5.2-2.6-.5-5.3-.6-7.9-.4-.7 0-1.3.1-2 .2-.5.1-.9.1-1.4.2.1-.2.1-.3.2-.5.4-.1.7-.1 1.1-.2.7-.1 1.3-.2 2-.2 2.7-.2 5.4 0 8 .4 5.3 1 10.4 2.8 15.2 5.2 9.7 4.6 18.6 10.6 27.6 16.3l2.6 1.7.6.4c4 2.6 8 5.1 12.1 7.5l.6.3c3.8 2.2 7.7 4.3 11.6 6.2 2.8 1.3 5.6 2.5 8.5 3.5l.3.8zm-10.8-50.7-.4.4c-7.7 7.5-13.5 16.7-18.9 25.8-1.1 2-2.3 3.9-3.5 5.9-.1.2-.2.3-.3.5-1.5 2.5-3 5-4.5 7.4-1.4 2.1-2.8 4.2-4.3 6.3-.1.2-.3.4-.4.6-1.5 2.1-3.2 4-4.9 5.9-1.8 1.9-3.8 3.7-6 5.2l-.8.6c-.3.2-.6.3-.9.5l-1.7 1c-1.2.6-2.4 1.1-3.6 1.5-5 1.7-10.3 2.5-15.6 2.5-5.3 0-10.6-.6-15.7-1.8-5-1.1-9.9-2.5-14.7-3.9 0 .2-.1.3-.1.5 4.9 1.4 9.8 2.9 14.8 3.9 5.2 1.2 10.6 1.8 15.9 1.8 5.4 0 10.7-.9 15.8-2.5 1.3-.4 2.5-1 3.7-1.6l1.8-1c.3-.2.6-.3.9-.5l.8-.6c2.2-1.5 4.2-3.3 6.1-5.3 1.9-2 3.6-4.1 5.2-6.3.1-.2.3-.4.4-.6 1.4-1.9 2.8-3.9 4-6 1.5-2.4 3-4.9 4.5-7.4l.3-.5 3.5-5.9c5.4-9.1 11.2-18.2 18.8-25.7l.1-.1c-.2-.1-.3-.4-.3-.6zm5.7 23.7c-.8 1-1.5 1.9-2.3 2.9-3.3 4.2-7 8-11 11.5-.8.6-1.6 1.3-2.4 1.9l-.5.4c-1.2.8-2.4 1.6-3.6 2.2l-.9.5c-.3.2-.6.3-.9.4l-1.8.8c-1.2.4-2.5.8-3.8 1.1-3.1.7-6.3 1-9.4 1h-.8c-1.9 0-3.8-.1-5.6-.4-5.3-.7-10.5-1.9-15.5-3.7-5-1.7-9.9-3.9-14.8-6-4.9-2.2-9.9-4.1-15-5.7-1.5-.4-3-.8-4.6-1.1l-.1.4c1.6.3 3.1.7 4.6 1.1 5.1 1.6 10.1 3.5 14.9 5.7 4.9 2.1 9.8 4.2 14.9 6 5 1.8 10.3 3.1 15.6 3.8 1.8.2 3.5.3 5.3.4h.8c3.4.1 6.7-.3 10-.9 1.3-.3 2.6-.7 3.9-1.1l1.9-.8c.3-.1.6-.2.9-.4l.9-.5c1.4-.7 2.7-1.5 3.9-2.4l.5-.4c.8-.5 1.5-1.1 2.2-1.7 4.1-3.5 7.8-7.3 11.2-11.5.7-.8 1.3-1.6 2-2.5-.3-.4-.4-.7-.5-1zm-12.5-44.2c-.7.2-1.4.3-2.1.5l-2 .4c-.6.1-1.3.2-2 .2l-2 .2-2 .1c-2.6.2-5.3 0-7.9-.4-4.1-.7-8.1-2-11.8-3.9l-1-.5c-.7-.4-1.4-.7-2.1-1.1-4.6-2.7-8.9-5.8-12.8-9.4l-.4.4c4 3.6 8.3 6.8 12.9 9.5.5.3 1 .5 1.5.8l1 .5c4 2.1 8.2 3.5 12.6 4.3 6.1.9 12.3.5 18.3-1-.1-.2-.1-.4-.2-.6zm-7.1-14.5c-5.3 3.6-11 6.6-16.9 9-2.2.8-4.4 1.5-6.6 2.1l-.9.2c-2.6.6-5.2 1-7.9 1.2l-2 .1h-4l-2-.2c-2.4-.1-4.8-.5-7.1-1.2-.1.2-.3.4-.4.6 8 2 16.3 2 24.3-.1l1-.2c2-.5 4-1.2 5.9-1.9 6-2.4 11.7-5.4 17-9l-.4-.6zm29.9 122.5c-1 0-2.1.1-3.1.1h-.7c-5.1.5-10.1 2-14.7 4.4-3.3 1.7-6.4 3.7-9.4 5.9h.6c2.8-2.1 5.8-3.9 8.9-5.6 4.6-2.4 9.7-3.8 14.8-4.3H172.4c1 0 1.9-.1 2.9-.1.1-.1.1-.2.1-.4zm.5 4.6c-1.1-1.4-2.2-2.7-3.4-4.1-.1-.1-.2-.3-.4-.4l-.4-.5c-3.5-4.1-7.5-7.7-12-10.7-2.3-1.5-4.7-2.7-7.2-3.5-.6-.2-1.3-.4-1.9-.6s-1.3-.3-2-.4c-1.3-.2-2.7-.3-4-.4-5.4-.2-10.7.7-15.8 2.5-5 1.9-9.8 4.4-14.2 7.3-8 5.1-15.3 11.2-23.1 16.6h.3c7.8-5.3 15-11.2 22.9-16.3 4.5-2.9 9.2-5.4 14.2-7.2 5-1.8 10.3-2.7 15.6-2.5 1.3.1 2.6.2 4 .4.7.1 1.3.3 1.9.4s1.3.4 1.9.6c2.5.9 4.9 2 7.1 3.5 4.4 3 8.4 6.6 11.8 10.6l.2.2.4.4c1.4 1.6 2.8 3.3 4.1 5 .1-.2 0-.5 0-.9z"/><path class="st6" d="M98.4 222.9c-24.8 28.6-58.1 79.2-44.5 90.4 22.4 18.4 87.9 29 102.9 30.8 6.5.8 19.5-41.6 15.1-47.1s-73.5-9.4-74-13.6c-.3-2.4 10.2-23.4 17-49.1 7.8-29.6-9.6-19.4-16.5-11.4z"/><path class="st6" d="M160.6 293.5s19.9-.1 32.8.4c7.2.3 19.6 1.9 24.9 4.5 7.8 4 38 25.5 32.9 32.9-4.6 6.7-28.2-15.1-28.2-15.1s25.7 19.9 18.7 27-30.4-21.1-30.4-21.1 26 21 17.6 27.2c-6.3 4.6-28.9-19.7-28.9-19.7s22.3 18.4 16 23.4c-7 5.6-29.2-15.5-29.2-15.5-18.2 10.2-31 7.6-40 4.6-2.2-.7 13.8-48.6 13.8-48.6z"/><path class="st0" d="M214.6 308.8c3.1 2.2 6.3 4.5 9.2 7s5.7 5.1 8.4 7.9c6.5 6.8 9.5 12 9.3 11.7-5.2-7.2-15.5-16.3-18.4-18.8s-5.7-5.1-8.6-7.6c-.1-.1 0-.2.1-.2zM205.4 319.1c3.8 3 7.8 5.9 11.5 9s8.7 7.8 12.2 11.2c.3.3 0 .8-.3.5-3.6-3.3-9-7.8-12.6-11s-7.2-6.5-10.8-9.7c-.2.1-.1 0 0 0zM195.9 326.6c6.1 4.3 11.4 9.7 16.5 15.2.3.3 0 .3-.3 0-5.4-5.1-9.6-9.2-16.3-15-.2-.1 0-.3.1-.2z"/><path class="st0" d="M157.8 292.9c9.1-.1 35.7-.1 44.7.6 8 .6 14.6 2.3 21.3 6.8 14.4 9.5 23.7 20.7 26 24 1.4 2 3.4 5.2 1.6 7.5-2.3 2.7-10.6.1-19.4-7.9-.3-.3-.1-.5.2-.2 12.4 10 17.3 8.9 18.6 7.1.8-1.1 0-3-.7-4.5-1.2-2.1-2.7-4.1-4.4-5.8-5.7-6.1-12-11.6-18.8-16.4-7.3-5.4-15.9-8.7-25-9.4-9.3-.8-34.9-.5-44.1-1.4-.3-.1-.2-.4 0-.4z"/><path class="st0" d="M243.2 339.3c-.5-2.5-2.3-4.7-3.7-6.8-1.7-2.6-3.7-5-5.9-7.1-.1-.1-.3 0-.2.1 1.9 2.2 3.6 4.5 5.2 6.9.8 1.3 1.6 2.7 2.3 4.1.7 1.4 1.4 2.9 1.1 4.5-.6 2.9-4.4 2.9-6.6 2.1-1.4-.5-2.8-1.2-4.1-2-1.8-1.1-3.5-2.4-5.1-3.8-.1-.1-.5-.1-.3.1 3.3 3.1 9.5 9.7 14.7 7.3 2-1.1 3.1-3.3 2.6-5.4z"/><path class="st7" d="m160.9 291-23.8 54s-83.1-18.8-88-34.5 21.2-58 44.7-84.4c23.1-25.9 26.5-8.3 20.8 11.7s-15.2 43.1-14.1 44.9 60.4 8.3 60.4 8.3z"/><path class="st3" d="M105.9 264.6c-.1.1-.1.3-.2.5-4.6-2.3-9.5-3.9-14.6-4.9-2.6-.5-5.3-.6-7.9-.4-.7 0-1.3.1-2 .2s-1.3.2-1.9.4c-1.3.3-2.5.8-3.8 1.2-4.9 1.9-9.4 4.7-13.2 8.2l.6-1.1c3.7-3.2 7.9-5.8 12.5-7.5 1.3-.4 2.5-.9 3.9-1.2.6-.2 1.3-.3 2-.4s1.3-.2 2-.2c2.7-.2 5.4 0 8 .4 5 .9 9.9 2.5 14.6 4.8zm44 26.5-.6-.3-2.3-1.4-1.4-.2c1 .6 2.1 1.3 3.1 1.9l.6.3c3 1.8 6 3.4 9.1 5l.2-.5c-2.9-1.5-5.8-3.2-8.7-4.8zm-16.3-3.3-1.8 3c-1.4 2.1-2.8 4.2-4.3 6.3-.1.2-.3.4-.4.6-1.5 2.1-3.2 4-4.9 5.9-1.8 1.9-3.8 3.7-6 5.2l-.8.6c-.3.2-.6.3-.9.5l-1.7 1c-1.2.6-2.4 1.1-3.6 1.5-5 1.7-10.3 2.5-15.6 2.5-5.3 0-10.6-.6-15.7-1.8-5.2-1.1-10.3-2.6-15.5-4.1-4.5-1.3-9.1-2.6-13.8-3.5v.5c4.6.9 9.2 2.2 13.7 3.5 5.1 1.5 10.2 3 15.5 4.1 5.2 1.2 10.6 1.8 15.9 1.8 5.4 0 10.7-.9 15.8-2.5 1.3-.4 2.5-1 3.7-1.6l1.8-1c.3-.2.6-.3.9-.5l.8-.6c2.2-1.5 4.2-3.3 6.1-5.3 1.9-2 3.6-4.1 5.2-6.3.1-.2.3-.4.4-.6 1.4-1.9 2.8-3.9 4-6 .7-1.1 1.3-2.1 2-3.2h-.8zm17 2c-.4.3-.8.6-1.3.9l-.5.4c-1.2.8-2.4 1.6-3.6 2.2l-.9.5c-.3.2-.6.3-.9.4l-1.8.8c-1.2.4-2.5.8-3.8 1.1-3.1.7-6.3 1-9.4 1h-.8c-1.9 0-3.8-.1-5.6-.4-5.3-.7-10.5-1.9-15.5-3.7-5-1.7-9.9-3.9-14.8-6-4.9-2.2-9.9-4.1-15-5.7-5.1-1.5-10.6-2.3-15.9-1.2-1.7.3-3.3.9-4.9 1.7l-.3.6c1.6-.9 3.4-1.5 5.2-1.9 5.2-1 10.6-.2 15.7 1.2 5.1 1.6 10.1 3.5 14.9 5.7 4.9 2.1 9.8 4.2 14.9 6 5.1 1.8 10.3 3.1 15.6 3.8 1.8.2 3.5.3 5.3.4h.8c3.4.1 6.7-.3 10-.9 1.3-.3 2.6-.7 3.9-1.1l1.9-.8c.3-.1.6-.2.9-.4l.9-.5c1.4-.7 2.7-1.5 3.9-2.4l.5-.4c.5-.4 1-.8 1.6-1.2l-1-.1zM107 216.3c-.4-.4-.9-.8-1.3-1.1l-.5.4 1.4 1.2c3.3 2.9 6.7 5.6 10.4 8v-.7c-3.5-2.4-6.8-5-10-7.8zm6.1 12-2 .1h-4l-2-.2c-2.6-.2-5.3-.6-7.8-1.4-1.1-.3-2.2-.7-3.3-1.1l-.2.3-.2.3c1.2.5 2.4.9 3.6 1.3a47 47 0 0 0 19.4 1.1c0-.2.1-.5.1-.7-1.2.1-2.4.3-3.6.3zm31.6 94.1c-5.4-.2-10.7.7-15.8 2.5-5 1.9-9.8 4.4-14.2 7.3-2.5 1.6-4.9 3.3-7.4 5.1l.4.1c2.3-1.7 4.7-3.3 7.1-4.9 4.5-2.9 9.2-5.4 14.2-7.2 5-1.8 10.3-2.7 15.6-2.5.7.1 1.4.1 2.1.2l.2-.4c-.7-.1-1.5-.1-2.2-.2z"/><path class="st0" d="M127.5 336c.8-1.5 1.6-3.1 2.4-4.6 1.6-3.1 3.1-6.3 4.7-9.4 3.1-6.3 6-12.6 8.8-19 1.6-3.6 3.4-7.2 4.8-10.9 0-.1 0-.2-.1-.2s-.2 0-.2.1c-1.7 3-3.2 6.2-4.8 9.4s-3.2 6.2-4.8 9.4c-3.1 6.3-6 12.6-8.9 18.9-.8 1.8-1.7 3.5-2.4 5.4-.4.9-.8 1.8-1.2 2.8s-.6 1.9-1 2.8v.1h.1c.9-1.7 1.8-3.2 2.6-4.8z"/><path class="st0" d="m138.9 341.3-1.7 3.8v.1h-.2c-7.9-1.5-15.7-3.2-23.5-5.2s-15.5-4.2-23.1-6.6c-7.7-2.4-15.2-5.3-22.5-8.6-3.7-1.7-7.2-3.6-10.6-5.7-1.7-1.1-3.3-2.3-4.8-3.7-1.5-1.3-2.7-3-3.4-4.9.9 1.8 2.2 3.3 3.8 4.5 1.6 1.2 3.3 2.3 5 3.2 3.5 1.9 7.1 3.7 10.7 5.1 7.4 3 14.9 5.6 22.5 8.1s15.2 4.7 22.9 6.9 15.4 4.3 23.1 6.4l-.2.1 2-3.5zM159.9 293.1l.8-2.1.1.1c-8.3-.5-16.7-1.2-25-2.1s-16.6-1.8-24.9-3.1c-2.1-.3-4.1-.7-6.2-1.1-1-.2-2.1-.4-3.1-.7-.3-.1-.5-.2-.8-.3-.2-.1-.3-.1-.5-.2-.1-.1-.2-.1-.3-.2l-.3-.3c0-.1-.1-.2-.1-.2v-.1c0-.4 0-.8.1-1.1 0-.3.1-.6.2-.8 1.1-4.1 2.4-8.1 3.8-12 2.7-7.9 5.7-15.7 8.8-23.5-2.4 8-4.9 16-7.3 24-1.2 4-2.5 8-3.4 12-.1.2-.1.5-.1.7v.4c0-.1 0 0 0 0 0-.1 0-.1-.1-.1 0-.1-.2-.2-.1-.2l.2.1.7.2c1 .3 2 .5 3 .6 2 .4 4.1.7 6.1 1 4.1.6 8.2 1.2 12.4 1.8l12.4 1.7c8.3 1.1 16.5 2.3 24.8 3.5h.1l-.1.1-1.2 1.9z"/><path class="st0" d="M113.3 250.5c-.6 1.4-1.3 2.8-2.2 4-.8 1.3-1.8 2.4-3 3.4.8-1.3 1.6-2.6 2.4-3.8.8-1.3 1.7-2.5 2.8-3.6z"/><path class="st6" d="M137.5 232c-7.1 2-19.8-8.3-25-16.9-.4-.6 1.1-24.9.8-29.8 0-1 30.7 6 30.7 6s-2.5 10.3-2.1 18.8c.1.7 2.4 19.9-4.4 21.9z"/><path class="st0" d="M112.9 200.5c14.4 10.2 28.4 6.3 29 6.1.2-5.2.9-10.3 2.1-15.3 0 0-30.8-7-30.8-6 .2 2.3 0 8.8-.3 15.2z"/><path class="st9" d="M143.9 171.3c.8 7.2 6.5 12.4 12.8 11.7s10.8-7.1 10-14.2-6.5-12.4-12.8-11.7-10.8 7-10 14.2z"/><path class="st4" d="M140.3 172.1c.9 8 7.3 13.8 14.3 13.1s12-7.9 11.1-15.9-7.3-13.8-14.3-13.1-12 7.9-11.1 15.9z"/><path class="st6" d="M109.1 148.7c-3.4 10.8 2.1 42 9.8 49 11.1 10.1 29.3 11.2 37.9-2.1 8.4-12.9.5-53.5-8.1-59.8-12.5-9.4-34.7-3-39.6 12.9z"/><path class="st0" d="M135 168.3c0-.1-.1.1-.1.2.5 2.1.6 4.6-1.1 5.6-.1 0 0 .1 0 .1 2.3-.7 2-4 1.2-5.9z"/><path class="st0" d="M132.7 166.5c-3.4.4-2.4 7.2.8 6.9s2.1-7.2-.8-6.9zM147.2 166.7c0-.1.2.1.2.2.2 2.1.9 4.5 2.9 4.9.1 0 .1.1 0 .1-2.4 0-3.2-3.1-3.1-5.2z"/><path class="st0" d="M148.7 164.2c3.4-.8 4.6 6 1.5 6.7s-4.3-6-1.5-6.7zM129.6 163.8c.9-.4 1.7-.8 2.5-1.3.9-.3 1.7-1 2.3-1.8.2-.6 0-1.3-.5-1.7-1.2-.6-2.6-.5-3.6.2-1.2.5-2.2 1.5-2.7 2.7-.3.8.1 1.7.9 2 .3.1.7.1 1.1-.1zM150.9 160.4c-.9 0-1.9-.1-2.8-.3-1 0-2-.3-2.8-.8-.5-.5-.5-1.2-.2-1.8.9-1 2.2-1.5 3.5-1.2 1.3.1 2.6.6 3.5 1.5.6.6.5 1.6-.1 2.2-.4.2-.8.4-1.1.4zM136.2 188.1c.6.4 1.2 1 2 1 .8-.1 1.5-.4 2.2-.9h.1v.1c-.5.9-1.5 1.5-2.5 1.6-.9-.1-1.7-.7-1.9-1.6-.2-.1 0-.2.1-.2z"/><path class="st0" d="M137.4 181.5c1.3 1.5 3.3 2.4 5.3 2.5.9 0 1.8-.1 2.6-.3.2 0 .3-.1.5-.1s.3-.1.5-.1c.2-.1.4-.3.4-.5v-.4c-.2-1.6-.7-4.1-.7-4.1.6.2 3.9 1.1 3.7.3-1.5-7-3.1-14.7-6.1-21.3 0-.1-.2-.1-.3-.1-.1 0-.1.1-.1.2 1.2 6.8 3.5 13.2 4.8 20-1.2-.3-2.3-.5-3.5-.5-.2.1 1.1 4.7 1.1 5.4v.1c-2.7.8-4.9.2-7.8-1.2-.4-.2-.5-.1-.4.1z"/><path class="st0" d="M144.2 183c-.7 1.3-1.7 2.4-3 3.2-.7.4-1.5.6-2.3.5-1.8-.2-2-1.7-1.9-3.1.1-.7.2-1.4.5-2.1 2 1.2 4.4 1.7 6.7 1.5z"/><path d="M141.2 186.2c-.7.4-1.5.6-2.3.5-1.8-.2-2-1.7-1.9-3.1 1.9-.1 3.8.8 4.2 2.6z" style="fill:#ff99ba"/><path d="M114.2 159.8c-1.2 3.1-3.8 10.4-5.2 10.9-1.4-10.1-1.4-19.3 1.1-24.9 1-2.3 2.5-4.4 4.3-6.2.2 2.6 1.1 17-.2 20.2z" style="fill:#263238;enable-background:new;opacity:.2"/><path class="st0" d="M141.2 145.4c-1.7 3-4.9 4.9-8.4 5-3.5.1-6.9-1.7-8.8-4.6 0 0-.1-.1-.1 0 0 0-.1.1 0 .1 1.8 3.3 5.2 5.4 9 5.4 3.7-.2 7-2.4 8.6-5.6v-.2c-.1-.2-.2-.2-.3-.1zM162.1 129.3c-1.4-2.7-3.8-4.7-6.6-5.8-3.9-1.5-7.8-.5-11.7.6 0 0-.1 0-.1.1s0 .1.1.1c3.3-.9 6.7-1.7 10-.7 2.8.8 5.2 2.6 6.8 5 3.3 5.1 2.3 11.9-2.3 15.9-2.7 2.2-6.1 3.2-9.5 2.7-.1 0-.2.2 0 .2 6.8 1.2 13.3-3.4 14.4-10.3.5-2.6.1-5.4-1.1-7.8z"/><path class="st0" d="M108.2 155s-7.2-9.3-3.7-16c2-3.8 10.6-4.9 10.6-4.9s2-4.4 8.8-7.3 16-1.2 16-1.2 6.1-5.1 13.1-2.6c9.8 3.5 11 17.2 2.8 23.1-5.7 4.1-15.2.1-15.2.1-.8.2-8.3 6.8-15.9.4 0 0-4.4 5.5-9.5 3.1-1.1 3.1-3.9 5.2-7 5.3z"/><path class="st6" d="M115.6 174.2s-7.2-10-11.7-7.4 1 17.1 6.4 19c2.8 1.2 6 0 7.2-2.8 0-.1.1-.1.1-.2l-2-8.6z"/><path class="st0" d="M105.5 170.9c-.1 0-.1.1 0 .1 3.8 1.5 5.8 4.9 7.3 8.5-1.1-1.4-2.7-2.1-4.5-.8-.1.1 0 .2.1.2 1.3-.4 2.8 0 3.7 1.2.7.9 1.3 1.9 1.8 3 .2.3.8.1.6-.2v-.1c0-4.8-3.8-11.5-9-11.9z"/><path class="st4" d="M109.6 167.2s-3.9-15.5-.9-25c3.4-10.6 16.1-20.9 31.1-16.5 0 0-16.7 2.1-24.8 16.1-3.7 6.4-.1 24.9-.1 24.9l-5.3.5z"/><path class="st4" d="M125.7 172.4c1.5 8-2.9 15.5-9.9 16.9s-13.9-4-15.5-12 2.9-15.5 9.9-16.9 14 4 15.5 12z"/><path class="st9" d="M122 172.7c1.4 7.2-2.6 14-8.9 15.2s-12.5-3.6-13.9-10.8 2.6-14 8.9-15.2 12.5 3.6 13.9 10.8z"/></g><g id="freepik--speech-bubbles--inject-18"><path class="st3" d="M239.9 125c-1.8 17.1-17.1 29.6-34.3 27.8-6.7-.7-12.9-3.5-17.9-8.1l-15.6 2.3 7.8-13.5c-6.5-16 1.2-34.2 17.2-40.6 16-6.5 34.2 1.2 40.6 17.2 2 4.8 2.7 9.9 2.2 14.9z"/><path class="st0" d="M239.9 125c-.6 5.8-2.8 11.2-6.3 15.8-.9 1.1-1.8 2.2-2.8 3.2-1 1-2.1 1.9-3.3 2.8-2.3 1.7-4.8 3.2-7.5 4.2-2.7 1.1-5.5 1.7-8.4 2-1.4.1-2.9.2-4.3.1-1.4 0-2.9-.2-4.3-.4-5.8-1.1-11.1-3.7-15.4-7.6l.4.1-15.6 2.4-1.1.2.6-1 7.8-13.5v.5c-3.7-9.1-3-19.3 1.9-27.8 2.4-4.2 5.8-7.7 9.8-10.4 8.1-5.4 18.2-6.7 27.4-3.7 4.5 1.5 8.6 4.1 12 7.4 6.6 6.7 10.1 16.2 9.1 25.7zm0 0c1.8-17-10.5-32.2-27.4-34-2.6-.3-5.3-.2-8 .2-4.6.7-9 2.4-12.9 5.1-3.8 2.7-7 6.1-9.3 10.2-2.3 4-3.7 8.6-4 13.2-.3 4.6.5 9.3 2.2 13.6l.1.3-.2.2-7.9 13.5-.6-.8 15.6-2.2h.2l.2.1c4.2 3.9 9.3 6.6 15 7.7 1.4.3 2.8.5 4.2.5 1.4.1 2.8.1 4.3 0 2.9-.2 5.7-.8 8.3-1.8 2.7-1 5.2-2.3 7.5-4.1 2.3-1.7 4.4-3.7 6.1-6 3.7-4.4 5.9-9.9 6.6-15.7z"/><circle class="st0" cx="222.4" cy="122.7" r="3.8"/><circle class="st0" cx="208.9" cy="122.7" r="3.8"/><path class="st0" d="M199.1 122.7c0 2.1-1.7 3.8-3.8 3.8-2.1 0-3.8-1.7-3.8-3.8 0-2.1 1.7-3.8 3.8-3.8 2.1.1 3.8 1.8 3.8 3.8z"/></g><g id="freepik--Devices--inject-18"><path class="st9" d="M177.8 346.4h6.7v4.4h-6.7zM186.5 346.1h6.7v4.4h-6.7zM195.2 345.8h6.7v4.4h-6.7zM203.9 345.5h6.7v4.4h-6.7zM212.5 345.2h6.7v4.4h-6.7zM221.2 344.9h6.7v4.4h-6.7zM229.9 344.6h6.7v4.4h-6.7zM238.6 344.3h6.7v4.4h-6.7zM247.3 344.1h6.7v4.4h-6.7z"/><path class="st12" d="M255.6 353.2h-79.4v-5.3l79.4-2.2z"/><path class="st9" d="M333.1 332.3H202l20.9-97.6h131z"/><path class="st12" d="M337.9 332.3h-131l20.8-97.6h131z"/><path class="st0" d="M294.1 277.9c-.8 4.6-4.7 7.9-9.4 8.1-3.7.1-6.8-2.8-7-6.5 0-.5 0-1.1.1-1.6.8-4.6 4.7-8 9.4-8.1 3.7-.1 6.8 2.8 7 6.5.1.5 0 1-.1 1.6z"/><path class="st9" d="M300.8 357.8h-64.4v-5l64.4-2.1z"/><path class="st9" d="M318.4 357.8h-34.6l-20.9-54.7h34.6z"/><path class="st0" d="M324.1 357.8h-34.6l-20.9-54.7h34.6z"/><path class="st12" d="M173.8 359.1h-66.5c-5.7 0 2.5-16.1 23.2-22.3s49.8 16.2 43.3 22.3z"/><path class="st0" d="M147.7 359.1c0-1.8.4-3.7.9-5.4.5-1.8 1.3-3.5 2.2-5.1 1-1.6 2.1-3 3.5-4.3 1.4-1.2 3-2.2 4.7-2.9-.7.6-1.5 1-2.2 1.6l-1 .9-.9 1c-1.2 1.3-2.3 2.7-3.2 4.2-.9 1.5-1.7 3.1-2.4 4.8-.6 1.7-1.2 3.5-1.6 5.2z"/><path class="st0" d="M155.5 343.7c4 1.3 7.7 3.1 11.1 5.5 1.7 1.2 3.3 2.6 4.6 4.2 1.4 1.6 2.3 3.6 2.5 5.7-.6-2-1.6-3.7-3.1-5.1-1.4-1.4-3-2.7-4.6-3.9-1.6-1.2-3.4-2.3-5.1-3.3s-3.5-2.1-5.4-3.1z"/></g></svg>