<?xml version="1.0" encoding="utf-8"?>
<!-- Generator: Adobe Illustrator 25.2.0, SVG Export Plug-In . SVG Version: 6.00 Build 0)  -->
<svg version="1.1" id="freepik_stories-secure-data" xmlns:svgjs="http://svgjs.com/svgjs"
	 xmlns="http://www.w3.org/2000/svg" xmlns:xlink="http://www.w3.org/1999/xlink" x="0px" y="0px" viewBox="0 0 500 500"
	 style="enable-background:new 0 0 500 500;" xml:space="preserve">
<style type="text/css">
	.st0{fill:#263238;}
	.st1{fill:#EBEBEB;}
	.st2{fill:#C7C7C7;}
	.st3{fill:#A6A6A6;}
	.st4{fill:#DBDBDB;}
	.st5{fill:#FFC4C0;}
	.st6{fill:#BF8215;}
	.st7{opacity:0.1;}
	.st8{fill:#455A64;}
	.st9{fill:none;}
	.st10{fill:#FF98B9;}
	.st11{fill:#37474F;}
	.st12{opacity:0.2;enable-background:new    ;}
	.st13{opacity:0.1;enable-background:new    ;}
	.st14{fill:#FFFFFF;}
	.st15{opacity:0.1;fill:#263238;enable-background:new    ;}
</style>
<g>
	<g id="freepik--Floor--inject-8">
		<polygon id="elnajh7i13he" class="st0" points="32.8,447.5 89.9,447.2 147.2,447.1 261.5,446.9 375.8,447.1 432.9,447.2 
			490.2,447.5 432.9,447.8 375.8,447.9 261.5,448 147.2,447.9 89.9,447.8 		"/>
	</g>
	<g id="freepik--Shadows--inject-8">
		<ellipse id="eld4eqgjeg1fc" class="st1" cx="92.4" cy="488.2" rx="51" ry="9.8"/>
		<ellipse id="elljurd4sb51" class="st1" cx="282.1" cy="487.4" rx="199.3" ry="19.6"/>
	</g>
	<g id="freepik--Character--inject-8">
		<polygon id="elhfx8spe50ti" class="st2" points="337.1,316.9 333.8,337 311,459.9 307.3,459.9 323.8,337 326.3,316.9 		"/>
		<polygon id="els7h1zdit0sp" class="st3" points="326.3,316.9 337.1,316.9 333.8,337 323.8,337 		"/>
		<polygon id="el138dhjnspmn" class="st2" points="408.5,459.9 404.9,459.9 382.1,337 378.7,316.9 389.5,316.9 392,337 		"/>
		<polygon id="elmjfql5rpfj" class="st3" points="389.5,316.9 392,337 382.1,337 378.7,316.9 		"/>
		<polygon id="el4huipysjiuz" class="st2" points="476.7,459.9 473.1,459.9 450.4,337 447,316.9 457.8,316.9 460.2,337 		"/>
		<polygon id="elsarn1yj1u5i" class="st3" points="460.2,337 450.4,337 447,316.9 457.8,316.9 		"/>
		<polygon id="elz2d5vfaknrk" class="st2" points="471,326.4 304.2,326.4 304.2,308.8 366.7,308.8 399.2,126.7 487.6,126.7 		"/>
		<polygon id="elhvjfxxzu0f" class="st4" points="470.3,308.8 304.2,308.8 304.2,326.4 470.9,326.4 		"/>
		<polygon id="el7xl0ztgzkbw" class="st4" points="471,326.4 461.9,326.4 479,126.7 487.6,126.7 		"/>
		<path id="elxi84b0zl08p" class="st5" d="M473.1,101.2c-2.6-2.8-13.1-10.7-22.2-15c-4.4-2.1-17.7-6.8-19.6-3.6
			c-1.9,3.3,1.9,5,1.9,5s-5.9-1.2-7.5,2.3s4.3,6,4.3,6s-6.2-0.8-7.5,2.8c-1.4,3.6,5,5,5,5s-5.6-1-5.5,2.5c0.2,4.1,10.7,4.6,15.4,7.2
			c1.1,0.6,21,13.4,21,13.4L473.1,101.2z"/>
		<path id="el98199he1l1" class="st0" d="M427.6,103.8c7.7,0.4,11.1,1.9,17.3,6.4c0.1,0.1,0.3-0.1,0.2-0.2
			c-5.7-4.9-9.6-7.4-17.5-6.6C427.2,103.5,427.3,103.8,427.6,103.8z"/>
		<path id="eli0568wo8t1" class="st0" d="M429.7,95.8c8,1.2,11.6,2.8,18.4,6.9c0.1,0,0.2-0.1,0.1-0.2c-6.4-4.6-10.3-7-18.4-7.1
			C429.5,95.3,429.4,95.7,429.7,95.8z"/>
		<path id="elqszsuxeeo5" class="st0" d="M433.8,87.8c7.6,1.6,11.7,3.3,17.8,8.1c0.2,0.1,0.3-0.1,0.2-0.2
			c-5.8-5.6-10.8-7.6-17.9-8.2C433.4,87.5,433.3,87.7,433.8,87.8z"/>
		<path id="el0e4r3r6bg50o" class="st5" d="M462,131.2c0,0-9.6-1.3-13.7-2.7c-4.1-1.4-17.4-12.5-15.1-15.6c2.9-3.9,11.9,1.1,15.9,4
			c0,0,6.7-9,13.8-6.9C470,112.1,462,131.2,462,131.2z"/>
		<path id="el7oprlb0ukm9" class="st0" d="M434.2,112.1c5.2-1.6,10.3,2.6,14.5,5.2c0.2,0.1,0.5,0.1,0.6-0.1c0,0,0.1-0.1,0.1-0.2
			c3.1-3.6,8.4-7.7,13.3-7.2c0.1,0,0.1-0.1,0.1-0.1c0-0.1-0.1-0.1-0.1-0.1c-5.2-1.3-10.8,2.4-13.9,6.6
			C444.5,113.3,439.2,109.3,434.2,112.1C434.2,112,434.2,112.1,434.2,112.1z"/>
		<path id="elcd9fj2ppaw" class="st5" d="M380.5,91.4c3.5-1.5,16.9-5.6,26.9-5.9c4.9-0.1,18.9,1,19.3,4.7C427.2,94,423,94,423,94
			s5.9,1.4,5.9,5.1c0,3.8-6.4,3.7-6.4,3.7s5.9,1.8,5.7,5.6c-0.2,3.8-6.7,2.6-6.7,2.6s5.5,1.4,4,4.4c-1.8,3.7-11.7-0.1-17.1,0.3
			c-1.3,0.1-24.7,3.7-24.7,3.7L380.5,91.4z"/>
		<path id="elz3zlbsmlbki" class="st0" d="M421.5,111.1c-7.2-2.8-10.9-2.7-18.3-1.2c-0.2,0-0.2-0.2-0.1-0.2
			c7.2-2.1,11.8-2.9,18.6,1.1C421.9,111,421.8,111.2,421.5,111.1z"/>
		<path id="eltnugec30ps" class="st0" d="M422.9,102.9c-7.7-2.2-11.7-2.2-19.7-1.2c-0.1,0-0.2-0.2,0-0.2c7.7-1.6,12.3-2.3,19.8,1
			C423.3,102.6,423.2,103,422.9,102.9z"/>
		<path id="el6vf0h7l7v5n" class="st0" d="M422.4,93.9c-7.7-1.6-12-1.7-19.6,0.2c-0.1,0-0.2,0-0.2-0.1c0-0.1,0-0.2,0.1-0.2
			c7.5-2.8,12.9-2.6,19.7-0.2C422.9,93.9,422.9,94,422.4,93.9z"/>
		<path id="elmuvqa2fwwe" class="st5" d="M379,122.2c0,0,9.3,2.8,13.6,3.1c4.3,0.3,21-4.4,20.2-8.1c-1.1-4.7-11.2-3.9-16.1-2.8
			c0,0-2.4-10.9-9.8-11.9C379.4,101.6,379,122.2,379,122.2z"/>
		<path id="eldsdjcrqbub" class="st0" d="M412.1,116c-4.1-3.6-10.4-1.8-15.3-1.2c-0.3,0.1-0.5-0.1-0.5-0.4c0-0.1,0-0.1,0-0.2
			c-1.4-4.5-4.5-10.5-9.3-12.1c-0.1,0-0.1-0.3,0-0.2c5.3,1,8.9,6.6,10,11.7C402.1,113,408.6,111.4,412.1,116
			C412.2,115.9,412.2,116,412.1,116z"/>
		<path id="ellcan3vk3s9" class="st5" d="M407,162.2c-26.3-7.1-67.9-31-64.1-42.5c3.7-11.2,19.3-22.8,39.2-29
			c2.9-0.9,2.3,5.2,3.7,15.8c0.7,5,9.5,18.5,5.2,18.5c-2.2,0.1-4.4,0.6-6.5,1.4c-1.5,0.6,17.2,13.1,27.6,20.9
			C426.3,157.9,418.3,165.3,407,162.2z"/>
		<path id="elv3v5kk4ho3" class="st6" d="M369,154.2l29.2-18.3c0,0,17.6,10.7,21.9,16.6s1,12.4-12.6,12.4
			C391.7,164.8,369,154.2,369,154.2z"/>
		<g id="el7e68661zljt">
			<g class="st7">
				<path id="el46mh5v13w53" d="M405.6,140.6h-15.1l2.7-1.6h9.9L405.6,140.6z"/>
				<path id="elvgy722r7t5" d="M413.4,146.1h-31.7l2.7-1.6h26.8L413.4,146.1z"/>
				<path id="el0mzwrrgpnvw" d="M419.5,151.6h-46.6l2.7-1.6H418C418.5,150.6,419,151.2,419.5,151.6z"/>
				<path id="elkgu6ikq2asc" d="M421.8,157.2h-45.4c-1.6-0.6-3-1.2-4.1-1.6h49.4C421.7,156.1,421.8,156.7,421.8,157.2z"/>
				<path id="eln3403i0u9s" d="M420.2,161.1c-0.7,0.7-1.4,1.3-2.3,1.6h-24.5c-2-0.5-4.1-1.1-6.1-1.6H420.2z"/>
			</g>
		</g>
		<path id="el2u1mdzbvkib" class="st0" d="M376.7,156.4c11.8-7.2,23.4-15.3,25.4-16.9c0.1-0.1,0-0.2-0.1-0.2
			c-8.8,5.1-17.3,10.7-25.4,16.9C376.6,156.2,376.5,156.3,376.7,156.4C376.7,156.3,376.7,156.4,376.7,156.4z"/>
		<path id="ellihbpodovj" class="st0" d="M407.4,164.7c-5.8-0.2-11.5-1.1-17-2.8c7.6-5.1,16.7-11.2,23.3-15.4
			c2.3,1.7,4.4,3.7,6.3,5.9C424.5,158.3,421,164.7,407.4,164.7z"/>
		<path id="elcjq9o8hzp8j" class="st5" d="M310.7,483.3c3.3,0.3,91.6-20.7,94.3-23.5c0.4-0.3-1.4-8.3-4-19.3v-0.2
			c-1.6-6.9-27.3-63-27.3-63l-57.2,15.9l26,52c0,0-10.8,7.8-20,15.2l0,0c-5.7,4.5-10.6,8.6-11.7,9.9
			C308.1,473.7,307.5,483,310.7,483.3z"/>
		<path id="elcmgn7w7v35i" class="st1" d="M310.7,483.3c3.2,0.3,91.5-20.7,94.3-23.5c0.3-0.3-1.4-8.3-4-19.3v-0.2
			c-0.6-2.6-4.5-12.1-9.3-22.8c-9.5,2.5-43.1,11.7-55.5,15.4l6.2,12.4c0,0-10.8,7.8-20.1,15.2l0,0c-5.7,4.5-10.6,8.6-11.7,9.9
			C308.1,473.7,307.4,483.1,310.7,483.3z"/>
		<path id="ellmcsnwjeqbe" class="st6" d="M310.4,483.7c3.4,0.3,91.7-20.9,94.5-23.9c1.1-1.2-0.9-15.1-5.7-29.8l-56.9,13.8
			c0,0-29,23.1-31.8,26.5C307.6,473.8,307.1,483.5,310.4,483.7z"/>
		<path id="eltxp4puigoze" class="st0" d="M310.8,479.9c14.8-4,74.5-18.4,89.3-21.1c0.1,0,0.2,0.1,0,0.1
			c-14.5,4.2-74.4,18.1-89.2,21.3C310.6,480.2,310.5,480,310.8,479.9z"/>
		<path id="elpojwn4a9i2m" class="st0" d="M315.3,465.8c3.3-0.9,6.9-0.4,9.7,1.4c2.6,1.6,4.4,4.1,5.2,7.1c0,0.1-0.1,0.1-0.2,0
			C327.6,468.6,321.6,465.1,315.3,465.8C315.3,465.9,315.3,465.9,315.3,465.8L315.3,465.8z"/>
		<path id="elhlcotaoolx5" class="st0" d="M338,446.4c5.9-1.5,13.3-1.1,18.1,2.9c0.2,0.2,0,0.4-0.2,0.4c-5.9-1.4-11.9-2.3-17.8-2.5
			c-0.2,0-0.4-0.2-0.3-0.5C337.8,446.5,337.9,446.4,338,446.4z"/>
		<path id="el3ew4efdw54x" class="st0" d="M333.9,449.3c5.9-1.5,13.3-1.1,18.1,2.9c0.2,0.2,0,0.4-0.2,0.4
			c-5.8-1.4-11.8-2.3-17.8-2.5c-0.2,0-0.4-0.1-0.4-0.4C333.5,449.5,333.7,449.3,333.9,449.3z"/>
		<path id="el4356z8pxne6" class="st0" d="M329.7,452.1c5.9-1.5,13.3-1.1,18.1,2.9c0.2,0.2,0,0.4-0.2,0.4
			c-5.8-1.4-11.8-2.3-17.8-2.5c-0.2,0-0.4-0.2-0.4-0.4C329.5,452.3,329.6,452.2,329.7,452.1z"/>
		<path id="elt8n48gyu2jg" class="st0" d="M325.6,455c5.9-1.5,13.3-1.1,18.1,2.9c0.2,0.2,0,0.4-0.2,0.4c-5.8-1.4-11.8-2.3-17.8-2.5
			c-0.2,0-0.4-0.1-0.4-0.4C325.3,455.3,325.4,455.1,325.6,455z"/>
		<path id="elhqfpyf44p74" class="st0" d="M393,445.5c6.7-1.5,9.2,8.8,2.5,10.3C388.8,457.6,386.3,447.2,393,445.5z"/>
		<path id="el5b4makbj6tf" class="st0" d="M330.4,440.7c4.1,3.4,9.6,4.8,14.6,6.7c0.4,0.1,0.8-0.1,1-0.5c0-0.1,0-0.2,0-0.2
			c0.1,0,0.2-0.1,0.2-0.2c0,0,0,0,0-0.1c-1.7-5.3-4.8-10.1-9.1-13.8c-2.5-2.1-6.9-3.7-9.3-0.5C325.6,435.1,328,438.7,330.4,440.7z
			 M328.9,435.8c-1-6.6,6.1-3,7.8-1.4c1.2,1.1,2.1,2.2,3.1,3.5c1.9,2.6,3.8,5.2,5.4,8c-2.3-1.1-4.8-1.9-7.2-3
			C335.2,441.8,329.4,439.5,328.9,435.8L328.9,435.8z"/>
		<path id="el3ux2pw2n8qc" class="st0" d="M366.2,437.5c-1.4-3.8-6-3.6-9-2.2c-5.1,2.4-9.4,6.1-12.5,10.7c-0.1,0.1,0,0.2,0,0.2l0,0
			c-0.1,0.4,0.1,0.8,0.5,1c0.1,0,0.2,0,0.2,0c5.2-0.5,10.9-0.3,15.9-2.3C364.2,443.9,367.5,441.1,366.2,437.5z M353.2,445.1
			c-2.6,0.3-5.2,0.4-7.7,0.8c2.4-2.1,4.9-4.2,7.5-6.1c1.3-0.9,2.6-1.7,4-2.4c2.1-1.1,9.8-2.5,7,3.6
			C362.6,444.2,356.3,444.8,353.2,445.1z"/>
		<path id="el5wwt174pouc" class="st0" d="M337.4,438.4l60.8-16.3c0,0-53.4-110.8-49.1-116.8c2.1-3.1,59.1-5.6,76.8-21.5
			c23-20.6,6.3-50.7,6.3-50.7h-63.7c0,0,1.2,13.3-1.3,15.3c-1.5,1.4-77.2,10-84.8,35.9C273.1,316,337.4,438.4,337.4,438.4z"/>
		<path id="el8t4j5wydibw" class="st8" d="M336.4,429.5c1.6-0.8,3.3-1.4,5-1.9c1.7-0.6,3.6-1.3,5.3-1.8c3.5-1.2,7-2.2,10.5-3.3
			c7.1-2,14.2-4.1,21.4-5.9c3.8-1,11.7-3.1,12.3-3c0.2,0,0.3,0.5,0.1,0.5c-6.9,2.5-14,4.6-20.9,6.9c-7,2.2-14,4.3-21.1,6.2
			c-1.9,0.5-4,1-5.9,1.4c-2,0.6-4.1,1.1-6.3,1.4C336.4,430,336.2,429.6,336.4,429.5z"/>
		<path id="elcqzgklsjjio" class="st8" d="M338.1,300.3c1.3-1.2,3.2-1.4,4.7-1.6l27.4-5.4c8.6-1.7,17.2-3.3,25.7-5.1
			c7-1.5,14.2-3.7,20.2-7.6c5.9-4,10.1-9.9,12.1-16.8c1.9-6.9,1.8-14.1,1-21c-0.2-1.7-0.6-3.4-1-5.1c0-0.1,0.2-0.2,0.2,0
			c2.7,12.9,3.4,28.1-6.1,38.8c-4.6,5.2-11.1,8.4-17.7,10.5c-7.5,2.4-15.3,3.7-23.1,5.2l-27.4,5.4c-4.4,0.9-8.9,1.5-13.2,2.6
			c-0.9,0.1-1.7,0.6-2.3,1.2c-0.6,1-0.8,2.1-0.3,3.2c0.5,2.1,1.2,4.2,1.8,6.4c5.5,17,44.3,97.4,45.3,99.3c0.1,0.2-0.2,0.4-0.3,0.2
			c-8.9-14.8-37.7-76.9-43.8-92.9c-1.5-4.1-2.9-8.3-4-12.5C336.9,303.3,336.7,301.6,338.1,300.3z"/>
		<path id="eloa41vdzl07h" class="st5" d="M155.3,485.5c3,1.3,93.7,5.9,97.2,3.9c0.4-0.2,1-8.4,1.6-19.6l0.5-10.6
			c0.2-3.6,46.8-55.6,46.8-55.6l-65-4l-39.8,58.2c0,0-12.5,4.4-23.4,9l0,0c-6.8,2.8-12.6,5.3-14.1,6.3
			C155.4,475.6,152.2,484.3,155.3,485.5z"/>
		<path id="elgly7qolax8f" class="st1" d="M266.3,443.6c-6.8,8.1-11.9,14.5-11.9,15.6l-0.5,10.6c-0.6,11.2-1.3,19.4-1.6,19.6
			c-3.5,1.9-94.1-2.7-97.2-3.9c-3.1-1.2,0.2-9.9,3.8-12.4c1.4-1,7.2-3.5,14-6.3l0,0c10.9-4.4,23.4-8.9,23.4-8.9l11.5-16.8
			L266.3,443.6z"/>
		<path id="elcs5fps0isz7" class="st6" d="M154.8,485.9c3.1,1.3,93.9,5.6,97.4,3.6c1.4-0.8,3.5-14.7,2.9-30.2l-58.5-2.8
			c0,0-34.3,13.9-38,16.5C155,475.6,151.7,484.6,154.8,485.9z"/>
		<path id="ela8bpo48o6x5" class="st0" d="M156.3,482.3c15.2,0.4,76.6,3.3,91.7,4.8c0.1,0,0.1,0.1,0,0.1c-15.1,0-76.5-3.5-91.7-4.6
			C155.9,482.5,155.9,482.3,156.3,482.3z"/>
		<path id="el9xyc3i2a755" class="st0" d="M164.6,470c3.5,0.1,6.7,1.5,9,4.1c2,2.3,3.1,5.2,3,8.3c0,0.1-0.2,0.1-0.2,0
			c-0.8-6.3-5.5-11.2-11.8-12.3C164.5,470.2,164.5,470.2,164.6,470C164.5,470,164.5,470,164.6,470L164.6,470z"/>
		<path id="el0zgmn5fe85fe" class="st0" d="M191.8,457.8c6.1,0.2,13,2.7,16.6,7.9c0.1,0.2-0.2,0.4-0.3,0.3
			c-5.2-3.1-10.7-5.5-16.4-7.4c-0.2-0.1-0.3-0.3-0.2-0.5C191.5,457.9,191.6,457.8,191.8,457.8z"/>
		<path id="el775lwkoj1h3" class="st0" d="M187,459.3c6.1,0.2,13,2.7,16.6,7.9c0.1,0.2-0.2,0.4-0.3,0.3c-5.2-3.1-10.7-5.5-16.4-7.4
			c-0.2,0-0.4-0.2-0.3-0.5C186.6,459.4,186.8,459.3,187,459.3z"/>
		<path id="elqpm4q6hdjg" class="st0" d="M182.2,461c6.1,0.2,13,2.7,16.6,7.8c0.1,0.2-0.2,0.4-0.3,0.3c-5.2-3.1-10.7-5.5-16.4-7.4
			c-0.2-0.1-0.3-0.3-0.2-0.5C181.9,461.1,182.1,461,182.2,461z"/>
		<path id="el0683etc2md9" class="st0" d="M177.4,462.5c6.1,0.2,13,2.7,16.6,7.9c0.1,0.2-0.2,0.4-0.3,0.3
			c-5.2-3.1-10.6-5.5-16.3-7.4c-0.2-0.1-0.3-0.3-0.2-0.5C177.2,462.7,177.3,462.6,177.4,462.5z"/>
		<path id="eltftjut7ayop" class="st0" d="M244.8,472.5c6.9,0.4,6.3,11-0.6,10.6C237.4,482.7,237.9,472.1,244.8,472.5z"/>
		<path id="el50bprzk84jr" class="st0" d="M186,450.2c3.1,4.4,8,7.3,12.2,10.5c0.4,0.2,0.8,0.2,1.1-0.2c0.1-0.1,0.1-0.2,0.1-0.3
			c0.1,0,0.2,0,0.2-0.1l0,0c-0.2-5.6-1.8-11-4.8-15.8c-1.7-2.7-5.5-5.4-8.8-3C182.9,443.6,184.3,447.6,186,450.2z M186,445.1
			c1-6.6,6.7-1.3,7.9,0.9c0.8,1.4,1.4,2.8,2,4.2c1.2,3,2.1,6.1,3,9.3c-1.9-1.7-4.1-3.2-6.1-4.8C190.5,452.6,185.6,448.7,186,445.1
			L186,445.1z"/>
		<path id="elnun9s1wwtj" class="st0" d="M221.3,457.2c-0.3-4-4.8-5.1-8.1-4.6c-5.5,0.9-10.7,3.3-15.1,6.8c-0.1,0.1-0.1,0.2,0,0.2
			l0,0c-0.3,0.3-0.2,0.8,0.2,1.1c0.1,0.1,0.2,0.1,0.3,0.1c5.2,1.1,10.6,2.8,15.9,2.3C217.7,462.7,221.6,461,221.3,457.2z
			 M206.8,460.8c-2.6-0.5-5.1-1.1-7.6-1.4c2.9-1.4,5.9-2.7,8.9-3.8c1.4-0.5,3-1,4.5-1.3c2.4-0.5,10.2,0.4,5.8,5.4
			C215.9,462.5,209.9,461.4,206.8,460.8L206.8,460.8z"/>
		<path id="elslqvgl7id7" class="st0" d="M193.7,445.7l72.7,9c0,0,71.9-86,77.7-91.8c18-17.8,82.5-48.4,101.8-76.9
			c17.3-25.6-0.2-53-0.2-53h-71c1.8,7.5,4.2,15,7.2,22.1c0,0-59,44.4-90.3,76C271.2,351.8,193.7,445.7,193.7,445.7z"/>
		<path id="eltmeixhblh18" class="st8" d="M369.2,250.6c2,0.4,4.1,1,6.1,1.7c2,0.7,4.1,1.5,6.1,2.4c3.9,1.8,7.7,3.8,11.4,6
			c0.1,0.1,0,0.2-0.1,0.2c-3.9-1.8-7.9-3.6-12-5.1l-5.8-2.3c-2-0.7-4-1.4-5.9-2.4C368.8,251.1,369,250.6,369.2,250.6z"/>
		<path id="ele117ptw1ga" class="st8" d="M372.9,233.1c0.9,3.2,1.7,6.5,2.7,9.6c0.5,1.4,1,2.9,1.5,4.3c0.5,1.2,1.3,2.5,2.7,2.8
			c1.6,0.3,2-1.2,1.8-2.4c-0.3-1.4-0.6-3-1-4.4c-0.4-1.6-2.3-9.7-2.3-9.8c0-0.1,0-0.2,0.1-0.3h0.1c0.3,0.2,2.3,6.4,2.7,7.9
			c0.4,1.5,0.9,3.1,1.3,4.6c0.5,1.2,0.6,2.4,0.4,3.6c-0.3,1.2-1.3,2-2.5,2.1c0.1,0.1,0.1,0.2,0.2,0.3c0.2,0.3,0.3,0.7,0.4,1
			s0.3,0.7,0.4,1c0,0.2,0.1,0.3,0.1,0.5c0,0.2,0,0.4,0,0.6c0.1,0.1,0,0.3-0.2,0.4c-0.2,0.1-0.3,0-0.4-0.2c-0.1-0.2-0.2-0.3-0.3-0.5
			c-0.1-0.2-0.2-0.4-0.3-0.5c-0.1-0.3-0.2-0.7-0.3-1c-0.1-0.3-0.2-0.7-0.3-1c0-0.2-0.1-0.4-0.1-0.6c-0.7,0-1.4-0.3-1.9-0.7
			c-1-0.8-1.6-1.7-2-2.9c-0.5-1.4-1-2.7-1.4-4.1c-1.1-3.4-1.9-6.9-2.3-10.3c0-0.2,0.1-0.3,0.3-0.4
			C372.7,232.8,372.9,233,372.9,233.1z"/>
		<path id="eluqo7xthaows" class="st8" d="M415.4,239.8c0.4,1.5,0.6,3.2,1,4.8c0.4,1.5,0.9,3.1,1.4,4.6c0.5,1.4,1.2,2.9,2.1,4.1
			c1,1.2,2,2.2,3.3,3.1c2.3,1.7,4.9,3.1,7.7,4c1.4,0.5,2.8,0.9,4.2,1.2c0.8,0.1,1.5,0.3,2.3,0.3c0.6,0,1.3,0.1,1.8,0.4
			c0.2,0.1,0.2,0.3,0.1,0.5c0,0.1-0.1,0.1-0.1,0.1c-1.1,0.4-2.2,0.4-3.4,0.2c-3.7-0.3-7.2-1.4-10.5-3.2c-2.1-1.2-4.1-2.7-5.8-4.4
			c-1.5-1.9-2.7-4.1-3.3-6.6c-0.9-2.9-1.3-6-1.3-9C415.2,239.8,415.3,239.7,415.4,239.8C415.3,239.7,415.4,239.8,415.4,239.8z"/>
		<path id="el7he8oy08oc" class="st8" d="M209.6,435c1.9-0.1,4,0,5.9,0.2c2,0.1,4.1,0.3,6.2,0.4c4.1,0.3,8.1,0.7,12.1,1.2
			c8.1,1,16.2,1.8,24.3,3c4.2,0.6,13.2,1.8,13.7,2c0.1,0.1,0.2,0.3,0.1,0.4s-0.1,0.1-0.2,0.1c-8.1-0.4-16.1-1.3-24.2-1.9
			c-8.1-0.8-16.1-1.5-24.2-2.7c-2.2-0.3-4.4-0.7-6.7-1.1c-2.3-0.3-4.7-0.7-7-1.3C209.4,435.5,209.4,435,209.6,435z"/>
		<path id="el3am1kn1x4y2" class="st8" d="M366.1,346.4c-3.8,2.4-7.4,5-11.1,7.6c-3.5,2.3-6.9,4.7-10,7.4c-1.5,1.4-3.1,3.1-4.4,4.7
			l-4.3,5c-2.9,3.4-5.8,6.7-8.6,10c-1.6,1.9-3.2,3.9-4.8,5.8c-1.6,2-3.2,4.1-4.9,6.1c0,0.1,0,0.1,0,0.2c0.1,0,0.1,0,0.2,0
			c3-3.4,6.1-6.6,9.1-9.8c3-3.4,5.9-6.7,8.8-10c2.9-3.4,5.5-6.7,8.5-9.7c3.1-2.9,6.4-5.5,9.9-7.8c4.1-2.9,8.1-5.8,12.1-8.8
			C366.8,346.6,366.5,346.2,366.1,346.4z"/>
		<path id="eld5m7ed53l5a" class="st8" d="M380.6,255.8c-12.2,8.5-24.7,18-36.1,27.4c-11.4,9.5-22.7,19.1-33.7,28.9
			c-3.1,2.8-6.2,5.6-9.3,8.4c-3.1,2.9-6.1,6.5-9.2,9.3c-0.2,0.2,0.1,0.4,0.3,0.3c5.5-4.9,11.3-10.3,16.9-15.2
			c5.6-4.9,11.2-9.6,16.8-14.5c11.3-9.6,22.7-19.1,34.3-28.5c6.4-5.2,13.8-10.4,20.2-15.8C381.2,255.9,380.9,255.6,380.6,255.8z"/>
		<path id="eltwcsgnxw3mh" class="st8" d="M443.4,241.5c-0.7-2-1.4-4.1-2.2-6.1c0-0.1-0.2,0-0.2,0.1c2.9,8.4,5.8,17.1,6.1,26.1
			c0.2,4.3-0.4,8.6-1.8,12.6c-1.4,3.9-3.7,7.4-6.5,10.5c-5.7,6.4-12.8,11.4-19.6,16.5c-7.3,5.5-14.9,10.9-22.5,16.1
			c-7.6,5.2-15.3,10.1-23.3,15c-7.9,4.8-15.8,9.2-23.6,13.8c-3.8,2.2-7.3,4.8-10.6,7.8c-3.3,3.1-6.2,6.5-9.2,9.8
			c-6.3,7.2-12.5,14.5-18.7,21.8c-12.4,14.6-24.6,29.4-36.6,44.5c-1.4,1.8-2.9,3.7-4.3,5.5c-0.1,0.1,0,0.2,0.1,0.1
			c12.3-15.1,24.7-30,37.2-44.9c6.3-7.3,12.5-14.7,18.8-22c6.1-6.9,11.9-14.4,19.6-19.6c3.8-2.5,7.7-4.7,11.6-6.9
			c4.1-2.3,8.1-4.6,12.2-7.1c8-4.8,15.9-9.8,23.6-15c7.7-5.2,15.3-10.4,22.8-16c3.8-2.8,7.4-5.6,11.1-8.4c3.2-2.4,6.2-5,9.1-7.7
			s5.3-5.8,7.3-9.3c2-3.6,3.2-7.6,3.7-11.7C448.5,258.5,446.2,249.7,443.4,241.5z"/>
		<path id="elpo134pkyz4" class="st6" d="M363.1,245.6c1.3,2.4,89.9,22.9,90.5,22.5c1.5-1.2,6.7-82.3-16.8-118.6
			c-4.1-6.4-14.1-7.6-19.3-6.3c-2.6,0.7-13.1,9.6-17.9,18.6C394.7,170.9,362.3,244.1,363.1,245.6z"/>
		<g id="ela382rj4p19a">
			<g class="st7">
				<path id="elyz4ap4lnpu" d="M433.6,146.1h-20.5c0.8-0.7,1.5-1.3,2.2-1.6h15.1C431.6,144.9,432.7,145.5,433.6,146.1z"/>
				<path id="el4x7fqzrg1gi" d="M438.2,151.6h-30.9c0.6-0.6,1.1-1.2,1.6-1.6h28.3C437.5,150.6,437.9,151.1,438.2,151.6z"/>
				<path id="elx97kftxdibg" d="M441.1,157.2h-38.5c0.4-0.6,0.9-1.2,1.3-1.6h36.4C440.6,156.1,440.9,156.7,441.1,157.2z"/>
				<path id="elcqxuk9qkwne" d="M443.6,162.7h-44.3l0.4-0.8c0.2-0.3,0.3-0.6,0.5-0.9h42.7C443.1,161.6,443.3,162.2,443.6,162.7z"/>
				<path id="eln6hd00nqxac" d="M445.5,168.2h-49c0.3-0.6,0.6-1.2,0.8-1.6h47.6C445.1,167.2,445.3,167.8,445.5,168.2z"/>
				<path id="eljtf94d43y5" d="M447.2,173.8H394l0.8-1.6h52C446.9,172.7,447,173.3,447.2,173.8z"/>
				<path id="elolphyxihtbj" d="M448.7,179.3h-57.2c0.3-0.6,0.5-1.2,0.8-1.6h56.1L448.7,179.3z"/>
				<path id="elorf3q6npgq" d="M449.9,184.8h-61c0.3-0.6,0.5-1.2,0.8-1.6h59.8C449.6,183.7,449.8,184.3,449.9,184.8z"/>
				<path id="elhy3k3hyfedp" d="M451,190.3h-64.5c0.3-0.6,0.5-1.2,0.8-1.6h63.5C450.8,189.3,450.9,189.9,451,190.3z"/>
				<path id="elqbxjpkb2m9r" d="M451.9,195.9H384c0.3-0.6,0.5-1.2,0.8-1.6h66.9L451.9,195.9z"/>
				<path id="el6q9zq7g0yg" d="M452.7,201.4h-71.2c0.3-0.6,0.5-1.2,0.8-1.6h70.1C452.5,200.3,452.6,200.9,452.7,201.4z"/>
				<path id="el6ymqoncq7k3" d="M453.4,206.9h-74.2c0.3-0.6,0.5-1.2,0.8-1.6h73.3C453.2,205.9,453.3,206.4,453.4,206.9z"/>
				<path id="el2g59gh4lx9l" d="M453.9,212.4h-77.2c0.2-0.6,0.5-1.2,0.8-1.6h76.2C453.8,211.4,453.9,211.9,453.9,212.4z"/>
				<path id="el29pxw3b09t3" d="M454.4,218h-80.1c0.2-0.6,0.5-1.2,0.8-1.6h79.2C454.3,216.9,454.3,217.4,454.4,218z"/>
				<path id="elppdpecmzsxd" d="M454.7,223.5h-82.8l0.7-1.6h82C454.7,222.4,454.7,223,454.7,223.5z"/>
				<path id="elk7t0abcrfv" d="M454.9,229h-85.4l0.7-1.6h84.6C454.8,228,454.9,228.5,454.9,229z"/>
				<path id="elontev4sd75m" d="M455,234.5h-87.8l0.7-1.6H455L455,234.5L455,234.5z"/>
				<path id="el66g0rh1ao1" d="M455.1,240.1h-90.2c0.2-0.5,0.4-1.1,0.7-1.6h89.5C455.1,239,455.1,239.5,455.1,240.1z"/>
				<path id="ela0mgvxzuozf" d="M455.1,244c0,0.6,0,1.2,0,1.6h-92l0,0c0-0.6,0.2-1.2,0.4-1.6H455.1z"/>
				<path id="elqmoeov00xxm" d="M455,249.6c0,0.6,0,1.2,0,1.6h-73.7c-2.3-0.6-4.4-1.2-6.4-1.6H455z"/>
				<path id="el5lqm27bvrv6" d="M454.9,255c0,0.6,0,1.2-0.1,1.6h-51.3c-2.3-0.6-4.6-1.2-6.9-1.6H454.9z"/>
				<path id="elej2xsuuurpp" d="M454.7,260.5c0,0.6-0.1,1.2-0.1,1.6h-27.7l-7.2-1.6H454.7z"/>
				<path id="elx90b1b9kms" d="M454.1,266.1c-0.1,0.6-0.2,1.2-0.3,1.6h-2.3c-1.7-0.4-4.4-1-7.8-1.6H454.1z"/>
			</g>
		</g>
		<path id="elkibk8uxq4j" class="st5" d="M432.8,168.1c15.9-1.3,42.4-7,56.7-15c8.6-4.8,9.9-11.3,10.3-15.8
			c1.2-11.7-18.3-30.7-28.6-37.7c-1.4-1-3.3,6-9.6,13.6c-5.2,6.6-15.1,13.9-13.6,15.1c2.2,1.8,12.4,8.9,11.9,9.6
			c-0.9,1.4-10.2,5.4-24.3,12.3C416.8,159.6,421.7,169.1,432.8,168.1z"/>
		<path id="elgrwvys3ztnw" class="st6" d="M474.8,163.7l-27.3-21c0,0-18.5,9-23.3,14.4c-4.9,5.5-2.1,12.2,11.5,13.5
			C451.1,172.1,474.8,163.7,474.8,163.7z"/>
		<path id="el4xuxqil6c5k" class="st0" d="M467.9,164.4c-10.3-9.2-21.5-17.8-23.5-19.3c-0.1-0.1-0.2,0.1-0.1,0.2
			c7.4,6.9,15.3,13.3,23.5,19.3C467.9,164.6,468,164.4,467.9,164.4z"/>
		<path id="eluxtelr3q7xm" class="st0" d="M451.4,168.4c-2,0.4-4.1,1.2-5.8,2.3c-0.9,0.6-1.5,1.4-2.2,2.1c-0.3,0.4-0.6,0.8-0.9,1.3
			c-0.3,0.4-0.5,0.9-0.7,1.4c0,0.1,0.1,0.2,0.2,0.1c0.3-0.3,0.6-0.8,1-1.1s0.7-0.7,1.1-1.1c0.8-0.7,1.4-1.4,2.3-1.9
			c1.5-1.3,3.3-2.2,5.1-2.9c0.1,0,0.1-0.1,0.1-0.2C451.5,168.4,451.5,168.4,451.4,168.4z"/>
		<g id="elxhi14may2f">
			<g class="st7">
				<path id="elfecjkxp4294" d="M452,146.1h-11.4c1.2-0.6,2.3-1.2,3.2-1.6h6L452,146.1z"/>
				<path id="el0y3ac3s4eov" d="M459.2,151.6h-28.1c0.9-0.6,1.8-1.2,2.7-1.6H457L459.2,151.6z"/>
				<path id="elysbra7h0i8l" d="M466.3,157.2h-42.5l0.1-0.2c0.5-0.6,1.1-1.1,1.6-1.5h38.5L466.3,157.2z"/>
				<path id="elzqu1tcjqr5" d="M473.6,162.7h-51.7c-0.1-0.6,0-1.2,0.1-1.6h49.4L473.6,162.7z"/>
				<path id="elan0dic5q9m" d="M465.3,166.6c-2,0.6-4.3,1.2-6.8,1.6h-31.9c-0.9-0.5-1.7-1-2.5-1.6H465.3z"/>
			</g>
		</g>
		<path id="elfozz1nc6dxi" class="st5" d="M415.2,158.3c4.6,1.9,13.9-4,18.1-9.4c0.3-0.4,1.3-16.8,1.8-20c0.1-0.7-21.1,1.5-21.1,1.5
			c0.5,4.2,0.5,8.5-0.1,12.7C413.9,143.6,410.8,156.4,415.2,158.3z"/>
		<path id="eljiqzrkq7rxd" class="st0" d="M413.6,144.5c0,0.1,0,0.1-0.1,0.2h0.1c0.7,0.2,1.3,0.4,1.9,0.5
			c11.1,1.5,17.1-11.4,18.9-16.4c-3.5-0.1-20.5,1.6-20.5,1.6c0.5,4.2,0.5,8.5-0.1,12.7c0,0.2-0.1,0.3-0.1,0.5
			C413.8,143.9,413.7,144.2,413.6,144.5z"/>
		<path id="eliqmizt34r8e" class="st0" d="M411.3,92.7c0,0-6.9,2.8-8.3,9.7c-1.4,6.9,0.2,14.4,0.8,14.7
			C404.5,117.5,411.3,92.7,411.3,92.7z"/>
		<path id="elecf7ya8pc1j" class="st5" d="M438,103.1c2.2,7.3-1.6,28.4-6.9,33c-7.5,6.8-19.8,7.4-25.6-1.6c-5.6-8.8,0-36.1,5.8-40.3
			C419.8,87.9,434.7,92.3,438,103.1z"/>
		<path id="elt1ec4g8xacf" class="st0" d="M404,111.1c-0.5,1.9-0.7,3.9-0.8,5.9c-0.1,2-0.2,4.1-0.2,6.1c0,0.1,0.2,0.1,0.2,0
			c0-2,0.1-4.1,0.3-6S404,113.1,404,111.1C404.2,111,404.1,111,404,111.1z"/>
		<path id="elz7jt0f2z7pc" class="st9" d="M431.6,135.9L431.6,135.9"/>
		<path id="el3k6dorxogmc" class="st0" d="M417,115.8C417,115.8,417.1,115.9,417,115.8c-0.2,1.5-0.3,3.2,0.9,3.9v0.1
			C416.3,119.3,416.5,117.1,417,115.8z"/>
		<path id="elj0mlf1huo5m" class="st0" d="M418.6,114.6c2.3,0.3,1.6,4.8-0.5,4.6C416,118.9,416.6,114.4,418.6,114.6z"/>
		<path id="elheoc7joyrbp" class="st0" d="M409.1,115C409.1,114.9,409,115,409.1,115c-0.3,1.5-0.7,3.2-2,3.5v0.1
			C408.7,118.5,409.2,116.3,409.1,115z"/>
		<path id="elw40lsv921qi" class="st0" d="M408,113.2c-2.3-0.5-3.1,4.1-1,4.5C409.2,118.3,410,113.7,408,113.2z"/>
		<path id="elfx211es6g5g" class="st0" d="M420.7,112.7c-0.6-0.3-1.2-0.6-1.7-0.9c-0.7-0.2-1.2-0.7-1.5-1.3c-0.2-0.4,0-0.9,0.3-1.2
			c0.8-0.4,1.7-0.4,2.5,0.1c0.8,0.4,1.4,1,1.8,1.8c0.2,0.6-0.1,1.2-0.7,1.4C421.2,112.8,421,112.8,420.7,112.7z"/>
		<path id="elu0u2qkcmu9a" class="st0" d="M406.7,110.7c0.7,0,1.3-0.1,1.9-0.2c0.7,0,1.4-0.2,1.9-0.6c0.3-0.3,0.3-0.8,0.1-1.2
			c-0.6-0.7-1.4-1-2.3-0.8c-0.9,0-1.7,0.4-2.3,1.1c-0.4,0.5-0.3,1.2,0.2,1.4C406.2,110.6,406.4,110.6,406.7,110.7z"/>
		<path id="elm20m2xl50kt" class="st0" d="M416.9,129.3c-0.4,0.3-0.8,0.7-1.4,0.7c-0.5-0.1-1.1-0.3-1.4-0.6c0,0-0.1,0-0.1,0.1
			c0.3,0.7,1,1.1,1.7,1.1C416.4,130.4,416.9,129.9,416.9,129.3C417,129.3,416.9,129.3,416.9,129.3z"/>
		<path id="el2cxp0u2audc" class="st0" d="M416,124.8c-0.9,1.1-2.2,1.6-3.6,1.7c-0.6,0-1.2,0-1.7-0.2l-0.3-0.1
			c-0.1,0-0.2-0.1-0.3-0.1c-0.2,0-0.3-0.2-0.3-0.4l0,0v-0.1l0,0v-0.1c0.1-1.2,0.5-2.8,0.5-2.8c-0.4,0.2-2.6,0.8-2.5,0.2
			c0.8-4.9,2.1-9.7,4-14.5c0.1-0.2,0.3-0.1,0.3,0.1c-0.8,4.6-2.3,9-3.1,13.5c0.8-0.2,1.5-0.4,2.4-0.4c0.2,0.1-0.7,3.2-0.8,3.7l0,0
			c1.8,0.5,3.7,0.1,5.2-0.9C416,124.6,416.1,124.7,416,124.8z"/>
		<path id="elbw1hg692ijq" class="st0" d="M411.4,125.9c0.5,0.9,1.2,1.6,2,2.1c0.5,0.3,1.1,0.4,1.5,0.3c1.2-0.1,1.4-1.2,1.3-2.1
			c0-0.5-0.2-1-0.3-1.4C414.6,125.6,413.1,126,411.4,125.9z"/>
		<path id="el3lsfsh6tg3w" class="st10" d="M413.5,128c0.5,0.3,1.1,0.4,1.5,0.3c1.2-0.1,1.4-1.2,1.3-2.1
			C415.1,126.1,413.9,126.8,413.5,128z"/>
		<path id="elrggkz00tdn" class="st0" d="M436.3,120.2c-2.4,0.4-4-6.9-4.3-9.7c-0.3-2.4,0.1-10,0.1-10.5c0-0.5-11.1,5-16.6,2.4
			s-8.6-8.4-8.3-10.9c0.3-2.4,8.5-7.5,14.8-6.9c6.3,0.7,13.5,9.9,13.5,9.9c-0.9-1.4-1.5-2.7-2.2-4.1c0.2-0.3,4,1.9,4.2,4.9
			c0,0-0.3-3.8,0.1-3.8c0.3,0,3,3.6,1.9,5.8c0,0,3.1,3.7,2.9,7.2C442.1,108,439.1,119.8,436.3,120.2z"/>
		<path id="elyv90gxiixm" class="st0" d="M411.5,100.4c1.5,1.2,3.3,2.1,5.2,2.8c2.1,0.5,4.3,0.5,6.5,0c2.1-0.5,4.1-1.3,6-2.4
			c1.6-1,3.2-2.2,4.8-3c0.4-0.2,0.8,0.4,0.5,0.8c-3.2,3.3-7.2,5.4-11.8,6.1C418.5,105.3,414.2,103.8,411.5,100.4
			C411.5,100.5,411.5,100.4,411.5,100.4z"/>
		<path id="elx8yc6vchrcf" class="st6" d="M417.9,122.7c-3.3-0.9-5.2-4.2-4.3-7.5l0,0c0.9-3.3,4.2-5.2,7.5-4.3
			c3.3,0.9,5.2,4.2,4.3,7.5c-0.8,2.7-3.2,4.6-6,4.5C419,122.9,418.4,122.8,417.9,122.7z M414.3,115.3c-0.8,2.9,1,5.8,3.8,6.6
			c2.9,0.8,5.8-1,6.6-3.8c0.8-2.9-1-5.8-3.8-6.6c-0.4-0.1-0.9-0.2-1.4-0.2C417.1,111.3,415,113,414.3,115.3L414.3,115.3z"/>
		<path id="elsdx2j5436lo" class="st6" d="M405.1,121c-2.5-0.3-4.1-3.4-3.8-6.8c0.2-1.5,0.8-3,1.8-4.1c1.4-1.6,3.8-1.9,5.4-0.6
			c0.5,0.4,0.9,0.9,1.2,1.4c0.7,1.4,1,2.9,0.8,4.4c-0.4,3.2-2.6,5.6-4.9,5.5L405.1,121z M403.7,110.6c-0.9,1.1-1.4,2.3-1.6,3.7
			c-0.4,2.9,1,5.5,3.1,5.8c2,0.3,4.1-1.9,4.4-4.8c0.2-1.4,0-2.7-0.7-4c-0.5-1-1.4-1.6-2.4-1.8h-0.3
			C405.2,109.5,404.3,110,403.7,110.6L403.7,110.6z"/>
		<path id="elfp9miwrbag" class="st6" d="M413.6,115.8l0.6-0.6c-0.9-0.9-2.8-2.2-4.5-0.8l0.5,0.7
			C411.8,113.8,413.5,115.8,413.6,115.8z"/>
		<path id="el9fk0puk9xx" class="st6" d="M440.8,121l0.8-0.3c-0.1-0.4-1.4-3.6-3.1-4.1c-1.7-0.5-12.7-0.9-13.2-1v0.9
			c3.2,0.1,11.8,0.5,13,0.9C439.4,117.8,440.4,120.1,440.8,121z"/>
		<path id="el64s1ivouq6i" class="st5" d="M433.4,120.3c0,0,4.9-6.7,8-4.9c3.1,1.7-0.8,11.5-4.4,12.8c-1.8,0.8-4.1-0.1-4.8-1.9
			c0-0.1,0-0.1-0.1-0.2L433.4,120.3z"/>
		<path id="eloogifw5lnj" class="st0" d="M440.3,118.2c-2.6,1-4,3.3-4.9,5.8c0.6-1,1.8-1.3,2.8-0.7c0.1,0.1,0.2,0.1,0.3,0.2
			c0.1,0,0,0.2-0.1,0.1c-0.9-0.3-1.9,0-2.5,0.8c-0.5,0.6-0.9,1.3-1.3,2c-0.1,0.2-0.5,0.1-0.5-0.2l0,0
			C434.1,122.8,436.8,118.4,440.3,118.2L440.3,118.2z"/>
		<path id="el9my1hnrahpo" class="st0" d="M441.9,115.4c-0.7-0.5-1.6-0.7-2.4-0.4c-0.1,0-0.1,0.1,0,0.1c0.5-0.1,1-0.1,1.4,0
			c0.4,0.1,1.5,0.6,1.5,3c-0.2,1.9-0.7,3.8-1.5,5.4c0,0.1,0.1,0.1,0.1,0.1c0.6-1.1,1-2.2,1.4-3.4
			C442.8,118.9,443.2,116.4,441.9,115.4z"/>
		<path id="elh1utt0doqxv" class="st0" d="M435.1,150.5c-0.8,0.9-1.5,1.8-2.4,2.7c-0.9,0.9-1.8,1.7-2.7,2.5c-1.8,1.5-3.9,2.8-6,4
			c-2.2,1.4-4.7,1.9-7.3,1.6c-2.3-0.4-4.3-2-5-4.3c-1.1-2.9-0.4-6,0.4-9c0-0.1-0.1-0.2-0.2,0c-0.8,3.1-1.4,5.7-0.9,8.6
			c0.4,2.3,1.8,4.2,4,5.2c5.1,2.1,10.5-1.5,14.3-4.7c1.1-1,2.1-1.9,3.2-3c1.1-1.1,2-2.2,2.9-3.5
			C435.3,150.5,435.2,150.4,435.1,150.5z"/>
	</g>
	<g id="freepik--Table--inject-8">
		<rect id="eldypy454eln" x="64.1" y="262.4" class="st11" width="413.1" height="14.7"/>
		<rect id="el3w3az6reiqk" x="64.1" y="271.4" class="st8" width="413.1" height="5.7"/>
		<polygon id="el9bn1ns5bo5" class="st8" points="78.9,483.3 73,483.3 90.3,277.2 105.5,277.2 		"/>
		<polygon id="el706ybhsgex" class="st0" points="105.5,277.2 103.6,291 89.2,291 90.3,277.2 		"/>
		<polygon id="eld4amlqoqs5q" class="st8" points="462.5,483.3 468.4,483.3 451.1,277.2 435.9,277.2 		"/>
		<polygon id="elxexf1zkz70f" class="st0" points="435.9,277.2 437.7,291 452.2,291 451.1,277.2 		"/>
	</g>
	<g id="freepik--Device--inject-8">
		<polygon id="elcq9wgfw02f" class="st8" points="319.5,262.4 383.3,262.4 383.3,257.5 319.5,255.4 		"/>
		<path id="el7sap0nv9s1l" class="st11" d="M269.3,262.3h42.2c3.6,0-1.6-10.2-14.8-14.2C283.6,244.3,265.2,258.5,269.3,262.3z"/>
		<path id="el2aaa6dv82cf" class="st0" d="M285.8,262.3c-0.7-2.1-1.6-4.2-2.7-6.2c-0.6-1-1.3-1.8-1.9-2.7c-0.8-0.9-1.6-1.6-2.5-2.3
			c1.2,0.3,2.2,0.9,3.1,1.6c0.9,0.8,1.7,1.7,2.3,2.7c0.6,1.1,1.1,2.1,1.4,3.3C285.7,260,285.9,261.2,285.8,262.3z"/>
		<path id="elgkjyv5t401l" class="st0" d="M280.8,252.6c-2.2,1.4-4.4,2.7-6.5,4.2c-1.1,0.7-2,1.5-2.9,2.4c-1,0.9-1.6,1.9-2.1,3.1
			c0-1.4,0.6-2.7,1.4-3.7c0.9-1.1,1.8-1.9,2.9-2.7c1.1-0.8,2.2-1.4,3.5-2C278.3,253.3,279.5,252.9,280.8,252.6z"/>
		<polygon id="elekwsog2u91c" class="st8" points="239.1,242.5 341.5,242.5 325.2,166.3 222.8,166.3 		"/>
		<polygon id="el24xnoiepwu6" class="st11" points="235.3,242.5 337.6,242.5 321.4,166.3 219,166.3 		"/>
		<polygon id="elotn0trx0zma" class="st0" points="290.5,215.2 292.9,215.2 289.3,198.2 286.9,198.2 		"/>
		<polygon id="eli78ufupgoaf" class="st0" points="285.8,215.2 288.1,215.2 284.5,198.2 282.1,198.2 		"/>
		<polygon id="el6v3gzlgdqa" class="st0" points="281.1,215.2 283.4,215.2 279.8,198.2 277.4,198.2 		"/>
		<polygon id="elebjsk5hoaul" class="st0" points="276.2,215.2 278.7,215.2 275.1,198.2 272.7,198.2 		"/>
		<polygon id="elglnynhan4cf" class="st0" points="271.5,215.2 273.9,215.2 270.3,198.2 267.9,198.2 		"/>
		<polygon id="elwgtcok2gb9h" class="st0" points="266.8,215.2 269.2,215.2 265.5,198.2 263.1,198.2 		"/>
		<polygon id="elvwzilfoywmj" class="st0" points="262.1,215.2 264.5,215.2 260.8,198.2 258.4,198.2 		"/>
		<polygon id="el10815fhyhgd8" class="st8" points="264.3,262.4 314.6,262.4 314.6,258.6 264.3,256.9 		"/>
		<polygon id="el1pdjhxbd54n" class="st8" points="250.6,262.4 277.6,262.4 293.9,219.8 266.8,219.8 		"/>
		<polygon id="elm1448i5adk" class="st0" points="246.1,262.4 273.2,262.4 289.4,219.8 262.4,219.8 		"/>
	</g>
	<g id="freepik--Shield--inject-8">
		<path id="elp1xm0br1gkq" class="st6" d="M241.2,105.1c0,0-6.2,50.3-16.6,61.6c-12.4,13.5-21.3,11.5-26.3,18.5l0,0
			c-5-7-14-5-26.3-18.6c-10.3-11.3-16.6-61.6-16.6-61.6c27.2-13.2,42.9-28,42.9-28l0,0C198.7,77.6,214.4,92.1,241.2,105.1z"/>
		<g id="el9vnhy6m7lv6">
			<path class="st12" d="M198.2,77.2v108.1l0,0c-5-7-14-5-26.3-18.6c-10.3-11.3-16.6-61.6-16.6-61.6
				C182.5,91.9,198.2,77.2,198.2,77.2L198.2,77.2z"/>
		</g>
		<g id="elau09896uhpl">
			<path class="st13" d="M241.2,105.1c0,0-6.2,50.3-16.6,61.6c-12.4,13.5-21.3,11.5-26.3,18.5V77.2
				C198.7,77.6,214.4,92.1,241.2,105.1z"/>
		</g>
		<path id="eleq4r6qoanke" class="st6" d="M234.5,109.2c0,0-5.3,42.5-14,52c-10.4,11.5-18,9.7-22.3,15.7
			c-4.2-5.9-11.8-4.2-22.3-15.7c-8.7-9.6-14-52-14-52c23-11.1,36.3-23.6,36.3-23.6S211.6,98,234.5,109.2z"/>
		<rect id="elql24h9lhhai" x="187.4" y="125.1" class="st14" width="21.8" height="19.8"/>
		<path id="elxemj5mlqais" class="st14" d="M207,131.3h-2.2v-8.8c-0.2-3.6-3.2-6.4-6.8-6.2c-3.4,0.1-6.1,2.8-6.2,6.2v8.8h-2.2v-8.8
			c0.2-4.8,4.2-8.6,9.1-8.4c4.5,0.2,8.2,3.9,8.4,8.4L207,131.3L207,131.3z"/>
		<path id="elhisyp6e1ayq" class="st11" d="M199.2,135.2l0.9,4.3h-3.9l0.9-4.3c-0.9-0.6-1.2-1.7-0.6-2.7c0.6-0.9,1.7-1.2,2.7-0.6
			c0.9,0.6,1.2,1.7,0.6,2.7C199.6,135,199.4,135.1,199.2,135.2L199.2,135.2z"/>
	</g>
	<g id="freepik--Letter--inject-8">
		<polygon id="el1d54co0ed9r" class="st6" points="127.2,243.7 64.1,243.7 64.1,190.3 95.6,170.4 127.2,190.3 		"/>
		<g id="el7z813p4td2j">
			<polygon class="st12" points="127.2,243.7 64.1,243.7 64.1,190.3 95.6,170.4 127.2,190.3 			"/>
		</g>
		<polygon id="eli9q7cvmnp2" class="st1" points="123.6,235.2 67.6,235.2 67.6,163.4 109.1,163.4 123.6,177 		"/>
		<polygon id="el17qp9zpda6x" class="st4" points="109.1,163.4 123.6,177 109.1,177 		"/>
		<g id="elmixz7mq6pt">
			<rect x="73.1" y="175.5" class="st4" width="31.1" height="1.8"/>
		</g>
		<g id="el7jwtzfqcson">
			<rect x="73.1" y="180.1" class="st4" width="31.1" height="1.8"/>
		</g>
		<g id="elhue9lcd6ygf">
			<rect x="73.1" y="184.7" class="st4" width="31.1" height="1.8"/>
		</g>
		<g id="elpyroywbdn1h">
			<rect x="73.1" y="189.4" class="st4" width="45.5" height="1.8"/>
		</g>
		<g id="elufakg0zmuxo">
			<rect x="73.1" y="194" class="st4" width="45.5" height="1.8"/>
		</g>
		<g id="el2i85kpbgv3f">
			<rect x="73.1" y="198.7" class="st4" width="45.5" height="1.8"/>
		</g>
		<g id="el7lf8o4qojg3">
			<rect x="73.1" y="203.4" class="st4" width="45.5" height="1.8"/>
		</g>
		<g id="el3omlppopwf5">
			<rect x="73.1" y="208" class="st4" width="45.5" height="1.8"/>
		</g>
		<g id="elfwuyfs2d02d">
			<rect x="73.1" y="212.6" class="st4" width="45.5" height="1.8"/>
		</g>
		<g id="el500kshhf2vy">
			<rect x="73.1" y="217.4" class="st4" width="45.5" height="1.8"/>
		</g>
		<g id="elnas7x7vuhah">
			<rect x="73.1" y="222" class="st4" width="45.5" height="1.8"/>
		</g>
		<g id="el9o3p1qz7doq">
			<rect x="73.1" y="226.6" class="st4" width="45.5" height="1.8"/>
		</g>
		<path id="eljos5byepqd" class="st6" d="M127.2,203.7v39.9H64.1v-39.9c2.7,1.5,5.4,3.1,8.1,4.7c2.7,1.5,5.3,3.2,8,4.8
			c3,1.8,5.9,3.6,8.9,5.5h0.1l-0.1,0.1l6.7,4.1c2.2-1.4,4.4-2.8,6.7-4.1l-0.1-0.1h0.1c3-1.8,5.9-3.7,8.9-5.5c2.6-1.6,5.3-3.2,8-4.8
			C121.8,206.8,124.5,205.2,127.2,203.7z"/>
		<path id="elokf3v0anf2p" class="st14" d="M127.2,203.7c-2.5,1.8-5.1,3.5-7.7,5.2c-2.6,1.8-5.2,3.5-7.8,5.1
			c-2.6,1.7-5.4,3.6-8.2,5.3l-0.3,0.2l-7.2,4.6l-0.4,0.2l-0.4-0.2c-2.4-1.5-4.8-3.1-7.2-4.6c-0.1,0-0.2-0.1-0.3-0.2
			c-2.7-1.7-5.5-3.5-8.2-5.3s-5.2-3.5-7.7-5.1c-2.6-1.6-5.2-3.5-7.7-5.2c2.7,1.5,5.4,3.1,8.1,4.7c2.7,1.5,5.3,3.2,8,4.8
			c3,1.8,5.9,3.6,8.9,5.5l0,0l6.7,4.1c2.2-1.4,4.4-2.8,6.7-4.1l0,0c3-1.8,5.9-3.7,8.9-5.5c2.6-1.6,5.3-3.2,8-4.8
			C121.8,206.8,124.5,205.2,127.2,203.7z"/>
		<path id="elt64wedvxzi9" class="st14" d="M89.1,218.6L89.1,218.6l-1.1,0.9c-1.5,1.4-3.2,2.6-4.8,3.9c-2,1.5-4.1,3-6.1,4.4
			c-2,1.4-4.1,2.9-6.3,4.2s-4.2,2.7-6.5,4c1.9-1.6,3.9-3.3,5.9-4.7c2-1.5,4.1-3,6.1-4.4s4.1-2.9,6.3-4.2c1.7-1.2,3.5-2.1,5.2-3.2
			L89.1,218.6L89.1,218.6z"/>
		<path id="elf2s2szs02qe" class="st14" d="M127,236c-2.2-1.3-4.3-2.6-6.5-4c-2.1-1.4-4.2-2.8-6.3-4.2c-2.1-1.4-4.1-2.9-6.2-4.4
			c-1.6-1.3-3.3-2.5-4.8-3.9c-0.4-0.3-0.7-0.6-1-0.9l-0.1-0.1h0.1l1.3,0.7c1.7,1,3.5,2,5.2,3.2c2.1,1.4,4.2,2.8,6.3,4.2
			c2,1.4,4.1,2.9,6.1,4.4C123,232.7,125.1,234.3,127,236z"/>
		<circle id="el3kdgsn7tpmr" class="st11" cx="127" cy="243.5" r="10.3"/>
		<rect id="elqp9fgry70me" x="121.9" y="240.9" class="st14" width="10.3" height="9.4"/>
		<path id="ela54ealds94g" class="st14" d="M131.1,243.8h-1v-4.1c-0.1-1.7-1.5-3-3.3-2.9c-1.5,0.1-2.8,1.4-2.9,2.9v4.1h-1.1v-4.1
			c-0.1-2.3,1.6-4.2,3.9-4.3c2.3-0.1,4.2,1.6,4.3,3.9c0,0.2,0,0.3,0,0.5V243.8z"/>
		<path id="elt6aivyp43g" class="st11" d="M127.4,245.6l0.5,2H126l0.4-2c-0.3-0.2-0.4-0.5-0.4-0.8c0-0.5,0.4-1,0.9-1
			c0.5,0,1,0.4,1,0.9C127.9,245.1,127.7,245.5,127.4,245.6L127.4,245.6z"/>
	</g>
	<g id="freepik--Password--inject-8">
		<rect id="elfnb6dz9f3cu" x="68.2" y="138.6" class="st14" width="105.8" height="16"/>
		<path id="elswq9y7bo0x" class="st1" d="M174.7,155.2h-107V138h106.9L174.7,155.2L174.7,155.2z M68.8,154.1h104.7v-14.9H68.8V154.1
			z"/>
		<circle id="elr7c479p1xg" class="st11" cx="65.4" cy="146.6" r="10.3"/>
		<rect id="elnl5bcut4kf" x="60.3" y="144" class="st14" width="10.3" height="9.4"/>
		<path id="elisfiqi3dje" class="st14" d="M69.6,146.9h-1.1v-4.1c0-1.7-1.4-3.1-3.1-3.1c-1.7,0-3.1,1.4-3.1,3.1l0,0v4.1h-1.1v-4.1
			c0-2.3,1.8-4.1,4.1-4.1s4.1,1.8,4.1,4.1l0,0V146.9z"/>
		<path id="eljnrupeikjcm" class="st11" d="M65.9,148.8l0.4,2h-1.8l0.5-2c-0.3-0.2-0.5-0.5-0.5-0.8c0.1-0.5,0.5-0.9,1.1-0.8
			c0.4,0,0.8,0.4,0.8,0.8C66.3,148.4,66.1,148.7,65.9,148.8z"/>
		<rect id="elvpvrwqy5y6" x="85.5" y="143.3" class="st11" width="1.2" height="7.3"/>
		<rect id="elrmimnf316se" x="82.4" y="146.3" class="st11" width="7.3" height="1.2"/>
		<g id="ela8xorotb09">
			<rect x="82.4" y="146.3" class="st11" width="7.3" height="1.2"/>
		</g>
		<g id="el0vrr5d1r5aw">
			<rect x="85.5" y="143.3" class="st11" width="1.2" height="7.3"/>
		</g>
		<rect id="elxzm3c8ud8h" x="97.9" y="143.3" class="st11" width="1.2" height="7.3"/>
		<rect id="el5torvpvyn7f" x="94.9" y="146.3" class="st11" width="7.3" height="1.2"/>
		<g id="el1d9hz2a2jo">
			<rect x="94.9" y="146.3" class="st11" width="7.3" height="1.2"/>
		</g>
		<g id="elm3g9ol7z4e">
			<rect x="97.9" y="143.3" class="st11" width="1.2" height="7.3"/>
		</g>
		<rect id="elvlm7s0afbfm" x="110.4" y="143.3" class="st11" width="1.2" height="7.3"/>
		<rect id="ely8iyj3xslwr" x="107.3" y="146.3" class="st11" width="7.3" height="1.2"/>
		<g id="elnl5xsf8urvl">
			<rect x="107.3" y="146.3" class="st11" width="7.3" height="1.2"/>
		</g>
		<g id="el8estwdm8pdx">
			<rect x="110.4" y="143.3" class="st11" width="1.2" height="7.3"/>
		</g>
		<rect id="el981aipjvhc6" x="122.8" y="143.3" class="st11" width="1.2" height="7.3"/>
		<rect id="elbg1nqe6pe3n" x="119.8" y="146.3" class="st11" width="7.3" height="1.2"/>
		<g id="el78z3i2u42p">
			<rect x="119.8" y="146.3" class="st11" width="7.3" height="1.2"/>
		</g>
		<g id="elg1ebt8omq9c">
			<rect x="122.8" y="143.3" class="st11" width="1.2" height="7.3"/>
		</g>
		<rect id="elvbu5illwu9q" x="135.3" y="143.3" class="st11" width="1.2" height="7.3"/>
		<rect id="el8tom2xgfphk" x="132.2" y="146.3" class="st11" width="7.3" height="1.2"/>
		<g id="elmvf82m8x6m">
			<rect x="132.2" y="146.3" class="st11" width="7.3" height="1.2"/>
		</g>
		<g id="el5zmqjcyk1um">
			<rect x="135.3" y="143.3" class="st11" width="1.2" height="7.3"/>
		</g>
		<rect id="eleujucf283w9" x="147.7" y="143.3" class="st11" width="1.2" height="7.3"/>
		<rect id="eluwx5i9qq97r" x="144.6" y="146.3" class="st11" width="7.3" height="1.2"/>
		<g id="elz2f9kvebb4h">
			<rect x="144.6" y="146.3" class="st11" width="7.3" height="1.2"/>
		</g>
		<g id="ele3zal1t4rqe">
			<rect x="147.7" y="143.3" class="st11" width="1.2" height="7.3"/>
		</g>
	</g>
	<g id="freepik--Plant--inject-8">
		<path id="eljnz432uogi" class="st6" d="M84.6,393.4c0,0-25.6-5.8-39.6-18.7c-14-12.9-21.8-36-21.8-36c9.7,1.8,19.3,4.4,28.7,7.5
			c2.3,2.4,6.7,7.5,8.7,12.3c0.2-2.9,0.3-5.9,0.1-8.8c3.3,1.4,6.4,3.3,9.1,5.5C81.3,365.5,84.6,393.4,84.6,393.4z"/>
		<path id="elv4uct3c5dj" class="st0" d="M39.2,350c-3.5-2.4-7-4.7-10.5-7.1c-0.1-0.1-0.1-0.2,0-0.3c0.1-0.1,0.1-0.1,0.2-0.1
			c6.6,4,13.1,8.1,19.4,12.5c2.2,1.5,4.3,3.1,6.5,4.7l-0.5-0.8c-0.8-1.3-1.5-2.5-2.4-3.8c-1.6-2.6-3.4-5-5.4-7.2
			c-0.1-0.1,0-0.2,0.1-0.1c2,2.3,4,4.6,5.8,6.9c0.9,1.2,1.6,2.3,2.4,3.6c0.4,0.7,0.8,1.3,1.2,1.9l0.4,0.7c3.3,2.6,6.6,5.3,9.6,8.2
			c1.9,1.7,3.8,3.6,5.5,5.5c-1-3.1-1.8-6.2-3-9.3c0-0.1,0.1-0.1,0.2,0c1.2,3.2,2.3,6.4,3.2,9.6c1.9,2.1,3.9,4.3,5.6,6.6
			c0-0.1,0-0.3-0.1-0.4c-0.3-1.2-0.6-2.4-0.9-3.6c-0.6-2.3-1.3-4.6-2.1-6.9c-1.4-4.7-3.9-9.1-6.9-12.9c-0.1-0.1,0-0.2,0.1-0.1
			c5,5.9,7.9,13,9.7,20.5c0.3,1.1,0.5,2.2,0.8,3.3c0.1,0.6,0.3,1.2,0.4,1.7c0.8,1.1,1.5,2.1,2.3,3.2c4.3,6.7,8,13.8,10.8,21.2
			c3.2,8.4,5.9,16.9,8.2,25.5c0,0.2-0.2,0.2-0.3,0.1c-5-15-10.1-30.1-18.6-43.4c-1.8-2.8-3.8-5.5-5.8-8.2c-4.2-0.3-8.4-1.1-12.4-2.5
			c-4.3-1.4-8.6-3.5-12.4-6c-2.2-1.4-4.3-3.1-6.4-4.8c0,0-0.1-0.1,0-0.1c0,0,0.1-0.1,0.1,0l0,0c3.6,2.9,7.5,5.2,11.7,7
			c4.1,1.9,8.5,3.4,12.9,4.3c1.9,0.4,3.8,0.7,5.8,1c-2.3-2.9-4.9-5.7-7.5-8.4c-0.9-0.9-1.7-1.6-2.6-2.5c-3-2.1-6.2-3.9-9.5-5.4
			c-4.1-2-8.3-4.1-12.4-6.3c-2.3-1.2-4.6-2.4-7-3.6c-0.1-0.1,0-0.2,0.1-0.2c4.2,2,8.5,4,12.6,5.9c4,1.8,8.1,3.7,11.9,5.8l0.5,0.3
			c-3.5-3-7-5.9-10.7-8.7C46.1,354.9,42.8,352.4,39.2,350z"/>
		<path id="el0nzw52zwc9ko" class="st0" d="M40.7,363.1c2,0.9,4.1,1.7,6.3,2.7c2.1,1,4.1,2.1,6.2,3.4c0.1,0.1,0,0.2-0.1,0.1
			c-2-1-4.1-1.9-6.1-2.9c-2-1.1-4.1-2.1-6.3-3.1C40.5,363.3,40.5,363.1,40.7,363.1z"/>
		<path id="elklndck0cebm" class="st6" d="M167.6,264.7c-4.7,6.1-7.4,13.5-7.6,21.2c-0.1,2.3,0.3,5.5,0.6,9.3
			c-9.6,5-16.7,14.3-16.7,14.3c5.4-3.3,12.8-4.6,16.9-4.1c-0.1,2.6-0.5,5.1-1,7.6c-1.7-0.1-5.2,0.1-10.8,2.1c3.4,0,6.7,0.6,9.7,1.9
			c-4.5,14.5-18,29.3-55.5,35.7c-4-17.8-1.6-36.4,6.7-52.6C121,278.2,167.6,264.7,167.6,264.7z"/>
		<path id="el5ptmt0z7656" class="st0" d="M90.2,414.8c0.7-6.2,1.4-12.4,2.4-18.5c1.9-12.4,4.4-24.5,7.5-36.6
			c1.4-5.7,3.3-11.2,5.4-16.7c-0.1-1-0.2-2-0.1-3c0-1.2,0-2.4,0-3.6c0-2.4,0.1-4.8,0.4-7.1c0.4-4.7,1.2-9.5,2.3-14
			c0.7-2.7,1.4-5.3,2.3-7.9c0-0.1,0.2-0.1,0.2,0c-1.3,4.6-2.1,9.3-2.8,14c-0.7,4.6-1.1,9.4-1.3,14c0,1.3-0.1,2.6-0.1,3.9
			c0,0.6,0,1.1,0,1.6c1.8-4.4,4-8.8,6.3-12.9c3.8-6.7,8.1-13.1,12.8-19.1c0-0.7,0.1-1.4,0.3-2.1c0.2-0.9,0.4-1.6,0.6-2.5
			c0.4-1.7,0.8-3.5,1.3-5.1c1-3.4,2.1-6.7,3.2-10c0-0.1,0.2-0.1,0.2,0c-1,3.3-1.6,6.8-2.4,10.1c-0.4,1.6-0.8,3.4-1.2,5
			c-0.2,0.9-0.4,1.6-0.6,2.5v0.2c1.5-1.9,3.1-3.8,4.6-5.6c7.1-8.4,15-16.1,22.9-23.7c1-1,1.9-1.8,2.9-2.8h0.1v0.1
			c-7.5,7.8-15,15.8-22,24.1c-1.6,2-3.3,4-4.9,6c0.9-0.6,1.7-1.2,2.5-1.6c2.2-1.4,4.3-2.8,6.7-4.1c2.3-1.3,4.5-2.5,6.9-3.7
			c2.4-1.2,4.9-2.1,7.2-3.5c0.1-0.1,0.2,0.1,0.1,0.2c-2.3,1.1-4.6,2.3-6.9,3.8c-2.3,1.4-4.6,2.7-6.8,4.1c-2.2,1.4-4.4,2.8-6.6,4.1
			c-1.8,1.2-3.6,2.5-5.5,3.6c-4.3,5.6-8.3,11.4-12,17.5c-2.2,3.8-4.3,7.7-6.2,11.8l1.4-0.6l3.5-1.5c2.2-1,4.4-1.9,6.7-2.9
			c4.1-1.8,8.5-3.5,12.5-5.5c2.3-1.1,4.5-2.3,6.8-3.8c0.1-0.1,0.2,0.1,0.1,0.2c-7.6,5.3-16.3,9-24.7,12.7l-3.7,1.6
			c-1.1,0.5-2,1-3.1,1.4c-2.5,5.6-4.6,11.4-6.4,17.3c-3.3,11.9-6,23.9-8.1,36.2c-2.1,12.2-3.6,24.5-4.7,36.9
			c-0.2,1.5-0.3,3.1-0.5,4.6c0,0.3-0.2,0.5-0.5,0.5c-0.3,0-0.5-0.2-0.5-0.5C89,427.3,89.6,421,90.2,414.8z"/>
		<path id="elcn3umbv0dsh" class="st0" d="M113,311.6c0.7-3.8,1.7-7.5,2.7-11.2c0-0.1,0.2-0.1,0.2,0c-1,3.7-1.6,7.3-2.3,11.1
			c-0.7,3.7-1.4,7.5-1.8,11.4c0,0.1-0.1,0.1-0.1,0C111.8,319,112.3,315.3,113,311.6z"/>
		<path id="elayc0uu4zl78" class="st0" d="M129.1,321.8c2.6-1.7,5.3-3.3,8.1-4.6c1.4-0.7,2.7-1.4,4.1-2c1.4-0.7,2.9-1.3,4.3-1.9
			c0.1,0,0.1,0,0.1,0.1v0.1c-1.4,0.7-2.7,1.5-4.1,2.2s-2.8,1.5-4.1,2.3c-2.7,1.4-5.4,3.1-8.3,4.2c-0.1,0.1-0.2,0-0.3-0.1
			C129,322,129,321.9,129.1,321.8L129.1,321.8z"/>
		<g id="elis1niby75wb">
			<path class="st15" d="M84.1,349.2c0,0-23.6-5.7-34.4-21.5c-10.3-15.1-13.7-40.9-14-43.2c0.4,2,5.3,24.6,21.4,35.1
				C69.4,327.7,81.3,334.3,84.1,349.2z"/>
		</g>
		<path id="el1bstmens2tgj" class="st0" d="M62.3,308.3c4.2,3.9,7.2,8.9,8.7,14.4 M71,322.7c-1.7-5.4-4.7-10.3-8.8-14.3
			c-0.1,0,0-0.2,0.1-0.1L71,322.7z"/>
		<path id="elr4vvstyzsfg" class="st6" d="M84.1,349.2c0,0-23.6-5.7-34.4-21.5c-10.3-15.1-13.7-40.9-14-43.2c0-0.1,0-0.1,0-0.2
			c0,0,11.4,16.1,23.3,20.3C70.8,308.7,87.6,322.9,84.1,349.2z"/>
		<path id="elpv5yer00g5" class="st0" d="M39.9,293.2c2.1,4.3,4.5,8.5,7.2,12.4c2.8,3.8,6,7.1,9.7,10c3.2,2.5,6.7,4.8,9.8,7.3
			l-0.1-0.1c-0.6-0.9-1.3-1.8-1.9-2.6c-1.4-1.7-2.8-3.4-4.3-5c-2.9-3.2-6-6.3-8.6-9.7c-1.4-1.9-2.7-4-3.8-6.1c0-0.1,0.1-0.2,0.2,0
			c3.9,8,11.5,13.1,17,19.9c0.8,1,1.5,1.9,2.2,3c0.6,0.8,1,1.5,1.4,2.4c3,2.4,5.7,5.1,8.1,8.1c-0.2-1.5-0.5-3.1-1-4.6
			c-0.6-2.1-1.4-4.1-2.5-6c0-0.1,0.1-0.2,0.2-0.1c1.2,1.8,2,3.9,2.8,6c0.5,1.6,0.8,3.4,0.9,5.1l0,0c1.2,1.5,2.2,3.3,3.2,4.9
			c-0.1-0.5-0.2-1.1-0.3-1.5c-0.5-2.3-1-4.7-1.5-7c-1.2-4.7-3-9.2-5.7-13.2c0-0.1,0-0.1,0.1-0.1h0.1c2.7,4.1,4.8,8.4,6.3,13
			c0.8,2.3,1.4,4.6,1.9,7c0.3,1.2,0.5,2.3,0.7,3.5c0.1,0.6,0.3,1.3,0.4,1.8c2.3,5.1,4.1,10.5,5.4,16c2.3,9.8,4.1,19.9,5,29.9
			c1.3,10.5,1.7,21.1,1.6,31.7c0,1.4-0.1,2.6-0.2,4c0,0.3-0.5,0.4-0.6,0c-0.2-5.2-0.4-10.5-0.7-15.7c-0.3-5.2-0.8-10.5-1.4-15.7
			c-1.1-10.2-2.7-20.5-4.9-30.6c-1.9-8.7-4.4-17.4-9.2-24.9c-2.3-3.8-5.2-7.1-8.5-10.1c-3.3-3-6.9-5.6-10.3-8.3
			c-3.6-2.7-6.8-5.8-9.6-9.3c-2.9-3.8-5.5-7.9-7.6-12.2C40.9,295.4,40.3,294.3,39.9,293.2C39.7,293.2,39.9,293.1,39.9,293.2z"/>
		<path id="eludac7q7q1z" class="st0" d="M43.9,296.7c1.5,3.2,3.3,6.3,5.3,9.3c0,0.1-0.1,0.1-0.1,0.1
			C47.1,303.1,45.4,300,43.9,296.7C43.7,296.7,43.9,296.6,43.9,296.7z"/>
		<path id="el06nymamh8k1y" class="st6" d="M170.9,338.7c0,0,0.4,33.6-19.7,43.3s-30.9,1.6-44.5,4.9l0,0
			c0.5-0.8,10.2-14.8,25.8-18.6C148.4,364.3,166.1,352.7,170.9,338.7z"/>
		<g id="elgexlwspdpq9">
			<path class="st13" d="M170.9,338.7c0,0,0.4,33.6-19.7,43.3s-30.9,1.6-44.5,4.9l0,0c7.2-3.5,15-5.7,22.9-6.8
				C142.2,378.6,166.4,370.4,170.9,338.7z"/>
		</g>
		<path id="el8526muboc97" class="st0" d="M105.4,387.6c2.4-2.2,5.1-4,8-5.4c0.5-0.2,0.9-0.4,1.4-0.6c0.2-0.3,0.5-0.5,0.7-0.8
			c0.6-0.7,1.3-1.3,1.9-1.8c1.3-1.1,2.6-2,4.1-2.9c3.4-1.9,6.9-3.4,10.3-5.1h0.1v0.1l0,0c-1.6,0.9-3.3,1.8-4.9,2.8
			c-1.6,1-3.2,1.8-4.7,2.8c-1.4,0.9-2.7,1.9-4,3c-0.4,0.3-0.7,0.7-1.1,1c2.2-0.8,4.5-1.4,6.8-1.8c3.7-0.8,7.4-1.3,11.1-2
			c1.8-0.4,3.6-0.9,5.3-1.4c1.6-1.4,3.4-2.7,4.9-4.1c1.9-1.7,3.7-3.7,5.2-5.8c0.1-0.1,0.2,0,0.2,0.1c-2.4,3.3-5.2,6.4-8.2,9.1
			c0.9-0.3,1.7-0.7,2.6-1.1c6.9-3.1,12.8-8,17.1-14.2c0.1-0.1,0.2,0,0.2,0.1c-3.7,5.3-8.4,9.8-13.8,13.3c-2.7,1.7-5.7,3.1-8.8,4.1
			c-3.6,1.2-7.2,1.9-10.9,2.6c-3.6,0.6-7.1,1.4-10.6,2.5c-3.2,1.1-6.2,2.7-8.9,4.7c-5.1,4-9.3,9.1-12.1,15
			c-3.8,7.6-5.6,16.1-6.7,24.5c0,0.4-0.6,0.4-0.6,0C90.7,412,94.5,397.3,105.4,387.6z"/>
		<path id="elg0t3s91t1r" class="st0" d="M128.7,376.6c1.1-1.5,2.5-2.9,4.1-3.8c1.9-1,3.6-2.4,4.9-4.1c0.1-0.1,0.2,0,0.2,0.1
			c-1.2,1.5-2.7,2.9-4.3,3.9c-1.8,1-3.5,2.3-4.7,3.9C128.7,376.7,128.6,376.6,128.7,376.6z"/>
		<polygon id="elr4vr1jwqag" class="st11" points="118,412.3 117.1,430.8 114.3,487.2 72.2,487.2 69.4,430.8 68.5,412.3 		"/>
		<polygon id="eldfpgmv1crfo" class="st0" points="118,412.3 117.1,430.8 69.4,430.8 68.5,412.3 		"/>
		<rect id="elxh4rgqbjcm8" x="65.5" y="404.6" class="st11" width="55.5" height="17.7"/>
	</g>
</g>
</svg>
