<svg xmlns="http://www.w3.org/2000/svg" viewBox="0 0 500 500"><g id="freepik--background-complete--inject-78"><path style="fill:#ebebeb" d="M0 382.4h500v.25H0zM52.46 391.92h33.12v.25H52.46zM136.33 389.21h43.5v.25h-43.5zM81.58 397.08h38.75v.25H81.58zM406.71 399.53h43.19v.25h-43.19zM379 399.53h18.8v.25H379zM238.44 395.31H275v.25h-36.56zM237 337.8H43.91a5.71 5.71 0 0 1-5.7-5.71V60.66a5.71 5.71 0 0 1 5.7-5.66H237a5.71 5.71 0 0 1 5.71 5.71v271.38a5.71 5.71 0 0 1-5.71 5.71ZM43.91 55.2a5.46 5.46 0 0 0-5.45 5.46v271.43a5.46 5.46 0 0 0 5.45 5.46H237a5.47 5.47 0 0 0 5.46-5.46V60.66A5.47 5.47 0 0 0 237 55.2ZM453.31 337.8h-193.1a5.72 5.72 0 0 1-5.71-5.71V60.66a5.72 5.72 0 0 1 5.71-5.66h193.1a5.71 5.71 0 0 1 5.69 5.66v271.43a5.71 5.71 0 0 1-5.69 5.71ZM260.21 55.2a5.47 5.47 0 0 0-5.46 5.46v271.43a5.47 5.47 0 0 0 5.46 5.46h193.1a5.47 5.47 0 0 0 5.46-5.46V60.66a5.47 5.47 0 0 0-5.46-5.46Z"/><path d="M359.16 293.2h67v89.2h-56.33a10.68 10.68 0 0 1-10.68-10.68V293.2h.01Z" transform="rotate(180 392.665 337.8)" style="fill:#e0e0e0"/><path d="M229.83 293.2h141.56a10.68 10.68 0 0 1 10.68 10.68v78.52H219.15v-78.52a10.68 10.68 0 0 1 10.68-10.68Z" style="fill:#ebebeb"/><circle cx="302.31" cy="337.8" r="28.81" style="fill:#e0e0e0"/><circle cx="300.61" cy="337.8" r="28.81" style="fill:#fafafa"/><circle cx="300.61" cy="337.8" r="19.38" style="fill:#e6e6e6"/><path d="M322.66 119.55a72.34 72.34 0 0 0-72.13 72.13V293.2H394.8V191.68a72.35 72.35 0 0 0-72.14-72.13Z" style="fill:#e0e0e0;opacity:.5"/><path d="M296.37 202.57h-19.1a5.71 5.71 0 0 1-5.76-6.48l2.49-22.51a7.46 7.46 0 0 1 7.21-6.48h19.1a5.69 5.69 0 0 1 5.75 6.48l-2.52 22.51a7.46 7.46 0 0 1-7.17 6.48ZM352.74 237.42h16.2a4.84 4.84 0 0 0 4.88-5.5l-2.14-19.08a6.33 6.33 0 0 0-6.11-5.5h-16.19a4.83 4.83 0 0 0-4.88 5.5l2.14 19.08a6.32 6.32 0 0 0 6.1 5.5ZM334 170.76h13.52a4 4 0 0 0 4.08-4.59l-1.79-15.94a5.29 5.29 0 0 0-5.1-4.59h-13.55a4 4 0 0 0-4.08 4.59l1.79 15.94a5.28 5.28 0 0 0 5.13 4.59ZM300.27 263.65H288.8a3.42 3.42 0 0 1-3.45-3.9l1.51-13.51a4.48 4.48 0 0 1 4.33-3.89h11.46a3.42 3.42 0 0 1 3.46 3.89l-1.51 13.51a4.49 4.49 0 0 1-4.33 3.9Z" style="fill:#e0e0e0"/><path d="M313.43 293.2h-2c0-7.56 5.42-11.29 10.67-14.89 5-3.47 9.79-6.74 9.79-13.25s-4.76-9.79-9.79-13.25c-5.25-3.61-10.67-7.34-10.67-14.9s5.42-11.29 10.67-14.9c5-3.46 9.79-6.74 9.79-13.25s-4.76-9.78-9.79-13.25c-5.25-3.6-10.67-7.33-10.67-14.9s5.42-11.29 10.67-14.9c5-3.46 9.79-6.74 9.79-13.25h2c0 7.57-5.42 11.29-10.66 14.9-5 3.47-9.8 6.74-9.8 13.25s4.76 9.79 9.8 13.25c5.24 3.61 10.66 7.34 10.66 14.9s-5.42 11.3-10.66 14.9c-5 3.47-9.8 6.74-9.8 13.25s4.76 9.78 9.8 13.25c5.24 3.61 10.66 7.33 10.66 14.9s-5.42 11.29-10.66 14.89c-5.04 3.47-9.8 6.74-9.8 13.25Z" style="fill:#fff"/><path style="fill:#f5f5f5" d="M127.89 382.4h30.03L150.46 165h-15.11l-7.46 217.4z"/><path style="fill:#ebebeb" d="M92.2 382.4h30.04L114.78 165H99.67L92.2 382.4z"/><path style="fill:#e0e0e0" d="M56.52 382.4h30.03L79.09 165H63.98l-7.46 217.4z"/><path d="m90.05 154.7 64.33-3.6c2.56-.14 4.83-1.11 5.79-2.47l5.22-7.41c1.34-1.91-.28-3.95-3.6-4.56l-9.93-1.82c-5.84-1.07-5.26-5.8.84-6.87l50.3-8.84c4.52-.8 6.42-3.87 3.6-5.82l-1.42-1c-3.06-2.12-.55-5.46 4.47-5.94l81.65-7.83c6.41-.62 8-5.48 2.27-6.88-6.09-1.49-3.85-6.69 3-6.93l128-4.44a8.47 8.47 0 0 0 5.76-2.13l6.45-7c2.3-2.51-.88-5.29-5.79-5.06L123.72 80c-7 .32-8.89 5.74-2.44 7l32.79 6.45c5.93 1.17 4.94 6-1.41 6.92l-34.17 4.65c-5.9.8-7.35 5.2-2.22 6.71l4.28 1.27c5 1.49 3.76 5.78-2 6.68L78.77 126c-5.84.92-7 5.32-1.8 6.73l23.77 6.46c5.17 1.4 4.07 5.75-1.7 6.71l-10.63 1.77c-7.62 1.25-6.17 7.46 1.64 7.03Z" style="fill:#e0e0e0;opacity:.2"/></g><g id="freepik--Shadow--inject-78"><ellipse id="freepik--path--inject-78" cx="250" cy="416.24" rx="193.89" ry="11.32" style="fill:#f5f5f5"/></g><g id="freepik--control-panel--inject-78"><path d="M368.59 148.55H160.86a3.78 3.78 0 0 0-3.78 3.47l-10.57 129.64a3.78 3.78 0 0 0 3.77 4.09H358a3.78 3.78 0 0 0 3.77-3.48l10.57-129.63a3.78 3.78 0 0 0-3.75-4.09Z" style="fill:#4e78cc"/><path d="M368.59 148.55H160.86a3.78 3.78 0 0 0-3.78 3.47l-10.57 129.64a3.78 3.78 0 0 0 3.77 4.09H358a3.78 3.78 0 0 0 3.77-3.48l10.57-129.63a3.78 3.78 0 0 0-3.75-4.09Z" style="fill:#263238;opacity:.4"/><path style="fill:#4e78cc" d="M290.71 138.96h4.31v1.07h-4.31zM267.46 138.96h17.91v1.07h-17.91zM362.74 142.7H155a3.8 3.8 0 0 0-3.78 3.48l-10.56 129.63a3.78 3.78 0 0 0 3.77 4.09h207.74a3.78 3.78 0 0 0 3.77-3.48l10.57-129.63a3.78 3.78 0 0 0-3.77-4.09Z"/><path d="M355.09 207.66H152.67l4.81-58.87h202.41Zm-201.26-1.07h200.28l4.63-56.73H158.46Z" style="fill:#fff;opacity:.1"/><path d="M346.51 201.75a1.62 1.62 0 0 0 1.59-1.47l3.6-44.11a1.33 1.33 0 0 0-1.35-1.47 1.63 1.63 0 0 0-1.6 1.47l-3.59 44.11a1.33 1.33 0 0 0 1.35 1.47Z" style="fill:#fff;opacity:.4"/><path d="M346.63 179.33h3.42a.77.77 0 0 0 .75-.7l.29-3.52a.64.64 0 0 0-.64-.7H347a.78.78 0 0 0-.75.7l-.29 3.52a.63.63 0 0 0 .67.7Z" style="fill:#fff"/><path d="M334 201.75a1.63 1.63 0 0 0 1.59-1.47l3.6-44.11a1.33 1.33 0 0 0-1.35-1.47 1.63 1.63 0 0 0-1.6 1.47l-3.6 44.11a1.34 1.34 0 0 0 1.36 1.47Z" style="fill:#fff;opacity:.4"/><path d="M334.74 171.47h3.41a.77.77 0 0 0 .76-.7l.29-3.51a.64.64 0 0 0-.64-.7h-3.42a.78.78 0 0 0-.76.7l-.28 3.51a.63.63 0 0 0 .64.7Z" style="fill:#fff"/><path d="M321.44 201.75a1.63 1.63 0 0 0 1.6-1.47l3.6-44.11a1.34 1.34 0 0 0-1.36-1.47 1.63 1.63 0 0 0-1.59 1.47l-3.6 44.11a1.33 1.33 0 0 0 1.35 1.47Z" style="fill:#fff;opacity:.4"/><path d="M320.8 188.73h3.41a.78.78 0 0 0 .76-.7l.29-3.52a.64.64 0 0 0-.65-.7h-3.41a.78.78 0 0 0-.76.7l-.28 3.52a.64.64 0 0 0 .64.7Z" style="fill:#fff"/><path d="M308.91 201.75a1.63 1.63 0 0 0 1.6-1.47l3.59-44.11a1.33 1.33 0 0 0-1.35-1.47 1.62 1.62 0 0 0-1.59 1.47l-3.6 44.11a1.33 1.33 0 0 0 1.35 1.47Z" style="fill:#fff;opacity:.4"/><path d="M308.77 182.6h3.41a.77.77 0 0 0 .76-.7l.29-3.52a.64.64 0 0 0-.65-.7h-3.41a.78.78 0 0 0-.76.7l-.29 3.52a.64.64 0 0 0 .65.7Z" style="fill:#fff"/><path d="M296.38 201.75a1.62 1.62 0 0 0 1.59-1.47l3.6-44.11a1.33 1.33 0 0 0-1.35-1.47 1.63 1.63 0 0 0-1.6 1.47L295 200.28a1.33 1.33 0 0 0 1.38 1.47Z" style="fill:#fff;opacity:.4"/><path d="M296.64 177.68h3.41a.77.77 0 0 0 .76-.7l.28-3.51a.63.63 0 0 0-.64-.7H297a.77.77 0 0 0-.76.7L296 177a.64.64 0 0 0 .64.68Z" style="fill:#fff"/><path d="M181.27 167.58h88.51a4.53 4.53 0 0 0 4.42-4.09 3.71 3.71 0 0 0-3.76-4.08h-88.5a4.52 4.52 0 0 0-4.42 4.08 3.72 3.72 0 0 0 3.75 4.09Z" style="fill:#fff;opacity:.4"/><path d="M166 182.31h102.57a4.51 4.51 0 0 0 4.42-4.08 3.7 3.7 0 0 0-3.75-4.09H166.63a4.51 4.51 0 0 0-4.42 4.09 3.71 3.71 0 0 0 3.79 4.08Z" style="fill:#fafafa"/><rect x="204.83" y="188.87" width="66.96" height="8.17" rx="4.09" style="fill:#263238;opacity:.4"/><path style="fill:#263238;opacity:.30000000000000004" d="M334.61 231.76h11.93l.97-11.92h-11.92l-.98 11.92zM317.07 231.76h11.92l.97-11.92h-11.92l-.97 11.92z"/><path style="fill:#fff" d="M299.52 231.76h11.92l.98-11.92h-11.93l-.97 11.92z"/><path style="fill:#263238;opacity:.30000000000000004" d="M281.98 231.76h11.92l.97-11.92h-11.92l-.97 11.92z"/><path style="fill:#fff" d="M333.18 249.31h11.93l.97-11.92h-11.92l-.98 11.92z"/><path style="fill:#263238;opacity:.30000000000000004" d="M315.64 249.31h11.92l.97-11.92h-11.92l-.97 11.92zM298.09 249.31h11.92l.97-11.92h-11.92l-.97 11.92zM280.54 249.31h11.93l.97-11.92h-11.92l-.98 11.92zM331.75 266.85h11.92l.98-11.92h-11.93l-.97 11.92zM314.21 266.85h11.92l.97-11.92h-11.92l-.97 11.92z"/><path style="fill:#fff" d="M296.66 266.85h11.92l.97-11.92h-11.92l-.97 11.92z"/><path style="fill:#263238;opacity:.30000000000000004" d="M279.11 266.85h11.92l.98-11.92h-11.93l-.97 11.92zM246.59 243.67h-3.97l-.66 8.09h3.97l.66-8.09zM252.45 243.67h-3.98l-.66 8.09h3.98l.66-8.09z"/><path style="fill:#fff" d="M258.3 243.67h-3.98l-.66 8.09h3.98l.66-8.09z"/><path style="fill:#263238;opacity:.30000000000000004" d="M264.15 243.67h-3.97l-.67 8.09h3.98l.66-8.09z"/><path style="fill:#fff" d="M247.56 231.75h-3.97l-.66 8.1h3.98l.65-8.1z"/><path style="fill:#263238;opacity:.30000000000000004" d="M253.42 231.75h-3.98l-.66 8.1h3.98l.66-8.1zM259.27 231.75h-3.98l-.66 8.1h3.98l.66-8.1zM265.12 231.75h-3.97l-.66 8.1h3.97l.66-8.1zM248.54 219.84h-3.98l-.66 8.1h3.98l.66-8.1zM254.39 219.84h-3.98l-.66 8.1h3.98l.66-8.1zM260.24 219.84h-3.97l-.66 8.1h3.97l.66-8.1zM266.1 219.84h-3.98l-.66 8.1h3.98l.66-8.1zM218.01 243.67h-3.98l-.65 8.09h3.97l.66-8.09z"/><path style="fill:#fff" d="M223.86 243.67h-3.97l-.66 8.09h3.97l.66-8.09z"/><path style="fill:#263238;opacity:.30000000000000004" d="M229.72 243.67h-3.98l-.66 8.09h3.98l.66-8.09zM235.57 243.67h-3.98l-.66 8.09h3.98l.66-8.09z"/><path style="fill:#fff" d="M218.98 231.75h-3.97l-.66 8.1h3.97l.66-8.1z"/><path style="fill:#263238;opacity:.30000000000000004" d="M224.84 231.75h-3.98l-.66 8.1h3.98l.66-8.1z"/><path style="fill:#fff" d="M230.69 231.75h-3.98l-.66 8.1h3.98l.66-8.1zM236.54 231.75h-3.98l-.65 8.1h3.97l.66-8.1z"/><path style="fill:#263238;opacity:.30000000000000004" d="M219.96 219.84h-3.98l-.66 8.1h3.97l.67-8.1z"/><path style="fill:#fff" d="M225.81 219.84h-3.98l-.66 8.1h3.98l.66-8.1zM231.66 219.84h-3.98l-.66 8.1H231l.66-8.1z"/><path style="fill:#263238;opacity:.30000000000000004" d="M237.51 219.84h-3.97l-.66 8.1h3.97l.66-8.1z"/><path style="fill:#fff" d="M189.43 243.67h-3.98l-.66 8.09h3.98l.66-8.09z"/><path style="fill:#263238;opacity:.30000000000000004" d="M195.28 243.67h-3.97l-.66 8.09h3.97l.66-8.09z"/><path style="fill:#fff" d="M201.14 243.67h-3.98l-.66 8.09h3.97l.67-8.09z"/><path style="fill:#263238;opacity:.30000000000000004" d="M206.99 243.67h-3.98l-.66 8.09h3.98l.66-8.09z"/><path style="fill:#fff" d="M190.4 231.75h-3.97l-.67 8.1h3.98l.66-8.1zM196.25 231.75h-3.97l-.66 8.1h3.97l.66-8.1z"/><path style="fill:#263238;opacity:.30000000000000004" d="M202.11 231.75h-3.98l-.66 8.1h3.98l.66-8.1zM207.96 231.75h-3.98l-.66 8.1h3.98l.66-8.1z"/><path style="fill:#fff" d="M191.37 219.84h-3.97l-.66 8.1h3.97l.66-8.1z"/><path style="fill:#263238;opacity:.30000000000000004" d="M197.23 219.84h-3.98l-.66 8.1h3.98l.66-8.1zM203.08 219.84h-3.98l-.66 8.1h3.98l.66-8.1zM208.93 219.84h-3.97l-.67 8.1h3.98l.66-8.1z"/><path style="fill:#fff" d="M160.85 243.67h-3.98l-.66 8.09h3.98l.66-8.09z"/><path style="fill:#263238;opacity:.30000000000000004" d="M166.7 243.67h-3.98l-.66 8.09h3.98l.66-8.09z"/><path style="fill:#fff" d="M172.55 243.67h-3.97l-.66 8.09h3.97l.66-8.09z"/><path style="fill:#263238;opacity:.30000000000000004" d="M178.41 243.67h-3.98l-.66 8.09h3.98l.66-8.09zM161.82 231.75h-3.98l-.66 8.1h3.98l.66-8.1zM167.67 231.75h-3.97l-.66 8.1h3.97l.66-8.1z"/><path style="fill:#fff" d="M173.53 231.75h-3.98l-.66 8.1h3.98l.66-8.1z"/><path style="fill:#263238;opacity:.30000000000000004" d="M179.38 231.75h-3.98l-.66 8.1h3.98l.66-8.1z"/><path style="fill:#fff" d="M162.79 219.84h-3.97l-.66 8.1h3.97l.66-8.1z"/><path style="fill:#263238;opacity:.30000000000000004" d="M168.65 219.84h-3.98l-.66 8.1h3.98l.66-8.1z"/><path style="fill:#fff" d="M174.5 219.84h-3.98l-.66 8.1h3.98l.66-8.1zM180.35 219.84h-3.98l-.66 8.1h3.98l.66-8.1z"/><ellipse cx="260.07" cy="262.27" rx="2.67" ry="2.47" transform="rotate(-43.83 260.08 262.272)" style="fill:#fff"/><ellipse cx="248.72" cy="262.27" rx="2.67" ry="2.47" transform="rotate(-43.83 248.73 262.27)" style="fill:#fff"/><path d="M234.8 262.27a2.33 2.33 0 0 0 2.36 2.57 2.84 2.84 0 0 0 2.78-2.57 2.34 2.34 0 0 0-2.36-2.57 2.84 2.84 0 0 0-2.78 2.57ZM223.45 262.27a2.34 2.34 0 0 0 2.36 2.57 2.84 2.84 0 0 0 2.78-2.57 2.34 2.34 0 0 0-2.36-2.57 2.84 2.84 0 0 0-2.78 2.57ZM212.1 262.27a2.34 2.34 0 0 0 2.36 2.57 2.84 2.84 0 0 0 2.78-2.57 2.34 2.34 0 0 0-2.36-2.57 2.84 2.84 0 0 0-2.78 2.57ZM200.75 262.27a2.34 2.34 0 0 0 2.36 2.57 2.84 2.84 0 0 0 2.78-2.57 2.34 2.34 0 0 0-2.36-2.57 2.84 2.84 0 0 0-2.78 2.57ZM189.4 262.27a2.34 2.34 0 0 0 2.36 2.57 2.84 2.84 0 0 0 2.78-2.57 2.34 2.34 0 0 0-2.36-2.57 2.84 2.84 0 0 0-2.78 2.57ZM178.05 262.27a2.34 2.34 0 0 0 2.36 2.57 2.84 2.84 0 0 0 2.78-2.57 2.34 2.34 0 0 0-2.36-2.57 2.84 2.84 0 0 0-2.78 2.57Z" style="fill:#fff"/><path d="M166.7 262.27a2.34 2.34 0 0 0 2.36 2.57 2.84 2.84 0 0 0 2.78-2.57 2.33 2.33 0 0 0-2.36-2.57 2.84 2.84 0 0 0-2.78 2.57Z" style="fill:#263238;opacity:.30000000000000004"/><path d="M155.35 262.27a2.34 2.34 0 0 0 2.36 2.57 2.84 2.84 0 0 0 2.78-2.57 2.33 2.33 0 0 0-2.36-2.57 2.84 2.84 0 0 0-2.78 2.57Z" style="fill:#fff"/></g><g id="freepik--Character--inject-78"><path d="M167.34 164.79c-.59.91-1.29 2.08-1.93 3.14s-1.31 2.18-1.94 3.29c-1.26 2.21-2.5 4.44-3.63 6.7a80.31 80.31 0 0 0-5.61 13.59l-.45 1.68-.06.21v.13c0-.03 0 0 0 0a1.59 1.59 0 0 1 0-.17l-.06-.32a3.36 3.36 0 0 0-.16-.48 3.56 3.56 0 0 0-.28-.6 3.82 3.82 0 0 0-.91-1c-.67-.44-.89-.37-.83-.32a5.5 5.5 0 0 0 2.14.24 26.31 26.31 0 0 0 3.39-.29 151.69 151.69 0 0 0 14.99-3.28l2.87 6.38a70.13 70.13 0 0 1-7.41 4.14 63.76 63.76 0 0 1-8 3.3 39.52 39.52 0 0 1-4.57 1.17 19.23 19.23 0 0 1-2.66.31 14.49 14.49 0 0 1-3.26-.16 10 10 0 0 1-4.51-1.92 8.75 8.75 0 0 1-2.21-2.52 9.43 9.43 0 0 1-.7-1.52 11.27 11.27 0 0 1-.38-1.46l-.1-.7-.05-.63a11.6 11.6 0 0 1 0-1.18c0-.39.06-.69.1-1l.05-.36v-.29l.39-2.28a62.79 62.79 0 0 1 2.35-8.65 83 83 0 0 1 3.24-8.08c1.19-2.62 2.5-5.16 3.9-7.64a84.856 84.856 0 0 1 4.6-7.38Z" style="fill:#ff8b7b"/><path d="m170.84 187.81 4.33-4.32 4.32 9.61s-4.08 2.27-7.72.62ZM181.59 180.04l3.19 8.12-5.29 4.94-4.31-9.61 6.41-3.45z" style="fill:#ff8b7b"/><path d="M198.53 127.49c-.1.66.17 1.25.6 1.31s.86-.41 1-1.07-.17-1.25-.6-1.31-.9.41-1 1.07Z" style="fill:#263238"/><path d="M198.64 128.73a23.77 23.77 0 0 0 2.29 6.1 3.82 3.82 0 0 1-3.23.11Z" style="fill:#ff5652"/><path d="M196.7 123.48a.37.37 0 0 0 .29 0 3.12 3.12 0 0 1 2.83-.08.39.39 0 1 0 .38-.68 3.84 3.84 0 0 0-3.56.07.39.39 0 0 0 .06.72Z" style="fill:#263238"/><path d="M177 129.05c.42 6.14.21 17.26-4.48 20.73 0 0 .87 6.28 12 7.68 12.24 1.53 6.61-5.34 6.61-5.34-6.47-2.44-5.68-7.37-3.93-11.88Z" style="fill:#ff8b7b"/><path d="M168.59 152.54a1.73 1.73 0 0 0 .06-.7c-.32-3.89 2.38-6 7.09-6.34 5-.37 12.06.17 16.4 3.83-1 1-.35 5-.35 5Z" style="fill:#263238"/><path d="M148.23 394.57h.08a.81.81 0 0 0 .42-.83.92.92 0 0 0-.34-.68c-.95-.8-3.69-.45-3.8-.44a.19.19 0 0 0-.16.14.18.18 0 0 0 .06.2c.64.52 2.76 1.95 3.74 1.61Zm-3.12-1.64c.93-.07 2.46-.08 3 .39a.59.59 0 0 1 .21.4c0 .37-.15.44-.2.47-.51.25-2.01-.51-3.01-1.26Z" style="fill:#4e78cc"/><path d="M146 392.68c1-.33 2-.9 2.15-1.48a.65.65 0 0 0-.32-.74 1.08 1.08 0 0 0-.86-.15c-1.21.25-2.47 2.29-2.52 2.37a.2.2 0 0 0 0 .2.2.2 0 0 0 .18.1 5.24 5.24 0 0 0 1.37-.3Zm.92-1.95h.13a.69.69 0 0 1 .56.1c.21.14.18.25.16.3-.16.53-1.71 1.27-2.76 1.46a5.07 5.07 0 0 1 1.91-1.86ZM209 408.24c1.06 0 2.08-.15 2.42-.62a.75.75 0 0 0 0-.86 1 1 0 0 0-.62-.45c-1.38-.38-4.26 1.26-4.38 1.33a.23.23 0 0 0-.1.21.22.22 0 0 0 .16.16 14.88 14.88 0 0 0 2.52.23Zm1.31-1.6a1.45 1.45 0 0 1 .37 0 .61.61 0 0 1 .39.28c.13.24.08.36 0 .43-.38.53-2.47.54-4 .33a8.71 8.71 0 0 1 3.2-1.04Z" style="fill:#4e78cc"/><path d="M206.47 408h.08c1-.44 3-2.23 2.81-3.16 0-.22-.19-.49-.73-.55a1.45 1.45 0 0 0-1.08.34c-1.05.86-1.27 3.08-1.28 3.18a.18.18 0 0 0 .08.17.19.19 0 0 0 .12.02Zm2-3.35h.12c.35 0 .37.18.38.22.09.56-1.25 2-2.27 2.57a4.58 4.58 0 0 1 1.09-2.54 1.05 1.05 0 0 1 .69-.24Z" style="fill:#4e78cc"/><path style="fill:#ff8b7b" d="M197.39 407.81h8.25l.83-19.1h-8.25l-.83 19.1zM135.71 390.39l7.64 2.1 9.8-17.91-7.65-2.1-9.79 17.91z"/><path d="m144.5 391.66-8.25-4.23a.72.72 0 0 0-.88.19l-4.79 5.78a1.21 1.21 0 0 0 .4 1.86c2.91 1.42 4.4 2 8 3.83 2.24 1.14 8.88 6.08 12.23 7s4.65-2.33 3.36-3a18.93 18.93 0 0 1-9.13-10.34 2 2 0 0 0-.94-1.09ZM205.59 406.86h-9a.71.71 0 0 0-.7.56l-1.63 7.34a1.19 1.19 0 0 0 1.18 1.46c3.25-.05 7.95-.24 12-.24 4.77 0 8.9.26 14.5.26 3.39 0 4.33-3.43 2.91-3.74-6.46-1.41-11.73-1.56-17.3-5a3.88 3.88 0 0 0-1.96-.64Z" style="fill:#263238"/><path d="M170.14 166.33c-.86 2.21-1.81 4.37-2.76 6.4a129.72 129.72 0 0 1-4.48 8.68c-1.06 1.91-1.75 3-1.75 3l-18-8.94s7.26-20.87 14.84-23.2c7.75-2.27 16.01 4.11 12.15 14.06Z" style="fill:#4e78cc"/><path d="M170.14 166.33c-.86 2.21-1.81 4.37-2.76 6.4a129.72 129.72 0 0 1-4.48 8.68c-1.06 1.91-1.75 3-1.75 3l-18-8.94s7.26-20.87 14.84-23.2c7.75-2.27 16.01 4.11 12.15 14.06Z" style="opacity:.5"/><path d="M162.15 168.39c1.57 1.15 2.69 4.26 3.49 7.91-1 2-2 3.75-2.74 5.11-1.06 1.91-1.75 3-1.75 3l-2.07-1a40 40 0 0 1 3.07-15.02Z" style="opacity:.2"/><path d="M208.25 179.64c0 2.8-.07 5.89-.23 9.3-.4 9.25-1.41 20.78-3.35 35.11h-44.12c-.3-6.77 3.95-39.82-2.58-71.74a116.33 116.33 0 0 1 14.78-1.86 162.78 162.78 0 0 1 18.75 0 84.61 84.61 0 0 1 12.69 2.29s4.07 4.59 4.06 26.9Z" style="fill:#4e78cc"/><path d="M208.25 179.64c0 2.8-.07 5.89-.23 9.3-.4 9.25-1.41 20.78-3.35 35.11h-44.12c-.3-6.77 3.95-39.82-2.58-71.74a116.33 116.33 0 0 1 14.78-1.86 162.78 162.78 0 0 1 18.75 0 84.61 84.61 0 0 1 12.69 2.29s4.07 4.59 4.06 26.9Z" style="opacity:.5"/><path d="M209.66 160.48c.36.69 1.07 1.83 1.73 2.87s1.41 2.14 2.16 3.21c1.5 2.15 3.06 4.29 4.69 6.36a86.09 86.09 0 0 0 10.35 11.36c.91.8 1.82 1.55 2.73 2.2l.34.24.17.12.08.06a2.73 2.73 0 0 0-.6-.16 1.43 1.43 0 0 0-.94.08c-.16.18.6 0 1.33-.55a20.82 20.82 0 0 0 2.51-2.06 106.7 106.7 0 0 0 10-12.11l6.3 3a62 62 0 0 1-3.25 8.29q-.94 2-2.09 4a41.34 41.34 0 0 1-2.55 4 26.53 26.53 0 0 1-3.4 3.91 16.87 16.87 0 0 1-2.41 1.9 12.68 12.68 0 0 1-3.52 1.63 10.37 10.37 0 0 1-5.11.14 10.78 10.78 0 0 1-2.53-1l-.29-.15-.14-.08-.27-.16-.55-.32a47.4 47.4 0 0 1-4.07-2.75 83.27 83.27 0 0 1-13-12.73c-1.89-2.29-3.72-4.62-5.42-7.07-.86-1.22-1.7-2.46-2.51-3.77a41.88 41.88 0 0 1-2.45-4.42Z" style="fill:#ff8b7b"/><path d="m244.32 172 4.74-7 5.75 8.46s-4.59 3.87-8.46 3.46Z" style="fill:#ff8b7b"/><path style="fill:#ff8b7b" d="m258.22 161.69 1.4 8.19-4.81 3.61-5.75-8.46 9.16-3.34z"/><path d="M191.44 161.13c.26 7.89 16.5 26.05 16.5 26.05L225.1 176s-5.44-10.18-12.51-17.55c-10.65-11.12-21.46-6.78-21.15 2.68Z" style="fill:#4e78cc"/><path d="M191.44 161.13c.26 7.89 16.5 26.05 16.5 26.05L225.1 176s-5.44-10.18-12.51-17.55c-10.65-11.12-21.46-6.78-21.15 2.68Z" style="opacity:.5"/><path style="opacity:.2" d="m206.46 388.71-.42 9.85h-8.25l.42-9.85h8.25zM145.5 372.48l7.65 2.11-5.05 9.23-7.66-2.11 5.06-9.23z"/><path d="M176.8 122.76c-.73 8.16-1.57 12.89 1.88 17.66 5.19 7.17 15.72 5 18.88-2.78 2.84-7 3.56-19.16-3.86-23.58a11.17 11.17 0 0 0-16.9 8.7Z" style="fill:#ff8b7b"/><path d="M192 128.41c1.39-1.91 6.21-7.93 5-13.15-1.27-5.46-8.34-7.76-11.09-8 1.84 1.91-3.5.24-6.21 1.2 2.41 2.18-4.34-.08-6.22 2.44 4.91 1.45-2.67 3-4 4.86 2.37.34 2.56 1.2 2.9 2.47-.86 1.07-.37 19.95 5.77 22.45 5.78 2.32 16.25-3.97 13.85-12.27Z" style="fill:#263238"/><path d="M195.69 109.68c1.09.93-1.1 1.24-3.78 0l.91 8.07c2.63 2.49 8.23 5.76 9.46-.19s-3.96-7.56-6.59-7.88Z" style="fill:#263238"/><path d="M189.2 126.73a7.45 7.45 0 0 0 .61 4.73c1 1.92 2.68 1.37 3.45-.43.69-1.61 1-4.56-.44-5.88s-3.2-.34-3.62 1.58Z" style="fill:#ff8b7b"/><path d="M189 224.05s3.89 62.43-3.49 85.45C173.85 346 153 383.21 153 383.21l-14.9-4.48s16.38-39.32 21.77-70c4.85-27.59.66-62.11.66-84.65Z" style="fill:#263238"/><path d="M189.66 238c-4.17-1.21-7.41-.75-8.26 2.95-2.2 9.67 4.4 35.18 7.69 46.85 1.34-16.8 1.03-36.8.57-49.8Z" style="opacity:.2"/><path d="M157.23 378.94c.06 0-3.89 4.61-3.89 4.61l-16.28-4.9 2.07-5.5Z" style="fill:#4e78cc"/><path d="M204.68 224.05s12.43 52.67 13.3 77.83c1 28.22-8.86 94.77-8.86 94.77h-14s-1.72-67.07-2.34-92.77c-.68-28-17.13-79.83-17.13-79.83Z" style="fill:#263238"/><path d="M211.8 391.09c.07 0-.78 5.8-.78 5.8H194l-.46-5.18Z" style="fill:#4e78cc"/></g></svg>