<svg xmlns="http://www.w3.org/2000/svg" viewBox="0 0 500 500"><g id="freepik--background-complete--inject-34"><path style="fill:#f5f5f5" d="M30.78 308.06h93.51v84.19H30.78z"/><rect x="42.98" y="343.93" width="69.12" height="25.75" rx="7.53" style="fill:#e0e0e0"/><path d="M123.77 324c0 .14-20.61.25-46 .25s-46-.11-46-.25 20.61-.25 46-.25 46 .15 46 .25ZM41.22 317.77a2.32 2.32 0 1 1-2.32-2.32 2.32 2.32 0 0 1 2.32 2.32ZM48.07 317.77a2.32 2.32 0 1 1-2.31-2.32 2.31 2.31 0 0 1 2.31 2.32ZM54.93 317.77a2.32 2.32 0 1 1-2.32-2.32 2.32 2.32 0 0 1 2.32 2.32Z" style="fill:#e0e0e0"/><path d="M61 357.51v1.13a2 2 0 1 1-4 0v-4.45a2 2 0 1 1 4 0v.81h-1.31v-.92c0-.61-.27-.84-.69-.84s-.7.23-.7.84v4.63c0 .61.27.83.7.83s.69-.22.69-.83v-1.22ZM61.79 352.14h1.34v7.33h2.21v1.23h-3.55ZM65.93 352.14h1.35v8.56h-1.35ZM72.16 357.51v1.13a1.88 1.88 0 0 1-2 2.16c-1.32 0-2-.79-2-2.16v-4.45c0-1.37.68-2.15 2-2.15a1.88 1.88 0 0 1 2 2.15v.81h-1.28v-.92c0-.61-.26-.84-.69-.84s-.7.23-.7.84v4.63c0 .61.27.83.7.83s.69-.22.69-.83v-1.22ZM74.74 357.29l-.42.78v2.63H73v-8.56h1.34v3.73l1.76-3.73h1.35L75.56 356l1.87 4.75h-1.38ZM81.28 360.7h-1.34v-8.56h1.34v3.67h1.53v-3.67h1.37v8.56h-1.37V357h-1.53ZM86.5 355.74h1.85V357H86.5v2.5h2.33v1.23h-3.67v-8.56h3.67v1.22H86.5ZM92.47 360.7a2.74 2.74 0 0 1-.12-1.05v-1.35c0-.79-.27-1.09-.88-1.09H91v3.49h-1.34v-8.56h2c1.39 0 2 .64 2 2v.68a1.72 1.72 0 0 1-.88 1.74c.68.28.9.92.9 1.82v1.32a2.63 2.63 0 0 0 .14 1ZM91 353.36V356h.53c.5 0 .81-.22.81-.91v-.84c0-.61-.21-.88-.69-.88ZM95.92 355.74h1.85V357h-1.85v2.5h2.33v1.23h-3.67v-8.56h3.67v1.22h-2.33Z" style="fill:#fff"/><rect x="41.02" y="64.11" width="122.61" height="45.68" rx="12.66" style="fill:#e0e0e0"/><path d="M72.93 88.2v2c0 2.43-1.22 3.82-3.56 3.82s-3.56-1.39-3.56-3.82v-7.9c0-2.43 1.21-3.82 3.56-3.82s3.56 1.39 3.56 3.82v1.47h-2.26v-1.6c0-1.09-.48-1.5-1.24-1.5s-1.23.41-1.23 1.5v8.2c0 1.08.47 1.47 1.23 1.47s1.24-.39 1.24-1.47V88.2ZM74.38 78.67h2.39v13h3.92v2.17h-6.31ZM81.74 78.67h2.38v15.19h-2.38ZM92.78 88.2v2c0 2.43-1.21 3.82-3.56 3.82s-3.56-1.39-3.56-3.82v-7.9c0-2.43 1.22-3.82 3.56-3.82s3.56 1.39 3.56 3.82v1.47h-2.26v-1.6c0-1.09-.47-1.5-1.23-1.5s-1.24.41-1.24 1.5v8.2c0 1.08.48 1.47 1.24 1.47s1.23-.39 1.23-1.47V88.2ZM97.36 87.81l-.74 1.39v4.66h-2.39V78.67h2.39v6.62l3.13-6.62h2.38l-3.32 6.77 3.32 8.42h-2.45ZM109 93.86h-2.39V78.67H109v6.51h2.71v-6.51h2.43v15.19h-2.43v-6.51H109ZM118.23 85.07h3.28v2.17h-3.28v4.45h4.13v2.17h-6.51V78.67h6.51v2.17h-4.13ZM128.82 93.86a4.63 4.63 0 0 1-.22-1.86v-2.39c0-1.41-.47-1.93-1.56-1.93h-.82v6.18h-2.39V78.67h3.6c2.48 0 3.54 1.15 3.54 3.5v1.19c0 1.56-.5 2.58-1.56 3.08 1.19.5 1.58 1.65 1.58 3.23V92a4.44 4.44 0 0 0 .26 1.84Zm-2.6-13v4.67h.93c.89 0 1.43-.39 1.43-1.61V82.4c0-1.08-.37-1.56-1.21-1.56ZM134.94 85.07h3.28v2.17h-3.28v4.45h4.12v2.17h-6.51V78.67h6.51v2.17h-4.12Z" style="fill:#fff"/><path style="fill:#f5f5f5" d="M342.91 63.92V179.21l18.57-19.27h88.07V63.92H342.91z"/><path d="M449 82.15c0 .16-23.51.29-52.5.29s-52.5-.13-52.5-.29 23.5-.29 52.5-.29 52.5.14 52.5.29ZM354.81 75a2.65 2.65 0 1 1-2.65-2.64 2.65 2.65 0 0 1 2.65 2.64ZM362.63 75a2.65 2.65 0 1 1-2.63-2.65 2.65 2.65 0 0 1 2.63 2.65ZM370.44 75a2.64 2.64 0 1 1-2.64-2.64 2.65 2.65 0 0 1 2.64 2.64ZM381.46 124.27h-7.07l-1.31 3.24h-4.82l7.37-16.7h4.66l7.4 16.7h-4.92Zm-1.39-3.49-2.15-5.34-2.14 5.34ZM389 110.81h7.9c5.54 0 9.33 3.22 9.33 8.35s-3.79 8.35-9.33 8.35H389Zm7.71 12.93c2.84 0 4.75-1.69 4.75-4.58s-1.91-4.58-4.75-4.58h-3v9.16ZM407.56 126l1.55-3.49a10.53 10.53 0 0 0 5.52 1.65c1.95 0 2.72-.55 2.72-1.36 0-2.65-9.5-.71-9.5-6.92 0-3 2.43-5.42 7.4-5.42a12.46 12.46 0 0 1 6.06 1.46l-1.46 3.51a9.85 9.85 0 0 0-4.63-1.29c-2 0-2.69.67-2.69 1.5 0 2.56 9.47.65 9.47 6.8 0 2.91-2.43 5.4-7.4 5.4a13.16 13.16 0 0 1-7.04-1.84Z" style="fill:#e0e0e0"/><path d="M450.28 379.17a23.5 23.5 0 1 1-10.56-31.46 23.47 23.47 0 0 1 10.56 31.46Z" style="fill:#f5f5f5"/><path d="M445.28 376.68a17.91 17.91 0 1 1-8-24 17.89 17.89 0 0 1 8 24Z" style="fill:#ebebeb"/><path d="M445.52 376.17a11 11 0 0 1 .54-2.13 18.58 18.58 0 0 0-.06-9.81 18 18 0 0 0-1.84-4.22 16.93 16.93 0 0 0-3.2-3.92 16.41 16.41 0 0 0-2.11-1.66 18.2 18.2 0 0 0-2.41-1.35 18.42 18.42 0 0 0-2.59-1 17.72 17.72 0 0 0-2.63-.52 16.26 16.26 0 0 0-2.59-.12 16.67 16.67 0 0 0-2.48.24 18.25 18.25 0 0 0-4.4 1.35 18.41 18.41 0 0 0-7.48 6.33c-.8 1.15-1.18 1.84-1.28 1.8a5.3 5.3 0 0 1 .82-2.08 16.7 16.7 0 0 1 3.88-4.73 18 18 0 0 1 8.23-3.91 17.74 17.74 0 0 1 2.66-.31 17.46 17.46 0 0 1 2.79.09 17.79 17.79 0 0 1 2.84.55 20.41 20.41 0 0 1 2.8 1 18.78 18.78 0 0 1 2.6 1.47 18.32 18.32 0 0 1 2.27 1.8 17.24 17.24 0 0 1 1.88 2.06 16.56 16.56 0 0 1 1.49 2.22 18.1 18.1 0 0 1 1.84 4.56 17.79 17.79 0 0 1 .54 4.24 16.59 16.59 0 0 1-1.06 6c-.52 1.43-.97 2.09-1.05 2.05Z" style="fill:#e0e0e0"/><path d="m426.3 379.14-1.36 2.86-2.5-1.21 1.31-2.74a13.17 13.17 0 0 1-5.28-5l2.85-2.4a11.26 11.26 0 0 0 4 4.12l2-4.19c-2.46-2-5.13-4.44-3.4-8 1.28-2.66 4.31-4 8.49-2.56l1.35-2.78 2.51 1.2-1.27 2.66a12.68 12.68 0 0 1 4.36 4l-2.74 2.49a11.34 11.34 0 0 0-3.22-3.16l-2.05 4.27c2.47 2 5.09 4.39 3.39 7.93-1.28 2.59-4.27 3.93-8.44 2.51Zm2.82-12.3 1.72-3.56c-1.48-.34-2.35.14-2.75 1s.1 1.72 1.03 2.56Zm1.41 8.13c.42-.88-.07-1.71-1-2.6l-1.67 3.46c1.42.33 2.28-.06 2.67-.83Z" style="fill:#e0e0e0"/></g><path d="M466.76 469.56c0 .14-97.05.26-216.75.26s-216.77-.12-216.77-.26 97-.26 216.77-.26 216.75.11 216.75.26Z" style="fill:#263238" id="freepik--Desk--inject-34"/><g id="freepik--Character--inject-34"><path d="m288.89 208.4-2.27 92.12c-.38 15.67-4.15 38.6-28.89 36.86-21.35-3.12-26.29-23.63-25.91-38.25.18-6.93.31-12.71.28-13.43 0 0-23.4-2.78-24.52-26-.54-11.24.22-34.47 1.16-55.49a43.36 43.36 0 0 1 41.78-41.37l2.24-.08c24.24.51 37.34 21.41 36.13 45.64Z" style="fill:#ffbe9d"/><path d="M232.1 285.7s14.69.34 30-10c0 0-6.78 17.26-30.07 16Z" style="fill:#eb996e"/><path d="M248 215.15c.44.49 3.2-1.57 7.09-1.53s6.71 2 7.14 1.57c.21-.22-.24-1.09-1.47-2a9.78 9.78 0 0 0-5.72-1.85 9.37 9.37 0 0 0-5.64 1.82c-1.19.9-1.6 1.77-1.4 1.99ZM247.26 224a3.14 3.14 0 0 0 3.14 3.06 3 3 0 0 0 3.14-2.95 3.14 3.14 0 0 0-3.14-3.06 3 3 0 0 0-3.14 2.95ZM237.29 241.8c0-.2-2.23-.5-5.84-.84-.92-.06-1.79-.21-2-.82a4.69 4.69 0 0 1 .52-2.73c.78-2.24 1.59-4.59 2.45-7 3.39-10 5.81-18.27 5.41-18.4s-3.49 7.89-6.88 17.92q-1.23 3.7-2.34 7.09c-.3 1.05-.86 2.25-.34 3.6a2.31 2.31 0 0 0 1.55 1.28 6 6 0 0 0 1.56.16c3.62.01 5.9-.06 5.91-.26ZM250.21 200.61c.34.88 3.48.34 7.19.67s6.75 1.26 7.21.45c.21-.39-.34-1.2-1.58-2a11.73 11.73 0 0 0-5.39-1.73 11.61 11.61 0 0 0-5.58.88c-1.34.59-2 1.31-1.85 1.73ZM212.55 201.38c.38.72 3.44.05 7.12.07s6.7.61 7.12-.11c.18-.34-.4-1-1.66-1.6a12.82 12.82 0 0 0-5.4-1.1 13.34 13.34 0 0 0-5.45 1.13c-1.28.61-1.9 1.23-1.73 1.61Z" style="fill:#263238"/><path d="M287.6 225.7c.4-.19 15.82-5.3 15.88 10.62s-15.93 12.7-16 12.24.12-22.86.12-22.86Z" style="fill:#ffbe9d"/><path d="M292.36 242.51c.07 0 .28.19.74.41a2.8 2.8 0 0 0 2.08 0c1.68-.62 3.08-3.3 3.15-6.17a9.2 9.2 0 0 0-.79-4 3.22 3.22 0 0 0-2.1-2.12 1.41 1.41 0 0 0-1.63.77c-.21.44-.11.76-.19.79s-.35-.27-.22-.92a1.72 1.72 0 0 1 .62-1 2.06 2.06 0 0 1 1.53-.42 3.91 3.91 0 0 1 2.91 2.46 9.39 9.39 0 0 1 1 4.44c-.09 3.21-1.72 6.21-4 6.89a3 3 0 0 1-2.54-.41c-.53-.33-.62-.69-.56-.72Z" style="fill:#eb996e"/><path d="M309.7 200.74c-3.11-5.73-3.63-12.45-5.21-18.77s-6.22-14.35-12.27-16.76c-5.35-3.31-12.53-3.15-17.19.51-.82-8.31-6.26-13.2-14.24-15.62s-21-1.63-28.82 1.2c-6.07 2.18-12 6.9-19.33 13.89a78.35 78.35 0 0 0-8.48 9.53l-7.81 21.39 5.59 11.58c.33.79.67 1.57 1.09 2.35l4.53 24.13c.59-6.51 1-29.23 1.53-35.74a36.45 36.45 0 0 0 26.39-11c3.71-3.82 6.69-8.66 11.55-10.85 6.26-2.81 13.5-.32 19.9 2.17l-.27-.26a29.12 29.12 0 0 1 8.74 6.81 90.62 90.62 0 0 0 2.5 38.44c.54 1.87 2.06 5.75 3.85 6.52 3.52 1.51 4.61-2.09 6.83-3.94 1.64-1.37 4-1.46 6.56-1.36 1.65-3.91 3.45-10.54 5-16.34a14.35 14.35 0 0 0 6.66.69q-.94-2.49-1.87-5a7.54 7.54 0 0 0 2.8 1.4 2.6 2.6 0 0 0 2.76-1.08c.63-1.26-.14-2.69-.79-3.89Z" style="fill:#263238"/><path d="M269.19 170a19.25 19.25 0 0 1 2.25 2.22 16.55 16.55 0 0 1 3.28 7.83 29.9 29.9 0 0 1 .37 5.91c-.07 2.14-.33 4.42-.58 6.82a61.51 61.51 0 0 0-.45 7.6 25.38 25.38 0 0 0 .37 4 8.37 8.37 0 0 0 1.49 3.95 3.49 3.49 0 0 0 3.23 1.22 5.22 5.22 0 0 0 3-1.55c1.56-1.69 2-3.88 2.45-5.82l-.49.05a19.93 19.93 0 0 0 2.64 5 6.94 6.94 0 0 0 4.42 2.62 4.46 4.46 0 0 0 2.41-.33 3.81 3.81 0 0 0 1.68-1.54 4 4 0 0 0 .57-2 2.86 2.86 0 0 0-.68-1.83l-.25.21a14.8 14.8 0 0 0 4.84 3.92 14 14 0 0 0 1.52.66 3.39 3.39 0 0 0 .55.16 2 2 0 0 0-.51-.24c-.34-.16-.85-.38-1.47-.73a15.5 15.5 0 0 1-4.67-4l-.26.21a3 3 0 0 1 0 3.45 3.52 3.52 0 0 1-1.52 1.36 4 4 0 0 1-2.18.27 6.43 6.43 0 0 1-4.1-2.49 19.2 19.2 0 0 1-2.54-4.85l-.31-.76-.18.8c-.44 1.93-.92 4-2.34 5.56a4.71 4.71 0 0 1-2.69 1.39 3 3 0 0 1-2.74-1 7.88 7.88 0 0 1-1.38-3.7 26.5 26.5 0 0 1-.37-3.94 61.12 61.12 0 0 1 .42-7.54c.24-2.4.48-4.69.53-6.86a29 29 0 0 0-.45-6 16.37 16.37 0 0 0-3.49-7.9 9.39 9.39 0 0 0-2.37-2.13Z" style="fill:#455a64"/><path d="M212.56 215.3c.44.49 3.2-1.57 7.09-1.53s6.71 2 7.14 1.57c.21-.22-.24-1.09-1.47-2a9.75 9.75 0 0 0-5.71-1.85 9.45 9.45 0 0 0-5.65 1.82c-1.2.9-1.62 1.78-1.4 1.99ZM214.89 222.83a3.15 3.15 0 0 0 3.15 3.06 3 3 0 0 0 3.13-2.95 3.14 3.14 0 0 0-3.14-3.06 3 3 0 0 0-3.14 2.95ZM206.21 172.12c-2 2.56-5.14 4.86-8.38 4.43a24.56 24.56 0 0 1-3.43-1.1c-1.16.66-1 4.55-.23 5.65a21 21 0 0 0 2.38 2.58c-3.87 1.95-7.31.86-11.34-.73a19.93 19.93 0 0 0 11.45 16.28c2 .91 4.5 1.44 6.4.28 1.67-1 2.39-3 2.93-4.93a87.41 87.41 0 0 0 3.38-21.25Z" style="fill:#263238"/><path d="M240.66 249.61a3.21 3.21 0 0 1 2.78-1.68c1.08 0 2-.1 2.79.65a5.06 5.06 0 0 1 1.11 5.71 4.19 4.19 0 0 1-5.27 2c-1.89-.87-2.64-5.74-1.33-7.36" style="fill:#eb996e"/><path d="M240 253.08a7.88 7.88 0 0 1 .41.91 3.3 3.3 0 0 0 1.93 1.71 4.85 4.85 0 0 0 3.77-.45 3.94 3.94 0 0 0-1.93-7.07 3.87 3.87 0 0 0-3.44 1.41 3.92 3.92 0 0 0-.8 2.48c0 .64.11 1 .06 1s-.05-.08-.11-.25a3.46 3.46 0 0 1-.15-.75 3.89 3.89 0 0 1 .71-2.71 4.18 4.18 0 0 1 3.78-1.66 4.39 4.39 0 0 1 2.13 7.95 5.16 5.16 0 0 1-4.15.39 3.43 3.43 0 0 1-2-2 2.75 2.75 0 0 1-.21-.74v-.22Z" style="fill:#263238"/><path d="M269.37 169.89a14.66 14.66 0 0 0-2.36-3 15.5 15.5 0 0 0-9.34-4 19 19 0 0 0-7.05.83 28.35 28.35 0 0 0-7.36 3.58c-4.85 3.21-9.14 8-13.83 12.85a61.46 61.46 0 0 1-7.36 6.56 29.38 29.38 0 0 1-8.1 4.34 26.65 26.65 0 0 1-15.4.25 26.16 26.16 0 0 1-9.31-4.72l-1.26-1.06c-.36-.31-.62-.62-.85-.85l-.51-.54c-.11-.12-.17-.19-.16-.2l.2.16.54.5c.24.22.52.52.88.82l1.26 1a26.88 26.88 0 0 0 9.28 4.52 26.48 26.48 0 0 0 15.15-.35 29.16 29.16 0 0 0 8-4.29 63.62 63.62 0 0 0 7.29-6.51c4.67-4.8 9-9.65 13.94-12.89a28.25 28.25 0 0 1 7.5-3.59 19.33 19.33 0 0 1 7.21-.79 15.48 15.48 0 0 1 9.44 4.23 11.82 11.82 0 0 1 1.77 2.23c.14.27.26.48.35.65s.09.26.08.27Z" style="fill:#455a64"/><path style="fill:#ffbe9d" d="m223.18 293.41 8.82-1.75 54.56-3.37 11.63 3.17-1.53 28.32-26.29 16.77-25.5-.51-16.04-14.6-3.55-14.49-2.1-13.54z"/><path d="M372 338a171.71 171.71 0 0 0-10.48-18.74 46.76 46.76 0 0 0-26.9-19.59l-42-11.39s-2.18 42-31.09 42-34.54-39.37-34.54-39.37l-48.65 19.41c-1.67.65-12.95 4.55-26.08 32.7-12.5 26.81-18 40.52-18 40.52L184.32 398l3.13 45.07-1.06 25.74 152.09-.34-.85-29.42.64-45.11 1.9 3.07 50.62-20.3S384.27 363.35 372 338Z" style="fill:#c53f3f"/><path d="M339 365.24c.23 0 .09 16.3-.3 36.4s-.85 36.36-1.07 36.36-.09-16.3.3-36.4.89-36.36 1.07-36.36ZM176.74 356a7.11 7.11 0 0 1 .56 1.67c.3 1.09.71 2.68 1.19 4.64.95 3.94 2.13 9.4 3.23 15.48s1.88 11.62 2.36 15.63c.24 2 .42 3.64.51 4.77a7.85 7.85 0 0 1 .06 1.76 7 7 0 0 1-.38-1.72c-.2-1.29-.45-2.87-.75-4.73-.62-4-1.51-9.5-2.6-15.57s-2.18-11.53-3-15.49c-.37-1.85-.68-3.42-.94-4.7a7.88 7.88 0 0 1-.24-1.74Z" style="fill:#263238"/><path d="m138.54 384.81-20.38 40.91a29.84 29.84 0 0 0-3.09 14.74 29.82 29.82 0 0 0 29.78 28.37l58.44-3.39 2.56-26.66-44.47-10.73 16.85-31.86Z" style="fill:#ffbe9d"/><path d="M161.38 428.05c0 .19-2-.15-5.25-.13a40.44 40.44 0 0 0-12.33 2.18 37.53 37.53 0 0 0-11 5.86c-2.52 2-3.72 3.63-3.86 3.53s.21-.48.74-1.23a19.8 19.8 0 0 1 2.66-2.85 33.45 33.45 0 0 1 11.18-6.27 35.5 35.5 0 0 1 12.66-1.93 23.79 23.79 0 0 1 3.86.46 4.23 4.23 0 0 1 1.34.38ZM178.94 395.87a11.28 11.28 0 0 1-1 3.13 58.82 58.82 0 0 1-3.35 7.12 58.11 58.11 0 0 1-4.25 6.63 11.14 11.14 0 0 1-2.14 2.47c-.19-.14 2.75-4.15 5.69-9.49s4.83-9.94 5.05-9.86Z" style="fill:#eb996e"/><path d="M388.71 468.69h-68.62v-25.9L359.83 426l-14.74-30.89 39.78-16 19.42 43.2c4.51 12.55 9.12 18.51 5.19 29.93-2.04 5.93-10.48 16.45-20.77 16.45ZM194.41 437.23h11.44s25.81-9.33 31.12-8.44c4.78.8 22.29 12.43 25.72 14.73a2.23 2.23 0 0 1 .83 1.06 3.76 3.76 0 0 1-2.09 4.77l-.36.15.15.52a6.32 6.32 0 0 1 .27 2.09 2.52 2.52 0 0 1-4.69 1.09l.66 1.17a2.87 2.87 0 0 1 .36 1.57l-.06 1.07a2.87 2.87 0 0 1-2 2.57 2.87 2.87 0 0 1-3-.79c-2.22-2.44-7-7.33-10.26-7.87a75 75 0 0 0-10.59-.54 3.61 3.61 0 0 0-3.34 2.3c1.93.14 15.34 7.13 20.09 9.63a5.09 5.09 0 0 1 2.76 3.83c.17 1.48-.58 3-3.52 2.35-6.3-1.47-17.65-6.69-17.65-6.69s-5.86-1.67-9.65 1c-5.34 3.77-7.78 5.15-12.36 3.63a38.86 38.86 0 0 1-8-3.7l-9-.9s-8.5-21.33 3.17-24.6Z" style="fill:#ffbe9d"/><path d="M228.5 441.59c0 .1 1.83-.48 4.85-.68a25 25 0 0 1 20.86 8.91 47.49 47.49 0 0 1 2.87 4 5.41 5.41 0 0 0-.57-1.2 22 22 0 0 0-2-3 24.27 24.27 0 0 0-21.16-9 20.64 20.64 0 0 0-3.56.61 5.67 5.67 0 0 0-1.29.36Z" style="fill:#eb996e"/><path d="M231.23 435.32a21.42 21.42 0 0 1 5.05-.88 22 22 0 0 1 11.72 3.32 47 47 0 0 1 9.46 8l2.6 2.75a7.37 7.37 0 0 0 1 1 8.68 8.68 0 0 0-.85-1.1c-.57-.69-1.41-1.68-2.48-2.87a43.76 43.76 0 0 0-9.47-8.19 21.47 21.47 0 0 0-12-3.25 14.2 14.2 0 0 0-3.75.69 8.54 8.54 0 0 0-1 .37c-.18.08-.29.14-.28.16Z" style="fill:#eb996e"/><path d="M336.85 438H325.4s-25.81-9.33-31.12-8.44c-4.78.8-22.29 12.43-25.72 14.73a2.23 2.23 0 0 0-.83 1.06 3.77 3.77 0 0 0 2.09 4.77l.36.15-.15.52a6.25 6.25 0 0 0-.27 2.09 2.52 2.52 0 0 0 4.69 1.09l-.66 1.17a3 3 0 0 0-.36 1.57l.06 1.06a2.84 2.84 0 0 0 2 2.57 2.85 2.85 0 0 0 3-.78c2.22-2.45 7-7.34 10.26-7.88a76.58 76.58 0 0 1 10.6-.53 3.61 3.61 0 0 1 3.33 2.3c-1.93.13-15.34 7.13-20.09 9.63a5.08 5.08 0 0 0-2.76 3.82c-.17 1.49.58 3.05 3.52 2.36 6.3-1.47 17.65-6.69 17.65-6.69s5.86-1.68 9.65 1c5.34 3.77 7.78 5.15 12.36 3.63a38.54 38.54 0 0 0 8-3.7l9-.9s8.51-21.3-3.16-24.6Z" style="fill:#ffbe9d"/><path d="M302.75 442.39c0 .1-1.83-.48-4.85-.67a25 25 0 0 0-20.9 8.91c-2 2.31-2.79 4-2.87 4a5.76 5.76 0 0 1 .57-1.19 22 22 0 0 1 2-3 24.27 24.27 0 0 1 21.16-9 21.85 21.85 0 0 1 3.56.6 6.42 6.42 0 0 1 1.33.35Z" style="fill:#eb996e"/><path d="M300 436.12a21.42 21.42 0 0 0-5-.88 22.1 22.1 0 0 0-11.74 3.33 47.29 47.29 0 0 0-9.46 8l-2.6 2.76a7.37 7.37 0 0 1-1 1 8.25 8.25 0 0 1 .85-1.11c.57-.68 1.41-1.67 2.49-2.86a43.44 43.44 0 0 1 9.46-8.19 21.48 21.48 0 0 1 12-3.25 14.19 14.19 0 0 1 3.74.69 7 7 0 0 1 1 .37 1 1 0 0 1 .26.14ZM390.48 427.8c-.06.09-1.55-1-4.25-2.25-.67-.3-1.41-.63-2.24-.91s-1.7-.56-2.64-.83a31.68 31.68 0 0 0-12.61-.73c-1 .17-1.88.3-2.72.53a22 22 0 0 0-2.33.65c-2.82.92-4.43 1.83-4.48 1.74a5.4 5.4 0 0 1 1.12-.67 9.76 9.76 0 0 1 1.37-.67 18.6 18.6 0 0 1 1.87-.75 21.93 21.93 0 0 1 2.35-.72 27.61 27.61 0 0 1 2.75-.58 30.29 30.29 0 0 1 12.8.73c.95.3 1.86.55 2.67.9a21 21 0 0 1 2.25 1c.69.31 1.26.67 1.78 1a12 12 0 0 1 1.28.83 5.76 5.76 0 0 1 1.03.73Z" style="fill:#eb996e"/><path d="M332.27 472h-142.9a7.58 7.58 0 0 1-7.57-7.26l-4.29-98.35a7.58 7.58 0 0 1 7.57-7.92h151.2a7.59 7.59 0 0 1 7.58 7.9l-4 98.35a7.58 7.58 0 0 1-7.59 7.28Z" style="fill:#e0e0e0"/><path d="M332.27 472a13.79 13.79 0 0 0 1.38-.16 7.44 7.44 0 0 0 3.59-1.78 7.6 7.6 0 0 0 2.55-5.85q.15-3.93.35-9.05c.54-13.62 1.31-33.32 2.27-57.67q.36-9.14.76-19.11c.13-3.32.27-6.71.4-10.16 0-.86.1-1.75.07-2.59a7.37 7.37 0 0 0-.59-2.47 7.27 7.27 0 0 0-3.47-3.68 7.54 7.54 0 0 0-2.5-.75c-.86-.07-1.79 0-2.7 0H185.76a8.18 8.18 0 0 0-3.31.5 7.34 7.34 0 0 0-4.38 4.73 8.21 8.21 0 0 0-.3 1.63v1.69c.05 1.14.09 2.28.14 3.42l.3 6.81q.58 13.58 1.16 26.72c.76 17.52 1.49 34.41 2.19 50.51.09 2 .17 4 .26 6 0 1 .08 2 .13 3a10.34 10.34 0 0 0 .36 2.86 7.38 7.38 0 0 0 3.49 4.29 7.29 7.29 0 0 0 2.65.85c.91.1 1.89.05 2.84.06h62.07l57.71.08 15.69.05h5.47-21.16l-57.71.08h-62.03c-1 0-1.9 0-2.9-.06a7.83 7.83 0 0 1-6.53-5.46 10.88 10.88 0 0 1-.38-3c-.05-1-.09-2-.14-3q-.12-3-.26-6c-.71-16.1-1.45-33-2.22-50.51q-.57-13.14-1.17-26.72c-.1-2.26-.19-4.53-.29-6.81l-.15-3.42a16.74 16.74 0 0 1 0-1.74 8.68 8.68 0 0 1 .31-1.75 7.85 7.85 0 0 1 4.69-5.06 8.76 8.76 0 0 1 3.5-.54h148.62c.92 0 1.81 0 2.75.05a7.83 7.83 0 0 1 2.64.79 7.68 7.68 0 0 1 3.67 3.91 7.9 7.9 0 0 1 .62 2.61c0 .91 0 1.75-.07 2.62q-.21 5.19-.42 10.17-.42 10-.8 19.11c-1 24.34-1.85 44-2.43 57.66q-.22 5.11-.39 9a7.73 7.73 0 0 1-2.64 5.92 7.51 7.51 0 0 1-3.65 1.76 7.3 7.3 0 0 1-1 .1Z" style="fill:#263238"/><path d="M268.5 417a7.83 7.83 0 1 1-7.83-7.83 7.84 7.84 0 0 1 7.83 7.83Z" style="fill:#fff"/></g><g id="freepik--ad-3--inject-34"><path style="fill:#fff" d="M471.9 200.6H326.92l.74 101.57h15.84v23.48l21.45-23.48h107.69l-.74-101.57z"/><path d="M471.9 200.61v1.79c0 1.19 0 3 .06 5.3 0 4.67.11 11.53.2 20.33.15 17.65.37 43.06.65 74.13v.21h-.21l-107.6.05.18-.08-21.44 23.49-.45.49v-24.15l.26.26H327.4v-.26c-.25-36.58-.49-71.06-.71-101.56v-.24h.23l104.92.12 29.59.06H471.9h-10.57l-29.64.06-104.77.12.24-.24c.23 30.5.49 65 .76 101.56l-.26-.25h16.1v23.74l-.45-.17L364.76 302l.07-.08h107.86l-.2.21c-.18-31-.33-56.39-.43-74-.05-8.82-.08-15.7-.1-20.38v-5.34c0-1.22-.06-1.8-.06-1.8Z" style="fill:#263238"/><path d="M471.16 214.93c0 .12-32.12.23-71.74.23s-71.76-.11-71.76-.23 32.12-.23 71.76-.23 71.74.1 71.74.23Z" style="fill:#263238"/><ellipse cx="333.61" cy="209.24" rx="1.92" ry="2.1" style="fill:#e0e0e0"/><ellipse cx="339.29" cy="209.24" rx="1.92" ry="2.1" style="fill:#e0e0e0"/><ellipse cx="344.96" cy="209.24" rx="1.92" ry="2.1" style="fill:#e0e0e0"/><circle cx="401.41" cy="251.35" r="20.45" style="fill:#c53f3f"/><path d="M396.48 257.33v-12.06a.77.77 0 0 1 1.15-.67l10.78 6.08a.77.77 0 0 1 0 1.34l-10.79 6a.76.76 0 0 1-1.14-.69Z" style="fill:#fff"/><path style="fill:#263238" d="M336.52 289.27h125.19v.62H336.52z"/><path style="fill:#c53f3f" d="M336.42 288.59h39.12v1.66h-39.12z"/><ellipse cx="374.9" cy="289.58" rx="1.9" ry="2.08" style="fill:#c53f3f"/><circle cx="470.8" cy="205.03" r="13.8" style="fill:#c53f3f"/><path transform="rotate(45 470.794 205.03)" style="fill:#fff" d="M469.41 198.81h2.78v12.44h-2.78z"/><path transform="rotate(-45 470.776 205.028)" style="fill:#fff" d="M469.41 198.81h2.78v12.44h-2.78z"/></g><g id="freepik--ad-2--inject-34"><path style="fill:#fff" d="M198.39 36.48v99.31h90.7l19.6 15.16V36.48h-110.3z"/><path d="M198.39 36.48h7.88l22.39-.06 80-.11h.22v115.22l-.42-.32L288.93 136l.16.05h-90.92v-.22c.05-30 .08-54.8.11-72.17 0-8.66 0-15.45.06-20.08v-7.06V43.67c0 4.64 0 11.45.05 20.12 0 17.34.07 42.14.11 72l-.21-.21h90.79l.07.05 19.6 15.15-.42.21V36.52l.23.23-79.88-.12-22.44-.05h-7.46Z" style="fill:#263238"/><path d="M308.08 55.34c0 .16-24.32.3-54.3.3s-54.3-.14-54.3-.3 24.31-.3 54.3-.3 54.3.13 54.3.3Z" style="fill:#263238"/><path d="M210.7 47.94a2.74 2.74 0 1 1-2.7-2.74 2.74 2.74 0 0 1 2.7 2.74ZM218.78 47.94a2.74 2.74 0 1 1-2.73-2.74 2.73 2.73 0 0 1 2.73 2.74ZM226.87 47.94a2.74 2.74 0 1 1-2.74-2.74 2.74 2.74 0 0 1 2.74 2.74Z" style="fill:#e0e0e0"/><path d="M288.34 91.41a30.72 30.72 0 1 1-31.45-29.91 30.69 30.69 0 0 1 31.45 29.91Z" style="fill:#c53f3f"/><path d="M281 91.59a23.42 23.42 0 1 1-24-22.8 23.38 23.38 0 0 1 24 22.8Z" style="fill:#c53f3f"/><path d="M281 90.85a13.61 13.61 0 0 1-.69-2.8 25.06 25.06 0 0 0-2.87-7.11 23.47 23.47 0 0 0-3.2-4.17 23.16 23.16 0 0 0-4.7-3.76 21.22 21.22 0 0 0-2.89-1.48 20.92 20.92 0 0 0-3.21-1.1 22.83 22.83 0 0 0-3.44-.63 25.5 25.5 0 0 0-3.61-.08 25 25 0 0 0-3.59.48 22.72 22.72 0 0 0-6.43 2.45 22.7 22.7 0 0 0-2.71 1.79 23.45 23.45 0 0 0-4.25 4.26 24.19 24.19 0 0 0-2.72 4.5 24.83 24.83 0 0 0-2.07 7.39 13.82 13.82 0 0 1-.37 2.85 7 7 0 0 1-.32-2.9 21.59 21.59 0 0 1 1.59-7.84 23.88 23.88 0 0 1 2.69-4.89 24.16 24.16 0 0 1 4.43-4.66 22.18 22.18 0 0 1 2.88-2 23.18 23.18 0 0 1 3.28-1.6 24.11 24.11 0 0 1 3.62-1.11 25.93 25.93 0 0 1 3.87-.53 26.47 26.47 0 0 1 3.89.1 23.74 23.74 0 0 1 3.72.7 23.32 23.32 0 0 1 3.44 1.29 21.51 21.51 0 0 1 3.08 1.65 23.61 23.61 0 0 1 8.14 8.71 21.75 21.75 0 0 1 2.44 7.57 6.91 6.91 0 0 1 0 2.92Z" style="opacity:.30000000000000004"/><path d="m260.61 106.05.15 4.07-3.64.14-.15-4a17.23 17.23 0 0 1-9.17-2.57l1.83-4.51a14.75 14.75 0 0 0 7.16 2.31l-.23-6.08c-4.08-.82-8.65-2-8.85-7.2-.14-3.86 2.53-7.28 8.25-8.15l-.15-4 3.64-.14.15 4a16.5 16.5 0 0 1 7.47 1.94l-1.64 4.55a14.88 14.88 0 0 0-5.64-1.68l.23 6.18c4.08.79 8.57 2 8.77 7.1.14 3.75-2.5 7.13-8.18 8.04Zm-4.26-16-.2-5.16c-1.91.51-2.63 1.59-2.59 2.79s1.17 1.98 2.79 2.42Zm6.6 8.53c-.05-1.27-1.13-1.92-2.72-2.41l.19 5c1.81-.4 2.58-1.37 2.58-2.54Z" style="opacity:.30000000000000004"/><path d="M281.46 91.14v-.39c0-.26-.06-.65-.11-1.13l-.08-.83c0-.3-.11-.63-.18-1a16.91 16.91 0 0 0-.56-2.44 22.69 22.69 0 0 0-2.81-6.23 23.83 23.83 0 0 0-16.25-10.69 23.82 23.82 0 0 0-12.37 1.33 24.78 24.78 0 0 0-3.1 1.44 24 24 0 0 0-2.84 1.92 26.24 26.24 0 0 0-2.63 2.33 29.18 29.18 0 0 0-2.25 2.79 22.84 22.84 0 0 0-3.22 6.57 23.27 23.27 0 0 0 .36 14.87 23 23 0 0 0 3.53 6.41 27.49 27.49 0 0 0 2.38 2.67 28.37 28.37 0 0 0 2.73 2.21 22.1 22.1 0 0 0 6.05 3.06 23.89 23.89 0 0 0 12.42.74 23.48 23.48 0 0 0 9.84-4.63 23.81 23.81 0 0 0 5.88-6.83 22.7 22.7 0 0 0 2.51-6.31 16.85 16.85 0 0 0 .44-2.47c.05-.36.11-.69.14-1s0-.59 0-.84c0-.47 0-.85.06-1.13a3.79 3.79 0 0 1 0-.38 1.59 1.59 0 0 1 0 .38v1.98c0 .31-.07.64-.11 1A16.54 16.54 0 0 1 281 97a22.64 22.64 0 0 1-2.45 6.46 24 24 0 0 1-28.55 11 26.15 26.15 0 0 1-3.18-1.29 23.74 23.74 0 0 1-3-1.82 26.93 26.93 0 0 1-2.8-2.24 27.52 27.52 0 0 1-2.43-2.73 23.09 23.09 0 0 1-3.62-6.55 23.74 23.74 0 0 1-.36-15.2 23.06 23.06 0 0 1 3.3-6.71 27.43 27.43 0 0 1 2.3-2.84 28.4 28.4 0 0 1 2.68-2.37 26 26 0 0 1 2.91-2 24.84 24.84 0 0 1 3.11-1.44A24.22 24.22 0 0 1 261.48 68a24 24 0 0 1 16.44 11 22.67 22.67 0 0 1 2.76 6.33 18 18 0 0 1 .52 2.47c.05.36.12.69.15 1s0 .58 0 .83q0 .72.06 1.14a2 2 0 0 1 .05.37Z" style="fill:#263238"/><circle cx="308.08" cy="36.48" r="14.9" transform="rotate(-45 308.08 36.479)" style="fill:#c53f3f"/><path transform="rotate(45 308.08 36.48)" style="fill:#fff" d="M306.58 29.77h3V43.2h-3z"/><path transform="rotate(-45 308.063 36.486)" style="fill:#fff" d="M306.58 29.77h3V43.2h-3z"/></g><g id="freepik--ad-1--inject-34"><path style="fill:#fff" d="M170.55 276.27h-.1V155.68H19.95V276.6h131l19.6 19.61v-19.94z"/><path d="M170.55 276.27V296.39l-.13-.13-19.63-19.58h.08l-131 .08h-.19V155.48H170.56v.16c0 36.46-.06 66.53-.07 87.53 0 10.5 0 18.73-.05 24.35V276.23a5.84 5.84 0 0 1 0-.6v-8.11c0-5.62 0-13.85-.05-24.35 0-21 0-51.07-.07-87.53l.17.17H19.98l.21-.21V276.52l-.2-.19 131 .08 19.58 19.63-.13.06c.09-12.73.11-19.29.11-19.83Z" style="fill:#263238"/><path d="M170.45 169.13c0 .12-33.69.21-75.25.21s-75.26-.09-75.26-.21 33.69-.21 75.26-.21 75.25.08 75.25.21Z" style="fill:#263238"/><path d="M28.68 162.6a1.9 1.9 0 1 1-1.89-1.89 1.9 1.9 0 0 1 1.89 1.89ZM34.29 162.6a1.9 1.9 0 1 1-1.9-1.89 1.9 1.9 0 0 1 1.9 1.89Z" style="fill:#e0e0e0"/><circle cx="38" cy="162.6" r="1.9" style="fill:#e0e0e0"/><circle cx="170.55" cy="159.48" r="14.24" style="fill:#c53f3f"/><path transform="rotate(45 170.558 159.487)" style="fill:#fff" d="M169.12 153.06h2.86v12.84h-2.86z"/><path transform="rotate(-45 170.551 159.485)" style="fill:#fff" d="M169.12 153.06h2.86v12.84h-2.86z"/><path style="fill:#c53f3f" d="m89.61 171.96 11.13 11.48 15.57-3.64 3.16 15.67 15.06 5.36-5.81 14.9 9.77 12.65-12.94 9.38 1.38 15.93-15.96.9-7.45 14.15-13.91-7.88-13.92 7.88-7.45-14.15-15.96-.9 1.38-15.93-12.94-9.38 9.78-12.65-5.82-14.9 15.06-5.36 3.16-15.67 15.57 3.64 11.14-11.48z"/><g style="opacity:.30000000000000004"><path d="M83.49 207.72c0-3.25-1.13-4.13-2.94-4.13s-2.94 1-2.94 3.56v2.32h-5.36v-2c0-5.78 2.89-9.08 8.46-9.08s8.45 3.3 8.45 9.08v.93c0 3.87-1.23 6.29-4 7.43 2.84 1.23 4 3.91 4 7.58v2.83c0 5.78-2.88 9.08-8.45 9.08s-8.46-3.3-8.46-9.08v-3h5.36v3.35c0 2.58 1.14 3.56 2.94 3.56s2.94-.87 2.94-4.07v-2.84c0-3.35-1.13-4.59-3.71-4.59h-1.91v-5.16h2.22c2.11 0 3.4-.92 3.4-3.81ZM92.52 207.51c0-5.78 3-9.08 8.61-9.08s8.61 3.3 8.61 9.08v18.77c0 5.78-3 9.08-8.61 9.08s-8.61-3.3-8.61-9.08Zm5.67 19.13c0 2.58 1.14 3.56 2.94 3.56s2.94-1 2.94-3.56v-19.49c0-2.58-1.13-3.56-2.94-3.56s-2.94 1-2.94 3.56Z"/></g><path d="M111.25 198.56a1.52 1.52 0 1 1 3 0v3.28a1.52 1.52 0 1 1-3 0Zm1 3.36c0 .44.18.62.51.62s.52-.18.52-.62v-3.44c0-.44-.2-.63-.52-.63s-.51.19-.51.63Zm4.46-4.89h.93l-4 10h-.93Zm-.5 5.19a1.52 1.52 0 1 1 3 0v3.28a1.52 1.52 0 1 1-3 0Zm1 3.36c0 .44.18.62.51.62s.52-.18.52-.62v-3.44c0-.44-.2-.62-.52-.62s-.51.18-.51.62Z" style="opacity:.30000000000000004"/><g style="opacity:.30000000000000004"><path d="M79.35 237.17c2.25 0 3.41 1.35 3.41 3.71v.47h-2.19v-.62c0-1-.42-1.45-1.16-1.45s-1.16.4-1.16 1.45c0 3 4.53 3.61 4.53 7.82 0 2.36-1.18 3.71-3.45 3.71s-3.46-1.35-3.46-3.71v-.9h2.19v1c0 1.05.47 1.43 1.2 1.43s1.21-.38 1.21-1.43c0-3-4.54-3.6-4.54-7.82 0-2.31 1.16-3.66 3.42-3.66ZM91.62 252.09h-2.34l-.4-2.67H86l-.4 2.67h-2.1l2.36-14.75h3.4Zm-5.29-4.68h2.23L87.44 240ZM92.69 237.34H95V250h3.82v2.11h-6.13ZM102.16 243.56h3.18v2.1h-3.18V250h4v2.11h-6.32v-14.77h6.32v2.11h-4Z"/></g><path d="M81.38 208.76c0-3.25-1.14-4.13-2.94-4.13s-2.94 1-2.94 3.56v2.32h-5.37v-2c0-5.77 2.89-9.07 8.46-9.07s8.46 3.3 8.46 9.07v.93c0 3.87-1.24 6.29-4 7.43 2.84 1.24 4 3.92 4 7.58v2.84c0 5.77-2.89 9.07-8.46 9.07s-8.46-3.3-8.46-9.07v-3h5.37v3.35c0 2.58 1.13 3.56 2.94 3.56s2.94-.88 2.94-4.08v-2.83c0-3.36-1.14-4.59-3.72-4.59h-1.9v-5.16H78c2.12 0 3.41-.93 3.41-3.82ZM90.4 208.55c0-5.77 3-9.07 8.62-9.07s8.61 3.3 8.61 9.07v18.78c0 5.77-3 9.07-8.61 9.07s-8.62-3.3-8.62-9.07Zm5.68 19.14c0 2.58 1.13 3.56 2.94 3.56s2.94-1 2.94-3.56v-19.5c0-2.58-1.14-3.56-2.94-3.56s-2.94 1-2.94 3.56ZM109.13 198.56a1.52 1.52 0 1 1 3 0v3.28a1.52 1.52 0 1 1-3 0Zm1 3.36c0 .44.18.62.51.62s.52-.18.52-.62v-3.44c0-.44-.2-.63-.52-.63s-.51.19-.51.63Zm4.46-4.89h.93l-4 10h-.93Zm-.5 5.19a1.52 1.52 0 1 1 3 0v3.28a1.52 1.52 0 1 1-3 0Zm1 3.36c0 .44.18.62.51.62s.52-.18.52-.62v-3.44c0-.44-.2-.62-.52-.62s-.51.18-.51.62ZM77.23 237.17c2.25 0 3.41 1.35 3.41 3.71v.47h-2.19v-.62c0-1-.42-1.45-1.16-1.45s-1.16.4-1.16 1.45c0 3 4.53 3.61 4.53 7.82 0 2.36-1.18 3.71-3.45 3.71s-3.46-1.35-3.46-3.71v-.9h2.19v1c0 1.05.47 1.43 1.21 1.43s1.2-.38 1.2-1.43c0-3-4.53-3.6-4.53-7.82 0-2.31 1.18-3.66 3.41-3.66ZM89.5 252.09h-2.34l-.4-2.67h-2.85l-.4 2.67h-2.13l2.36-14.75h3.4Zm-5.29-4.68h2.23L85.32 240ZM90.57 237.34h2.32V250h3.82v2.11h-6.14ZM100 243.56h3.18v2.1H100V250h4v2.11h-6.28v-14.77H104v2.11h-4Z" style="fill:#fff"/><path d="m119.55 180.56.65-1.48a4.4 4.4 0 0 0 2.33.7c.83 0 1.15-.23 1.15-.57 0-1.12-4-.31-4-2.93 0-1.25 1-2.28 3.12-2.28a5.29 5.29 0 0 1 2.56.61l-.61 1.48a4.21 4.21 0 0 0-2-.54c-.83 0-1.14.28-1.14.63 0 1.08 4 .28 4 2.87 0 1.23-1 2.28-3.12 2.28a5.56 5.56 0 0 1-2.94-.77ZM129 179.28l-.57.57v1.34h-1.91v-7.47h1.91v3.91l2-1.9h2.26l-2.26 2.34 2.45 3.12h-2.31ZM133.15 174.11a1.06 1.06 0 0 1 1.17-1 1 1 0 0 1 1.16 1 1.17 1.17 0 0 1-2.33 0Zm.21 1.62h1.91v5.46h-1.91ZM142.62 178.46a2.64 2.64 0 0 1-2.67 2.82 2.07 2.07 0 0 1-1.53-.57v2.43h-1.91v-7.41h1.82v.54a2 2 0 0 1 1.62-.63 2.64 2.64 0 0 1 2.67 2.82Zm-1.93 0a1.16 1.16 0 1 0-1.15 1.3 1.16 1.16 0 0 0 1.15-1.3ZM151.26 179.82h-3l-.56 1.37h-2l3.11-7.05h2l3.13 7.05h-2.08Zm-.59-1.47-.9-2.26-.91 2.26ZM160.11 173.72v7.47h-1.82v-.54a2 2 0 0 1-1.6.63 2.82 2.82 0 0 1 0-5.64 2 2 0 0 1 1.51.56v-2.48Zm-1.88 4.73a1.16 1.16 0 1 0-1.14 1.31 1.16 1.16 0 0 0 1.14-1.31ZM160.91 180.72l.57-1.31a3.84 3.84 0 0 0 1.9.5c.65 0 .86-.14.86-.37 0-.74-3.22.1-3.22-2.09 0-1 .94-1.81 2.66-1.81a4.8 4.8 0 0 1 2.15.46l-.57 1.3a3.24 3.24 0 0 0-1.57-.4c-.65 0-.88.18-.88.38 0 .76 3.21-.06 3.21 2.11 0 1-.92 1.79-2.7 1.79a5 5 0 0 1-2.41-.56Z" style="fill:#e0e0e0"/></g></svg>