<svg xmlns="http://www.w3.org/2000/svg" viewBox="0 0 500 500"><g id="freepik--background-simple--inject-190"><path d="M438.09 239.07c-16-45.17-32.1-95.13-67.27-126.45A102.57 102.57 0 0 0 336.49 92c-77.07-26.71-137 .87-168 41.21s-41.82 86-82.22 109.66-62.56 57.43-49 112.53S98 461.64 177.13 436.15s74.16-59.47 143.27-51.26 121.4 8.26 136.43-32.14c10.74-28.85 2.39-58.73-8.49-86-3.53-8.89-6.89-18.17-10.25-27.68Z" style="fill:#7e57c2"/><path d="M438.09 239.07c-16-45.17-32.1-95.13-67.27-126.45A102.57 102.57 0 0 0 336.49 92c-77.07-26.71-137 .87-168 41.21s-41.82 86-82.22 109.66-62.56 57.43-49 112.53S98 461.64 177.13 436.15s74.16-59.47 143.27-51.26 121.4 8.26 136.43-32.14c10.74-28.85 2.39-58.73-8.49-86-3.53-8.89-6.89-18.17-10.25-27.68Z" style="fill:#fff;opacity:.7000000000000001"/></g><g id="freepik--Floor--inject-190"><path style="fill:none;stroke:#263238;stroke-miterlimit:10" d="M455.14 455.33h9.45M138.48 455.33h309.1M26 455.33h102.08"/></g><g id="freepik--Plants--inject-190"><path d="M331.36 400.77c1.71.74 5.88.65 5.89.65s-.9-2.73-1-2.9c-.92-1.92-3.81-5.08-6.17-4.76a2.82 2.82 0 0 0-2.26 3.53c.41 1.63 2.09 2.84 3.54 3.48Z" style="fill:#7e57c2"/><path d="M332.8 412.86c1.77.26 5.5-.82 5.8-.91a47.9 47.9 0 0 0 2.26 6.25c.51 1.19 1.06 2.37 1.63 3.54-.34-.49-.65-.94-.7-1-1.39-1.61-5-3.9-7.2-3a2.82 2.82 0 0 0-1.25 4c.81 1.47 2.74 2.2 4.31 2.43s4.79-.63 5.63-.86c.23.44.44.89.67 1.34 1.08 2.15 2.16 4.29 3.16 6.42.36.75.68 1.5 1 2.26-.3-.45-.56-.82-.61-.87-1.38-1.6-5-3.89-7.2-3a2.82 2.82 0 0 0-1.25 4c.81 1.47 2.74 2.2 4.31 2.42s4.48-.54 5.48-.82c.31.78.62 1.56.88 2.33.17.53.37 1 .51 1.57s.29 1.06.44 1.58c.24 1 .5 2.07.71 3.06.16.7.29 1.36.43 2-.35-.75-1.05-2.21-1.12-2.33-1.13-1.79-4.37-4.6-6.68-4a2.83 2.83 0 0 0-1.84 3.77c.58 1.57 2.38 2.59 3.9 3.05 1.67.51 5.37 0 5.83 0 .22 1.11.43 2.18.61 3.2.39 2.25.69 4.27.92 6H355a145.966 145.966 0 0 0-1.85-9.77 31.9 31.9 0 0 0 3.25-1.53 20.63 20.63 0 0 0 4.74 3.06c-.43 1-.85 2.05-1.26 3-.87 2-1.69 3.75-2.41 5.24h1.69c.62-1.38 1.3-2.95 2-4.69.44-1.06.88-2.2 1.33-3.37.45.09 4.11.83 5.81.45s3.43-1.23 4.12-2.75a2.81 2.81 0 0 0-1.56-3.89c-2.25-.76-5.69 1.8-6.95 3.51-.08.1-.76 1.28-1.18 2 .18-.48.36-.95.54-1.45.36-1 .69-2 1-3l.48-1.57c.16-.53.28-1.1.42-1.65.31-1.29.55-2.61.77-3.94.86.31 3.93 1.38 5.52 1.27s3.57-.7 4.49-2.1a2.83 2.83 0 0 0-.95-4.09c-2.11-1.09-5.9.92-7.41 2.42-.09.1-1.05 1.29-1.57 2 .13-.8.26-1.6.36-2.42.29-2.36.52-4.76.75-7.15.07-.73.15-1.46.23-2.19.3.12 3.92 1.47 5.7 1.34 1.58-.11 3.57-.69 4.49-2.1a2.82 2.82 0 0 0-.95-4.08c-2.11-1.09-5.9.92-7.41 2.42-.11.11-1.49 1.84-1.82 2.29.17-1.61.35-3.2.6-4.77a51.48 51.48 0 0 1 1.37-6.29c.14.06 3.91 1.48 5.74 1.35 1.58-.11 3.57-.69 4.48-2.1a2.81 2.81 0 0 0-.94-4.08c-2.12-1.09-5.91.92-7.41 2.42-.12.12-1.6 2-1.85 2.33 0-.12.06-.25.1-.37a35.76 35.76 0 0 1 2.49-5.94c.54-1.06 1.11-2 1.7-3 .67.34 3.77 1.84 5.43 1.91s3.62-.3 4.69-1.6a2.82 2.82 0 0 0-.5-4.16c-2-1.31-6 .27-7.63 1.59-.09.08-.92.91-1.52 1.52.26-.42.53-.86.8-1.25 1-1.5 2-2.81 2.9-4 .51-.65 1-1.23 1.45-1.77.83 0 4.2-.11 5.67-.8s3.08-1.94 3.42-3.58a2.81 2.81 0 0 0-2.35-3.46c-2.36-.26-5.17 3-6 4.92-.07.17-.94 2.93-.9 2.93h.05c-.44.5-.92 1-1.42 1.67-.93 1.13-2 2.42-3 3.91a49.63 49.63 0 0 0-3.11 4.94 36.41 36.41 0 0 0-2.64 6v.08-2.8c-.28-2.1-2-6-4.38-6.45a2.82 2.82 0 0 0-3.25 2.65c-.13 1.67 1.08 3.35 2.26 4.41 1.34 1.19 5 2.34 5.33 2.43a49.51 49.51 0 0 0-1.56 6.46c-.23 1.28-.42 2.57-.59 3.86v-1.22c-.27-2.1-2-6-4.38-6.44a2.8 2.8 0 0 0-3.24 2.64c-.14 1.68 1.07 3.35 2.25 4.41s4.34 2.12 5.18 2.38c-.06.5-.13 1-.19 1.49-.29 2.39-.56 4.77-.9 7.1-.12.83-.27 1.63-.41 2.43v-1.05c-.28-2.11-2-6-4.38-6.45a2.83 2.83 0 0 0-3.25 2.65c-.13 1.67 1.08 3.35 2.26 4.4s4 2 5 2.34c-.18.82-.35 1.64-.55 2.43-.16.53-.27 1.06-.45 1.59s-.34 1-.5 1.56c-.36 1-.72 2-1.1 2.95-.25.66-.5 1.28-.76 1.92.13-.82.35-2.42.35-2.56a11 11 0 0 0-1.46-5.31 4.44 4.44 0 0 0 0-.63 2.81 2.81 0 0 0-3.45-2.38c-2.29.61-3.75 4.64-3.86 6.76 0 .13.08 1.49.14 2.35-.12-.5-.22-1-.35-1.5-.24-1-.51-2-.8-3.11l-.47-1.57c-.15-.53-.37-1.07-.56-1.61-.45-1.24-1-2.48-1.52-3.71.89-.21 4-1 5.3-2s2.59-2.54 2.58-4.22a2.81 2.81 0 0 0-3-2.88c-2.37.25-4.42 4-4.85 6.1 0 .13-.16 1.66-.22 2.5-.34-.74-.68-1.48-1-2.22-1.06-2.13-2.19-4.25-3.32-6.37l-1-1.95c.32-.07 4.08-.95 5.5-2 1.26-1 2.59-2.55 2.58-4.23a2.81 2.81 0 0 0-3-2.88c-2.36.26-4.42 4-4.85 6.1 0 .16-.23 2.36-.25 2.92-.74-1.43-1.47-2.87-2.13-4.31a49.43 49.43 0 0 1-2.33-6c.15 0 4.08-.93 5.53-2 1.26-1 2.6-2.55 2.58-4.22a2.82 2.82 0 0 0-3-2.89c-2.36.26-4.41 4-4.84 6.11 0 .16-.25 2.53-.25 3l-.13-.36a36.24 36.24 0 0 1-1.2-6.33c-.13-1.18-.19-2.32-.23-3.42.75-.1 4.17-.55 5.59-1.41s2.85-2.24 3-3.91a2.82 2.82 0 0 0-2.71-3.2c-2.38 0-4.83 3.51-5.49 5.53 0 .11-.27 1.27-.43 2.11v-1.49c0-1.8.11-3.45.23-4.9.07-.83.15-1.58.23-2.28.69-.47 3.44-2.41 4.28-3.8s1.51-3.31.89-4.87a2.82 2.82 0 0 0-3.88-1.59c-2.11 1.09-2.66 5.34-2.32 7.44 0 .18.83 2.95.87 2.93-.09.67-.18 1.39-.27 2.18-.14 1.46-.29 3.11-.34 4.91a53.21 53.21 0 0 0 .14 5.84 37.88 37.88 0 0 0 1.08 6.43v.08c-.38-.59-1.48-2.2-1.58-2.31-1.39-1.61-5-3.9-7.2-3a2.82 2.82 0 0 0-1.25 4c.59 1.39 2.52 2.12 4.09 2.35Z" style="fill:#7e57c2"/><path d="M373.59 401.69s.76-2.78.78-3c.3-2.1-.37-6.34-2.52-7.38a2.82 2.82 0 0 0-3.83 1.7c-.57 1.58.16 3.51 1 4.85 1.03 1.6 4.57 3.82 4.57 3.83ZM50.57 402.15c1.66.73 5.73.64 5.73.64s-.87-2.67-.95-2.83c-.89-1.87-3.71-4.95-6-4.64a2.73 2.73 0 0 0-2.2 3.44c.37 1.59 2 2.77 3.42 3.39Z" style="fill:#7e57c2"/><path d="M52 413.94c1.73.25 5.36-.81 5.65-.89a47.43 47.43 0 0 0 2.2 6.09c.5 1.16 1 2.31 1.59 3.46-.33-.49-.63-.92-.68-1-1.35-1.56-4.89-3.79-7-2.89a2.75 2.75 0 0 0-1.22 3.9c.79 1.44 2.68 2.15 4.21 2.37s4.66-.61 5.49-.84l.65 1.31c1 2.09 2.1 4.18 3.08 6.25.34.74.66 1.47 1 2.2-.29-.43-.54-.79-.59-.84-1.35-1.57-4.89-3.79-7-2.89a2.75 2.75 0 0 0-1.22 3.9c.79 1.43 2.68 2.14 4.21 2.37a17.31 17.31 0 0 0 5.33-.81c.3.76.61 1.53.86 2.28.17.51.36 1 .49 1.52s.29 1 .43 1.55c.24 1 .49 2 .7 3 .15.67.28 1.32.41 2-.33-.73-1-2.15-1.09-2.26-1.1-1.76-4.26-4.49-6.5-3.92a2.74 2.74 0 0 0-1.79 3.67c.56 1.53 2.32 2.52 3.79 3 1.63.5 5.24 0 5.69 0 .21 1.08.41 2.13.58 3.12.39 2.2.68 4.16.9 5.82h1.52c-.26-1.72-.61-3.77-1.07-6.07-.21-1.09-.46-2.26-.73-3.45a30.45 30.45 0 0 0 3.11-1.57 20.36 20.36 0 0 0 4.62 3c-.41 1-.83 2-1.23 2.92-.84 1.94-1.64 3.66-2.35 5.11h1.65c.6-1.34 1.27-2.87 2-4.57.43-1 .86-2.14 1.3-3.29.43.09 4 .82 5.66.44s3.34-1.19 4-2.68a2.74 2.74 0 0 0-1.51-3.79c-2.2-.74-5.55 1.75-6.78 3.42-.07.1-.74 1.25-1.15 2 .17-.47.35-.92.52-1.41.35-1 .67-1.92 1-3 .16-.5.31-1 .46-1.53s.28-1.07.42-1.61c.3-1.25.54-2.54.75-3.84.84.31 3.83 1.35 5.38 1.24s3.48-.68 4.37-2.05a2.74 2.74 0 0 0-.92-4c-2.06-1.07-5.76.89-7.22 2.35-.09.09-1 1.26-1.53 1.91.12-.78.25-1.56.35-2.36.28-2.3.5-4.63.73-7 .07-.72.14-1.43.22-2.14.3.11 3.82 1.43 5.56 1.31 1.54-.11 3.48-.68 4.37-2.05a2.75 2.75 0 0 0-.92-4c-2.06-1.06-5.76.9-7.22 2.36-.11.11-1.46 1.79-1.78 2.23.17-1.56.35-3.12.59-4.65a47 47 0 0 1 1.33-6.12c.14.05 3.82 1.44 5.59 1.31 1.55-.11 3.48-.67 4.37-2.05a2.73 2.73 0 0 0-.92-4c-2.06-1.07-5.75.89-7.22 2.35-.11.12-1.56 1.93-1.8 2.27 0-.11.06-.24.1-.35a34.9 34.9 0 0 1 2.42-5.8c.53-1 1.09-2 1.66-2.9.66.33 3.68 1.79 5.29 1.86s3.53-.29 4.57-1.56a2.74 2.74 0 0 0-.48-4c-1.93-1.28-5.82.26-7.43 1.55-.09.07-.91.88-1.49 1.48.26-.41.52-.84.78-1.23 1-1.46 2-2.73 2.82-3.86.51-.63 1-1.2 1.42-1.72.81 0 4.09-.12 5.52-.79s3-1.88 3.34-3.48a2.74 2.74 0 0 0-2.29-3.38c-2.31-.25-5 2.91-5.89 4.8-.07.17-.91 2.85-.87 2.85-.44.5-.9 1-1.39 1.63-.91 1.11-1.91 2.37-2.92 3.81a48.37 48.37 0 0 0-3 4.82 34.61 34.61 0 0 0-2.6 5.87.19.19 0 0 0 0 .07v-2.72c-.27-2.05-2-5.87-4.27-6.29a2.75 2.75 0 0 0-3.16 2.58c-.14 1.63 1 3.27 2.2 4.3 1.3 1.16 4.91 2.28 5.2 2.37a48.29 48.29 0 0 0-1.53 6.3c-.22 1.24-.4 2.5-.57 3.76v-1.19c-.27-2.05-2-5.86-4.27-6.28a2.74 2.74 0 0 0-3.16 2.58c-.14 1.63 1.05 3.26 2.2 4.29s4.23 2.07 5 2.33l-.18 1.45c-.28 2.33-.55 4.65-.88 6.92-.12.8-.26 1.58-.4 2.37v-1c-.27-2.05-2-5.86-4.27-6.29a2.75 2.75 0 0 0-3.16 2.58c-.13 1.64 1 3.27 2.2 4.3s3.93 2 4.9 2.28c-.17.79-.34 1.6-.54 2.36-.15.52-.25 1-.43 1.55s-.33 1-.49 1.52c-.35 1-.71 1.95-1.07 2.87-.25.65-.5 1.26-.74 1.88.12-.8.34-2.36.34-2.49a10.67 10.67 0 0 0-1.43-5.18 3.08 3.08 0 0 0 0-.61 2.74 2.74 0 0 0-3.35-2.33c-2.24.6-3.66 4.53-3.77 6.6 0 .12.07 1.45.14 2.29-.12-.49-.22-1-.34-1.46-.24-1-.5-2-.78-3-.15-.51-.31-1-.46-1.54s-.36-1-.54-1.56c-.45-1.21-1-2.42-1.49-3.62.86-.21 3.93-1 5.16-1.94s2.53-2.48 2.52-4.12a2.74 2.74 0 0 0-3-2.81c-2.31.25-4.31 3.93-4.73 5.95 0 .13-.16 1.62-.22 2.44-.33-.72-.65-1.45-1-2.16-1-2.08-2.14-4.15-3.23-6.21-.34-.64-.66-1.27-1-1.91.3-.07 4-.92 5.35-2s2.53-2.48 2.52-4.11a2.74 2.74 0 0 0-3-2.81c-2.31.25-4.31 3.92-4.73 5.95 0 .15-.22 2.29-.24 2.84-.73-1.4-1.44-2.8-2.09-4.21a49.42 49.42 0 0 1-2.3-5.89c.15 0 4-.9 5.39-2 1.23-.94 2.53-2.48 2.52-4.12a2.74 2.74 0 0 0-3-2.8c-2.3.25-4.3 3.92-4.72 5.95 0 .15-.24 2.46-.25 2.88 0-.12-.08-.23-.12-.35a36.3 36.3 0 0 1-1.17-6.17c-.13-1.15-.19-2.26-.22-3.34.73-.09 4.06-.53 5.44-1.36s2.79-2.19 3-3.82a2.76 2.76 0 0 0-2.64-3.12c-2.32 0-4.71 3.43-5.35 5.4 0 .1-.27 1.23-.42 2.05v-1.45c0-1.75.12-3.36.23-4.78.07-.81.15-1.54.23-2.22.67-.46 3.35-2.35 4.17-3.7s1.47-3.23.86-4.75a2.73 2.73 0 0 0-3.77-1.55c-2.1 1.1-2.64 5.25-2.34 7.25 0 .17.81 2.88.84 2.86-.09.65-.18 1.36-.26 2.12-.14 1.43-.29 3-.33 4.79a46.23 46.23 0 0 0 .14 5.69 35.09 35.09 0 0 0 1.05 6.27.19.19 0 0 1 0 .07c-.36-.57-1.44-2.14-1.53-2.25-1.36-1.56-4.89-3.79-7-2.89a2.75 2.75 0 0 0-1.21 3.9c.86 1.44 2.74 2.15 4.3 2.38Z" style="fill:#7e57c2"/><path d="M91.72 403.05s.74-2.71.77-2.89c.28-2.05-.37-6.18-2.46-7.18a2.74 2.74 0 0 0-3.73 1.65c-.56 1.54.15 3.42 1 4.72.98 1.53 4.42 3.65 4.42 3.7Z" style="fill:#7e57c2"/></g><g style="opacity:.15" id="freepik--fonts-2--inject-190"><path d="m348.81 65.74-.63 3.26h-1.67l3.12-16.35h2.63L355.38 69h-1.81l-.63-3.29Zm.24-1.57h3.63l-1.84-9.43ZM371.42 52.68c2.54 0 3.54 1.22 3.54 3.62v.77c0 1.73-.49 2.81-1.91 3.25 1.58.44 2.19 1.7 2.19 3.5v1.38c0 2.45-1.19 3.83-3.73 3.83h-3.75V52.68Zm-.42 6.94c1.45 0 2.19-.47 2.19-2.17v-1c0-1.45-.49-2.15-1.79-2.15h-1.79v5.28Zm.54 7.75c1.33 0 1.93-.7 1.93-2.22v-1.44c0-1.83-.72-2.43-2.28-2.43h-1.58v6.09ZM395 56.63v1.47h-1.7v-1.56c0-1.47-.58-2.36-1.91-2.36s-1.91.89-1.91 2.36v8.64c0 1.47.61 2.36 1.91 2.36s1.91-.89 1.91-2.36v-2.13h1.7v2c0 2.48-1.17 4.11-3.68 4.11s-3.66-1.63-3.66-4.11v-8.42c0-2.47 1.16-4.11 3.66-4.11s3.68 1.64 3.68 4.11ZM410.28 52.68c2.54 0 3.71 1.55 3.71 4.07V65c0 2.5-1.17 4-3.71 4h-3.82V52.68Zm0 14.69c1.31 0 1.93-.82 1.93-2.31v-8.41c0-1.49-.62-2.31-1.95-2.31h-2v13ZM431.26 59.92v1.64h-4v5.81h4.9V69h-6.71V52.68h6.71v1.66h-4.9v5.58ZM451.09 60.3V62h-3.75v7h-1.81V52.68H452v1.66h-4.66v6ZM354.17 81.78v1.4h-1.72v-1.5c0-1.47-.58-2.36-1.91-2.36s-1.91.89-1.91 2.36v8.64c0 1.47.6 2.36 1.91 2.36s1.91-.89 1.91-2.36v-3.27h-1.68v-1.63h3.4v4.81c0 2.47-1.16 4.11-3.68 4.11s-3.66-1.64-3.66-4.11v-8.45c0-2.48 1.17-4.11 3.66-4.11s3.68 1.63 3.68 4.11ZM369.58 86.82v7.36h-1.82V77.83h1.82v7.36h4v-7.36h1.82v16.35h-1.82v-7.36ZM389.65 77.83v16.35h-1.82V77.83ZM406 92.52h.91c1.18-.07 1.91-.63 1.91-2.29v-12.4h1.79v12.31c0 3-1.51 4-3.47 4.06a10.7 10.7 0 0 1-1.14 0ZM428.23 87.08l-1 1.61v5.49h-1.81V77.83h1.81v7.89l4.34-7.89h1.84l-4.13 7.45 4.27 8.9h-1.87ZM445.53 94.18V77.83h1.81v14.69H452v1.66ZM353 119.3h-1.74l-2.71-13v13H347V103h2.54l2.68 13 2.58-13h2.54v16.34h-1.72v-13.17ZM369.37 119.32h-1.63V103H370l3.78 11.81V103h1.6v16.34h-1.88l-4.17-13.22ZM387.69 106.92c0-2.5 1.23-4.11 3.73-4.11s3.75 1.61 3.75 4.11v8.45c0 2.48-1.24 4.11-3.75 4.11s-3.73-1.63-3.73-4.11Zm1.79 8.55c0 1.49.63 2.36 1.94 2.36s1.93-.87 1.93-2.36v-8.64c0-1.47-.61-2.36-1.93-2.36s-1.94.89-1.94 2.36ZM410 103c2.56 0 3.66 1.51 3.66 4v2c0 2.59-1.22 3.95-3.8 3.95h-1.61v6.44h-1.82V103Zm-.14 8.26c1.35 0 2-.63 2-2.19v-2.17c0-1.5-.53-2.25-1.86-2.25h-1.75v6.61ZM432.8 106.92v8.45a4.72 4.72 0 0 1-.63 2.55c.18.4.49.51 1 .51h.23v1.62h-.3A2.17 2.17 0 0 1 431 119a3.79 3.79 0 0 1-2 .49c-2.49 0-3.72-1.63-3.72-4.11v-8.45c0-2.5 1.23-4.11 3.72-4.11s3.8 1.6 3.8 4.1Zm-5.69-.09v8.64c0 1.49.63 2.36 1.93 2.36s1.96-.83 1.96-2.36v-8.64c0-1.47-.61-2.36-1.94-2.36s-1.95.89-1.95 2.36ZM449.16 103c2.56 0 3.63 1.3 3.63 3.73V108c0 1.8-.62 2.92-2 3.37 1.49.44 2.05 1.65 2.05 3.4v2.55a4.14 4.14 0 0 0 .32 2h-1.86a4.3 4.3 0 0 1-.3-2v-2.57c0-1.85-.86-2.43-2.38-2.43h-1.28v7h-1.81V103Zm-.47 7.7c1.45 0 2.31-.47 2.31-2.24v-1.56c0-1.48-.54-2.25-1.89-2.25h-1.77v6.05ZM354 132v.45h-1.72V132c0-1.47-.56-2.33-1.87-2.33s-1.86.86-1.86 2.31c0 3.66 5.48 4 5.48 8.61 0 2.48-1.19 4.09-3.69 4.09s-3.65-1.61-3.65-4.09v-.93h1.7v1c0 1.47.6 2.33 1.91 2.33s1.91-.86 1.91-2.33c0-3.65-5.45-4-5.45-8.6 0-2.52 1.16-4.08 3.61-4.08S354 129.57 354 132ZM370.11 144.47v-14.69h-3v-1.66h7.8v1.66h-3v14.69ZM389.55 140.61c0 1.48.58 2.36 1.91 2.36s1.89-.88 1.89-2.36v-12.49h1.7v12.4c0 2.48-1.14 4.13-3.66 4.13s-3.63-1.65-3.63-4.13v-12.4h1.79ZM407.84 128.12l2.65 14.22 2.64-14.22h1.67l-3.05 16.35h-2.68L406 128.12ZM429.79 144.47h-2.49l-2.24-16.35h1.77l1.91 13.88 1.82-13.89h1.79l1.8 13.91 1.85-13.9h1.58l-2.21 16.35H433l-1.56-11.09ZM449.58 137.41l-2.73 7.06h-1.72l3.28-8.43-3.07-7.92h1.89l2.51 6.54 2.54-6.54H454l-3.07 7.88 3.26 8.43h-1.91ZM349.86 163.75l-3.45-10.48h1.89l2.54 8 2.56-8h1.73l-3.47 10.48v5.86h-1.8ZM374.91 169.61h-7.41V168l5.59-13h-5.33v-1.66H375v1.63l-5.62 13h5.57Z"/></g><g id="freepik--fonts-1--inject-190"><path d="M71.91 164.24 68.15 184H58.1l18.7-97.95h15.76l18.7 97.95h-10.88l-3.77-19.72Zm1.4-9.37h21.77l-11-56.51ZM162.89 109.69v8.39h-10.32v-9c0-8.81-3.49-14.12-11.44-14.12s-11.45 5.31-11.45 14.12v51.76c0 8.81 3.63 14.12 11.45 14.12s11.44-5.31 11.44-14.12V141.3h-10v-9.79h20.37v28.82c0 14.82-7 24.61-22 24.61s-21.91-9.79-21.91-24.61v-50.64c0-14.82 7-24.62 21.91-24.62s21.95 9.8 21.95 24.62Z" style="fill:#263238"/><path style="fill:none;stroke:#263238;stroke-miterlimit:10" d="M53.56 65.17h116.16v144.91H53.56zM53.56 184.67h116.62"/><path style="fill:#fff;stroke:#263238;stroke-miterlimit:10" d="M50.79 62.4h5.53v5.53h-5.53zM166.49 62.4h5.53v5.53h-5.53zM50.79 135.23h5.53v5.53h-5.53zM166.49 135.23h5.53v5.53h-5.53zM50.79 206.39h5.53v5.53h-5.53zM166.49 206.39h5.53v5.53h-5.53z"/><path d="M55.4 184.67a1.85 1.85 0 1 0-1.84 1.85 1.84 1.84 0 0 0 1.84-1.85Z" style="fill:#263238"/><path style="fill:none;stroke:#263238;stroke-miterlimit:10" d="M169.25 138h16.14"/><circle cx="185.39" cy="138" r="2.3" style="fill:#fff;stroke:#263238;stroke-miterlimit:10"/><path d="M195.24 178.16 191.57 193h-1.79l15.13-62.91h2.78L223.18 193h-2l-3.67-14.81Zm.36-1.8h21.58l-10.92-44ZM256.22 145.58v4.13h-2v-4.22c0-7.63-2.87-14-11.1-14s-11.2 6.37-11.2 14v32.13c0 7.63 2.87 13.91 11.2 13.91s11.1-6.28 11.1-13.91v-14.27h-9.76v-1.79h11.73v16c0 8.71-3.58 15.89-13.16 15.89S230 186.24 230 177.53v-31.95c0-8.7 3.59-15.88 13.08-15.88s13.14 7.18 13.14 15.88Z" style="fill:#263238"/></g><g id="freepik--tool-2--inject-190"><path d="M209.35 269.44H315a6.27 6.27 0 0 1 6.27 6.27V413H203.09V275.71a6.27 6.27 0 0 1 6.26-6.27Z" style="fill:#545454;stroke:#263238;stroke-miterlimit:10"/><path style="fill:#b2b2b2" d="M211.17 286.81h12.84v.84h-12.84z"/><path d="M315.72 269.44H208.64a5.55 5.55 0 0 0-5.55 5.56v3.07h118.18V275a5.56 5.56 0 0 0-5.55-5.56Z" style="fill:#263238;stroke:#263238;stroke-miterlimit:10"/><path style="fill:#b2b2b2" d="m298.17 273.88 1.64-1.06v-1.03l-3.24 2.09 3.24 2.09v-1.03l-1.64-1.06z"/><path style="fill:#b2b2b2" d="m301.18 273.88 1.65-1.06v-1.03l-3.25 2.09 3.25 2.09v-1.03l-1.65-1.06zM315.86 274.2l1.64-1.76a.42.42 0 0 0-.62-.58l-1.6 1.72-1.61-1.72a.42.42 0 1 0-.62.58l1.64 1.76-1.64 1.8a.43.43 0 0 0 0 .6.48.48 0 0 0 .29.11.4.4 0 0 0 .31-.13l1.61-1.72 1.6 1.72a.4.4 0 0 0 .31.13.46.46 0 0 0 .29-.11.43.43 0 0 0 0-.6Z"/><path style="fill:#263238;stroke:#263238;stroke-miterlimit:10" d="M230.04 278.3h91.14v13.18h-91.14z"/><path style="fill:#b2b2b2" d="M312.49 282.39h5.33v.79h-5.33zM312.49 283.79h5.33v.79h-5.33zM312.49 285.19h5.33v.79h-5.33z"/><path style="fill:#263238;stroke:#263238;stroke-miterlimit:10" d="M224.44 334.69h24.96v9.25h-24.96zM215.27 334.66h7.2v9.53h-7.2z"/><path style="fill:#b2b2b2" d="m216.94 338.53 1.88-1.85 1.98 1.94v-.83l-1.98-1.94-1.88 1.84v.84zM220.8 340.16l-1.88 1.85-1.98-1.95v.83l1.98 1.95 1.88-1.85v-.83z"/><path style="fill:#263238;stroke:#263238;stroke-miterlimit:10" d="M251.45 334.66h7.2v9.53h-7.2z"/><path style="fill:#b2b2b2" d="m256.98 338.76-1.88 1.85-1.98-1.95v.83l1.98 1.95 1.88-1.85v-.83z"/><path style="fill:#263238;stroke:#263238;stroke-miterlimit:10" d="M224.44 348.71h24.96v9.25h-24.96zM215.27 348.69h7.2v9.53h-7.2z"/><path style="fill:#b2b2b2" d="m216.94 352.55 1.88-1.85 1.98 1.94v-.83l-1.98-1.94-1.88 1.85v.83zM220.8 354.18l-1.88 1.85-1.98-1.95v.84l1.98 1.94 1.88-1.85v-.83z"/><path style="fill:#263238;stroke:#263238;stroke-miterlimit:10" d="M251.45 348.69h7.2v9.53h-7.2z"/><path style="fill:#b2b2b2" d="m256.98 352.78-1.88 1.85-1.98-1.95v.83l1.98 1.95 1.88-1.85v-.83z"/><path style="fill:#263238;stroke:#263238;stroke-miterlimit:10" d="M224.44 367.48h24.96v9.25h-24.96zM215.27 367.45h7.2v9.53h-7.2z"/><path style="fill:#b2b2b2" d="m216.94 371.31 1.88-1.85 1.98 1.94v-.83l-1.98-1.94-1.88 1.85v.83zM220.8 372.94l-1.88 1.85-1.98-1.94v.83l1.98 1.94 1.88-1.85v-.83z"/><path style="fill:#263238;stroke:#263238;stroke-miterlimit:10" d="M251.45 367.45h7.2v9.53h-7.2z"/><path style="fill:#b2b2b2" d="m256.98 371.54-1.88 1.85-1.98-1.95v.83l1.98 1.95 1.88-1.85v-.83z"/><path style="fill:#263238;stroke:#263238;stroke-miterlimit:10" d="M224.44 381.5h24.96v9.25h-24.96zM215.27 381.47h7.2V391h-7.2z"/><path style="fill:#b2b2b2" d="m216.94 385.33 1.88-1.85 1.98 1.95v-.83l-1.98-1.95-1.88 1.85v.83zM220.8 386.96l-1.88 1.85-1.98-1.94v.83l1.98 1.94 1.88-1.84v-.84z"/><path style="fill:#263238;stroke:#263238;stroke-miterlimit:10" d="M251.45 381.47h7.2V391h-7.2z"/><path style="fill:#b2b2b2" d="m256.98 385.56-1.88 1.85-1.98-1.95v.84l1.98 1.94 1.88-1.85v-.83z"/><path style="fill:#263238;stroke:#263238;stroke-miterlimit:10" d="M282.48 334.69h24.96v9.25h-24.96zM273.32 334.66h7.2v9.53h-7.2z"/><path style="fill:#b2b2b2" d="m274.99 338.53 1.88-1.85 1.98 1.94v-.83l-1.98-1.94-1.88 1.84v.84zM278.85 340.16l-1.88 1.85-1.98-1.95v.83l1.98 1.95 1.88-1.85v-.83z"/><path style="fill:#263238;stroke:#263238;stroke-miterlimit:10" d="M309.5 334.66h7.2v9.53h-7.2z"/><path style="fill:#b2b2b2" d="m315.03 338.76-1.88 1.85-1.98-1.95v.83l1.98 1.95 1.88-1.85v-.83z"/><path style="fill:#263238;stroke:#263238;stroke-miterlimit:10" d="M282.48 348.71h24.96v9.25h-24.96zM273.32 348.69h7.2v9.53h-7.2z"/><path style="fill:#b2b2b2" d="m274.99 352.55 1.88-1.85 1.98 1.94v-.83l-1.98-1.94-1.88 1.85v.83zM278.85 354.18l-1.88 1.85-1.98-1.95v.84l1.98 1.94 1.88-1.85v-.83z"/><path style="fill:#263238;stroke:#263238;stroke-miterlimit:10" d="M309.5 348.69h7.2v9.53h-7.2z"/><path style="fill:#b2b2b2" d="m315.03 352.78-1.88 1.85-1.98-1.95v.83l1.98 1.95 1.88-1.85v-.83z"/><path style="fill:#263238;stroke:#263238;stroke-miterlimit:10" d="M208.17 304.97h99.27v9.25h-99.27zM309.5 304.94h7.2v9.53h-7.2z"/><path style="fill:#b2b2b2" d="m315.03 309.03-1.88 1.85-1.98-1.94v.83l1.98 1.94 1.88-1.85v-.83z"/><path style="fill:#263238;stroke:#263238;stroke-miterlimit:10" d="M208.17 318.99h99.27v9.25h-99.27zM309.5 318.96h7.2v9.53h-7.2z"/><path style="fill:#b2b2b2" d="m315.03 323.05-1.88 1.85-1.98-1.94v.83l1.98 1.94 1.88-1.85v-.83z"/><path style="fill:#263238;stroke:#263238;stroke-miterlimit:10" d="M282.48 367.48h24.96v9.25h-24.96zM273.32 367.45h7.2v9.53h-7.2z"/><path style="fill:#b2b2b2" d="m274.99 371.31 1.88-1.85 1.98 1.94v-.83l-1.98-1.94-1.88 1.85v.83zM278.85 372.94l-1.88 1.85-1.98-1.94v.83l1.98 1.94 1.88-1.85v-.83z"/><path style="fill:#263238;stroke:#263238;stroke-miterlimit:10" d="M309.5 367.45h7.2v9.53h-7.2z"/><path style="fill:#b2b2b2" d="m315.03 371.54-1.88 1.85-1.98-1.95v.83l1.98 1.95 1.88-1.85v-.83z"/><path style="fill:#263238;stroke:#263238;stroke-miterlimit:10" d="M282.48 381.5h24.96v9.25h-24.96zM273.32 381.47h7.2V391h-7.2z"/><path style="fill:#b2b2b2" d="m274.99 385.33 1.88-1.85 1.98 1.95v-.83l-1.98-1.95-1.88 1.85v.83zM278.85 386.96l-1.88 1.85-1.98-1.94v.83l1.98 1.94 1.88-1.84v-.84z"/><path style="fill:#263238;stroke:#263238;stroke-miterlimit:10" d="M309.5 381.47h7.2V391h-7.2z"/><path style="fill:#b2b2b2" d="m315.03 385.56-1.88 1.85-1.98-1.95v.84l1.98 1.94 1.88-1.85v-.83z"/><path style="fill:#263238;stroke:#263238;stroke-miterlimit:10" d="M208.26 399.73h33.84v9.53h-33.84z"/><path style="fill:#b2b2b2" d="m240.44 403.82-1.89 1.85-1.98-1.95v.83l1.98 1.95 1.89-1.85v-.83z"/><path style="fill:#263238;stroke:#263238;stroke-miterlimit:10" d="M282 399.73h33.84v9.53H282z"/><path style="fill:#b2b2b2" d="m314.17 403.82-1.88 1.85-1.98-1.95v.83l1.98 1.95 1.88-1.85v-.83zM213.5 310.94a2.64 2.64 0 1 1 2.64-2.64 2.64 2.64 0 0 1-2.64 2.64Zm0-4.48a1.85 1.85 0 1 0 1.85 1.84 1.85 1.85 0 0 0-1.85-1.84Z"/><path transform="rotate(-45 210.7 311.385)" style="fill:#b2b2b2" d="M209.11 310.99h3.17v.79h-3.17z"/><path style="fill:#b2b2b2" d="m218.68 312.89 2.39-2.24h-4.77l2.38 2.24z"/></g><g id="freepik--tool-1--inject-190"><path d="M69.76 231.43h114a6.27 6.27 0 0 1 6.27 6.27v102.4H63.5V237.7a6.27 6.27 0 0 1 6.27-6.27Z" style="fill:#545454;stroke:#263238;stroke-miterlimit:10"/><path style="fill:#263238" d="M67.5 258.07h12.08v11.26H67.5z"/><path d="M184.5 231.43H69.05A5.54 5.54 0 0 0 63.5 237v3.08h126.55V237a5.54 5.54 0 0 0-5.55-5.57ZM102.18 240.28h87.79v13.18h-87.79zM88.43 279.93h33.33v9.25H88.43zM79.27 279.9h7.2v9.53h-7.2zM88.43 293.95h33.33v9.25H88.43zM79.27 293.93h7.2v9.53h-7.2zM88.43 314.18h33.33v9.25H88.43zM79.27 314.15h7.2v9.53h-7.2zM151.77 279.93h33.33v9.25h-33.33zM142.61 279.9h7.2v9.53h-7.2zM151.77 314.18h33.33v9.25h-33.33zM142.61 314.15h7.2v9.53h-7.2z" style="fill:#263238;stroke:#263238;stroke-miterlimit:10"/><path style="fill:#263238" d="M65.55 309.14h120.3v.84H65.55zM65.55 273.41h120.3v.84H65.55zM65.55 328.12h120.3v.84H65.55zM71.6 335.08l-1.39-2.43.73-.41.84 1.47 1.85-1.84.59.59-2.62 2.62z"/><path style="fill:#b2b2b2" d="m166.95 235.86 1.65-1.06v-1.03l-3.25 2.09 3.25 2.09v-1.03l-1.65-1.06z"/><path style="fill:#b2b2b2" d="m169.96 235.86 1.65-1.06v-1.03l-3.25 2.09 3.25 2.09v-1.03l-1.65-1.06zM184.64 236.19l1.64-1.77a.42.42 0 1 0-.62-.58l-1.6 1.72-1.6-1.72a.42.42 0 0 0-.62.58l1.64 1.77-1.64 1.81a.43.43 0 0 0 0 .6.4.4 0 0 0 .29.12.44.44 0 0 0 .31-.14l1.6-1.72 1.6 1.72a.43.43 0 0 0 .31.14.42.42 0 0 0 .29-.12.43.43 0 0 0 0-.6ZM181.27 244.37h5.33v.79h-5.33zM181.27 245.78h5.33v.79h-5.33zM181.27 247.18h5.33v.79h-5.33zM80.94 283.76l1.88-1.84 1.98 1.94v-.83l-1.98-1.95-1.88 1.85v.83zM84.8 285.4l-1.88 1.85-1.98-1.95v.83l1.98 1.95 1.88-1.85v-.83zM80.94 297.79l1.88-1.85 1.98 1.94v-.83l-1.98-1.94-1.88 1.84v.84zM84.8 299.42l-1.88 1.85-1.98-1.95v.83l1.98 1.95 1.88-1.85v-.83zM80.94 318.01l1.88-1.85 1.98 1.95v-.84l-1.98-1.94-1.88 1.85v.83zM84.8 319.64l-1.88 1.85-1.98-1.94v.83l1.98 1.94 1.88-1.85v-.83zM144.28 283.76l1.88-1.84 1.98 1.94v-.83l-1.98-1.95-1.88 1.85v.83zM148.14 285.4l-1.88 1.85-1.98-1.95v.83l1.98 1.95 1.88-1.85v-.83zM144.28 318.01l1.88-1.85 1.98 1.95v-.84l-1.98-1.94-1.88 1.85v.83zM148.14 319.64l-1.88 1.85-1.98-1.94v.83l1.98 1.94 1.88-1.85v-.83zM69.78 279.55h5.02v.84h-5.02zM69.78 281.52h6.61v.84h-6.61zM69.78 283.49h5.02v.84h-5.02zM69.78 285.46h6.61v.84h-6.61zM69.78 287.42h5.02v.84h-5.02zM69.78 259.45h6.34v.84h-6.34zM69.78 261.42h8.33v.84h-8.33zM69.78 263.39h6.34v.84h-6.34zM69.78 265.36h8.33v.84h-8.33zM69.78 267.33h6.34v.84h-6.34zM123.09 259.45h8.49v.84h-8.49zM123.09 261.42h8.61v.84h-8.61zM123.09 263.39h8.49v.84h-8.49zM123.09 265.36h8.61v.84h-8.61zM123.09 267.33h6.77v.84h-6.77zM173.89 259.45h8.49v.84h-8.49zM173.89 261.42h8.61v.84h-8.61zM173.89 263.39h8.49v.84h-8.49zM173.89 265.36h8.61v.84h-8.61zM173.89 267.33h8.58v.84h-8.58zM141.08 259.45h8.49v.84h-8.49zM141.03 261.42h8.61v.84h-8.61zM141.08 263.39h8.49v.84h-8.49zM141.03 265.36h8.61v.84h-8.61zM141.94 267.33h6.77v.84h-6.77zM158.65 259.45h8.49v.84h-8.49zM158.54 261.42h8.61v.84h-8.61zM158.65 263.39h8.49v.84h-8.49zM158.54 265.36h8.61v.84h-8.61zM160.37 267.33h6.77v.84h-6.77zM106.1 259.45h6.34v.84h-6.34zM104.11 261.42h8.33v.84h-8.33zM106.1 263.39h6.34v.84h-6.34zM104.11 265.36h8.33v.84h-8.33zM106.1 267.33h6.34v.84h-6.34zM87.48 259.45h6.34v.84h-6.34zM86.49 261.42h8.33v.84h-8.33zM87.48 263.39h6.34v.84h-6.34zM86.49 265.36h8.33v.84h-8.33zM87.48 267.33h6.34v.84h-6.34zM69.78 293.69h5.02v.84h-5.02zM69.78 295.66h6.61v.84h-6.61zM69.78 297.63h5.02v.84h-5.02zM69.78 299.6h6.61v.84h-6.61zM69.78 301.56h5.02v.84h-5.02zM69.78 314.78h5.02v.84h-5.02zM69.78 316.75h6.61v.84h-6.61zM69.78 318.72h5.02v.84h-5.02zM69.78 320.68h6.61v.84h-6.61zM69.78 322.65h5.02v.84h-5.02zM134.03 279.55h5.02v.84h-5.02zM134.03 281.52h6.6v.84h-6.6zM134.03 283.49h5.02v.84h-5.02zM134.03 285.46h6.6v.84h-6.6zM134.03 287.42h5.02v.84h-5.02zM134.03 314.78h5.02v.84h-5.02zM134.03 316.75h6.6v.84h-6.6zM134.03 318.72h5.02v.84h-5.02zM134.03 320.68h6.6v.84h-6.6zM134.03 322.65h5.02v.84h-5.02zM69.74 330.77h5.02v5.02h-5.02zM77.55 333.14h10.89v.84H77.55zM73.64 249.41h21.77v.84H73.64z"/></g><g id="freepik--Window--inject-190"><path d="M57.82 52.52h266.09a4.48 4.48 0 0 1 4.47 4.48v304.36h-275V57a4.48 4.48 0 0 1 4.48-4.48Z" style="fill:none;stroke:#263238;stroke-miterlimit:10"/><path d="M57.82 52.52h266.09a4.48 4.48 0 0 1 4.47 4.48v1.79h-275V57a4.48 4.48 0 0 1 4.44-4.48Z" style="fill:#263238;stroke:#263238;stroke-miterlimit:10"/><circle cx="309.96" cy="56.11" r="1.6" style="fill:#707070"/><circle cx="317.01" cy="56.11" r="1.6" style="fill:#707070"/><circle cx="324.06" cy="56.11" r="1.6" style="fill:#707070"/></g><g id="freepik--Character--inject-190"><path d="M346 295.5s-1.06 12.2-1.06 16.45 3.18 6.37 4.77 9 8.23 2.13 9 1.86 2.65-9.55 2.65-14.06V295Z" style="fill:#fff;stroke:#263238;stroke-linecap:round;stroke-linejoin:round"/><path d="M347.58 307.7s.53 6.11.8 6.9 4.24 5.31 5 6.37 5.31 1.86 5.31 1.86 4-1.59 3.45-3.18-6.37-3.19-6.37-3.19 1.85-4.78.53-7.16l-1.3-2.39" style="fill:#fff;stroke:#263238;stroke-linecap:round;stroke-linejoin:round"/><path d="M348.56 188.1s-3.07 24.81-3.07 38.75 2.13 28.36 1.66 30-4 31.43-4 35v5s3.78 3.31 6.38 4a10.61 10.61 0 0 0 5.67-.47v-17.52c0-6.15 1.18-32.61 1.18-32.61s-3.78-33.32-4.25-39.94-.71-19.14-.71-21-2.86-1.21-2.86-1.21ZM377.39 438.82a29.58 29.58 0 0 1-6.61 8.75c-4 3.31-11.35 8.74-13 10.16s-1.42 2.84 4.25 4.49 14 1.65 18.2 0 8.27-1.42 10.4-2.36 3.31-1.89 3.54-4.26-1.89-17-1.89-17Z" style="fill:#7e57c2;stroke:#263238;stroke-linecap:round;stroke-linejoin:round"/><path d="M394.14 453.93a59.7 59.7 0 0 0-8.24 3.07c-6.85 3.07-8 4-16.54 4a16.7 16.7 0 0 1-11.06-3.74l-.52.43c-1.65 1.42-1.42 2.84 4.25 4.49s14 1.65 18.2 0 8.27-1.42 10.4-2.36 3.31-1.89 3.54-4.26a10.89 10.89 0 0 0-.03-1.63Z" style="fill:#fff;stroke:#263238;stroke-linecap:round;stroke-linejoin:round"/><path d="M405 441.42s-4.25 13.24-6.14 16.55-6.15 6.61-5.91 9 4.49 3.07 11.82 3.07 12.28-1.42 14.41-5.2 2.36-4.73 3.55-7.09-.71-16.54-.71-16.54-14.85.45-17.02.21Z" style="fill:#7e57c2;stroke:#263238;stroke-linecap:round;stroke-linejoin:round"/><path d="M419.22 464.82c2.13-3.78 2.36-4.73 3.55-7.09a13.29 13.29 0 0 0 .36-4.68c-.87 1.54-1.86 3.37-3 5.39-2.84 5.2-4.49 7.56-14.18 8-6.9.34-10.91-.52-12.65-1a2.87 2.87 0 0 0-.3 1.56c.24 2.36 4.49 3.07 11.82 3.07s12.27-1.47 14.4-5.25Z" style="fill:#fff;stroke:#263238;stroke-linecap:round;stroke-linejoin:round"/><path d="M355.89 277.19s-1.18 23.39-.24 41.35 10.87 52 10.87 52 4.73 28.83 6.15 37.1 4.49 26.94 4.49 26.94l16.07-.94v-27.19c0-5-.71-36.16-.71-36.16s8.27 42.54 9 47.27 2.36 18.67 2.36 18.67 5.2 1.65 8.27 1.65 10.64-2.13 10.64-2.13 2.83-28.35 2.6-36.86-4-21.27-5.2-25.05-4.75-14.84-4.51-15.84 2.83-32.14 2.83-38.52v-17l-5-25.05-2.13-3.78s-27.65 4.73-40.17 1.42-15.83-4.25-15.83-4.25Z" style="fill:#263238;stroke:#263238;stroke-linecap:round;stroke-linejoin:round"/><path d="m372.9 308.85 8.75 6.62s5.2 35.68 8.27 46.79" style="fill:none;stroke:#949494;stroke-linecap:round;stroke-linejoin:round"/><path d="M374.56 427.72s8.51-.24 14.41-.24 6.86.24 6.86 1.66.71 9.92 0 10.87-7.57.94-11.11.94-8.27.71-8.74-1.42-.48-4.72-1.19-6.61-1.65-3.55-.23-5.2ZM401.73 429.37a9.55 9.55 0 0 0-.47 3.55 71.37 71.37 0 0 1 .71 8c0 2.13-.47 1.66 4.49 3.31s15.6 0 16.78-1.42 1.18-9 1.18-10.63-.47-2.37-2.13-1.89-10.16 1.89-13.23 1.18a31.49 31.49 0 0 1-5.2-1.66s-1.65-1.81-2.13-.44ZM404.1 173.92l-9-4.73-22.45 6.15s-6.38 11.1-7.56 20.55-2.84 57.19-2.84 65.94-.47 15.36-.47 15.36 5.91 4.25 16.3 4.72a115.56 115.56 0 0 0 19.38-.47c2.36-.24 10.16-4.73 10.16-4.73s-1.42-44.9-1.42-51.28 4.49-36.62 5.44-40.88-7.54-10.63-7.54-10.63Z" style="fill:#707070;stroke:#263238;stroke-linecap:round;stroke-linejoin:round"/><path d="M390.53 178.13c1.65 4.53-1.37 9.79-6.75 11.75s-11.07-.12-12.73-4.65 1.37-9.79 6.75-11.75 11.08.12 12.73 4.65Z" style="fill:#fff;stroke:#263238;stroke-linecap:round;stroke-linejoin:round"/><path d="M377.87 181.24s8.74 9.69 9.45 9.22 13.47-18 13.47-18l-3.31-5.44ZM377.16 170.61a27 27 0 0 1-2.6 4.49c-1.18 1.42-4.26 12.29-4.26 12.29l7.57-6.15s.47-6.85.71-8.5a2 2 0 0 0-1.42-2.13Z" style="fill:#fff;stroke:#263238;stroke-linecap:round;stroke-linejoin:round"/><path d="M375.74 158.32a26.64 26.64 0 0 1 1.42 5c0 1.18-1 18.67.71 18s18.9-12.29 19.61-14.18-.47-13.23 0-16.07 1.42-7.08 1.42-7.08-6.85 7.08-12.29 10.16a43.6 43.6 0 0 1-10.87 4.17Z" style="fill:#fff;stroke:#263238;stroke-linecap:round;stroke-linejoin:round"/><path d="M377.16 163.28c0 .58-.23 5.08-.27 9.43l15.6-15.94-16.49 2.12a21.42 21.42 0 0 1 1.16 4.39Z" style="fill:#263238;stroke:#263238;stroke-linecap:round;stroke-linejoin:round"/><path d="M399.14 169.9s-8 30.48-8.51 43.48-1.18 21 .71 33.56 5.43 21.5 10.39 29.06 11.58 23.16 12.06 26 4.72 7.8 8.5 10.63 5.91 5.44 6.15 3.78-3.55-26.46-7.09-41.59a106.72 106.72 0 0 1-3.07-26.23l4.72-17.25s7.33 23.16 9.22 24.58 13.94 2.83 16.07-1.66.47-11.81-1-16.54-8.27-35.92-9.45-42.06-1.42-10.16-2.6-12.29-15.83-6.14-20.32-7.8-15.78-5.67-15.78-5.67Z" style="fill:#7e57c2;stroke:#263238;stroke-linecap:round;stroke-linejoin:round"/><path d="M399.37 271.51s3.55 2.84 10.64 7.8S424.89 298 424.89 298s-3.78 2.6-5.43 3.78-4.26 3.08-4.26 3.08-2.12-2.13-4.25-7.57-11.58-25.78-11.58-25.78ZM376.45 171.55a120.42 120.42 0 0 0-6.85 19.85c-2.13 9.46-4.26 27.65-4.49 39s-1.89 58.84-2.13 62.86-3.31 6.14-7.8 7.09a31.1 31.1 0 0 1-9.92 0s5-33.8 5.19-39.23.24-13.47.24-18-2.36-33.56-2.6-39-.23-14.89.47-16.07 17.73-9.69 18.67-10.4 6.62-4.21 9.22-6.1Z" style="fill:#7e57c2;stroke:#263238;stroke-linecap:round;stroke-linejoin:round"/><path d="M421.32 195.74c-1.57 2.59-3 5.52-3.28 7.95-.71 5.91 4.49 26.23 4.49 26.23M426.07 189s-.8 1-1.9 2.46" style="fill:none;stroke:#263238;stroke-linecap:round;stroke-linejoin:round"/><path d="M414 280.26a35.84 35.84 0 0 1-7.09 2.6c-3.3.71-9.21 2.6-9.21 2.6s-1.89 4-3.78 5.2-3.55 2.36-2.6 3.07a3.75 3.75 0 0 0 3.54.94 21.89 21.89 0 0 0 4-2.36l10.16 6.85a6.33 6.33 0 0 0 3.31-3.07c1.18-2.36 3.54-6.14 3.54-6.14l3.08-3.31Z" style="fill:#fff;stroke:#263238;stroke-linecap:round;stroke-linejoin:round"/><path d="m432.22 247.41-19.85 32.38s3.78 6.61 6.62 9.45l3.78 3.78s17-20.09 21.26-27.89 7.09-11.1 6.15-15.83a26.15 26.15 0 0 0-2.13-6.85" style="fill:#7e57c2;stroke:#263238;stroke-linecap:round;stroke-linejoin:round"/><path d="M395.59 250.48c-.24 4.26-.24 6.62-.24 6.62M406.29 181.86l.17 19.47-8.74 4 5.2 9.21s-4.33 19.33-6.34 29.81M406.22 174.39v4.77M360.66 241.24c-1.94-11.45-5.24-30.22-5.24-30.22l7.8-8.27-5.44-4.26s1.65-3.3 3.07-5.9 7.56-13.71 7.56-13.71M361.8 248.12c-.15-1-.37-2.3-.63-3.88" style="fill:none;stroke:#263238;stroke-linecap:round;stroke-linejoin:round"/><path d="M368 130.58c-.74-.05-10 .58-10.44-6.88a8.72 8.72 0 0 1 6.06-9.26s-5.77-6.32 1.65-9.79 16.2-1.65 16.2-1.65-.85-5.75 6-4.06 11.5 9.43 11.7 10.19 9.65 3.86 12.79 8.77 2.22 11.29-.29 15.58a114.46 114.46 0 0 1-7.91 10.87 6.2 6.2 0 0 1-6.24.82c-3.62-1.48-6-2.63-5.82-5.58s-.76-11-1.68-12-3.12-1.45-7.64-.51-14.38 3.5-14.38 3.5Z" style="fill:#263238;stroke:#263238;stroke-linecap:round;stroke-linejoin:round"/><path d="M367.87 128.35s-.46 6.9-1.08 8.84a195.23 195.23 0 0 0-3.35 20.58c-.3 4.44 4.42 8 6.88 8.13s6.58-2 10.34-2.78 13.91-4.27 15.55-6.64 2.18-3.07 2.18-3.07 7.78-1.47 8.94-7.83-3-7.13-6.06-5.6a23.75 23.75 0 0 0-4.65 2.91s-2.22-.15-1.86-1.86a21.89 21.89 0 0 0 .71-3.17c.08-1.23-.61-2-1.42-4.8s-1.31-2.56-.16-5 3.42-6.71 3.42-6.71-21.31.85-29.44 7Z" style="fill:#fff;stroke:#263238;stroke-linecap:round;stroke-linejoin:round"/><path d="M378.22 130s3.64-.48 6.06 1.12M371.88 129.57a4.66 4.66 0 0 0-3.83-.14M369.33 151s3.11 1.69 7.27-1.25" style="fill:none;stroke:#263238;stroke-linecap:round;stroke-linejoin:round"/><path d="M381.54 135a1.48 1.48 0 1 1-1.38-1.58 1.47 1.47 0 0 1 1.38 1.58ZM370.75 133.49a1.24 1.24 0 1 1-1.15-1.31 1.24 1.24 0 0 1 1.15 1.31Z" style="fill:#263238"/><path d="M374.56 132s-1.59 5.34 1 7.5 8.81 1.57 10.4-.06 2.63-6 2.63-6-7.75-2.74-14.03-1.44ZM371.65 131.82s.57 5.48-1.6 7.32-6.74.54-7.74-1.26-1.26-6.27-1.26-6.27 6.08-1.83 10.6.21Z" style="fill:none;stroke:#263238;stroke-linecap:round;stroke-linejoin:round"/><path d="M371.65 131.82s.76-.69 2.91.19M388.55 133.8l10.72 6.84" style="fill:none;stroke:#263238;stroke-linecap:round;stroke-linejoin:round"/><path d="M372.8 133.83s-9.78 7.81-9 10.59 9 2.58 9 2.58" style="fill:#fff;stroke:#263238;stroke-linecap:round;stroke-linejoin:round"/></g></svg>