<svg xmlns="http://www.w3.org/2000/svg" viewBox="0 0 500 500"><g id="freepik--background-simple--inject-190"><path d="M438.09,239.07c-16-45.17-32.1-95.13-67.27-126.45A102.57,102.57,0,0,0,336.49,92c-77.07-26.71-137,.87-168,41.21s-41.82,86-82.22,109.66-62.56,57.43-49,112.53S98,461.64,177.13,436.15s74.16-59.47,143.27-51.26,121.4,8.26,136.43-32.14c10.74-28.85,2.39-58.73-8.49-86C444.81,257.86,441.45,248.58,438.09,239.07Z" style="fill:#7E57C2"></path><path d="M438.09,239.07c-16-45.17-32.1-95.13-67.27-126.45A102.57,102.57,0,0,0,336.49,92c-77.07-26.71-137,.87-168,41.21s-41.82,86-82.22,109.66-62.56,57.43-49,112.53S98,461.64,177.13,436.15s74.16-59.47,143.27-51.26,121.4,8.26,136.43-32.14c10.74-28.85,2.39-58.73-8.49-86C444.81,257.86,441.45,248.58,438.09,239.07Z" style="fill:#fff;opacity:0.7000000000000001"></path></g><g id="freepik--Floor--inject-190"><line x1="455.14" y1="455.33" x2="464.59" y2="455.33" style="fill:none;stroke:#263238;stroke-miterlimit:10"></line><line x1="138.48" y1="455.33" x2="447.58" y2="455.33" style="fill:none;stroke:#263238;stroke-miterlimit:10"></line><line x1="26" y1="455.33" x2="128.08" y2="455.33" style="fill:none;stroke:#263238;stroke-miterlimit:10"></line></g><g id="freepik--Plants--inject-190"><path d="M331.36,400.77c1.71.74,5.88.65,5.89.65s-.9-2.73-1-2.9c-.92-1.92-3.81-5.08-6.17-4.76a2.82,2.82,0,0,0-2.26,3.53C328.23,398.92,329.91,400.13,331.36,400.77Z" style="fill:#7E57C2"></path><path d="M332.8,412.86c1.77.26,5.5-.82,5.8-.91a47.9,47.9,0,0,0,2.26,6.25c.51,1.19,1.06,2.37,1.63,3.54-.34-.49-.65-.94-.7-1-1.39-1.61-5-3.9-7.2-3a2.82,2.82,0,0,0-1.25,4c.81,1.47,2.74,2.2,4.31,2.43s4.79-.63,5.63-.86c.23.44.44.89.67,1.34,1.08,2.15,2.16,4.29,3.16,6.42.36.75.68,1.5,1,2.26-.3-.45-.56-.82-.61-.87-1.38-1.6-5-3.89-7.2-3a2.82,2.82,0,0,0-1.25,4c.81,1.47,2.74,2.2,4.31,2.42s4.48-.54,5.48-.82c.31.78.62,1.56.88,2.33.17.53.37,1,.51,1.57s.29,1.06.44,1.58c.24,1,.5,2.07.71,3.06.16.7.29,1.36.43,2-.35-.75-1.05-2.21-1.12-2.33-1.13-1.79-4.37-4.6-6.68-4a2.83,2.83,0,0,0-1.84,3.77c.58,1.57,2.38,2.59,3.9,3.05,1.67.51,5.37,0,5.83,0,.22,1.11.43,2.18.61,3.2.39,2.25.69,4.27.92,6H355c-.27-1.76-.63-3.86-1.1-6.23-.22-1.12-.48-2.31-.75-3.54a31.9,31.9,0,0,0,3.25-1.53,20.63,20.63,0,0,0,4.74,3.06c-.43,1-.85,2.05-1.26,3-.87,2-1.69,3.75-2.41,5.24h1.69c.62-1.38,1.3-2.95,2-4.69.44-1.06.88-2.2,1.33-3.37.45.09,4.11.83,5.81.45s3.43-1.23,4.12-2.75a2.81,2.81,0,0,0-1.56-3.89c-2.25-.76-5.69,1.8-6.95,3.51-.08.1-.76,1.28-1.18,2,.18-.48.36-.95.54-1.45.36-1,.69-2,1-3l.48-1.57c.16-.53.28-1.1.42-1.65.31-1.29.55-2.61.77-3.94.86.31,3.93,1.38,5.52,1.27s3.57-.7,4.49-2.1a2.83,2.83,0,0,0-.95-4.09c-2.11-1.09-5.9.92-7.41,2.42-.09.1-1.05,1.29-1.57,2,.13-.8.26-1.6.36-2.42.29-2.36.52-4.76.75-7.15.07-.73.15-1.46.23-2.19.3.12,3.92,1.47,5.7,1.34,1.58-.11,3.57-.69,4.49-2.1a2.82,2.82,0,0,0-.95-4.08c-2.11-1.09-5.9.92-7.41,2.42-.11.11-1.49,1.84-1.82,2.29.17-1.61.35-3.2.6-4.77a51.48,51.48,0,0,1,1.37-6.29c.14.06,3.91,1.48,5.74,1.35,1.58-.11,3.57-.69,4.48-2.1a2.81,2.81,0,0,0-.94-4.08c-2.12-1.09-5.91.92-7.41,2.42-.12.12-1.6,2-1.85,2.33,0-.12.06-.25.1-.37a35.76,35.76,0,0,1,2.49-5.94c.54-1.06,1.11-2,1.7-3,.67.34,3.77,1.84,5.43,1.91s3.62-.3,4.69-1.6a2.82,2.82,0,0,0-.5-4.16c-2-1.31-6,.27-7.63,1.59-.09.08-.92.91-1.52,1.52.26-.42.53-.86.8-1.25,1-1.5,2-2.81,2.9-4,.51-.65,1-1.23,1.45-1.77.83,0,4.2-.11,5.67-.8s3.08-1.94,3.42-3.58a2.81,2.81,0,0,0-2.35-3.46c-2.36-.26-5.17,3-6,4.92-.07.17-.94,2.93-.9,2.93h.05c-.44.5-.92,1-1.42,1.67-.93,1.13-2,2.42-3,3.91a49.63,49.63,0,0,0-3.11,4.94,36.41,36.41,0,0,0-2.64,6l0,.08c0-.7,0-2.65,0-2.8-.28-2.1-2-6-4.38-6.45a2.82,2.82,0,0,0-3.25,2.65c-.13,1.67,1.08,3.35,2.26,4.41,1.34,1.19,5,2.34,5.33,2.43a49.51,49.51,0,0,0-1.56,6.46c-.23,1.28-.42,2.57-.59,3.86,0-.6,0-1.14,0-1.22-.27-2.1-2-6-4.38-6.44a2.8,2.8,0,0,0-3.24,2.64c-.14,1.68,1.07,3.35,2.25,4.41s4.34,2.12,5.18,2.38c-.06.5-.13,1-.19,1.49-.29,2.39-.56,4.77-.9,7.1-.12.83-.27,1.63-.41,2.43,0-.53,0-1,0-1.05-.28-2.11-2-6-4.38-6.45a2.83,2.83,0,0,0-3.25,2.65c-.13,1.67,1.08,3.35,2.26,4.4s4,2,5,2.34c-.18.82-.35,1.64-.55,2.43-.16.53-.27,1.06-.45,1.59s-.34,1-.5,1.56c-.36,1-.72,2-1.1,2.95-.25.66-.5,1.28-.76,1.92.13-.82.35-2.42.35-2.56a11,11,0,0,0-1.46-5.31,4.44,4.44,0,0,0,0-.63,2.81,2.81,0,0,0-3.45-2.38c-2.29.61-3.75,4.64-3.86,6.76,0,.13.08,1.49.14,2.35-.12-.5-.22-1-.35-1.5-.24-1-.51-2-.8-3.11l-.47-1.57c-.15-.53-.37-1.07-.56-1.61-.45-1.24-1-2.48-1.52-3.71.89-.21,4-1,5.3-2s2.59-2.54,2.58-4.22a2.81,2.81,0,0,0-3-2.88c-2.37.25-4.42,4-4.85,6.1,0,.13-.16,1.66-.22,2.5-.34-.74-.68-1.48-1-2.22-1.06-2.13-2.19-4.25-3.32-6.37l-1-1.95c.32-.07,4.08-.95,5.5-2,1.26-1,2.59-2.55,2.58-4.23a2.81,2.81,0,0,0-3-2.88c-2.36.26-4.42,4-4.85,6.1,0,.16-.23,2.36-.25,2.92-.74-1.43-1.47-2.87-2.13-4.31a49.43,49.43,0,0,1-2.33-6c.15,0,4.08-.93,5.53-2,1.26-1,2.6-2.55,2.58-4.22a2.82,2.82,0,0,0-3-2.89c-2.36.26-4.41,4-4.84,6.11,0,.16-.25,2.53-.25,3l-.13-.36a36.24,36.24,0,0,1-1.2-6.33c-.13-1.18-.19-2.32-.23-3.42.75-.1,4.17-.55,5.59-1.41s2.85-2.24,3-3.91a2.82,2.82,0,0,0-2.71-3.2c-2.38,0-4.83,3.51-5.49,5.53,0,.11-.27,1.27-.43,2.11,0-.5,0-1,0-1.49,0-1.8.11-3.45.23-4.9.07-.83.15-1.58.23-2.28.69-.47,3.44-2.41,4.28-3.8s1.51-3.31.89-4.87a2.82,2.82,0,0,0-3.88-1.59c-2.11,1.09-2.66,5.34-2.32,7.44,0,.18.83,2.95.87,2.93l0,0c-.09.67-.18,1.39-.27,2.18-.14,1.46-.29,3.11-.34,4.91a53.21,53.21,0,0,0,.14,5.84,37.88,37.88,0,0,0,1.08,6.43l0,.08c-.38-.59-1.48-2.2-1.58-2.31-1.39-1.61-5-3.9-7.2-3a2.82,2.82,0,0,0-1.25,4C329.3,411.9,331.23,412.63,332.8,412.86Z" style="fill:#7E57C2"></path><path d="M373.59,401.69s.76-2.78.78-3c.3-2.1-.37-6.34-2.52-7.38a2.82,2.82,0,0,0-3.83,1.7c-.57,1.58.16,3.51,1,4.85C370.05,399.46,373.59,401.68,373.59,401.69Z" style="fill:#7E57C2"></path><path d="M50.57,402.15c1.66.73,5.73.64,5.73.64s-.87-2.67-.95-2.83c-.89-1.87-3.71-4.95-6-4.64a2.73,2.73,0,0,0-2.2,3.44C47.52,400.35,49.15,401.53,50.57,402.15Z" style="fill:#7E57C2"></path><path d="M52,413.94c1.73.25,5.36-.81,5.65-.89a47.43,47.43,0,0,0,2.2,6.09c.5,1.16,1,2.31,1.59,3.46-.33-.49-.63-.92-.68-1-1.35-1.56-4.89-3.79-7-2.89a2.75,2.75,0,0,0-1.22,3.9c.79,1.44,2.68,2.15,4.21,2.37s4.66-.61,5.49-.84l.65,1.31c1,2.09,2.1,4.18,3.08,6.25.34.74.66,1.47,1,2.2-.29-.43-.54-.79-.59-.84-1.35-1.57-4.89-3.79-7-2.89a2.75,2.75,0,0,0-1.22,3.9c.79,1.43,2.68,2.14,4.21,2.37a17.31,17.31,0,0,0,5.33-.81c.3.76.61,1.53.86,2.28.17.51.36,1,.49,1.52s.29,1,.43,1.55c.24,1,.49,2,.7,3,.15.67.28,1.32.41,2-.33-.73-1-2.15-1.09-2.26-1.1-1.76-4.26-4.49-6.5-3.92a2.74,2.74,0,0,0-1.79,3.67c.56,1.53,2.32,2.52,3.79,3,1.63.5,5.24,0,5.69,0,.21,1.08.41,2.13.58,3.12.39,2.2.68,4.16.9,5.82h1.52c-.26-1.72-.61-3.77-1.07-6.07-.21-1.09-.46-2.26-.73-3.45A30.45,30.45,0,0,0,75,444.32a20.36,20.36,0,0,0,4.62,3c-.41,1-.83,2-1.23,2.92-.84,1.94-1.64,3.66-2.35,5.11h1.65c.6-1.34,1.27-2.87,2-4.57.43-1,.86-2.14,1.3-3.29.43.09,4,.82,5.66.44s3.34-1.19,4-2.68a2.74,2.74,0,0,0-1.51-3.79c-2.2-.74-5.55,1.75-6.78,3.42-.07.1-.74,1.25-1.15,2,.17-.47.35-.92.52-1.41.35-1,.67-1.92,1-3,.16-.5.31-1,.46-1.53s.28-1.07.42-1.61c.3-1.25.54-2.54.75-3.84.84.31,3.83,1.35,5.38,1.24s3.48-.68,4.37-2.05a2.74,2.74,0,0,0-.92-4c-2.06-1.07-5.76.89-7.22,2.35-.09.09-1,1.26-1.53,1.91.12-.78.25-1.56.35-2.36.28-2.3.5-4.63.73-7,.07-.72.14-1.43.22-2.14.3.11,3.82,1.43,5.56,1.31,1.54-.11,3.48-.68,4.37-2.05a2.75,2.75,0,0,0-.92-4c-2.06-1.06-5.76.9-7.22,2.36-.11.11-1.46,1.79-1.78,2.23.17-1.56.35-3.12.59-4.65a47,47,0,0,1,1.33-6.12c.14.05,3.82,1.44,5.59,1.31,1.55-.11,3.48-.67,4.37-2.05a2.73,2.73,0,0,0-.92-4c-2.06-1.07-5.75.89-7.22,2.35-.11.12-1.56,1.93-1.8,2.27,0-.11.06-.24.1-.35a34.9,34.9,0,0,1,2.42-5.8c.53-1,1.09-2,1.66-2.9.66.33,3.68,1.79,5.29,1.86s3.53-.29,4.57-1.56a2.74,2.74,0,0,0-.48-4c-1.93-1.28-5.82.26-7.43,1.55-.09.07-.91.88-1.49,1.48.26-.41.52-.84.78-1.23,1-1.46,2-2.73,2.82-3.86.51-.63,1-1.2,1.42-1.72.81,0,4.09-.12,5.52-.79s3-1.88,3.34-3.48a2.74,2.74,0,0,0-2.29-3.38c-2.31-.25-5,2.91-5.89,4.8-.07.17-.91,2.85-.87,2.85h0c-.44.5-.9,1-1.39,1.63-.91,1.11-1.91,2.37-2.92,3.81a48.37,48.37,0,0,0-3,4.82A34.61,34.61,0,0,0,87.25,412a.19.19,0,0,0,0,.07c0-.68,0-2.58,0-2.72-.27-2.05-2-5.87-4.27-6.29a2.75,2.75,0,0,0-3.16,2.58c-.14,1.63,1,3.27,2.2,4.3,1.3,1.16,4.91,2.28,5.2,2.37a48.29,48.29,0,0,0-1.53,6.3c-.22,1.24-.4,2.5-.57,3.76,0-.59,0-1.12,0-1.19-.27-2.05-2-5.86-4.27-6.28a2.74,2.74,0,0,0-3.16,2.58c-.14,1.63,1.05,3.26,2.2,4.29s4.23,2.07,5,2.33l-.18,1.45c-.28,2.33-.55,4.65-.88,6.92-.12.8-.26,1.58-.4,2.37,0-.53,0-1,0-1-.27-2.05-2-5.86-4.27-6.29a2.75,2.75,0,0,0-3.16,2.58c-.13,1.64,1,3.27,2.2,4.3s3.93,2,4.9,2.28c-.17.79-.34,1.6-.54,2.36-.15.52-.25,1-.43,1.55s-.33,1-.49,1.52c-.35,1-.71,1.95-1.07,2.87-.25.65-.5,1.26-.74,1.88.12-.8.34-2.36.34-2.49a10.67,10.67,0,0,0-1.43-5.18,3.08,3.08,0,0,0,0-.61,2.74,2.74,0,0,0-3.35-2.33c-2.24.6-3.66,4.53-3.77,6.6,0,.12.07,1.45.14,2.29-.12-.49-.22-1-.34-1.46-.24-1-.5-2-.78-3-.15-.51-.31-1-.46-1.54s-.36-1-.54-1.56c-.45-1.21-1-2.42-1.49-3.62.86-.21,3.93-1,5.16-1.94s2.53-2.48,2.52-4.12a2.74,2.74,0,0,0-3-2.81c-2.31.25-4.31,3.93-4.73,5.95,0,.13-.16,1.62-.22,2.44-.33-.72-.65-1.45-1-2.16-1-2.08-2.14-4.15-3.23-6.21-.34-.64-.66-1.27-1-1.91.3-.07,4-.92,5.35-2s2.53-2.48,2.52-4.11a2.74,2.74,0,0,0-3-2.81c-2.31.25-4.31,3.92-4.73,5.95,0,.15-.22,2.29-.24,2.84-.73-1.4-1.44-2.8-2.09-4.21A49.42,49.42,0,0,1,58.16,413c.15,0,4-.9,5.39-2,1.23-.94,2.53-2.48,2.52-4.12a2.74,2.74,0,0,0-3-2.8c-2.3.25-4.3,3.92-4.72,5.95,0,.15-.24,2.46-.25,2.88,0-.12-.08-.23-.12-.35a36.3,36.3,0,0,1-1.17-6.17c-.13-1.15-.19-2.26-.22-3.34.73-.09,4.06-.53,5.44-1.36s2.79-2.19,3-3.82a2.76,2.76,0,0,0-2.64-3.12c-2.32,0-4.71,3.43-5.35,5.4,0,.1-.27,1.23-.42,2.05,0-.48,0-1,0-1.45,0-1.75.12-3.36.23-4.78.07-.81.15-1.54.23-2.22.67-.46,3.35-2.35,4.17-3.7s1.47-3.23.86-4.75a2.73,2.73,0,0,0-3.77-1.55C56.24,384.85,55.7,389,56,391c0,.17.81,2.88.84,2.86l0,0c-.09.65-.18,1.36-.26,2.12-.14,1.43-.29,3-.33,4.79a46.23,46.23,0,0,0,.14,5.69,35.09,35.09,0,0,0,1.05,6.27.19.19,0,0,1,0,.07c-.36-.57-1.44-2.14-1.53-2.25-1.36-1.56-4.89-3.79-7-2.89a2.75,2.75,0,0,0-1.21,3.9C48.56,413,50.44,413.71,52,413.94Z" style="fill:#7E57C2"></path><path d="M91.72,403.05s.74-2.71.77-2.89c.28-2.05-.37-6.18-2.46-7.18a2.74,2.74,0,0,0-3.73,1.65c-.56,1.54.15,3.42,1,4.72C88.28,400.88,91.72,403,91.72,403.05Z" style="fill:#7E57C2"></path></g><g id="freepik--fonts-2--inject-190"><g style="opacity:0.15"><path d="M348.81,65.74,348.18,69h-1.67l3.12-16.35h2.63L355.38,69h-1.81l-.63-3.29Zm.24-1.57h3.63l-1.84-9.43Z"></path><path d="M371.42,52.68c2.54,0,3.54,1.22,3.54,3.62v.77c0,1.73-.49,2.81-1.91,3.25,1.58.44,2.19,1.7,2.19,3.5V65.2c0,2.45-1.19,3.83-3.73,3.83h-3.75V52.68ZM371,59.62c1.45,0,2.19-.47,2.19-2.17v-1c0-1.45-.49-2.15-1.79-2.15h-1.79v5.28Zm.54,7.75c1.33,0,1.93-.7,1.93-2.22V63.71c0-1.83-.72-2.43-2.28-2.43h-1.58v6.09Z"></path><path d="M395,56.63V58.1H393.3V56.54c0-1.47-.58-2.36-1.91-2.36s-1.91.89-1.91,2.36v8.64c0,1.47.61,2.36,1.91,2.36s1.91-.89,1.91-2.36V63.05H395v2c0,2.48-1.17,4.11-3.68,4.11s-3.66-1.63-3.66-4.11V56.63c0-2.47,1.16-4.11,3.66-4.11S395,54.16,395,56.63Z"></path><path d="M410.28,52.68c2.54,0,3.71,1.55,3.71,4.07V65c0,2.5-1.17,4-3.71,4h-3.82V52.68Zm0,14.69c1.31,0,1.93-.82,1.93-2.31V56.65c0-1.49-.62-2.31-1.95-2.31h-2v13Z"></path><path d="M431.26,59.92v1.64h-4v5.81h4.9V69h-6.71V52.68h6.71v1.66h-4.9v5.58Z"></path><path d="M451.09,60.3V62h-3.75V69h-1.81V52.68H452v1.66h-4.66v6Z"></path><path d="M354.17,81.78v1.4h-1.72v-1.5c0-1.47-.58-2.36-1.91-2.36s-1.91.89-1.91,2.36v8.64c0,1.47.6,2.36,1.91,2.36s1.91-.89,1.91-2.36V87.05h-1.68V85.42h3.4v4.81c0,2.47-1.16,4.11-3.68,4.11s-3.66-1.64-3.66-4.11V81.78c0-2.48,1.17-4.11,3.66-4.11S354.17,79.3,354.17,81.78Z"></path><path d="M369.58,86.82v7.36h-1.82V77.83h1.82v7.36h4V77.83h1.82V94.18h-1.82V86.82Z"></path><path d="M389.65,77.83V94.18h-1.82V77.83Z"></path><path d="M406,92.52c.3,0,.63,0,.91,0,1.18-.07,1.91-.63,1.91-2.29V77.83h1.79V90.14c0,3-1.51,4-3.47,4.06a10.7,10.7,0,0,1-1.14,0Z"></path><path d="M428.23,87.08l-1,1.61v5.49h-1.81V77.83h1.81v7.89l4.34-7.89h1.84l-4.13,7.45,4.27,8.9h-1.87Z"></path><path d="M445.53,94.18V77.83h1.81V92.52H452v1.66Z"></path><path d="M353,119.3h-1.74l-2.71-13v13H347V103h2.54l2.68,13,2.58-13h2.54v16.34h-1.72V106.17Z"></path><path d="M369.37,119.32h-1.63V103H370l3.78,11.81V103h1.6v16.34h-1.88l-4.17-13.22Z"></path><path d="M387.69,106.92c0-2.5,1.23-4.11,3.73-4.11s3.75,1.61,3.75,4.11v8.45c0,2.48-1.24,4.11-3.75,4.11s-3.73-1.63-3.73-4.11Zm1.79,8.55c0,1.49.63,2.36,1.94,2.36s1.93-.87,1.93-2.36v-8.64c0-1.47-.61-2.36-1.93-2.36s-1.94.89-1.94,2.36Z"></path><path d="M410,103c2.56,0,3.66,1.51,3.66,4v2c0,2.59-1.22,3.95-3.8,3.95h-1.61v6.44h-1.82V103Zm-.14,8.26c1.35,0,2-.63,2-2.19v-2.17c0-1.5-.53-2.25-1.86-2.25h-1.75v6.61Z"></path><path d="M432.8,106.92v8.45a4.72,4.72,0,0,1-.63,2.55c.18.4.49.51,1,.51h.23v1.62h-.3A2.17,2.17,0,0,1,431,119a3.79,3.79,0,0,1-2,.49c-2.49,0-3.72-1.63-3.72-4.11v-8.45c0-2.5,1.23-4.11,3.72-4.11S432.8,104.42,432.8,106.92Zm-5.69-.09v8.64c0,1.49.63,2.36,1.93,2.36S431,117,431,115.47v-8.64c0-1.47-.61-2.36-1.94-2.36S427.11,105.36,427.11,106.83Z"></path><path d="M449.16,103c2.56,0,3.63,1.3,3.63,3.73V108c0,1.8-.62,2.92-2,3.37,1.49.44,2.05,1.65,2.05,3.4v2.55a4.14,4.14,0,0,0,.32,2H451.3a4.3,4.3,0,0,1-.3-2v-2.57c0-1.85-.86-2.43-2.38-2.43h-1.28v7h-1.81V103Zm-.47,7.7c1.45,0,2.31-.47,2.31-2.24v-1.56c0-1.48-.54-2.25-1.89-2.25h-1.77v6.05Z"></path><path d="M354,132v.45h-1.72V132c0-1.47-.56-2.33-1.87-2.33s-1.86.86-1.86,2.31c0,3.66,5.48,4,5.48,8.61,0,2.48-1.19,4.09-3.69,4.09s-3.65-1.61-3.65-4.09v-.93h1.7v1c0,1.47.6,2.33,1.91,2.33s1.91-.86,1.91-2.33c0-3.65-5.45-4-5.45-8.6,0-2.52,1.16-4.08,3.61-4.08S354,129.57,354,132Z"></path><path d="M370.11,144.47V129.78h-3v-1.66h7.8v1.66h-3v14.69Z"></path><path d="M389.55,140.61c0,1.48.58,2.36,1.91,2.36s1.89-.88,1.89-2.36V128.12h1.7v12.4c0,2.48-1.14,4.13-3.66,4.13s-3.63-1.65-3.63-4.13v-12.4h1.79Z"></path><path d="M407.84,128.12l2.65,14.22,2.64-14.22h1.67l-3.05,16.35h-2.68L406,128.12Z"></path><path d="M429.79,144.47H427.3l-2.24-16.35h1.77L428.74,142l1.82-13.89h1.79l1.8,13.91L436,128.12h1.58l-2.21,16.35H433l-1.56-11.09Z"></path><path d="M449.58,137.41l-2.73,7.06h-1.72l3.28-8.43-3.07-7.92h1.89l2.51,6.54,2.54-6.54H454L450.93,136l3.26,8.43h-1.91Z"></path><path d="M349.86,163.75l-3.45-10.48h1.89l2.54,8,2.56-8h1.73l-3.47,10.48v5.86h-1.8Z"></path><path d="M374.91,169.61H367.5V168l5.59-13h-5.33v-1.66H375v1.63l-5.62,13h5.57Z"></path></g></g><g id="freepik--fonts-1--inject-190"><path d="M71.91,164.24,68.15,184H58.1L76.8,86.05H92.56L111.26,184H100.38l-3.77-19.72Zm1.4-9.37H95.08l-11-56.51Z" style="fill:#263238"></path><path d="M162.89,109.69v8.39H152.57v-9c0-8.81-3.49-14.12-11.44-14.12s-11.45,5.31-11.45,14.12v51.76c0,8.81,3.63,14.12,11.45,14.12s11.44-5.31,11.44-14.12V141.3h-10v-9.79h20.37v28.82c0,14.82-7,24.61-22,24.61s-21.91-9.79-21.91-24.61V109.69c0-14.82,7-24.62,21.91-24.62S162.89,94.87,162.89,109.69Z" style="fill:#263238"></path><rect x="53.56" y="65.17" width="116.16" height="144.91" style="fill:none;stroke:#263238;stroke-miterlimit:10"></rect><line x1="53.56" y1="184.67" x2="170.18" y2="184.67" style="fill:none;stroke:#263238;stroke-miterlimit:10"></line><rect x="50.79" y="62.4" width="5.53" height="5.53" style="fill:#fff;stroke:#263238;stroke-miterlimit:10"></rect><rect x="166.49" y="62.4" width="5.53" height="5.53" style="fill:#fff;stroke:#263238;stroke-miterlimit:10"></rect><rect x="50.79" y="135.23" width="5.53" height="5.53" style="fill:#fff;stroke:#263238;stroke-miterlimit:10"></rect><rect x="166.49" y="135.23" width="5.53" height="5.53" style="fill:#fff;stroke:#263238;stroke-miterlimit:10"></rect><rect x="50.79" y="206.39" width="5.53" height="5.53" style="fill:#fff;stroke:#263238;stroke-miterlimit:10"></rect><rect x="166.49" y="206.39" width="5.53" height="5.53" style="fill:#fff;stroke:#263238;stroke-miterlimit:10"></rect><path d="M55.4,184.67a1.85,1.85,0,1,0-1.84,1.85A1.84,1.84,0,0,0,55.4,184.67Z" style="fill:#263238"></path><line x1="169.25" y1="138" x2="185.39" y2="138" style="fill:none;stroke:#263238;stroke-miterlimit:10"></line><circle cx="185.39" cy="138" r="2.3" style="fill:#fff;stroke:#263238;stroke-miterlimit:10"></circle><path d="M195.24,178.16,191.57,193h-1.79l15.13-62.91h2.78L223.18,193h-2l-3.67-14.81Zm.36-1.8h21.58l-10.92-44Z" style="fill:#263238"></path><path d="M256.22,145.58v4.13h-2v-4.22c0-7.63-2.87-14-11.1-14s-11.2,6.37-11.2,14v32.13c0,7.63,2.87,13.91,11.2,13.91s11.1-6.28,11.1-13.91V163.35h-9.76v-1.79h11.73v16c0,8.71-3.58,15.89-13.16,15.89S230,186.24,230,177.53V145.58c0-8.7,3.59-15.88,13.08-15.88S256.22,136.88,256.22,145.58Z" style="fill:#263238"></path></g><g id="freepik--tool-2--inject-190"><path d="M209.35,269.44H315a6.27,6.27,0,0,1,6.27,6.27V413a0,0,0,0,1,0,0H203.09a0,0,0,0,1,0,0V275.71A6.27,6.27,0,0,1,209.35,269.44Z" style="fill:#545454;stroke:#263238;stroke-miterlimit:10"></path><rect x="211.17" y="286.81" width="12.84" height="0.84" style="fill:#b2b2b2"></rect><path d="M315.72,269.44H208.64a5.55,5.55,0,0,0-5.55,5.56v3.07H321.27V275A5.56,5.56,0,0,0,315.72,269.44Z" style="fill:#263238;stroke:#263238;stroke-miterlimit:10"></path><polygon points="298.17 273.88 299.81 272.82 299.81 271.79 296.57 273.88 299.81 275.97 299.81 274.94 298.17 273.88" style="fill:#b2b2b2"></polygon><polygon points="301.18 273.88 302.83 272.82 302.83 271.79 299.58 273.88 302.83 275.97 302.83 274.94 301.18 273.88" style="fill:#b2b2b2"></polygon><path d="M315.86,274.2l1.64-1.76a.42.42,0,0,0-.62-.58l-1.6,1.72-1.61-1.72a.42.42,0,1,0-.62.58l1.64,1.76L313.05,276a.43.43,0,0,0,0,.6.48.48,0,0,0,.29.11.4.4,0,0,0,.31-.13l1.61-1.72,1.6,1.72a.4.4,0,0,0,.31.13.46.46,0,0,0,.29-.11.43.43,0,0,0,0-.6Z" style="fill:#b2b2b2"></path><rect x="230.04" y="278.3" width="91.14" height="13.18" style="fill:#263238;stroke:#263238;stroke-miterlimit:10"></rect><rect x="312.49" y="282.39" width="5.33" height="0.79" style="fill:#b2b2b2"></rect><rect x="312.49" y="283.79" width="5.33" height="0.79" style="fill:#b2b2b2"></rect><rect x="312.49" y="285.19" width="5.33" height="0.79" style="fill:#b2b2b2"></rect><rect x="224.44" y="334.69" width="24.96" height="9.25" style="fill:#263238;stroke:#263238;stroke-miterlimit:10"></rect><rect x="215.27" y="334.66" width="7.2" height="9.53" style="fill:#263238;stroke:#263238;stroke-miterlimit:10"></rect><polygon points="216.94 338.53 218.82 336.68 220.8 338.62 220.8 337.79 218.82 335.85 216.94 337.69 216.94 338.53" style="fill:#b2b2b2"></polygon><polygon points="220.8 340.16 218.92 342.01 216.94 340.06 216.94 340.89 218.92 342.84 220.8 340.99 220.8 340.16" style="fill:#b2b2b2"></polygon><rect x="251.45" y="334.66" width="7.2" height="9.53" style="fill:#263238;stroke:#263238;stroke-miterlimit:10"></rect><polygon points="256.98 338.76 255.1 340.61 253.12 338.66 253.12 339.49 255.1 341.44 256.98 339.59 256.98 338.76" style="fill:#b2b2b2"></polygon><rect x="224.44" y="348.71" width="24.96" height="9.25" style="fill:#263238;stroke:#263238;stroke-miterlimit:10"></rect><rect x="215.27" y="348.69" width="7.2" height="9.53" style="fill:#263238;stroke:#263238;stroke-miterlimit:10"></rect><polygon points="216.94 352.55 218.82 350.7 220.8 352.64 220.8 351.81 218.82 349.87 216.94 351.72 216.94 352.55" style="fill:#b2b2b2"></polygon><polygon points="220.8 354.18 218.92 356.03 216.94 354.08 216.94 354.92 218.92 356.86 220.8 355.01 220.8 354.18" style="fill:#b2b2b2"></polygon><rect x="251.45" y="348.69" width="7.2" height="9.53" style="fill:#263238;stroke:#263238;stroke-miterlimit:10"></rect><polygon points="256.98 352.78 255.1 354.63 253.12 352.68 253.12 353.51 255.1 355.46 256.98 353.61 256.98 352.78" style="fill:#b2b2b2"></polygon><rect x="224.44" y="367.48" width="24.96" height="9.25" style="fill:#263238;stroke:#263238;stroke-miterlimit:10"></rect><rect x="215.27" y="367.45" width="7.2" height="9.53" style="fill:#263238;stroke:#263238;stroke-miterlimit:10"></rect><polygon points="216.94 371.31 218.82 369.46 220.8 371.4 220.8 370.57 218.82 368.63 216.94 370.48 216.94 371.31" style="fill:#b2b2b2"></polygon><polygon points="220.8 372.94 218.92 374.79 216.94 372.85 216.94 373.68 218.92 375.62 220.8 373.77 220.8 372.94" style="fill:#b2b2b2"></polygon><rect x="251.45" y="367.45" width="7.2" height="9.53" style="fill:#263238;stroke:#263238;stroke-miterlimit:10"></rect><polygon points="256.98 371.54 255.1 373.39 253.12 371.44 253.12 372.27 255.1 374.22 256.98 372.37 256.98 371.54" style="fill:#b2b2b2"></polygon><rect x="224.44" y="381.5" width="24.96" height="9.25" style="fill:#263238;stroke:#263238;stroke-miterlimit:10"></rect><rect x="215.27" y="381.47" width="7.2" height="9.53" style="fill:#263238;stroke:#263238;stroke-miterlimit:10"></rect><polygon points="216.94 385.33 218.82 383.48 220.8 385.43 220.8 384.6 218.82 382.65 216.94 384.5 216.94 385.33" style="fill:#b2b2b2"></polygon><polygon points="220.8 386.96 218.92 388.81 216.94 386.87 216.94 387.7 218.92 389.64 220.8 387.8 220.8 386.96" style="fill:#b2b2b2"></polygon><rect x="251.45" y="381.47" width="7.2" height="9.53" style="fill:#263238;stroke:#263238;stroke-miterlimit:10"></rect><polygon points="256.98 385.56 255.1 387.41 253.12 385.46 253.12 386.3 255.1 388.24 256.98 386.39 256.98 385.56" style="fill:#b2b2b2"></polygon><rect x="282.48" y="334.69" width="24.96" height="9.25" style="fill:#263238;stroke:#263238;stroke-miterlimit:10"></rect><rect x="273.32" y="334.66" width="7.2" height="9.53" style="fill:#263238;stroke:#263238;stroke-miterlimit:10"></rect><polygon points="274.99 338.53 276.87 336.68 278.85 338.62 278.85 337.79 276.87 335.85 274.99 337.69 274.99 338.53" style="fill:#b2b2b2"></polygon><polygon points="278.85 340.16 276.97 342.01 274.99 340.06 274.99 340.89 276.97 342.84 278.85 340.99 278.85 340.16" style="fill:#b2b2b2"></polygon><rect x="309.5" y="334.66" width="7.2" height="9.53" style="fill:#263238;stroke:#263238;stroke-miterlimit:10"></rect><polygon points="315.03 338.76 313.15 340.61 311.17 338.66 311.17 339.49 313.15 341.44 315.03 339.59 315.03 338.76" style="fill:#b2b2b2"></polygon><rect x="282.48" y="348.71" width="24.96" height="9.25" style="fill:#263238;stroke:#263238;stroke-miterlimit:10"></rect><rect x="273.32" y="348.69" width="7.2" height="9.53" style="fill:#263238;stroke:#263238;stroke-miterlimit:10"></rect><polygon points="274.99 352.55 276.87 350.7 278.85 352.64 278.85 351.81 276.87 349.87 274.99 351.72 274.99 352.55" style="fill:#b2b2b2"></polygon><polygon points="278.85 354.18 276.97 356.03 274.99 354.08 274.99 354.92 276.97 356.86 278.85 355.01 278.85 354.18" style="fill:#b2b2b2"></polygon><rect x="309.5" y="348.69" width="7.2" height="9.53" style="fill:#263238;stroke:#263238;stroke-miterlimit:10"></rect><polygon points="315.03 352.78 313.15 354.63 311.17 352.68 311.17 353.51 313.15 355.46 315.03 353.61 315.03 352.78" style="fill:#b2b2b2"></polygon><rect x="208.17" y="304.97" width="99.27" height="9.25" style="fill:#263238;stroke:#263238;stroke-miterlimit:10"></rect><rect x="309.5" y="304.94" width="7.2" height="9.53" style="fill:#263238;stroke:#263238;stroke-miterlimit:10"></rect><polygon points="315.03 309.03 313.15 310.88 311.17 308.94 311.17 309.77 313.15 311.71 315.03 309.86 315.03 309.03" style="fill:#b2b2b2"></polygon><rect x="208.17" y="318.99" width="99.27" height="9.25" style="fill:#263238;stroke:#263238;stroke-miterlimit:10"></rect><rect x="309.5" y="318.96" width="7.2" height="9.53" style="fill:#263238;stroke:#263238;stroke-miterlimit:10"></rect><polygon points="315.03 323.05 313.15 324.9 311.17 322.96 311.17 323.79 313.15 325.73 315.03 323.88 315.03 323.05" style="fill:#b2b2b2"></polygon><rect x="282.48" y="367.48" width="24.96" height="9.25" style="fill:#263238;stroke:#263238;stroke-miterlimit:10"></rect><rect x="273.32" y="367.45" width="7.2" height="9.53" style="fill:#263238;stroke:#263238;stroke-miterlimit:10"></rect><polygon points="274.99 371.31 276.87 369.46 278.85 371.4 278.85 370.57 276.87 368.63 274.99 370.48 274.99 371.31" style="fill:#b2b2b2"></polygon><polygon points="278.85 372.94 276.97 374.79 274.99 372.85 274.99 373.68 276.97 375.62 278.85 373.77 278.85 372.94" style="fill:#b2b2b2"></polygon><rect x="309.5" y="367.45" width="7.2" height="9.53" style="fill:#263238;stroke:#263238;stroke-miterlimit:10"></rect><polygon points="315.03 371.54 313.15 373.39 311.17 371.44 311.17 372.27 313.15 374.22 315.03 372.37 315.03 371.54" style="fill:#b2b2b2"></polygon><rect x="282.48" y="381.5" width="24.96" height="9.25" style="fill:#263238;stroke:#263238;stroke-miterlimit:10"></rect><rect x="273.32" y="381.47" width="7.2" height="9.53" style="fill:#263238;stroke:#263238;stroke-miterlimit:10"></rect><polygon points="274.99 385.33 276.87 383.48 278.85 385.43 278.85 384.6 276.87 382.65 274.99 384.5 274.99 385.33" style="fill:#b2b2b2"></polygon><polygon points="278.85 386.96 276.97 388.81 274.99 386.87 274.99 387.7 276.97 389.64 278.85 387.8 278.85 386.96" style="fill:#b2b2b2"></polygon><rect x="309.5" y="381.47" width="7.2" height="9.53" style="fill:#263238;stroke:#263238;stroke-miterlimit:10"></rect><polygon points="315.03 385.56 313.15 387.41 311.17 385.46 311.17 386.3 313.15 388.24 315.03 386.39 315.03 385.56" style="fill:#b2b2b2"></polygon><rect x="208.26" y="399.73" width="33.84" height="9.53" style="fill:#263238;stroke:#263238;stroke-miterlimit:10"></rect><polygon points="240.44 403.82 238.55 405.67 236.57 403.72 236.57 404.55 238.55 406.5 240.44 404.65 240.44 403.82" style="fill:#b2b2b2"></polygon><rect x="282" y="399.73" width="33.84" height="9.53" style="fill:#263238;stroke:#263238;stroke-miterlimit:10"></rect><polygon points="314.17 403.82 312.29 405.67 310.31 403.72 310.31 404.55 312.29 406.5 314.17 404.65 314.17 403.82" style="fill:#b2b2b2"></polygon><path d="M213.5,310.94a2.64,2.64,0,1,1,2.64-2.64A2.64,2.64,0,0,1,213.5,310.94Zm0-4.48a1.85,1.85,0,1,0,1.85,1.84A1.85,1.85,0,0,0,213.5,306.46Z" style="fill:#b2b2b2"></path><rect x="209.11" y="310.99" width="3.17" height="0.79" transform="translate(-158.47 240.19) rotate(-45)" style="fill:#b2b2b2"></rect><polygon points="218.68 312.89 221.07 310.65 216.3 310.65 218.68 312.89" style="fill:#b2b2b2"></polygon></g><g id="freepik--tool-1--inject-190"><path d="M69.76,231.43h114a6.27,6.27,0,0,1,6.27,6.27V340.1a0,0,0,0,1,0,0H63.5a0,0,0,0,1,0,0V237.7a6.27,6.27,0,0,1,6.27-6.27Z" style="fill:#545454;stroke:#263238;stroke-miterlimit:10"></path><rect x="67.5" y="258.07" width="12.08" height="11.26" style="fill:#263238"></rect><path d="M184.5,231.43H69.05A5.54,5.54,0,0,0,63.5,237v3.08H190.05V237A5.54,5.54,0,0,0,184.5,231.43Z" style="fill:#263238;stroke:#263238;stroke-miterlimit:10"></path><rect x="102.18" y="240.28" width="87.79" height="13.18" style="fill:#263238;stroke:#263238;stroke-miterlimit:10"></rect><rect x="88.43" y="279.93" width="33.33" height="9.25" style="fill:#263238;stroke:#263238;stroke-miterlimit:10"></rect><rect x="79.27" y="279.9" width="7.2" height="9.53" style="fill:#263238;stroke:#263238;stroke-miterlimit:10"></rect><rect x="88.43" y="293.95" width="33.33" height="9.25" style="fill:#263238;stroke:#263238;stroke-miterlimit:10"></rect><rect x="79.27" y="293.93" width="7.2" height="9.53" style="fill:#263238;stroke:#263238;stroke-miterlimit:10"></rect><rect x="88.43" y="314.18" width="33.33" height="9.25" style="fill:#263238;stroke:#263238;stroke-miterlimit:10"></rect><rect x="79.27" y="314.15" width="7.2" height="9.53" style="fill:#263238;stroke:#263238;stroke-miterlimit:10"></rect><rect x="151.77" y="279.93" width="33.33" height="9.25" style="fill:#263238;stroke:#263238;stroke-miterlimit:10"></rect><rect x="142.61" y="279.9" width="7.2" height="9.53" style="fill:#263238;stroke:#263238;stroke-miterlimit:10"></rect><rect x="151.77" y="314.18" width="33.33" height="9.25" style="fill:#263238;stroke:#263238;stroke-miterlimit:10"></rect><rect x="142.61" y="314.15" width="7.2" height="9.53" style="fill:#263238;stroke:#263238;stroke-miterlimit:10"></rect><rect x="65.55" y="309.14" width="120.3" height="0.84" style="fill:#263238"></rect><rect x="65.55" y="273.41" width="120.3" height="0.84" style="fill:#263238"></rect><rect x="65.55" y="328.12" width="120.3" height="0.84" style="fill:#263238"></rect><polygon points="71.6 335.08 70.21 332.65 70.94 332.24 71.78 333.71 73.63 331.87 74.22 332.46 71.6 335.08" style="fill:#263238"></polygon><polygon points="166.95 235.86 168.6 234.8 168.6 233.77 165.35 235.86 168.6 237.95 168.6 236.92 166.95 235.86" style="fill:#b2b2b2"></polygon><polygon points="169.96 235.86 171.61 234.8 171.61 233.77 168.36 235.86 171.61 237.95 171.61 236.92 169.96 235.86" style="fill:#b2b2b2"></polygon><path d="M184.64,236.19l1.64-1.77a.42.42,0,1,0-.62-.58l-1.6,1.72-1.6-1.72a.42.42,0,0,0-.62.58l1.64,1.77L181.84,238a.43.43,0,0,0,0,.6.4.4,0,0,0,.29.12.44.44,0,0,0,.31-.14l1.6-1.72,1.6,1.72a.43.43,0,0,0,.31.14.42.42,0,0,0,.29-.12.43.43,0,0,0,0-.6Z" style="fill:#b2b2b2"></path><rect x="181.27" y="244.37" width="5.33" height="0.79" style="fill:#b2b2b2"></rect><rect x="181.27" y="245.78" width="5.33" height="0.79" style="fill:#b2b2b2"></rect><rect x="181.27" y="247.18" width="5.33" height="0.79" style="fill:#b2b2b2"></rect><polygon points="80.94 283.76 82.82 281.92 84.8 283.86 84.8 283.03 82.82 281.08 80.94 282.93 80.94 283.76" style="fill:#b2b2b2"></polygon><polygon points="84.8 285.4 82.92 287.25 80.94 285.3 80.94 286.13 82.92 288.08 84.8 286.23 84.8 285.4" style="fill:#b2b2b2"></polygon><polygon points="80.94 297.79 82.82 295.94 84.8 297.88 84.8 297.05 82.82 295.11 80.94 296.95 80.94 297.79" style="fill:#b2b2b2"></polygon><polygon points="84.8 299.42 82.92 301.27 80.94 299.32 80.94 300.15 82.92 302.1 84.8 300.25 84.8 299.42" style="fill:#b2b2b2"></polygon><polygon points="80.94 318.01 82.82 316.16 84.8 318.11 84.8 317.27 82.82 315.33 80.94 317.18 80.94 318.01" style="fill:#b2b2b2"></polygon><polygon points="84.8 319.64 82.92 321.49 80.94 319.55 80.94 320.38 82.92 322.32 84.8 320.47 84.8 319.64" style="fill:#b2b2b2"></polygon><polygon points="144.28 283.76 146.16 281.92 148.14 283.86 148.14 283.03 146.16 281.08 144.28 282.93 144.28 283.76" style="fill:#b2b2b2"></polygon><polygon points="148.14 285.4 146.26 287.25 144.28 285.3 144.28 286.13 146.26 288.08 148.14 286.23 148.14 285.4" style="fill:#b2b2b2"></polygon><polygon points="144.28 318.01 146.16 316.16 148.14 318.11 148.14 317.27 146.16 315.33 144.28 317.18 144.28 318.01" style="fill:#b2b2b2"></polygon><polygon points="148.14 319.64 146.26 321.49 144.28 319.55 144.28 320.38 146.26 322.32 148.14 320.47 148.14 319.64" style="fill:#b2b2b2"></polygon><rect x="69.78" y="279.55" width="5.02" height="0.84" style="fill:#b2b2b2"></rect><rect x="69.78" y="281.52" width="6.61" height="0.84" style="fill:#b2b2b2"></rect><rect x="69.78" y="283.49" width="5.02" height="0.84" style="fill:#b2b2b2"></rect><rect x="69.78" y="285.46" width="6.61" height="0.84" style="fill:#b2b2b2"></rect><rect x="69.78" y="287.42" width="5.02" height="0.84" style="fill:#b2b2b2"></rect><rect x="69.78" y="259.45" width="6.34" height="0.84" style="fill:#b2b2b2"></rect><rect x="69.78" y="261.42" width="8.33" height="0.84" style="fill:#b2b2b2"></rect><rect x="69.78" y="263.39" width="6.34" height="0.84" style="fill:#b2b2b2"></rect><rect x="69.78" y="265.36" width="8.33" height="0.84" style="fill:#b2b2b2"></rect><rect x="69.78" y="267.33" width="6.34" height="0.84" style="fill:#b2b2b2"></rect><rect x="123.09" y="259.45" width="8.49" height="0.84" style="fill:#b2b2b2"></rect><rect x="123.09" y="261.42" width="8.61" height="0.84" style="fill:#b2b2b2"></rect><rect x="123.09" y="263.39" width="8.49" height="0.84" style="fill:#b2b2b2"></rect><rect x="123.09" y="265.36" width="8.61" height="0.84" style="fill:#b2b2b2"></rect><rect x="123.09" y="267.33" width="6.77" height="0.84" style="fill:#b2b2b2"></rect><rect x="173.89" y="259.45" width="8.49" height="0.84" style="fill:#b2b2b2"></rect><rect x="173.89" y="261.42" width="8.61" height="0.84" style="fill:#b2b2b2"></rect><rect x="173.89" y="263.39" width="8.49" height="0.84" style="fill:#b2b2b2"></rect><rect x="173.89" y="265.36" width="8.61" height="0.84" style="fill:#b2b2b2"></rect><rect x="173.89" y="267.33" width="8.58" height="0.84" style="fill:#b2b2b2"></rect><rect x="141.08" y="259.45" width="8.49" height="0.84" style="fill:#b2b2b2"></rect><rect x="141.03" y="261.42" width="8.61" height="0.84" style="fill:#b2b2b2"></rect><rect x="141.08" y="263.39" width="8.49" height="0.84" style="fill:#b2b2b2"></rect><rect x="141.03" y="265.36" width="8.61" height="0.84" style="fill:#b2b2b2"></rect><rect x="141.94" y="267.33" width="6.77" height="0.84" style="fill:#b2b2b2"></rect><rect x="158.65" y="259.45" width="8.49" height="0.84" style="fill:#b2b2b2"></rect><rect x="158.54" y="261.42" width="8.61" height="0.84" style="fill:#b2b2b2"></rect><rect x="158.65" y="263.39" width="8.49" height="0.84" style="fill:#b2b2b2"></rect><rect x="158.54" y="265.36" width="8.61" height="0.84" style="fill:#b2b2b2"></rect><rect x="160.37" y="267.33" width="6.77" height="0.84" style="fill:#b2b2b2"></rect><rect x="106.1" y="259.45" width="6.34" height="0.84" style="fill:#b2b2b2"></rect><rect x="104.11" y="261.42" width="8.33" height="0.84" style="fill:#b2b2b2"></rect><rect x="106.1" y="263.39" width="6.34" height="0.84" style="fill:#b2b2b2"></rect><rect x="104.11" y="265.36" width="8.33" height="0.84" style="fill:#b2b2b2"></rect><rect x="106.1" y="267.33" width="6.34" height="0.84" style="fill:#b2b2b2"></rect><rect x="87.48" y="259.45" width="6.34" height="0.84" style="fill:#b2b2b2"></rect><rect x="86.49" y="261.42" width="8.33" height="0.84" style="fill:#b2b2b2"></rect><rect x="87.48" y="263.39" width="6.34" height="0.84" style="fill:#b2b2b2"></rect><rect x="86.49" y="265.36" width="8.33" height="0.84" style="fill:#b2b2b2"></rect><rect x="87.48" y="267.33" width="6.34" height="0.84" style="fill:#b2b2b2"></rect><rect x="69.78" y="293.69" width="5.02" height="0.84" style="fill:#b2b2b2"></rect><rect x="69.78" y="295.66" width="6.61" height="0.84" style="fill:#b2b2b2"></rect><rect x="69.78" y="297.63" width="5.02" height="0.84" style="fill:#b2b2b2"></rect><rect x="69.78" y="299.6" width="6.61" height="0.84" style="fill:#b2b2b2"></rect><rect x="69.78" y="301.56" width="5.02" height="0.84" style="fill:#b2b2b2"></rect><rect x="69.78" y="314.78" width="5.02" height="0.84" style="fill:#b2b2b2"></rect><rect x="69.78" y="316.75" width="6.61" height="0.84" style="fill:#b2b2b2"></rect><rect x="69.78" y="318.72" width="5.02" height="0.84" style="fill:#b2b2b2"></rect><rect x="69.78" y="320.68" width="6.61" height="0.84" style="fill:#b2b2b2"></rect><rect x="69.78" y="322.65" width="5.02" height="0.84" style="fill:#b2b2b2"></rect><rect x="134.03" y="279.55" width="5.02" height="0.84" style="fill:#b2b2b2"></rect><rect x="134.03" y="281.52" width="6.6" height="0.84" style="fill:#b2b2b2"></rect><rect x="134.03" y="283.49" width="5.02" height="0.84" style="fill:#b2b2b2"></rect><rect x="134.03" y="285.46" width="6.6" height="0.84" style="fill:#b2b2b2"></rect><rect x="134.03" y="287.42" width="5.02" height="0.84" style="fill:#b2b2b2"></rect><rect x="134.03" y="314.78" width="5.02" height="0.84" style="fill:#b2b2b2"></rect><rect x="134.03" y="316.75" width="6.6" height="0.84" style="fill:#b2b2b2"></rect><rect x="134.03" y="318.72" width="5.02" height="0.84" style="fill:#b2b2b2"></rect><rect x="134.03" y="320.68" width="6.6" height="0.84" style="fill:#b2b2b2"></rect><rect x="134.03" y="322.65" width="5.02" height="0.84" style="fill:#b2b2b2"></rect><rect x="69.74" y="330.77" width="5.02" height="5.02" style="fill:#b2b2b2"></rect><rect x="77.55" y="333.14" width="10.89" height="0.84" style="fill:#b2b2b2"></rect><rect x="73.64" y="249.41" width="21.77" height="0.84" style="fill:#b2b2b2"></rect></g><g id="freepik--Window--inject-190"><path d="M57.82,52.52H323.91A4.48,4.48,0,0,1,328.38,57V361.36a0,0,0,0,1,0,0h-275a0,0,0,0,1,0,0V57a4.48,4.48,0,0,1,4.48-4.48Z" style="fill:none;stroke:#263238;stroke-miterlimit:10"></path><path d="M57.82,52.52H323.91A4.48,4.48,0,0,1,328.38,57v1.79a0,0,0,0,1,0,0h-275a0,0,0,0,1,0,0V57A4.48,4.48,0,0,1,57.82,52.52Z" style="fill:#263238;stroke:#263238;stroke-miterlimit:10"></path><circle cx="309.96" cy="56.11" r="1.6" style="fill:#707070"></circle><circle cx="317.01" cy="56.11" r="1.6" style="fill:#707070"></circle><circle cx="324.06" cy="56.11" r="1.6" style="fill:#707070"></circle></g><g id="freepik--Character--inject-190"><path d="M346,295.5s-1.06,12.2-1.06,16.45,3.18,6.37,4.77,9,8.23,2.13,9,1.86,2.65-9.55,2.65-14.06V295Z" style="fill:#fff;stroke:#263238;stroke-linecap:round;stroke-linejoin:round"></path><path d="M347.58,307.7s.53,6.11.8,6.9,4.24,5.31,5,6.37,5.31,1.86,5.31,1.86,4-1.59,3.45-3.18-6.37-3.19-6.37-3.19,1.85-4.78.53-7.16L355,306.91" style="fill:#fff;stroke:#263238;stroke-linecap:round;stroke-linejoin:round"></path><path d="M348.56,188.1s-3.07,24.81-3.07,38.75,2.13,28.36,1.66,30-4,31.43-4,35v5s3.78,3.31,6.38,4a10.61,10.61,0,0,0,5.67-.47V282.86c0-6.15,1.18-32.61,1.18-32.61s-3.78-33.32-4.25-39.94-.71-19.14-.71-21S348.56,188.1,348.56,188.1Z" style="fill:#7E57C2;stroke:#263238;stroke-linecap:round;stroke-linejoin:round"></path><path d="M377.39,438.82a29.58,29.58,0,0,1-6.61,8.75c-4,3.31-11.35,8.74-13,10.16s-1.42,2.84,4.25,4.49,14,1.65,18.2,0,8.27-1.42,10.4-2.36,3.31-1.89,3.54-4.26-1.89-17-1.89-17Z" style="fill:#7E57C2;stroke:#263238;stroke-linecap:round;stroke-linejoin:round"></path><path d="M394.14,453.93A59.7,59.7,0,0,0,385.9,457c-6.85,3.07-8,4-16.54,4a16.7,16.7,0,0,1-11.06-3.74l-.52.43c-1.65,1.42-1.42,2.84,4.25,4.49s14,1.65,18.2,0,8.27-1.42,10.4-2.36,3.31-1.89,3.54-4.26A10.89,10.89,0,0,0,394.14,453.93Z" style="fill:#fff;stroke:#263238;stroke-linecap:round;stroke-linejoin:round"></path><path d="M405,441.42s-4.25,13.24-6.14,16.55-6.15,6.61-5.91,9,4.49,3.07,11.82,3.07,12.28-1.42,14.41-5.2,2.36-4.73,3.55-7.09-.71-16.54-.71-16.54S407.17,441.66,405,441.42Z" style="fill:#7E57C2;stroke:#263238;stroke-linecap:round;stroke-linejoin:round"></path><path d="M419.22,464.82c2.13-3.78,2.36-4.73,3.55-7.09a13.29,13.29,0,0,0,.36-4.68c-.87,1.54-1.86,3.37-3,5.39-2.84,5.2-4.49,7.56-14.18,8-6.9.34-10.91-.52-12.65-1A2.87,2.87,0,0,0,393,467c.24,2.36,4.49,3.07,11.82,3.07S417.09,468.6,419.22,464.82Z" style="fill:#fff;stroke:#263238;stroke-linecap:round;stroke-linejoin:round"></path><path d="M355.89,277.19s-1.18,23.39-.24,41.35,10.87,52,10.87,52,4.73,28.83,6.15,37.1,4.49,26.94,4.49,26.94l16.07-.94V406.45c0-5-.71-36.16-.71-36.16s8.27,42.54,9,47.27,2.36,18.67,2.36,18.67,5.2,1.65,8.27,1.65,10.64-2.13,10.64-2.13,2.83-28.35,2.6-36.86-4-21.27-5.2-25.05S415.44,359,415.68,358s2.83-32.14,2.83-38.52v-17l-5-25.05-2.13-3.78s-27.65,4.73-40.17,1.42-15.83-4.25-15.83-4.25Z" style="fill:#263238;stroke:#263238;stroke-linecap:round;stroke-linejoin:round"></path><path d="M372.9,308.85l8.75,6.62s5.2,35.68,8.27,46.79" style="fill:none;stroke:#949494;stroke-linecap:round;stroke-linejoin:round"></path><path d="M374.56,427.72s8.51-.24,14.41-.24,6.86.24,6.86,1.66.71,9.92,0,10.87-7.57.94-11.11.94-8.27.71-8.74-1.42-.48-4.72-1.19-6.61S373.14,429.37,374.56,427.72Z" style="fill:#707070;stroke:#263238;stroke-linecap:round;stroke-linejoin:round"></path><path d="M401.73,429.37a9.55,9.55,0,0,0-.47,3.55,71.37,71.37,0,0,1,.71,8c0,2.13-.47,1.66,4.49,3.31s15.6,0,16.78-1.42,1.18-9,1.18-10.63-.47-2.37-2.13-1.89-10.16,1.89-13.23,1.18a31.49,31.49,0,0,1-5.2-1.66S402.21,428,401.73,429.37Z" style="fill:#707070;stroke:#263238;stroke-linecap:round;stroke-linejoin:round"></path><path d="M404.1,173.92l-9-4.73-22.45,6.15s-6.38,11.1-7.56,20.55-2.84,57.19-2.84,65.94-.47,15.36-.47,15.36,5.91,4.25,16.3,4.72a115.56,115.56,0,0,0,19.38-.47c2.36-.24,10.16-4.73,10.16-4.73s-1.42-44.9-1.42-51.28,4.49-36.62,5.44-40.88S404.1,173.92,404.1,173.92Z" style="fill:#707070;stroke:#263238;stroke-linecap:round;stroke-linejoin:round"></path><path d="M390.53,178.13c1.65,4.53-1.37,9.79-6.75,11.75s-11.07-.12-12.73-4.65,1.37-9.79,6.75-11.75S388.88,173.6,390.53,178.13Z" style="fill:#fff;stroke:#263238;stroke-linecap:round;stroke-linejoin:round"></path><path d="M377.87,181.24s8.74,9.69,9.45,9.22,13.47-18,13.47-18l-3.31-5.44Z" style="fill:#fff;stroke:#263238;stroke-linecap:round;stroke-linejoin:round"></path><path d="M377.16,170.61a27,27,0,0,1-2.6,4.49c-1.18,1.42-4.26,12.29-4.26,12.29l7.57-6.15s.47-6.85.71-8.5A2,2,0,0,0,377.16,170.61Z" style="fill:#fff;stroke:#263238;stroke-linecap:round;stroke-linejoin:round"></path><path d="M375.74,158.32a26.64,26.64,0,0,1,1.42,5c0,1.18-1,18.67.71,18s18.9-12.29,19.61-14.18-.47-13.23,0-16.07,1.42-7.08,1.42-7.08-6.85,7.08-12.29,10.16A43.6,43.6,0,0,1,375.74,158.32Z" style="fill:#fff;stroke:#263238;stroke-linecap:round;stroke-linejoin:round"></path><path d="M377.16,163.28c0,.58-.23,5.08-.27,9.43l15.6-15.94L376,158.89A21.42,21.42,0,0,1,377.16,163.28Z" style="fill:#263238;stroke:#263238;stroke-linecap:round;stroke-linejoin:round"></path><path d="M399.14,169.9s-8,30.48-8.51,43.48-1.18,21,.71,33.56,5.43,21.5,10.39,29.06,11.58,23.16,12.06,26,4.72,7.8,8.5,10.63,5.91,5.44,6.15,3.78-3.55-26.46-7.09-41.59a106.72,106.72,0,0,1-3.07-26.23L423,231.34s7.33,23.16,9.22,24.58,13.94,2.83,16.07-1.66.47-11.81-1-16.54-8.27-35.92-9.45-42.06-1.42-10.16-2.6-12.29-15.83-6.14-20.32-7.8S399.14,169.9,399.14,169.9Z" style="fill:#7E57C2;stroke:#263238;stroke-linecap:round;stroke-linejoin:round"></path><path d="M399.37,271.51s3.55,2.84,10.64,7.8S424.89,298,424.89,298s-3.78,2.6-5.43,3.78-4.26,3.08-4.26,3.08-2.12-2.13-4.25-7.57S399.37,271.51,399.37,271.51Z" style="fill:#7E57C2;stroke:#263238;stroke-linecap:round;stroke-linejoin:round"></path><path d="M376.45,171.55a120.42,120.42,0,0,0-6.85,19.85c-2.13,9.46-4.26,27.65-4.49,39s-1.89,58.84-2.13,62.86-3.31,6.14-7.8,7.09a31.1,31.1,0,0,1-9.92,0s5-33.8,5.19-39.23.24-13.47.24-18-2.36-33.56-2.6-39-.23-14.89.47-16.07,17.73-9.69,18.67-10.4S373.85,173.44,376.45,171.55Z" style="fill:#7E57C2;stroke:#263238;stroke-linecap:round;stroke-linejoin:round"></path><path d="M421.32,195.74c-1.57,2.59-3,5.52-3.28,7.95-.71,5.91,4.49,26.23,4.49,26.23" style="fill:none;stroke:#263238;stroke-linecap:round;stroke-linejoin:round"></path><path d="M426.07,189s-.8,1-1.9,2.46" style="fill:none;stroke:#263238;stroke-linecap:round;stroke-linejoin:round"></path><path d="M414,280.26a35.84,35.84,0,0,1-7.09,2.6c-3.3.71-9.21,2.6-9.21,2.6s-1.89,4-3.78,5.2-3.55,2.36-2.6,3.07a3.75,3.75,0,0,0,3.54.94,21.89,21.89,0,0,0,4-2.36l10.16,6.85a6.33,6.33,0,0,0,3.31-3.07c1.18-2.36,3.54-6.14,3.54-6.14l3.08-3.31Z" style="fill:#fff;stroke:#263238;stroke-linecap:round;stroke-linejoin:round"></path><path d="M432.22,247.41l-19.85,32.38s3.78,6.61,6.62,9.45l3.78,3.78s17-20.09,21.26-27.89,7.09-11.1,6.15-15.83a26.15,26.15,0,0,0-2.13-6.85" style="fill:#7E57C2;stroke:#263238;stroke-linecap:round;stroke-linejoin:round"></path><path d="M395.59,250.48c-.24,4.26-.24,6.62-.24,6.62" style="fill:none;stroke:#263238;stroke-linecap:round;stroke-linejoin:round"></path><path d="M406.29,181.86c.07,8,.17,19.47.17,19.47l-8.74,4,5.2,9.21s-4.33,19.33-6.34,29.81" style="fill:none;stroke:#263238;stroke-linecap:round;stroke-linejoin:round"></path><path d="M406.22,174.39c0,.18,0,2.07,0,4.77" style="fill:none;stroke:#263238;stroke-linecap:round;stroke-linejoin:round"></path><path d="M360.66,241.24c-1.94-11.45-5.24-30.22-5.24-30.22l7.8-8.27-5.44-4.26s1.65-3.3,3.07-5.9,7.56-13.71,7.56-13.71" style="fill:none;stroke:#263238;stroke-linecap:round;stroke-linejoin:round"></path><path d="M361.8,248.12c-.15-1-.37-2.3-.63-3.88" style="fill:none;stroke:#263238;stroke-linecap:round;stroke-linejoin:round"></path><path d="M368,130.58c-.74-.05-10,.58-10.44-6.88a8.72,8.72,0,0,1,6.06-9.26s-5.77-6.32,1.65-9.79,16.2-1.65,16.2-1.65-.85-5.75,6-4.06,11.5,9.43,11.7,10.19,9.65,3.86,12.79,8.77,2.22,11.29-.29,15.58a114.46,114.46,0,0,1-7.91,10.87,6.2,6.2,0,0,1-6.24.82c-3.62-1.48-6-2.63-5.82-5.58s-.76-11-1.68-12-3.12-1.45-7.64-.51S368,130.58,368,130.58Z" style="fill:#263238;stroke:#263238;stroke-linecap:round;stroke-linejoin:round"></path><path d="M367.87,128.35s-.46,6.9-1.08,8.84a195.23,195.23,0,0,0-3.35,20.58c-.3,4.44,4.42,8,6.88,8.13s6.58-2,10.34-2.78,13.91-4.27,15.55-6.64,2.18-3.07,2.18-3.07,7.78-1.47,8.94-7.83-3-7.13-6.06-5.6a23.75,23.75,0,0,0-4.65,2.91s-2.22-.15-1.86-1.86a21.89,21.89,0,0,0,.71-3.17c.08-1.23-.61-2-1.42-4.8s-1.31-2.56-.16-5,3.42-6.71,3.42-6.71S376,122.2,367.87,128.35Z" style="fill:#fff;stroke:#263238;stroke-linecap:round;stroke-linejoin:round"></path><path d="M378.22,130s3.64-.48,6.06,1.12" style="fill:none;stroke:#263238;stroke-linecap:round;stroke-linejoin:round"></path><path d="M371.88,129.57a4.66,4.66,0,0,0-3.83-.14" style="fill:none;stroke:#263238;stroke-linecap:round;stroke-linejoin:round"></path><path d="M369.33,151s3.11,1.69,7.27-1.25" style="fill:none;stroke:#263238;stroke-linecap:round;stroke-linejoin:round"></path><path d="M381.54,135a1.48,1.48,0,1,1-1.38-1.58A1.47,1.47,0,0,1,381.54,135Z" style="fill:#263238"></path><path d="M370.75,133.49a1.24,1.24,0,1,1-1.15-1.31A1.24,1.24,0,0,1,370.75,133.49Z" style="fill:#263238"></path><path d="M374.56,132s-1.59,5.34,1,7.5,8.81,1.57,10.4-.06,2.63-6,2.63-6S380.84,130.7,374.56,132Z" style="fill:none;stroke:#263238;stroke-linecap:round;stroke-linejoin:round"></path><path d="M371.65,131.82s.57,5.48-1.6,7.32-6.74.54-7.74-1.26-1.26-6.27-1.26-6.27S367.13,129.78,371.65,131.82Z" style="fill:none;stroke:#263238;stroke-linecap:round;stroke-linejoin:round"></path><path d="M371.65,131.82s.76-.69,2.91.19" style="fill:none;stroke:#263238;stroke-linecap:round;stroke-linejoin:round"></path><line x1="388.55" y1="133.8" x2="399.27" y2="140.64" style="fill:none;stroke:#263238;stroke-linecap:round;stroke-linejoin:round"></line><path d="M372.8,133.83s-9.78,7.81-9,10.59,9,2.58,9,2.58" style="fill:#fff;stroke:#263238;stroke-linecap:round;stroke-linejoin:round"></path></g></svg>