<svg xmlns="http://www.w3.org/2000/svg" viewBox="0 0 500 500"><g id="freepik--background-complete--inject-39"><path d="M407.34 318.29s-6.19-5-15.76 10-13.5 23.84-13.5 23.84-2.45 3.11-4.51.73-4.57-8.79-8.57-8.06-5.87 5.11-5.73 11.76-.12 21.22-.14 22.54-.95 3.12-2.62 1.72S345.67 367 340 371.7s-2.23 23.16-1.89 25.19-.14 2.83-1.12 3.23-3.68-4.07-6.43-7.5-6.55-6.92-9.57-3.93-5.19 16.39 5.53 39.52l5.68 10.39 11.88.48c25.49-.52 36.58-8.35 37.93-12.38s-3.44-5.9-7.73-6.87-9.49-1.42-9.56-2.48.44-1.84 2.41-2.43 20.05-5.63 21.8-12.76-13.44-9.91-15.42-10.79-.76-2.51.39-3.1 14.16-7.23 20.2-10 9.16-6.28 8-10.32-8-3.33-11-4.14-1.33-4.37-1.33-4.37 6.2-7.4 15.5-22.6 1.89-18.61 1.89-18.61" style="fill:#ebebeb"/><path d="M330.15 440.54c6.87-11.14 19.42-30.72 30.1-47.6s20.34-32.14 27.27-43.24l8.19-13.16L398 333l.58-.93.21-.31a3.33 3.33 0 0 1-.17.33l-.62.91c-.51.84-1.24 2.05-2.17 3.61-1.89 3.13-4.66 7.65-8.1 13.21-6.87 11.14-16.49 26.44-27.17 43.31s-23.27 36.44-30.2 47.54" style="fill:#e0e0e0"/><path d="M368.17 354a3.5 3.5 0 0 1 .22.83c.12.53.27 1.32.45 2.28.36 1.94.77 4.62 1.18 7.6s.75 5.58 1 7.61c.13.91.24 1.68.32 2.3a4.41 4.41 0 0 1 .09.85 4.65 4.65 0 0 1-.23-.82c-.12-.54-.27-1.32-.44-2.29-.33-1.94-.71-4.63-1.12-7.6s-.79-5.58-1.07-7.61c-.14-.91-.25-1.68-.34-2.3a4.81 4.81 0 0 1-.06-.85ZM372.51 375.74c0-.1 5.48-1.21 12.28-2.48s12.33-2.21 12.35-2.11-5.48 1.21-12.28 2.47-12.33 2.22-12.35 2.12ZM354.94 400.9a4.07 4.07 0 0 1 .87.05l2.36.23c2 .2 4.76.46 7.81.63s5.82.25 7.83.28h2.37a5.14 5.14 0 0 1 .88.06 3.43 3.43 0 0 1-.87.09c-.56 0-1.38.06-2.38.07-2 0-4.79 0-7.85-.17s-5.82-.48-7.82-.74c-1-.14-1.8-.25-2.35-.35a3.61 3.61 0 0 1-.85-.15ZM346.67 382.06a2.85 2.85 0 0 1 .4.7l1 2c.8 1.67 1.88 4 3.05 6.57s2.21 4.92 2.94 6.63c.34.79.62 1.47.86 2a3 3 0 0 1 .26.76 3.65 3.65 0 0 1-.39-.7q-.4-.81-1-2c-.8-1.67-1.88-4-3.05-6.57s-2.21-4.92-2.94-6.62l-.86-2a4.14 4.14 0 0 1-.27-.77ZM328.34 402.31a5.25 5.25 0 0 1 .5.9l1.24 2.53c1 2.14 2.43 5.11 4 8.39s2.9 6.28 3.87 8.45l1.14 2.57a6.24 6.24 0 0 1 .37 1 5.84 5.84 0 0 1-.5-.9l-1.24-2.53c-1-2.14-2.44-5.11-4-8.4s-2.9-6.27-3.87-8.44c-.46-1-.84-1.91-1.13-2.58a4.94 4.94 0 0 1-.38-.99ZM339.31 425.48a5.57 5.57 0 0 1 1.11 0l3 .19c2.54.16 6.05.37 9.93.48s7.4.15 9.94.14h3a5.64 5.64 0 0 1 1.11 0 7.06 7.06 0 0 1-1.1.1c-.71 0-1.74.09-3 .12-2.54.07-6.06.09-9.95 0s-7.4-.36-9.94-.59c-1.27-.11-2.29-.22-3-.3a8.11 8.11 0 0 1-1.1-.14Z" style="fill:#e0e0e0"/><path d="M126.82 388.73a13 13 0 0 1 10.14.73 22.8 22.8 0 0 1 7.87 6.75c4.15 5.31 6.17 12.81 7 19.51-7.48.43-14.42-4.79-17.78-7.67-5.3-4.54-12.13-16-7.22-19.32M164.25 419a11.1 11.1 0 0 1-4.82-10 14.77 14.77 0 0 1 5.38-10c1.38-1.15 3.13-2.14 4.9-1.8a4.73 4.73 0 0 1 3.42 3.37 9.75 9.75 0 0 1-.09 5c-1.34 5.61-3.68 10.8-8.79 13.48" style="fill:#ebebeb"/><path d="M170.34 434.77a21 21 0 0 1-2.53-3.67 20.62 20.62 0 0 1-2-4.45 45.66 45.66 0 0 1-1.55-5.74 22.08 22.08 0 0 1 .53-10.77 16 16 0 0 1 1.35-3 3.87 3.87 0 0 1 .71-1c.12.07-.81 1.51-1.55 4.13a23.76 23.76 0 0 0-.3 10.47 52.41 52.41 0 0 0 1.48 5.67 22.81 22.81 0 0 0 1.78 4.4 33 33 0 0 1 2.08 3.96Z" style="fill:#e0e0e0"/><path d="M132.79 397a13.41 13.41 0 0 1 1.73 1.44c1.08 1 2.63 2.39 4.52 4.16 3.79 3.55 9 8.5 14.55 14.11s10.5 10.83 14 14.69c1.73 1.92 3.12 3.5 4.06 4.61a11.82 11.82 0 0 1 1.4 1.77 13.73 13.73 0 0 1-1.62-1.58l-4.24-4.44c-3.57-3.76-8.53-8.91-14.11-14.52L138.67 403l-4.35-4.33a12.84 12.84 0 0 1-1.53-1.67Z" style="fill:#e0e0e0"/><path d="M160 426.83a25.93 25.93 0 0 0-23.68-.4c-1.87.94-3.84 2.53-3.67 4.61S135 434.4 137 435a22.15 22.15 0 0 0 23.33-7.72" style="fill:#ebebeb"/><path d="M141.84 429s.36-.23 1.07-.51 1.76-.63 3.06-1a29.1 29.1 0 0 1 10.59-1.24 18.27 18.27 0 0 1 5.73 1.5 17.88 17.88 0 0 1 4.07 2.61 17.49 17.49 0 0 1 2.27 2.31c.48.6.73.94.69 1s-1.19-1.21-3.29-2.87a18.07 18.07 0 0 0-9.54-3.77 33 33 0 0 0-10.38 1 39.69 39.69 0 0 1-4.27.97ZM148.28 300.83a23.71 23.71 0 0 1 5.65-2.45l1.16-5.59 9.44-.16 1.36 5.54a23.54 23.54 0 0 1 5.73 2.25l4.77-3.12 6.79 6.56-3 4.87a22.93 22.93 0 0 1 2.45 5.65l5.59 1.16.17 9.44-5.55 1.36a22.76 22.76 0 0 1-2.25 5.73l3.13 4.77-6.56 6.79-4.88-3a23.11 23.11 0 0 1-5.64 2.46l-1.16 5.58-9.44.17-1.36-5.54a23 23 0 0 1-5.73-2.26l-4.77 3.13-6.79-6.56 2.95-4.88a23.07 23.07 0 0 1-2.45-5.64l-5.55-1.09-.16-9.44 5.54-1.36a23.39 23.39 0 0 1 2.25-5.73l-3.12-4.77 6.55-6.79 4.88 2.95Zm5 12.58a10.13 10.13 0 1 0 14.33-.25 10.13 10.13 0 0 0-14.3.25Z" style="fill:#e0e0e0"/><path d="M153.31 313.41a7.62 7.62 0 0 1 1.89-1.66 10.14 10.14 0 0 1 6.61-1.56 10.29 10.29 0 0 1 8.12 5.69 9.65 9.65 0 0 1 .92 2.84 9.88 9.88 0 0 1 .06 3.12 10.34 10.34 0 0 1-8.55 8.86 9.63 9.63 0 0 1-3.12.05 9.79 9.79 0 0 1-2.87-.82 10.36 10.36 0 0 1-4.22-3.49 10.23 10.23 0 0 1-.42-11.09 7.87 7.87 0 0 1 1.58-1.94c.06 0-.61.66-1.39 2a10.15 10.15 0 0 0-1.12 6.59 9.83 9.83 0 0 0 1.74 4.21 10 10 0 0 0 4 3.28 9.3 9.3 0 0 0 2.73.76 9.44 9.44 0 0 0 2.95-.06 9.94 9.94 0 0 0 5.42-2.86 9.81 9.81 0 0 0 2.66-5.52 9.12 9.12 0 0 0 0-2.95 9 9 0 0 0-.85-2.69 9.9 9.9 0 0 0-7.69-5.52 10.1 10.1 0 0 0-6.44 1.35c-1.32.78-1.96 1.46-2.01 1.41Z" style="fill:#e0e0e0"/><path d="M148.28 300.83a1.53 1.53 0 0 1-.31-.16l-.94-.54-3.67-2.13h.11l-6.47 6.77v-.18l3.15 4.76V309.52a23.33 23.33 0 0 0-2.21 5.69v.11h-.11l-5.54 1.38.15-.21c.06 3 .13 6.13.19 9.44l-.18-.22 5.59 1.15h.14v.14a22.79 22.79 0 0 0 2.44 5.58l.08.13-.08.13-2.95 4.89v-.32l6.8 6.55h-.34l4.77-3.13.14-.09.14.08a22.94 22.94 0 0 0 5.66 2.22h.17v.17c.43 1.73.89 3.63 1.36 5.54l-.28-.22 9.44-.17-.28.23c.37-1.76.77-3.67 1.16-5.58v-.18h.17a23.19 23.19 0 0 0 5.57-2.42l.16-.09.14.09 4.88 3-.36.05 6.56-6.79v.36l-3.13-4.78-.09-.14.08-.15a22.61 22.61 0 0 0 2.23-5.66v-.16h.17l5.54-1.36-.21.28q-.08-4.85-.16-9.44l.22.25-5.59-1.17h-.15l-.05-.15a23.09 23.09 0 0 0-2.41-5.59l-.08-.13.08-.13 3-4.87v.3c-2.38-2.31-4.63-4.5-6.78-6.57h.28l-4.78 3.12-.11.07-.11-.06a22.39 22.39 0 0 0-5.67-2.25h-.11v-.11c-.48-2-.92-3.84-1.34-5.55l.17.13-9.44.12.13-.1c-.48 2.23-.87 4.06-1.2 5.58v.06H154a23.93 23.93 0 0 0-4.31 1.66l-1 .53a1.56 1.56 0 0 1-.34.17l.32-.21c.21-.13.54-.33 1-.57a22.4 22.4 0 0 1 4.31-1.76l-.06.07c.3-1.52.67-3.36 1.12-5.59v-.1h.11l9.44-.2h.13v.14c.42 1.71.87 3.52 1.37 5.54l-.14-.14a23.29 23.29 0 0 1 5.79 2.25h-.22l4.76-3.14.15-.1.13.13 6.81 6.54.14.14-.1.16-2.95 4.88v-.26a23.39 23.39 0 0 1 2.48 5.71l-.19-.19 5.59 1.16h.2v.22c.06 3.07.11 6.21.17 9.44v.22l-.22.05-5.49 1.29.21-.2a23.26 23.26 0 0 1-2.28 5.79v-.29l3.13 4.77.12.19-.18.13-6.56 6.79-.16.17-.2-.12-4.88-3h.3a23.17 23.17 0 0 1-5.71 2.48l.2-.22c-.4 1.92-.79 3.83-1.16 5.59l-.05.23h-.23l-9.44.16h-.23v-.22c-.47-1.92-.93-3.81-1.36-5.55l.21.21a23.32 23.32 0 0 1-5.79-2.29h.28l-4.77 3.13-.18.11-.16-.15-6.78-6.56-.15-.15.11-.17 3-4.87v.25a23 23 0 0 1-2.47-5.71l.18.17-5.58-1.17h-.18V326c-.05-3.31-.09-6.47-.14-9.44v-.17h.16l5.54-1.35-.13.14a23.24 23.24 0 0 1 2.28-5.76v.17l-3.11-4.78-.06-.1.08-.08 6.6-6.76v-.05h.06l3.6 2.23.92.59a3.48 3.48 0 0 1 .24.19Z" style="fill:#e0e0e0"/><path d="M110.63 292a12 12 0 0 1 2.59-2l-.11-3 4.82-1.28 1.4 2.67a12.25 12.25 0 0 1 3.22.44l2-2.21 4.32 2.5L128 292a12 12 0 0 1 2 2.59l3-.11 1.28 4.82-2.67 1.4a12.24 12.24 0 0 1-.43 3.22l2.21 2.05-2.51 4.32-2.87-.9a12.94 12.94 0 0 1-2.59 2l.11 3-4.82 1.28-1.4-2.67a12.18 12.18 0 0 1-3.22-.43l-2.06 2.2-4.31-2.5.9-2.88a12.18 12.18 0 0 1-2-2.58l-3 .11-1.28-4.83 2.68-1.39a12.31 12.31 0 0 1 .43-3.23l-2.21-2.05 2.51-4.31 2.87.9Zm4.17 5.81a5.35 5.35 0 1 0 7.32-1.94 5.37 5.37 0 0 0-7.32 1.97Z" style="fill:#f5f5f5"/><path d="M114.8 297.84a4 4 0 0 1 .76-1.08 5.28 5.28 0 0 1 3.2-1.64 5.35 5.35 0 0 1 2.5.25 5.48 5.48 0 0 1 2.38 1.64 5 5 0 0 1 .83 1.34 5.27 5.27 0 0 1 .43 1.59 5.54 5.54 0 0 1-.71 3.35 5.48 5.48 0 0 1-2.56 2.28 5 5 0 0 1-1.63.43 5.2 5.2 0 0 1-1.58-.06 5.41 5.41 0 0 1-2.6-1.25 5.33 5.33 0 0 1-1.46-2.06 5.27 5.27 0 0 1-.16-3.58 4.06 4.06 0 0 1 .56-1.2s-.23.42-.45 1.23a5.32 5.32 0 0 0 .25 3.47 5.21 5.21 0 0 0 3.91 3.11 4.7 4.7 0 0 0 1.5.05 4.79 4.79 0 0 0 1.5-.41 5.23 5.23 0 0 0 2.42-2.15 5.32 5.32 0 0 0 .67-3.16 4.74 4.74 0 0 0-.4-1.51 4.62 4.62 0 0 0-.78-1.28 5.23 5.23 0 0 0-4.64-1.86 5.31 5.31 0 0 0-3.13 1.51c-.56.59-.77 1.01-.81.99Z" style="fill:#f5f5f5"/><path d="M110.63 292h-.18l-.55-.16-2.16-.65h.06l-2.48 4.33v-.1l2.22 2.05v.06a11.68 11.68 0 0 0-.42 3.2v.06h-.06l-2.66 1.4v-.12q.62 2.27 1.29 4.82l-.12-.09 3-.12h.08v.06a12 12 0 0 0 1.95 2.56l.06.06v.07l-.9 2.88-.06-.16 4.32 2.5h-.18l2-2.21.06-.07h.08a12.55 12.55 0 0 0 3.19.42h.09v.08l1.4 2.67-.17-.08 4.82-1.28-.11.16c0-1-.08-2-.11-3v-.09l.08-.05a11.63 11.63 0 0 0 2.55-1.94l.06-.07h.09l2.88.9-.18.07c.85-1.46 1.68-2.9 2.51-4.31v.18l-2.2-2.05.12.02v-.09a11.94 11.94 0 0 0 .43-3.18v-.09h.08l2.67-1.39-.07.17c-.43-1.65-.86-3.26-1.27-4.83l.14.11-3 .1h-.08v-.08a12 12 0 0 0-2-2.56v-.13c.31-1 .61-1.94.91-2.87v.14l-4.31-2.51h.15l-2.06 2.2v.05h-.07a12.2 12.2 0 0 0-3.19-.43h-.06v-.06l-1.39-2.67h.1l-4.82 1.26.05-.07c0 1.2.06 2.19.09 3a12.56 12.56 0 0 0-2 1.4l-.46.4-.15.13.14-.15a6 6 0 0 1 .43-.42 12.59 12.59 0 0 1 2-1.45v.05c0-.83-.08-1.81-.13-3V287l4.82-1.3h.07v.06l1.41 2.67-.09-.06a12.22 12.22 0 0 1 3.25.43h-.11l2-2.21.06-.07.08.05 4.32 2.49.09.05v.1c-.29.94-.59 1.89-.9 2.88v-.13a12.37 12.37 0 0 1 2 2.61l-.13-.07 3-.11h.11v.11c.42 1.57.85 3.17 1.28 4.82v.11l-.1.06-2.67 1.4.08-.13a12.19 12.19 0 0 1-.44 3.26v-.15l2.21 2 .09.08-.06.11-2.5 4.34-.06.11h-.11l-2.88-.9h.15a12.51 12.51 0 0 1-2.62 2l.08-.14c0 1 .08 2.06.11 3v.12h-.12l-4.82 1.28h-.12l-.06-.11-1.39-2.67.13.08a12.59 12.59 0 0 1-3.26-.44h.14l-2 2.2-.08.09-.1-.06-4.31-2.51-.09-.06v-.1l.9-2.88v.14a12.19 12.19 0 0 1-2-2.62l.11.06-3 .11h-.1v-.09l-1.27-4.83v-.08h.07l2.68-1.39v.09a12.39 12.39 0 0 1 .44-3.25v.09l-2.2-2.06v-.06c1-1.75 1.89-3.2 2.53-4.3l2.13.69.54.19ZM407.71 98.07a18.34 18.34 0 0 1 4.44-1.93l.91-4.39 7.42-.13 1.06 4.38a18.64 18.64 0 0 1 4.5 1.77l3.75-2.45 5.34 5.15-2.33 3.83a18.17 18.17 0 0 1 1.93 4.44l4.39.91.13 7.41-4.35 1.07a18.64 18.64 0 0 1-1.77 4.5l2.45 3.75-5.15 5.34-3.83-2.33a18.17 18.17 0 0 1-4.44 1.93l-.91 4.39-7.41.13-1.07-4.36a17.86 17.86 0 0 1-4.5-1.77l-3.75 2.46-5.33-5.17 2.32-3.83a18.17 18.17 0 0 1-1.93-4.44l-4.39-.91-.13-7.42 4.36-1.06a17.86 17.86 0 0 1 1.77-4.5l-2.46-3.75 5.15-5.34 3.83 2.33Zm4 9.88a8 8 0 1 0 11.25-.2 8 8 0 0 0-11.29.25Z" style="fill:#f5f5f5"/><path d="M411.67 108a5.78 5.78 0 0 1 1.48-1.3 7.85 7.85 0 0 1 5.19-1.23 8 8 0 0 1 6.38 4.47 7.57 7.57 0 0 1 .72 2.23 7.44 7.44 0 0 1 .05 2.45 8.12 8.12 0 0 1-6.72 7 8.06 8.06 0 0 1-2.45 0 7.84 7.84 0 0 1-2.26-.65 8.1 8.1 0 0 1-3.31-2.74 8.06 8.06 0 0 1-.33-8.71 6 6 0 0 1 1.25-1.52 18.41 18.41 0 0 0-1.1 1.61 7.94 7.94 0 0 0-.88 5.09 7.81 7.81 0 0 0 4.55 5.89 7.73 7.73 0 0 0 4.46.55 7.74 7.74 0 0 0 6.35-6.58 7.89 7.89 0 0 0-.71-4.44 7.85 7.85 0 0 0-11.1-3.27 16.79 16.79 0 0 0-1.57 1.15Z" style="fill:#f5f5f5"/><path d="m407.71 98.07-.24-.13-.74-.43-2.89-1.7h.09l-5.12 5.37v-.14l2.47 3.73v.14a18.41 18.41 0 0 0-1.74 4.47v.09h-.09l-4.35 1.08.12-.16.15 7.42-.14-.18 4.39.91h.11v.11a18.39 18.39 0 0 0 1.92 4.39l.06.1-.06.1-2.32 3.83v-.25l5.34 5.15h-.27l3.75-2.46.11-.07.11.06a18 18 0 0 0 4.45 1.75h.13v.13c.34 1.37.7 2.85 1.07 4.36l-.22-.18 7.42-.13-.22.18c.29-1.38.6-2.88.91-4.39v-.13h.13a17.85 17.85 0 0 0 4.38-1.9l.12-.07.12.07 3.83 2.32h-.28l5.15-5.34v.28l-2.45-3.75-.08-.11.07-.12a17.92 17.92 0 0 0 1.75-4.44v-.13h.13l4.36-1.07-.14.17c0-2.53-.08-5-.12-7.42l.17.2-4.39-.91h-.12v-.12a18.14 18.14 0 0 0-1.89-4.39l-.07-.1.07-.1 2.32-3.83v.24c-1.88-1.82-3.65-3.53-5.33-5.17h.22l-3.76 2.45-.08.06h-.09a18 18 0 0 0-4.45-1.77h-.09v-.09c-.38-1.58-.73-3-1-4.36l.13.11-7.42.09.1-.08c-.37 1.75-.68 3.19-.94 4.38a19.09 19.09 0 0 0-3.39 1.3l-.8.42-.27.14.25-.17q.26-.16.78-.45a17.12 17.12 0 0 1 3.39-1.38l-.05.05c.24-1.19.53-2.63.88-4.39v-.08h.08l7.41-.16h.11v.11c.33 1.34.69 2.77 1.08 4.35l-.11-.11a18.2 18.2 0 0 1 4.54 1.77H426l3.75-2.47.11-.07.1.09 5.35 5.14.11.11-.08.13q-1.12 1.86-2.32 3.83v-.2a18.4 18.4 0 0 1 2 4.48l-.16-.14 4.39.9h.17v.17q.06 3.61.14 7.41v.17h-.17l-4.39 1.18.16-.16a18.18 18.18 0 0 1-1.79 4.55v-.23l2.46 3.75.1.15-.13.13-5.14 5.33-.13.13-.16-.09-3.83-2.32h.23a18.3 18.3 0 0 1-4.48 1.95l.16-.17c-.32 1.5-.63 3-.92 4.38v.18h-.18l-7.42.13h-.18v-.17c-.37-1.5-.73-3-1.07-4.35l.17.16a18.7 18.7 0 0 1-4.56-1.8h.23l-3.75 2.45-.14.09-.13-.12-5.5-5.15-.11-.12.08-.14 2.33-3.82v.2a18.55 18.55 0 0 1-1.94-4.49l.14.14-4.38-.92h-.14v-.15c0-2.6-.07-5.08-.11-7.41v-.13h.12l4.36-1.06-.11.11a18.55 18.55 0 0 1 1.8-4.53v.14l-2.44-3.76-.05-.08.07-.06 5.18-5.31h.05l2.82 1.76.73.46a1.19 1.19 0 0 1 .31.1Z" style="fill:#f5f5f5"/><path d="M383.51 163.28h-55.36a4.68 4.68 0 0 1-4.68-4.68 4.69 4.69 0 0 1 4.68-4.68h55.36a4.68 4.68 0 0 1 4.68 4.68 4.67 4.67 0 0 1-4.68 4.68Z" style="fill:#fafafa"/><path d="M383.51 163.28h.36a5.34 5.34 0 0 0 1-.2 5.12 5.12 0 0 0 1.51-.81 4.81 4.81 0 0 0 1.39-1.86 5.14 5.14 0 0 0 .33-1.35 5 5 0 0 0-.11-1.52 4.62 4.62 0 0 0-1.95-2.79 4.69 4.69 0 0 0-1.79-.7 15.62 15.62 0 0 0-2.07-.07H328.16a4.61 4.61 0 0 0-3.51 7.61 4.54 4.54 0 0 0 2.93 1.57 15.74 15.74 0 0 0 1.69.05H378h-48.73a14 14 0 0 1-1.71 0 4.75 4.75 0 0 1 .6-9.46h54.06a15.8 15.8 0 0 1 2.08.08 4.7 4.7 0 0 1 3.79 3.55 4.58 4.58 0 0 1 .11 1.55 4.69 4.69 0 0 1-3.28 4 4.6 4.6 0 0 1-1.05.19Z" style="fill:#e0e0e0"/><path d="M359.09 162.17h-30.91a3.57 3.57 0 0 1-3.57-3.57 3.57 3.57 0 0 1 3.57-3.57h30.91a3.57 3.57 0 0 1 3.57 3.57 3.57 3.57 0 0 1-3.57 3.57Z" style="fill:#e0e0e0"/><g style="opacity:.4"><path style="fill:#fff" d="m329.21 162.17 4.44-7.14h4.75l-4.34 7.14h-4.85z"/></g><g style="opacity:.4"><path style="fill:#fff" d="m338.74 162.17 4.44-7.14h4.75l-4.34 7.14h-4.85z"/></g><g style="opacity:.4"><path style="fill:#fff" d="m348.97 162.17 4.44-7.14h4.75l-4.34 7.14h-4.85z"/></g><path d="M167.93 266.08h-91.4a7.73 7.73 0 0 1-7.73-7.73 7.73 7.73 0 0 1 7.73-7.73h91.4a7.73 7.73 0 0 1 7.73 7.73 7.73 7.73 0 0 1-7.73 7.73Z" style="fill:#fafafa"/><path d="M167.93 266.08h.6a8.94 8.94 0 0 0 1.71-.33 7.76 7.76 0 0 0 4.79-4.4 8.67 8.67 0 0 0 .55-2.23 8.09 8.09 0 0 0-.19-2.52 7.64 7.64 0 0 0-6.18-5.75 23.8 23.8 0 0 0-3.41-.11H76.54a7.61 7.61 0 0 0-5.79 12.56 7.52 7.52 0 0 0 4.83 2.6 25.86 25.86 0 0 0 2.79.07H167.93 78.37a26.75 26.75 0 0 1-2.82-.07 7.85 7.85 0 0 1-4.48-13.41 7.91 7.91 0 0 1 5.47-2.22h89.26a23 23 0 0 1 3.44.12 7.54 7.54 0 0 1 3 1.19 7.72 7.72 0 0 1 3.26 4.68 7.69 7.69 0 0 1-.39 4.8 7.81 7.81 0 0 1-2.34 3.08 7.89 7.89 0 0 1-2.51 1.33 8.29 8.29 0 0 1-1.73.32Z" style="fill:#e0e0e0"/><path d="M127.62 264.25H76.57a5.9 5.9 0 0 1-5.89-5.9 5.89 5.89 0 0 1 5.89-5.89h51.05a5.89 5.89 0 0 1 5.89 5.89 5.9 5.9 0 0 1-5.89 5.9Z" style="fill:#e0e0e0"/><g style="opacity:.4"><path style="fill:#fff" d="m78.28 264.25 7.32-11.79h7.85l-7.17 11.79h-8z"/></g><g style="opacity:.4"><path style="fill:#fff" d="m94.02 264.25 7.32-11.79h7.85l-7.18 11.79h-7.99z"/></g><g style="opacity:.4"><path style="fill:#fff" d="m110.91 264.25 7.32-11.79h7.85l-7.18 11.79h-7.99z"/></g><path d="M118.3 92.17a12.18 12.18 0 0 1 2.58-2l-.11-3 4.83-1.28 1.4 2.69a12.31 12.31 0 0 1 3.23.43l2.05-2.21 4.31 2.51-.9 2.87a12.23 12.23 0 0 1 2 2.59l3-.11 1.31 4.82-2.67 1.4a12.19 12.19 0 0 1-.44 3.22l2.21 2.06-2.5 4.31-2.88-.9a12 12 0 0 1-2.59 2l.11 3-4.82 1.27-1.4-2.67a12.24 12.24 0 0 1-3.22-.43l-2 2.21-4.32-2.51.9-2.87a12.66 12.66 0 0 1-2-2.59l-3 .11-1.38-4.83 2.67-1.4a12.18 12.18 0 0 1 .43-3.22l-2.2-2 2.5-4.32 2.88.9Zm4.17 5.83a5.35 5.35 0 1 0 7.31-1.94 5.35 5.35 0 0 0-7.31 1.94Z" style="fill:#f5f5f5"/><path d="M122.47 98a4.14 4.14 0 0 1 .76-1.09 5.4 5.4 0 0 1 5.7-1.39 5.54 5.54 0 0 1 2.38 1.64 5.38 5.38 0 0 1 .83 1.34 5.11 5.11 0 0 1 .42 1.6 5.44 5.44 0 0 1-3.26 5.62 5.12 5.12 0 0 1-1.6.42 5.22 5.22 0 0 1-1.58 0 5.52 5.52 0 0 1-2.6-1.26 5.4 5.4 0 0 1-1.62-5.64 4 4 0 0 1 .57-1.19 11 11 0 0 0-.45 1.23 5.3 5.3 0 0 0 .24 3.47 5.2 5.2 0 0 0 1.43 1.94 5.3 5.3 0 0 0 2.48 1.17 5 5 0 0 0 1.5 0 4.83 4.83 0 0 0 1.51-.4 5.24 5.24 0 0 0 2.41-2.16 5.16 5.16 0 0 0 .67-3.16 4.8 4.8 0 0 0-.39-1.51 5 5 0 0 0-.78-1.28 5.36 5.36 0 0 0-2.25-1.58 5.35 5.35 0 0 0-5.53 1.23 13 13 0 0 0-.84 1Z" style="fill:#f5f5f5"/><path d="M118.3 92.17h-.19l-.54-.16-2.16-.65-2.41 4.26v-.09l2.21 2a12.5 12.5 0 0 0-.42 3.2v.06h-.05l-2.67 1.41.06-.13q.6 2.28 1.29 4.82l-.13-.09 3-.12h.07v.07a12.07 12.07 0 0 0 2 2.55l.05.06v.08c-.28.89-.58 1.87-.9 2.87l-.06-.15 4.32 2.5h-.18l2-2.21.06-.06h.09a11.64 11.64 0 0 0 3.26.61h.09v.08c.43.84.91 1.75 1.4 2.67l-.18-.07 4.82-1.28-.11.15c0-1-.07-2-.11-3v-.1h.08a12.26 12.26 0 0 0 2.55-2l.07-.06h.09l2.87.9-.18.07q1.28-2.17 2.51-4.31v.19l-2.21-2.06-.07-.06v-.09a11.89 11.89 0 0 0 .43-3.18v-.09h.08l2.67-1.4-.07.17c-.44-1.65-.86-3.26-1.28-4.82l.14.1-3 .11h-.08v-.07a12.19 12.19 0 0 0-1.95-2.56l-.06-.06v-.08l.9-2.87.06.15-4.31-2.52h.14l-2 2.21h-.11a11.84 11.84 0 0 0-3.2-.44h-.06v-.05c-.5-1-1-1.85-1.39-2.68h.11l-4.83 1.26v-.07c0 1.21.07 2.2.09 3a12.28 12.28 0 0 0-2 1.4l-.45.4c-.1.09-.15.14-.15.13l.13-.15c.1-.09.24-.24.44-.42a11.23 11.23 0 0 1 2-1.44c0-.82-.07-1.81-.13-3V87h.06l4.81-1.3h.07v.07l1.4 2.66h-.09a12.69 12.69 0 0 1 3.26.42h-.11l2-2.22.07-.07h.08l4.32 2.5h.08v.1c-.29.93-.58 1.89-.89 2.87v-.13a12.25 12.25 0 0 1 2 2.61l-.12-.07 3-.11h.12v.1l1.29 4.82v.12h-.11l-2.67 1.4.08-.13a12.48 12.48 0 0 1-.43 3.26v-.15l2.2 2.05.09.09-.06.1-2.5 4.32-.06.1h-.12l-2.88-.9h.16a12.57 12.57 0 0 1-2.62 2l.08-.14c0 1 .07 2.06.11 3v.12h-.12l-4.83 1.51h-.12v-.11l-1.4-2.67.13.08a12.23 12.23 0 0 1-3.26-.44h.15L121.8 115l-.07.08-.1-.06-4.31-2.51h-.1v-.11l.91-2.87v.13a12.6 12.6 0 0 1-2-2.62l.12.07-3 .1h-.09v-.09c-.44-1.69-.87-3.3-1.27-4.82v-.09h.08l2.67-1.39v.09a12 12 0 0 1 .45-3.25v.09l-2.2-2.06 2.53-4.3 2.12.7.55.18Z" style="fill:#f5f5f5"/></g><g id="freepik--Character--inject-39"><path d="M113.53 470.68h312.8l-10.55-9.5a159.55 159.55 0 0 0-96-43l-111.3 8.15c-28.49 3.9-78.57 13.33-95 44.31" style="fill:#ffc100"/><path d="M319.8 321.07c6.12-18.79 12.16-37.72 14.95-57.29s2.22-39.95-4.66-58.48c-1-2.81-9.93-21.65-12.91-21.36-2.13.21 3.34 17.79 2.26 19.63-10.29 17.66-13.1 38.89-11.47 59.26s5.86 38.7 11.83 58.24" style="fill:#263238"/><path d="m246.67 153.64-4.58.24A88.62 88.62 0 0 0 158.2 240c-1.18 42.93-1.93 90.37-.43 113.29 3.1 47.46 51 52.32 51 52.32s-.34 12.7-.21 26.66l1.28.68a109.16 109.16 0 0 0 109.79-4.33l2.44-182.89c1.63-49.59-25.84-91.83-75.4-92.09Z" style="fill:#b56e6a"/><path d="M208.49 405.56s30 .17 60.86-21.56c0 0-13.24 35.34-60.86 33.57Z" style="fill:#875453"/><path d="M171.86 275a6.79 6.79 0 0 0 6.9 6.49 6.5 6.5 0 0 0 6.67-6.48 6.79 6.79 0 0 0-6.9-6.5 6.5 6.5 0 0 0-6.67 6.49ZM169.12 259.08c.89.84 5.82-3.24 13.12-3.61s12.84 3 13.59 2.07c.37-.42-.57-2-3-3.55a18.67 18.67 0 0 0-10.93-2.74 18 18 0 0 0-10.39 4c-2.15 1.81-2.82 3.45-2.39 3.83ZM237.76 275a6.79 6.79 0 0 0 6.9 6.49 6.5 6.5 0 0 0 6.67-6.48 6.8 6.8 0 0 0-6.9-6.5 6.49 6.49 0 0 0-6.67 6.49ZM240.76 258.24c.89.84 5.83-3.24 13.13-3.6s12.84 3 13.58 2.06c.37-.42-.56-2-3-3.54a18.65 18.65 0 0 0-10.94-2.75 17.89 17.89 0 0 0-10.38 4c-2.15 1.82-2.82 3.45-2.39 3.83ZM217.56 315.7c0-.41-4.57-1-12-1.51-1.87-.09-3.66-.37-4-1.62s.17-3.37.95-5.59q2.28-6.9 4.76-14.48c6.58-20.61 11.24-37.52 10.41-37.78s-6.84 16.24-13.42 36.85c-1.58 5.08-3.09 9.92-4.53 14.56-.59 2.15-1.67 4.62-.57 7.36a4.63 4.63 0 0 0 3.2 2.56 13 13 0 0 0 3.19.28c7.45 0 12-.21 12.01-.63ZM237.73 233.67c.82 1.94 8.06.63 16.68 1.22 8.62.43 15.66 2.58 16.7.74.47-.88-.83-2.68-3.73-4.46a29.1 29.1 0 0 0-25.43-1.5c-3.08 1.43-4.58 3.07-4.22 4ZM170.76 234.39c1.34 1.61 6.32-.26 12.37-.53 6-.48 11.2.78 12.33-1 .49-.85-.37-2.49-2.65-4a17.93 17.93 0 0 0-19.9 1.22c-2.09 1.78-2.74 3.51-2.15 4.31Z" style="fill:#263238"/><path d="M319.77 281.05c.79-.4 32.12-11.39 32.81 21.13s-32.11 26.51-32.19 25.57-.62-46.7-.62-46.7Z" style="fill:#b56e6a"/><path d="M330.07 315.22c.14-.1.57.39 1.54.81a5.66 5.66 0 0 0 4.24 0c3.41-1.34 6.18-6.85 6.22-12.72a18.7 18.7 0 0 0-1.76-8.08c-1-2.35-2.62-4-4.35-4.26a2.88 2.88 0 0 0-3.31 1.63c-.42.92-.2 1.56-.37 1.62s-.71-.53-.48-1.88a3.66 3.66 0 0 1 1.24-2.06 4.32 4.32 0 0 1 3.12-.9c2.51.12 4.81 2.38 6 4.92a19.23 19.23 0 0 1 2.16 9c-.07 6.56-3.3 12.77-8 14.22a6 6 0 0 1-5.2-.75c-.98-.77-1.12-1.48-1.05-1.55Z" style="fill:#875453"/><path d="M178.31 185.76c-5.3-2.84 10.29-20.08 23.15-26.11 19.45-9.11 49.24-14.93 67.32-10 21.78 5.89 40 16.46 51.09 36.08s15.51 42.59 15.16 65.15c-.11 6.88-.74 14.06-4.34 19.93-4.46 7.25-13.12 11.88-12.61 21.8a13.66 13.66 0 0 1-3.26 10c-5.87 6.4-13.23.54-16.65-5.38-7.3-12.65-8.29-27.85-9.09-42.44-.58-10.37-1.13-21 1.67-31 1.53-5.44 4-10.59 5.24-16.11s1-11.76-2.5-16.21a20.18 20.18 0 0 0-2.67-2.64 34 34 0 0 0-33.74-6c-18.23 6.71-49.4 16.77-57.64 10.65-11.86-8.8-14.75-14.59-14.75-14.59ZM208.57 338.72c-.18.54 1.22 1.67 4 2.32a19.37 19.37 0 0 0 19.37-7.65c1.56-2.34 1.82-4.12 1.31-4.4-1.12-.61-4.8 4.35-11.52 6.89-6.68 2.74-12.73 1.62-13.16 2.84Z" style="fill:#263238"/><path d="M265.07 172.69a23.11 23.11 0 0 1 5.64-2.46l1.17-5.58 9.44-.17 1.35 5.54a23 23 0 0 1 5.73 2.26l4.77-3.13 6.8 6.56-3 4.87a22.93 22.93 0 0 1 2.45 5.65l5.59 1.16.16 9.44-5.54 1.36a23.39 23.39 0 0 1-2.25 5.73l3.13 4.77-6.51 6.79-4.88-2.95a23.53 23.53 0 0 1-5.65 2.45l-1.16 5.59-9.44.16-1.36-5.54a23.47 23.47 0 0 1-5.72-2.25l-4.79 3.12-6.8-6.56 3-4.87a22.93 22.93 0 0 1-2.45-5.65l-5.59-1.16-.17-9.44 5.55-1.36a23 23 0 0 1 2.25-5.73l-3.13-4.77 6.56-6.79 4.88 3Zm5 12.57a10.13 10.13 0 1 0 14.32-.25 10.14 10.14 0 0 0-14.29.25Z" style="fill:#e0e0e0"/><path d="M270.1 185.26a7.74 7.74 0 0 1 1.89-1.65 10 10 0 0 1 6.6-1.56 10.15 10.15 0 0 1 4.5 1.59 10.43 10.43 0 0 1 3.63 4.09 10 10 0 0 1 .92 2.85 9.81 9.81 0 0 1 .06 3.11 10.37 10.37 0 0 1-8.55 8.86 10.46 10.46 0 0 1-6-.77 10.29 10.29 0 0 1-6-7.92 10.09 10.09 0 0 1 1.33-6.65 7.7 7.7 0 0 1 1.59-2c.06.05-.61.67-1.39 2.06a10.1 10.1 0 0 0-1.12 6.48 9.88 9.88 0 0 0 5.78 7.49 9.95 9.95 0 0 0 5.68.7 9.8 9.8 0 0 0 8.08-8.37 9.11 9.11 0 0 0 0-3 9.26 9.26 0 0 0-.85-2.7 9.9 9.9 0 0 0-7.69-5.52 10.1 10.1 0 0 0-6.44 1.35c-1.38.93-1.97 1.62-2.02 1.56Z" style="fill:#e0e0e0"/><path d="m265.07 172.69-.32-.17-.93-.54-3.68-2.17h.12l-6.52 6.83v-.18l3.14 4.76.06.09v.09a22.94 22.94 0 0 0-2.22 5.69v.11h-.12l-5.6 1.38.16-.2c.06 3 .12 6.12.19 9.43l-.18-.21 5.59 1.15h.14v.14a23.3 23.3 0 0 0 2.43 5.58l.08.13-.08.13-2.95 4.88v-.32l6.8 6.55h-.33l4.77-3.14.13-.09.15.08a23.36 23.36 0 0 0 5.66 2.23h.17v.16c.42 1.74.89 3.63 1.36 5.54l-.28-.21 9.44-.17-.28.23c.37-1.77.76-3.67 1.16-5.59v-.17l.17-.05a23.36 23.36 0 0 0 5.57-2.42l.15-.09.15.09 4.88 2.95-.36.05 6.56-6.79v.36l-3.12-4.77-.09-.15.08-.15a23 23 0 0 0 2.23-5.66v-.16h.17l5.54-1.36-.21.28q-.09-4.83-.16-9.44l.21.26-5.58-1.17h-.16v-.15a22.5 22.5 0 0 0-2.42-5.58l-.07-.14.07-.13 3-4.87v.3l-6.74-6.61h.28l-4.78 3.11-.11.07-.11-.06a23.32 23.32 0 0 0-5.67-2.25h-.11v-.11c-.49-2-.93-3.83-1.34-5.55l.17.13-9.44.13.12-.11c-.47 2.23-.87 4.06-1.19 5.58v.06h-.05a24.41 24.41 0 0 0-4.32 1.66l-1 .54-.34.17.31-.22c.22-.13.55-.33 1-.57a22.12 22.12 0 0 1 4.31-1.76l-.07.07c.31-1.52.68-3.35 1.13-5.59v-.1h.1l9.44-.21h.14v.13c.43 1.71.88 3.53 1.38 5.54l-.14-.14a23.23 23.23 0 0 1 5.78 2.25h-.21l4.76-3.14.15-.09.13.12 6.8 6.54.14.14-.1.16-2.95 4.89v-.26a22.81 22.81 0 0 1 2.49 5.7l-.2-.18 5.59 1.15.21.05v.21q.07 4.61.17 9.44v.22h-.22l-5.54 1.36.2-.2a23.53 23.53 0 0 1-2.27 5.8v-.3q1.54 2.37 3.13 4.77l.12.19-.16.17-6.55 6.79-.16.17-.2-.12-4.88-3h.3a23.62 23.62 0 0 1-5.72 2.48l.21-.22c-.4 1.92-.8 3.82-1.17 5.58v.23h-.23l-9.44.17h-.23l-.05-.22c-.47-1.91-.93-3.81-1.36-5.54l.21.2a23.93 23.93 0 0 1-5.8-2.28h.29l-4.78 3.12-.18.12-.15-.15-6.84-6.46-.15-.14.11-.18c1-1.7 2.05-3.36 3-4.87v.26a23.29 23.29 0 0 1-2.47-5.71l.18.17-5.59-1.22h-.18v-.18q-.08-5-.14-9.44v-.16h.16l5.54-1.35-.14.14a23.4 23.4 0 0 1 2.29-5.76v.18l-3.11-4.79-.06-.1.08-.08 6.59-6.75.06-.06h.06l3.59 2.24.93.58Z" style="fill:#e0e0e0"/><path d="M227.42 163.88a12 12 0 0 1 2.59-2l-.12-3 4.83-1.27 1.39 2.67a12.25 12.25 0 0 1 3.23.43l2-2.21 4.36 2.5-.9 2.87a12.36 12.36 0 0 1 2 2.59l3-.11 1.28 4.82-2.67 1.4a12.18 12.18 0 0 1-.43 3.22l2.2 2.05-2.5 4.32-2.88-.9a12.18 12.18 0 0 1-2.58 2l.11 3-4.83 1.28-1.39-2.67a12.31 12.31 0 0 1-3.23-.43l-2.05 2.21-4.31-2.51.9-2.87a12.63 12.63 0 0 1-2-2.59l-3 .11-1.28-4.79 2.67-1.4a11.79 11.79 0 0 1 .44-3.22l-2.25-2.09 2.5-4.31 2.88.9Zm4.17 5.82a5.35 5.35 0 1 0 7.32-1.94 5.35 5.35 0 0 0-7.32 1.94Z" style="fill:#f5f5f5"/><path d="M231.59 169.7a4.14 4.14 0 0 1 .76-1.09 5.27 5.27 0 0 1 3.19-1.64 5.39 5.39 0 0 1 2.51.25 5.54 5.54 0 0 1 2.38 1.64 5.44 5.44 0 0 1 1.25 2.94 5.49 5.49 0 0 1-.7 3.35 5.56 5.56 0 0 1-2.56 2.27 5.12 5.12 0 0 1-1.6.42 4.84 4.84 0 0 1-1.57-.06 5.45 5.45 0 0 1-2.61-1.25 5.6 5.6 0 0 1-1.46-2.05 5.36 5.36 0 0 1-.16-3.59 4 4 0 0 1 .57-1.19 12.79 12.79 0 0 0-.45 1.23 5.34 5.34 0 0 0 .24 3.46 5.42 5.42 0 0 0 1.43 2 5.34 5.34 0 0 0 2.49 1.17 4.94 4.94 0 0 0 1.49 0 4.85 4.85 0 0 0 1.51-.41 5.16 5.16 0 0 0 2.41-2.15 5.24 5.24 0 0 0 .68-3.16 4.82 4.82 0 0 0-.4-1.51 4.88 4.88 0 0 0-.78-1.28 5.3 5.3 0 0 0-2.25-1.58 5.16 5.16 0 0 0-2.39-.27 5.28 5.28 0 0 0-3.13 1.5 12.16 12.16 0 0 0-.85 1Z" style="fill:#f5f5f5"/><path d="M227.42 163.88h-.18l-.55-.15-2.16-.65h.05c-.63 1.11-1.47 2.57-2.48 4.33v-.09l2.22 2v.05a12.5 12.5 0 0 0-.42 3.2v.06l-2.67 1.4.06-.12q.6 2.28 1.29 4.82l-.12-.09 3-.12h.08v.07a12.07 12.07 0 0 0 2 2.55l.06.06v.08c-.27.89-.58 1.87-.89 2.87l-.07-.16 4.32 2.5h-.17c.63-.69 1.34-1.44 2.05-2.21l.06-.06h.08a12.49 12.49 0 0 0 3.19.42h.09v.08c.44.84.91 1.75 1.4 2.67l-.17-.07 4.82-1.28-.12.15c0-1-.07-2-.11-3v-.1h.08a12.26 12.26 0 0 0 2.55-2l.07-.07h.09l2.87.9-.17.07c.84-1.46 1.68-2.89 2.5-4.31v.19c-.74-.7-1.48-1.38-2.21-2.06l-.06-.06v-.09a11.94 11.94 0 0 0 .43-3.18v-.09h.08l2.67-1.4-.07.17c-.44-1.65-.86-3.26-1.28-4.82l.15.1-3 .11h-.08v-.07a12.19 12.19 0 0 0-1.95-2.56l-.06-.06v-.08l.9-2.87.06.15-4.31-2.52h.15l-2.06 2.2v.05h-.06a11.84 11.84 0 0 0-3.2-.44h-.06v-.06l-1.39-2.67h.1l-4.91 1.38.05-.07c0 1.21.07 2.19.09 3a13.26 13.26 0 0 0-2 1.4l-.45.4-.15.13a1.12 1.12 0 0 1 .13-.15c.1-.09.24-.24.44-.42a11.62 11.62 0 0 1 2-1.44c0-.82-.08-1.81-.13-3v-.06h.06l4.81-1.3h.07v.06l1.4 2.67-.09-.05a12.21 12.21 0 0 1 3.26.42h-.11l2-2.21.07-.07h.08l4.32 2.5.09.05v.09l-.9 2.88v-.13a12.63 12.63 0 0 1 2 2.61l-.13-.07 3-.11h.12v.11q.62 2.35 1.28 4.82v.12h-.1l-2.67 1.4.08-.13a12.49 12.49 0 0 1-.44 3.26v-.15l2.21 2.05.09.09-.07.1-2.5 4.32-.06.1h-.12l-2.87-.9h.15a12.18 12.18 0 0 1-2.62 2l.08-.14c0 1 .07 2.07.11 3v.12h-.12l-4.82 1.28h-.11l-.06-.11-1.4-2.67.14.08a12.66 12.66 0 0 1-3.27-.44h.15l-2.06 2.2-.07.09-.1-.06-4.31-2.51-.1-.06v-.1c.31-1 .62-2 .9-2.87v.13a12.87 12.87 0 0 1-2-2.62l.12.07-3 .1h-.1v-.09q-.66-2.53-1.26-4.82v-.09h.08l2.68-1.39-.06.09a12.38 12.38 0 0 1 .45-3.25v.09l-2.2-2.06v-.06l2.53-4.23 2.12.7.55.18ZM233.41 199.71a8.46 8.46 0 0 1 2.11-1l.38-2.13 3.57-.16.57 2.08a9.27 9.27 0 0 1 2.19.79l1.77-1.23 2.64 2.41-1.06 1.88a8.83 8.83 0 0 1 1 2.11l2.12.38.17 3.57-2.09.57a8.33 8.33 0 0 1-.79 2.19l1.23 1.78-2.4 2.64-1.88-1.07a8.8 8.8 0 0 1-2.11 1l-.38 2.12-3.57.17-.58-2.09a8.46 8.46 0 0 1-2.19-.79l-1.77 1.24-2.64-2.41 1.07-1.88a8.63 8.63 0 0 1-1-2.11l-2.13-.38-.16-3.57 2.08-.58a8.85 8.85 0 0 1 .79-2.19l-1.23-1.77 2.41-2.64 1.88 1.07Zm2 4.7a3.84 3.84 0 1 0 5.42-.24 3.85 3.85 0 0 0-5.39.24Z" style="fill:#f5f5f5"/><path d="M235.44 204.41a3 3 0 0 1 .7-.64 3.77 3.77 0 0 1 2.48-.66 3.73 3.73 0 0 1 1.72.55 4 4 0 0 1 1.42 1.51 3.89 3.89 0 0 1 .38 1.07 3.58 3.58 0 0 1 .05 1.18 3.94 3.94 0 0 1-1 2.24 4 4 0 0 1-2.14 1.2 3.6 3.6 0 0 1-1.18 0 3.71 3.71 0 0 1-1.1-.28 3.88 3.88 0 0 1-2.34-2.93 3.85 3.85 0 0 1 .43-2.54 2.94 2.94 0 0 1 .58-.75s-.22.26-.5.8a3.77 3.77 0 0 0 .35 4 3.78 3.78 0 0 0 1.56 1.2 3.6 3.6 0 0 0 1 .25 3.52 3.52 0 0 0 1.12 0 3.75 3.75 0 0 0 2-1.14 3.8 3.8 0 0 0 .95-2.12 3.44 3.44 0 0 0 0-1.11 3.36 3.36 0 0 0-.35-1 3.7 3.7 0 0 0-1.34-1.45 3.62 3.62 0 0 0-1.63-.56 3.85 3.85 0 0 0-2.42.58c-.5.36-.72.62-.74.6Z" style="fill:#f5f5f5"/><path d="m233.41 199.71-.13-.06-.35-.2-1.42-.78-2.39 2.66v-.07l1.25 1.77a8.91 8.91 0 0 0-.78 2.18l-2.08.58.06-.08c.05 1.13.11 2.32.17 3.57l-.07-.08 2.12.38h.06v.05a8.81 8.81 0 0 0 1 2.09v.05l-1.07 1.87v-.12l2.65 2.41h-.13l1.77-1.23h.11a8.84 8.84 0 0 0 2.17.78h.06v.07l.57 2.08-.11-.08 3.57-.17-.1.09.38-2.12v-.07h.06a8.75 8.75 0 0 0 2.09-1h.06l1.88 1.07h-.14l2.41-2.64v.29l-1.24-1.78v-.11a8.61 8.61 0 0 0 .78-2.16v-.06h.06l2.09-.57-.08.1c-.05-1.22-.11-2.41-.16-3.57l.08.1-2.12-.39h-.06v-.05a8.68 8.68 0 0 0-1-2.09v-.05l1.08-1.88v.12l-2.51-2.48h.1l-1.77 1.23a9.08 9.08 0 0 0-2.17-.79H240c-.2-.76-.39-1.44-.57-2.08h.07l-3.57.15-.4 2.13a8.9 8.9 0 0 0-1.62.68l-.38.21-.12.07.11-.09c.11-.09.2-.13.37-.22a7.7 7.7 0 0 1 1.62-.71c.1-.58.22-1.28.37-2.13l3.57-.18h.06l.58 2.08-.05-.05a9.34 9.34 0 0 1 2.21.79h-.08L244 198h.05l2.65 2.4v.11c-.34.61-.69 1.24-1.06 1.88v-.09a8.5 8.5 0 0 1 1 2.13l-.08-.07 2.13.38h.08v.08c.06 1.16.11 2.35.17 3.57v.09h-.08l-2.08.57.08-.08a8.8 8.8 0 0 1-.8 2.22v-.11l1.23 1.77v.14l-2.41 2.64-.06.06h-.08l-1.88-1.07h.14a8.81 8.81 0 0 1-2.14 1l.08-.08c-.14.73-.27 1.45-.39 2.12v.09h-.09l-3.57.16h-.09v-.08c-.2-.72-.39-1.44-.57-2.09l.08.08a9 9 0 0 1-2.22-.81h.11l-1.77 1.23-.07.05-.06-.06-2.64-2.41-.06-.05v-.07l1.07-1.88v.1a8.9 8.9 0 0 1-1-2.13l.07.06-2.12-.39h-.07v-.07q-.08-1.87-.15-3.57v-.06h.06l2.08-.57v.06a8.78 8.78 0 0 1 .81-2.21v.07l-1.23-1.78 2.42-2.62 1.38.81.36.21c.08-.05.13-.03.13-.02ZM290.6 225.94a10.49 10.49 0 0 1 2.53-1.1l.52-2.49 4.22-.08.61 2.48a10.34 10.34 0 0 1 2.56 1l2.13-1.4 3 2.93-1.32 2.18A10.46 10.46 0 0 1 306 232l2.5.52.07 4.22-2.47.6a10.42 10.42 0 0 1-1 2.56l1.4 2.14-2.94 3-2.18-1.32a10.26 10.26 0 0 1-2.52 1.1l-.52 2.5-4.22.07-.61-2.48a10.71 10.71 0 0 1-2.56-1l-2.13 1.39-3-2.93 1.32-2.18a10.18 10.18 0 0 1-1.14-2.49l-2.5-.52-.1-4.18 2.48-.61a10.42 10.42 0 0 1 1-2.56l-1.4-2.14 2.93-3 2.18 1.32Zm2.25 5.62a4.53 4.53 0 1 0 6.41-.11 4.54 4.54 0 0 0-6.41.11Z" style="fill:#f5f5f5"/><path d="M292.85 231.56a3.57 3.57 0 0 1 .85-.74 4.58 4.58 0 0 1 2.95-.7 4.67 4.67 0 0 1 2 .72 4.6 4.6 0 0 1 1.62 1.83 4.52 4.52 0 0 1 .42 1.27 4.31 4.31 0 0 1 0 1.39 4.58 4.58 0 0 1-1.26 2.61 4.65 4.65 0 0 1-2.56 1.35 4.39 4.39 0 0 1-1.4 0 4.51 4.51 0 0 1-1.28-.37 4.58 4.58 0 0 1-1.89-1.56 4.64 4.64 0 0 1-.78-2 4.52 4.52 0 0 1 .59-3 3.6 3.6 0 0 1 .71-.87s-.27.3-.62.92a4.53 4.53 0 0 0-.5 2.9 4.45 4.45 0 0 0 2.59 3.35 4.08 4.08 0 0 0 1.22.34 4.19 4.19 0 0 0 1.32 0 4.39 4.39 0 0 0 3.61-3.74 3.89 3.89 0 0 0 0-1.32 4.07 4.07 0 0 0-.38-1.21 4.44 4.44 0 0 0-3.44-2.46 4.52 4.52 0 0 0-2.88.6c-.6.41-.86.72-.89.69Z" style="fill:#f5f5f5"/><path d="m290.6 225.94-.14-.07-.41-.25-1.65-1h.05l-2.91 3v-.08l1.4 2.13a10 10 0 0 0-1 2.55h-.05l-2.47.62.07-.1c0 1.33.05 2.74.08 4.22l-.08-.09 2.5.51h.06v.07a10 10 0 0 0 1.09 2.49v.12l-1.32 2.18v-.14l3 2.93h-.15c.67-.43 1.39-.91 2.13-1.4h.13a10.5 10.5 0 0 0 2.53 1h.08v.07l.61 2.48-.12-.1 4.22-.07-.13.1c.17-.79.34-1.64.52-2.5v-.07h.07a9.55 9.55 0 0 0 2.49-1.08h.13l2.27 1.54h-.16l2.93-3v.16L305 240v-.13a9.79 9.79 0 0 0 1-2.53v-.07h.08l2.47-.6-.09.12c0-1.44-.05-2.85-.07-4.22l.1.11-2.5-.52h-.07v-.06a10 10 0 0 0-1.08-2.5v-.12l1.32-2.18v.14c-1.06-1-2.07-2-3-2.94h.13l-2.14 1.39h-.05a10.2 10.2 0 0 0-2.53-1c-.21-.9-.41-1.71-.6-2.48l.08.06-4.22.05h.06c-.22 1-.39 1.81-.54 2.49a10.2 10.2 0 0 0-1.93.75l-.45.23-.16.08.15-.1.44-.25a9.85 9.85 0 0 1 1.93-.79c.14-.68.3-1.5.5-2.5l4.22-.1h.06v.06c.19.77.4 1.58.62 2.48l-.06-.06a10.13 10.13 0 0 1 2.58 1H301l2.13-1.4.06-.05.06.06 3 2.92.06.06v.08l-1.31 2.05v-.12a10.59 10.59 0 0 1 1.11 2.55l-.08-.08 2.49.52h.1v.09c0 1.38 0 2.78.08 4.22v.1h-.1l-2.47.61.09-.1a10.49 10.49 0 0 1-1 2.6v-.14l1.39 2.14.06.08-.07.08-2.93 3-.07.08-.09-.05-2.18-1.33h.13a10.34 10.34 0 0 1-2.55 1.11l.09-.09c-.18.85-.36 1.7-.52 2.49v.1h-.11l-4.22.07H294v-.1l-.61-2.48.09.09a10.29 10.29 0 0 1-2.59-1h.11l-2.14 1.39-.08.06-.07-.07-3-2.94-.07-.06v-.08l1.33-2.18v.12a10.62 10.62 0 0 1-1.11-2.55l.08.07-2.49-.52h-.08v-.08c0-1.48-.05-2.89-.07-4.22v-.08h.07l2.48-.6-.06.06a10.85 10.85 0 0 1 1-2.58v.08l-1.39-2.14 2.95-3 1.61 1 .41.26a.79.79 0 0 1 .23.03ZM310.62 200.86a7.16 7.16 0 0 1 1.78-.77l.36-1.76 3-.05.43 1.74a7.5 7.5 0 0 1 1.8.71l1.5-1 2.13 2.06-.93 1.53a7.41 7.41 0 0 1 .78 1.78l1.75.36.05 3-1.74.43a7.1 7.1 0 0 1-.71 1.8l1 1.5-2.06 2.13-1.54-.93a7.52 7.52 0 0 1-1.77.78l-.37 1.75-3 .05-.42-1.74a7 7 0 0 1-1.8-.71l-1.5 1-2.14-2.07.93-1.53a7.1 7.1 0 0 1-.77-1.77l-1.76-.37-.05-3 1.74-.42a7.34 7.34 0 0 1 .71-1.8l-1-1.5 2.06-2.14 1.53.93Zm1.59 3.95a3.19 3.19 0 1 0 4.5-.08 3.19 3.19 0 0 0-4.5.08Z" style="fill:#f5f5f5"/><path d="M312.21 204.81a2.37 2.37 0 0 1 .59-.52 3.16 3.16 0 0 1 2.08-.49 3.21 3.21 0 0 1 2.55 1.79 3 3 0 0 1 .29.89 3.22 3.22 0 0 1 0 1 3.27 3.27 0 0 1-2.69 2.79 3.42 3.42 0 0 1-1.88-.24 3.3 3.3 0 0 1-1.33-1.1 3.19 3.19 0 0 1-.55-1.39 3.15 3.15 0 0 1 .42-2.1 2.52 2.52 0 0 1 .5-.61 5.67 5.67 0 0 0-.44.65 3.12 3.12 0 0 0-.35 2 3.1 3.1 0 0 0 2.67 2.59 2.91 2.91 0 0 0 .93 0 3.1 3.1 0 0 0 2.54-2.63 2.9 2.9 0 0 0 0-.93 3 3 0 0 0-.27-.85 3.09 3.09 0 0 0-1.08-1.23 3.15 3.15 0 0 0-1.34-.5 3.19 3.19 0 0 0-2 .42 7.21 7.21 0 0 0-.64.46Z" style="fill:#f5f5f5"/><path d="m310.62 200.86-.1-.05-.29-.17-1.15-.68-2.05 2.15V202l1 1.5v.05a7.34 7.34 0 0 0-.7 1.79l-1.74.44.05-.07q0 1.41.06 3l-.06-.07 1.75.36h.05v.05a7.42 7.42 0 0 0 .77 1.75c-.29.48-.61 1-.93 1.54v-.1l2.14 2.05h-.11l1.5-1h.05a7.26 7.26 0 0 0 1.78.7h.05c.14.55.28 1.14.43 1.74l-.09-.07 3-.05-.09.07c.12-.55.24-1.15.37-1.75v-.06h.05a7.26 7.26 0 0 0 1.75-.76h.1l1.53.93h-.11l2.06-2.13v.11l-1-1.5a7.94 7.94 0 0 0 .7-1.78v-.06h.05l1.74-.42-.06.08c0-1 0-2-.05-3l.07.09-1.76-.37h-.05v-.05a7.49 7.49 0 0 0-.76-1.76l.93-1.53v.09l-2.13-2.06h.09c-.53.34-1 .66-1.5 1a7.17 7.17 0 0 0-1.79-.71c-.15-.64-.29-1.21-.42-1.75h.05-3l-.37 1.75a7.37 7.37 0 0 0-1.36.52l-.32.17-.11.05.1-.07.32-.18a7.25 7.25 0 0 1 1.35-.55l.35-1.76 3-.06c.14.54.28 1.11.44 1.74h-.05a7.78 7.78 0 0 1 1.82.71h-.07l1.5-1h.05l2.14 2.06-.93 1.53v-.08a7.26 7.26 0 0 1 .78 1.8l-.06-.06 1.76.36h.07v.07c0 1 0 2 .05 3v.07h-.06l-1.75.42.07-.06a7.67 7.67 0 0 1-.72 1.82v-.09l1 1.5v.06l-.05.05-2.06 2.14v.05h-.06l-1.54-.93h.1a7.44 7.44 0 0 1-1.8.78l.07-.07c-.13.61-.25 1.21-.37 1.76v.21H316l-3 .05V216c-.15-.6-.3-1.19-.43-1.74l.07.07a7.84 7.84 0 0 1-1.83-.72h.09l-1.5 1h-.05l-2.14-2.07v-.06c.33-.53.64-1 .93-1.53v.08a7.28 7.28 0 0 1-.77-1.79h.05l-1.75-.37h-.06v-3.06h.05l1.74-.42a7 7 0 0 1 .72-1.81v.05l-1-1.5 2.07-2.12 1.12.7.3.18Z" style="fill:#f5f5f5"/></g><g id="freepik--speech-bubble-4--inject-39"><circle cx="417.52" cy="220.32" r="51.75" transform="rotate(-49.59 417.558 220.33)" style="fill:#fff"/><path d="M361.36 256.63c-.05 0 .14-.55.15-1.55a6.86 6.86 0 0 0-1.26-3.92 6.3 6.3 0 0 0-2.09-1.93 5.64 5.64 0 0 0-3.14-.72 6.21 6.21 0 0 0-3.88 11 5.74 5.74 0 0 0 2.86 1.39 6.48 6.48 0 0 0 2.84-.19 6.92 6.92 0 0 0 3.45-2.26c.62-.78.81-1.32.86-1.3a1.53 1.53 0 0 1-.13.39 3 3 0 0 1-.22.45 4.35 4.35 0 0 1-.36.57A6.85 6.85 0 0 1 357 261a6.7 6.7 0 0 1-3 .25 6 6 0 0 1-3.13-1.48 7.07 7.07 0 0 1-2-3.22 6.64 6.64 0 0 1 0-4.11 6.55 6.55 0 0 1 2.57-3.2 7 7 0 0 1 3.62-1.21 6 6 0 0 1 3.36.81 7 7 0 0 1 3.34 6.21 4 4 0 0 1-.08.67 2.34 2.34 0 0 1-.12.49c-.13.3-.18.43-.2.42ZM393.22 267.12s.27.1.79.33l2.26 1 1.67.74c.62.25 1.33.46 2.08.72l2.44.81a9.47 9.47 0 0 0 1.37.37l1.47.33a49.65 49.65 0 0 0 14.95 1.24 51.69 51.69 0 0 0 19.16-5l2.52-1.22c.82-.47 1.63-1 2.45-1.48l1.25-.76a10 10 0 0 0 1.22-.82l2.39-1.8c.4-.31.81-.6 1.21-.92l1.12-1 2.29-2.1c.75-.74 1.42-1.56 2.14-2.35l1.06-1.19c.18-.21.37-.4.54-.61l.47-.66a47.7 47.7 0 0 0 3.69-5.48c.55-1 1.17-1.93 1.67-3l1.43-3.13c.22-.53.5-1.05.69-1.59s.37-1.11.56-1.66c.36-1.12.78-2.22 1.1-3.36a55.36 55.36 0 0 0 1.38-7.08c.07-.61.15-1.22.23-1.82 0-.31.08-.61.11-.92v-.92c0-1.24.07-2.48.11-3.72s-.16-2.5-.23-3.76c-.06-.63-.06-1.27-.17-1.89l-.31-1.88a59.36 59.36 0 0 0-1.74-7.53c-.46-1.22-.91-2.45-1.37-3.68l-.35-.92c-.13-.3-.28-.6-.42-.89l-.87-1.79-.87-1.79-1-1.72-1-1.71-.53-.86c-.19-.28-.4-.54-.6-.81-.81-1.08-1.63-2.16-2.44-3.25l-2.77-3a51.5 51.5 0 0 0-29.09-15l-4.06-.51-4.12-.08h-1l-1 .07-2 .14-2 .14-2 .33-2 .32-1 .17-.95.25-3.79 1a58.53 58.53 0 0 0-7.15 2.93l-1.72.84c-.58.27-1.09.64-1.64 1-1.07.66-2.17 1.28-3.2 2l-3 2.24-.73.55c-.24.2-.46.41-.69.62l-1.23 1.12a54.34 54.34 0 0 0-5 5.22c-.75.92-1.41 1.9-2.11 2.84l-1 1.41c-.33.48-.6 1-.9 1.49l-1.73 3c-.54 1-1 2.05-1.44 3.06a50 50 0 0 0-2.34 6.18l-.26.77c-.07.26-.12.53-.19.79l-.36 1.56c-.22 1-.51 2.06-.67 3.1s-.27 2.06-.4 3.08c-.06.51-.13 1-.19 1.52s0 1-.05 1.52c0 1-.06 2-.09 3a9 9 0 0 0 0 1.47c0 .49.06 1 .1 1.45.07 1 .11 1.92.21 2.86s.3 1.85.45 2.76a51.87 51.87 0 0 0 7 18.51c.38.62.75 1.25 1.13 1.84l1.25 1.67 1.2 1.61c.2.26.38.53.59.77l.64.7 2.44 2.67c.79.82 1.65 1.51 2.4 2.22l1.12 1a8.19 8.19 0 0 0 1.1.9l2.07 1.52c.65.47 1.22.92 1.78 1.29l1.58.93 2.13 1.27.71.45-.74-.41-2.15-1.22-1.59-.92c-.57-.36-1.15-.81-1.8-1.27l-2.1-1.51a8.94 8.94 0 0 1-1.1-.89l-1.13-1c-.77-.71-1.63-1.39-2.43-2.21l-2.41-2.72c-.21-.24-.43-.47-.65-.71s-.4-.51-.6-.77l-1.21-1.61-1.26-1.64c-.38-.6-.75-1.22-1.14-1.85a51.94 51.94 0 0 1-7.14-18.59c-.16-.91-.31-1.84-.47-2.78s-.14-1.9-.22-2.87c0-.49-.07-1-.1-1.47a10.41 10.41 0 0 1-.05-1.48c0-1 .06-2 .08-3 0-.5 0-1 .05-1.53s.13-1 .19-1.53c.13-1 .26-2.06.4-3.11s.45-2.07.67-3.12l.36-1.57c.06-.27.11-.54.19-.8l.26-.77a48.7 48.7 0 0 1 2.34-6.24c.49-1 .91-2.08 1.45-3.09l1.74-3c.3-.5.57-1 .9-1.5l1-1.43c.7-.95 1.37-1.94 2.12-2.87a55.3 55.3 0 0 1 5-5.27l1.36-1.25c.23-.21.45-.42.69-.62l.74-.56 3-2.26c1-.71 2.15-1.33 3.23-2 .55-.32 1.07-.69 1.65-1l1.73-.84a58.6 58.6 0 0 1 7.21-3l3.83-1 1-.25 1-.17 2-.33 2-.33 2-.15 2-.14 1-.07h1l4.1.12 4.1.52a51.9 51.9 0 0 1 29.36 15.18l2.79 3 2.46 3.28c.2.27.41.54.61.82l.53.87 1.08 1.78 1 1.73.88 1.81.87 1.8.43.9.35.94c.46 1.24.92 2.48 1.37 3.71a58.59 58.59 0 0 1 1.75 7.59l.32 1.9c.11.63.1 1.28.16 1.91.07 1.27.21 2.53.23 3.79s-.07 2.51-.11 3.75v.94c0 .3-.07.61-.11.92-.07.61-.15 1.22-.23 1.83a55.64 55.64 0 0 1-1.4 7.14c-.32 1.15-.75 2.27-1.11 3.39l-.57 1.67c-.2.55-.47 1.07-.7 1.61q-.74 1.59-1.44 3.15c-.51 1-1.14 2-1.69 3a49.84 49.84 0 0 1-3.73 5.52l-.48.66c-.17.21-.36.41-.54.61l-1.08 1.21c-.73.79-1.4 1.62-2.15 2.35l-2.29 2.17c-.39.35-.77.69-1.14 1s-.82.62-1.22.92l-2.41 1.81a10.23 10.23 0 0 1-1.24.82l-1.25.76c-.83.5-1.64 1-2.47 1.49l-2.54 1.2a51.7 51.7 0 0 1-19.3 4.92 49.36 49.36 0 0 1-15-1.32l-1.48-.35a9.71 9.71 0 0 1-1.36-.38L400 270c-.76-.26-1.46-.48-2.09-.73l-1.66-.77-2.25-1.01Z" style="fill:#263238"/><path d="M410.11 231a6.3 6.3 0 1 1-2.31-8.6 6.29 6.29 0 0 1 2.31 8.6Z" style="fill:#ffc100"/><path d="M410.37 228.7c-.6.08-1.73-6.52-1.42-14.65s.81-14.57 1.38-14.6 1.13 6.6.8 14.66-.13 14.52-.76 14.59Z" style="fill:#ffc100"/><path d="M430.21 204.05c.21.46-4.58 2.66-10.89 1.78a14.91 14.91 0 0 1-7.42-3.06c-1.63-1.36-2-2.72-1.8-2.84s1.07.71 2.69 1.58a20 20 0 0 0 6.84 2.15c5.66.82 10.42-.29 10.58.39ZM430 235.57a6.3 6.3 0 1 1-2.31-8.61 6.31 6.31 0 0 1 2.31 8.61Z" style="fill:#ffc100"/><path d="M430.25 233.29c-.6.08-1.72-6.51-1.42-14.65s.82-14.56 1.38-14.59 1.13 6.6.81 14.65-.17 14.52-.77 14.59Z" style="fill:#ffc100"/><path d="M430.25 208.35c.29.49-4.14 2.89-10.09 2.27s-9.83-3.78-9.45-4.21 4.32 1.55 9.67 2 9.62-.67 9.87-.06Z" style="fill:#ffc100"/></g><g id="freepik--speech-bubble-3--inject-39"><circle cx="329.07" cy="95.23" r="36.3" transform="rotate(-28.24 329.091 95.232)" style="fill:#fff"/><path d="M314 139.65s-.16-.36-.59-.91a4.78 4.78 0 0 0-2.4-1.62 4.65 4.65 0 0 0-2-.15 4 4 0 0 0-2 1 4.35 4.35 0 0 0 2.64 7.72 4.05 4.05 0 0 0 2.21-.48 4.59 4.59 0 0 0 1.48-1.34 4.84 4.84 0 0 0 .91-2.75c0-.69-.13-1.07-.09-1.08s0 .09.09.27a1.31 1.31 0 0 1 .08.34 2.12 2.12 0 0 1 .05.47 4.84 4.84 0 0 1-2.38 4.33 4.25 4.25 0 0 1-2.37.55 5 5 0 0 1-2.53-.88 4.35 4.35 0 0 1-1.76-5.14 5 5 0 0 1 1.46-2.25 4.26 4.26 0 0 1 2.21-1 5 5 0 0 1 2.1.2 4.74 4.74 0 0 1 2.43 1.77 2.33 2.33 0 0 1 .25.4 1.76 1.76 0 0 1 .15.32.93.93 0 0 1 .06.23ZM336.1 131.54l.57-.16 1.68-.44 1.25-.31c.45-.14.93-.33 1.45-.52l1.7-.62a5.42 5.42 0 0 0 .91-.39l.95-.45a34.84 34.84 0 0 0 8.76-5.83 36.35 36.35 0 0 0 8.38-11.08l.85-1.77c.25-.61.47-1.24.7-1.88l.36-1a6.57 6.57 0 0 0 .31-1c.18-.67.35-1.35.53-2 .09-.34.19-.68.27-1s.11-.71.16-1.06c.12-.71.23-1.43.35-2.16s.09-1.47.15-2.21l.06-1.13V95.4a34.76 34.76 0 0 0-.36-4.63c-.12-.77-.2-1.56-.37-2.34s-.38-1.56-.58-2.34c-.1-.4-.18-.8-.31-1.18l-.41-1.16c-.29-.77-.54-1.56-.86-2.33a39.89 39.89 0 0 0-2.33-4.49l-.67-1.1-.33-.55-.39-.52-1.57-2.09c-.55-.68-1.17-1.31-1.76-2-.31-.32-.58-.67-.91-1l-1-.9a39.9 39.9 0 0 0-4.23-3.38L347.06 64l-.59-.36c-.2-.11-.41-.2-.62-.3l-1.25-.61-1.26-.6-1.34-.46-1.32-.49-.67-.25-.68-.18-2.74-.75-2.83-.45A36.05 36.05 0 0 0 311.21 64l-2.45 1.49-2.29 1.7-.56.43-.53.48-1 1-1 1-.94 1-.94 1-.46.52-.42.56-1.64 2.2a42.54 42.54 0 0 0-2.73 4.62l-.58 1.2c-.19.4-.32.83-.48 1.24-.3.84-.63 1.66-.89 2.49s-.45 1.69-.67 2.53l-.16.62c-.05.21-.07.43-.11.64-.07.42-.13.85-.2 1.27a37.64 37.64 0 0 0-.47 5c0 .83.06 1.66.08 2.48 0 .41 0 .82.05 1.23s.11.8.16 1.21c.11.8.22 1.59.34 2.39s.36 1.54.54 2.31a34 34 0 0 0 1.41 4.42l.19.53c.07.18.16.34.24.52l.48 1c.33.67.62 1.36 1 2l1.12 1.87.56.92.63.86 1.25 1.68a7.18 7.18 0 0 0 .67.79l.68.75c.46.5.9 1 1.36 1.48l1.46 1.32a36.1 36.1 0 0 0 11.91 7.25c.48.18.95.37 1.42.53l1.41.37 1.37.36c.22.06.44.13.66.17l.66.1 2.49.41c.8.11 1.57.11 2.29.17l1.06.07a5.47 5.47 0 0 0 1 0l1.8-.06c.56 0 1.08 0 1.55-.07l1.26-.17 1.73-.23.59-.07-.59.1-1.72.26-1.27.19c-.47 0-1 .06-1.54.09l-1.81.08a5.59 5.59 0 0 1-1 0l-1.06-.06c-.72-.05-1.49-.05-2.29-.15l-2.51-.4-.67-.1c-.22 0-.44-.11-.66-.17l-1.37-.35-1.42-.37c-.48-.16-.95-.34-1.44-.52a36.29 36.29 0 0 1-12-7.11l-1.47-1.32c-.47-.48-.91-1-1.37-1.49l-.7-.76a7.35 7.35 0 0 1-.67-.79c-.41-.56-.84-1.12-1.26-1.69l-.64-.86-.56-.93-1.14-1.88c-.37-.64-.65-1.33-1-2-.16-.34-.32-.68-.49-1-.08-.18-.17-.34-.24-.52l-.19-.54a34 34 0 0 1-1.43-4.45c-.18-.77-.41-1.54-.55-2.33s-.23-1.6-.35-2.41c-.05-.4-.13-.81-.16-1.22s0-.82 0-1.23c0-.83-.09-1.67-.08-2.51a36.74 36.74 0 0 1 .46-5.08c.07-.42.13-.85.2-1.28 0-.21.07-.43.11-.64l.17-.64.66-2.54c.26-.85.6-1.67.9-2.51.16-.42.29-.85.49-1.25l.55-1.3a41.67 41.67 0 0 1 2.68-4.77l1.66-2.23.41-.56.47-.52.94-1 .95-1 1-1 1.06-1 .52-.48.57-.43 2.31-1.72 2.48-1.5a36.38 36.38 0 0 1 22.75-4.44l2.86.46 2.78.73.69.18.67.25 1.34.49 1.33.5 1.27.61 1.26.61c.21.11.43.2.63.31l.6.36q1.18.74 2.37 1.44a41 41 0 0 1 4.27 3.42l1 .91c.34.3.62.65.92 1 .6.67 1.22 1.31 1.78 2l1.58 2.11.39.52c.12.18.22.37.34.56.22.37.44.74.67 1.11a38.9 38.9 0 0 1 2.34 4.53c.32.78.57 1.58.86 2.35l.42 1.17c.13.39.2.79.31 1.19.2.79.39 1.58.58 2.36s.24 1.58.37 2.37a35 35 0 0 1 .35 4.65v1.15c0 .38 0 .75-.07 1.13-.05.75-.06 1.5-.15 2.23s-.24 1.46-.35 2.17l-.18 1.07c-.08.35-.17.7-.26 1l-.54 2a7.64 7.64 0 0 1-.32 1l-.36 1c-.24.64-.46 1.27-.71 1.89l-.87 1.78A36.26 36.26 0 0 1 353.5 123a35 35 0 0 1-8.83 5.81l-1 .45a6 6 0 0 1-.92.38l-1.71.61c-.53.18-1 .37-1.46.5l-1.25.3-1.69.4Z" style="fill:#263238"/><path d="M343.7 93.35a9.07 9.07 0 0 0-2-5.07 8.68 8.68 0 0 0-4.38-3.06 7.06 7.06 0 0 0-8 3.17 7 7 0 0 0-2-2.39 7.17 7.17 0 0 0-5.44-1.4 8.67 8.67 0 0 0-4.7 2.53 9.1 9.1 0 0 0-2.62 4.79 11.06 11.06 0 0 0 1 6.87 15.63 15.63 0 0 0 5.09 5.36c3.39 2.32 7.87 5.25 7.87 5.25s4.08-2.7 7.72-4.61a15.63 15.63 0 0 0 5.68-4.73 11 11 0 0 0 1.78-6.71Z" style="fill:#ffc100"/></g><g id="freepik--speech-bubble-2--inject-39"><circle cx="205.36" cy="76.66" r="45.07" transform="rotate(-36.85 205.365 76.67)" style="fill:#fff"/><path d="M235.56 126.46c0 .05-.48-.13-1.35-.17a6 6 0 0 0-3.45 1 5.64 5.64 0 0 0-1.73 1.77 5 5 0 0 0-.7 2.71 5.4 5.4 0 0 0 9.45 3.66 5 5 0 0 0 1.31-2.48 5.84 5.84 0 0 0-.09-2.48 6 6 0 0 0-1.89-3.06c-.66-.56-1.13-.73-1.1-.78a1.25 1.25 0 0 1 .33.13 1.91 1.91 0 0 1 .38.19 4.73 4.73 0 0 1 .5.33 5.94 5.94 0 0 1 2.06 3.11 5.83 5.83 0 0 1 .15 2.62 5.19 5.19 0 0 1-1.37 2.68 6.11 6.11 0 0 1-2.86 1.71 5.68 5.68 0 0 1-3.57-.12 5.78 5.78 0 0 1-2.72-2.31 6.19 6.19 0 0 1-1-3.19 5.31 5.31 0 0 1 .79-2.91 5.8 5.8 0 0 1 1.9-1.87 5.91 5.91 0 0 1 3.62-.91 4.22 4.22 0 0 1 .59.08 2.51 2.51 0 0 1 .42.11 1.54 1.54 0 0 1 .33.18ZM245.49 99s.09-.24.3-.68.53-1.09.93-1.94l.69-1.44c.23-.53.43-1.14.67-1.79s.5-1.36.77-2.11a8.14 8.14 0 0 0 .36-1.18c.11-.41.22-.83.33-1.27a43.45 43.45 0 0 0 1.45-13 45.28 45.28 0 0 0-3.83-16.81l-1-2.22c-.38-.73-.81-1.44-1.22-2.17l-.63-1.1a9.45 9.45 0 0 0-.68-1.09l-1.51-2.12-.78-1.08c-.29-.33-.58-.67-.88-1l-1.77-2c-.62-.67-1.32-1.27-2-1.92l-1-1c-.18-.15-.34-.32-.52-.47l-.56-.43a42.14 42.14 0 0 0-4.68-3.36c-.84-.5-1.65-1.06-2.52-1.52l-2.69-1.3c-.46-.21-.9-.46-1.37-.65l-1.43-.53c-1-.34-1.92-.73-2.9-1a47.4 47.4 0 0 0-6.13-1.37l-1.58-.25-.79-.12h-.81l-3.23-.19c-1.09 0-2.18.08-3.28.11-.55 0-1.1 0-1.65.09l-1.65.23a49.63 49.63 0 0 0-6.59 1.33l-3.24 1.09-.81.28-.79.35-1.57.63-1.59.71-1.51.86-1.52.87-.77.44-.72.5-2.88 2-2.7 2.34a48.14 48.14 0 0 0-9 11.33 48.34 48.34 0 0 0-4.87 13.61c-.19 1.18-.37 2.35-.55 3.52l-.21 3.53v1.76l.07 1.75.08 1.74.27 1.74.24 1.71.12.86.19.83c.27 1.12.53 2.23.79 3.33a49.49 49.49 0 0 0 2.37 6.3l.68 1.51c.22.51.53 1 .79 1.45.56 1 1.07 1.92 1.65 2.84l1.87 2.65.47.65c.16.21.35.41.52.61l1 1.21a49.13 49.13 0 0 0 4.42 4.47c.78.67 1.62 1.27 2.42 1.91l1.21.93c.41.3.85.54 1.27.82l2.55 1.58c.85.49 1.76.89 2.63 1.33a41.7 41.7 0 0 0 5.32 2.19l.66.25.68.18 1.36.35c.9.22 1.78.5 2.67.67l2.68.42 1.32.21 1.32.08 2.6.16a9.11 9.11 0 0 0 1.28 0h1.26c.84 0 1.68-.05 2.5-.11l2.41-.33a45 45 0 0 0 16.29-5.66c.55-.32 1.11-.62 1.63-.94l1.49-1c.48-.35 1-.68 1.43-1 .23-.17.47-.32.68-.5l.63-.54 2.38-2c.74-.67 1.36-1.39 2-2l.91-1a7 7 0 0 0 .81-.93c.49-.63.95-1.21 1.37-1.76s.84-1 1.17-1.52l.85-1.35 1.16-1.82c.26-.41.41-.61.41-.61l-.37.63-1.09 1.71-.83 1.36c-.33.48-.74 1-1.16 1.53l-1.36 1.79a8.62 8.62 0 0 1-.81.94l-.9 1c-.63.64-1.25 1.38-2 2.06s-1.55 1.35-2.38 2.07l-.63.55c-.22.17-.46.33-.69.5l-1.43 1-1.48 1c-.53.33-1.09.63-1.64 1a45.12 45.12 0 0 1-16.35 5.73l-2.43.34c-.83.06-1.67.08-2.51.12l-1.28.05a9.26 9.26 0 0 1-1.29 0l-2.62-.14-1.33-.08-1.33-.21-2.69-.42c-.91-.17-1.79-.44-2.7-.66l-1.37-.36c-.22-.06-.46-.11-.68-.18l-.67-.25a41 41 0 0 1-5.37-2.2c-.87-.44-1.79-.84-2.65-1.33l-2.57-1.59c-.43-.28-.87-.52-1.29-.83l-1.21-.93c-.81-.64-1.66-1.25-2.45-1.92a48.61 48.61 0 0 1-4.46-4.5l-1.05-1.22c-.18-.21-.36-.4-.53-.62l-.47-.66q-.94-1.32-1.89-2.67c-.59-.92-1.1-1.9-1.66-2.86-.27-.48-.58-.95-.81-1.46l-.69-1.53a52.94 52.94 0 0 1-2.4-6.35c-.26-1.11-.52-2.23-.79-3.35l-.2-.85-.12-.86-.24-1.73-.24-1.75-.07-1.76-.07-1.77v-.88l.05-.89c.06-1.18.13-2.37.2-3.56s.37-2.37.55-3.56a48.79 48.79 0 0 1 4.92-13.73 48.67 48.67 0 0 1 9-11.44l2.72-2.36c1-.69 1.95-1.37 2.91-2.06l.73-.51.77-.43 1.54-.88 1.53-.87 1.59-.71 1.59-.72.8-.35.82-.28 3.27-1.11a51.48 51.48 0 0 1 6.65-1.33l1.66-.22c.56-.08 1.12-.06 1.67-.1 1.11 0 2.21-.11 3.3-.1l3.27.19h.81c.27 0 .53.08.8.12L213 32a48.22 48.22 0 0 1 6.18 1.4c1 .31 2 .71 2.92 1.05l1.44.54c.48.19.92.44 1.38.65l2.66 1.36c.88.48 1.7 1 2.54 1.55a41.81 41.81 0 0 1 4.71 3.39l.57.43c.18.15.34.32.51.48l1 1c.67.66 1.37 1.26 2 1.94l1.79 2.06.88 1 .77 1.09 1.53 2.06a7.32 7.32 0 0 1 .68 1.09c.22.37.43.74.64 1.11.41.74.84 1.46 1.23 2.19s.67 1.51 1 2.24a45.42 45.42 0 0 1 3.8 16.93 43.13 43.13 0 0 1-1.53 13c-.12.44-.23.86-.34 1.28a8.55 8.55 0 0 1-.37 1.18c-.28.75-.54 1.45-.79 2.1s-.45 1.26-.69 1.8l-.71 1.42-1 1.93c-.19.5-.31.73-.31.73Z" style="fill:#263238"/><path d="M227.91 72a19 19 0 1 0-26.59 18c.06 2.25.13 4.79.13 4.79l16.64-.47v-5.09A19 19 0 0 0 227.91 72Z" style="fill:#ffc100"/><path d="M212.07 94.36v-.24c0-.16 0-.39.06-.68.06-.61.14-1.5.28-2.64s.32-2.54.63-4.15a28.39 28.39 0 0 1 1.58-5.33 17.89 17.89 0 0 1 1.48-2.88 3.52 3.52 0 0 1 1.27-1.21 1.94 1.94 0 0 1 1.8 0 1.32 1.32 0 0 1 .57 1.71 2.7 2.7 0 0 1-1.43 1.31A5.21 5.21 0 0 1 211.6 77a4 4 0 0 1-.18-2.19 1.72 1.72 0 0 1 1.69-1.37 1.23 1.23 0 0 1 1 .64 1.72 1.72 0 0 1 .19 1.17 3.69 3.69 0 0 1-1.3 1.92 5.63 5.63 0 0 1-4.39 1.41 5 5 0 0 1-3.75-2.58 2.89 2.89 0 0 1-.19-2.3 1.46 1.46 0 0 1 .81-.86 1.41 1.41 0 0 1 1.17.08 1.79 1.79 0 0 1 .82.81 2.8 2.8 0 0 1 .32 1.08 5.51 5.51 0 0 1-.22 2.18 5.66 5.66 0 0 1-6.5 3.91 3 3 0 0 1-1.74-.86 1.48 1.48 0 0 1-.15-1.83 1.24 1.24 0 0 1 .84-.44 1.88 1.88 0 0 1 .91.15 2.82 2.82 0 0 1 1.2 1.27c.5 1 .91 2 1.33 3 1.62 3.79 2.79 6.91 3.57 9.07.39 1.09.68 1.93.88 2.51l.21.65c0 .15.07.23.07.23l-.09-.22c0-.16-.13-.37-.24-.65L207 91.2c-.81-2.16-2-5.27-3.64-9-.42-.94-.84-1.94-1.34-2.93a2.59 2.59 0 0 0-1.17-1.27 1.14 1.14 0 0 0-1.37 1.82 2.86 2.86 0 0 0 1.63.79 5.54 5.54 0 0 0 3.76-.64 5.36 5.36 0 0 0 2.48-3.14 5.21 5.21 0 0 0 .22-2.08 2.06 2.06 0 0 0-1-1.72 1.23 1.23 0 0 0-1-.07 1.25 1.25 0 0 0-.68.74 2.65 2.65 0 0 0 .19 2.11 4.73 4.73 0 0 0 3.57 2.5 5.46 5.46 0 0 0 4.2-1.31 3.51 3.51 0 0 0 1.2-1.79 1.47 1.47 0 0 0-.15-1 1 1 0 0 0-.81-.53 1.35 1.35 0 0 0-.93.33 1.69 1.69 0 0 0-.52.87 3.73 3.73 0 0 0 .17 2.06 5 5 0 0 0 6.43 3.14 2.53 2.53 0 0 0 1.33-1.2 1.12 1.12 0 0 0-.48-1.46 1.8 1.8 0 0 0-1.63 0 3.28 3.28 0 0 0-1.2 1.14 17.94 17.94 0 0 0-1.48 2.84 28.63 28.63 0 0 0-1.6 5.3c-.33 1.6-.52 3-.67 4.13s-.25 2-.32 2.63c0 .29-.06.52-.08.69a2.32 2.32 0 0 1-.04.21ZM216.9 97.38l-14.29.41a1.07 1.07 0 0 1-1.1-1.05 1.07 1.07 0 0 1 1-1.1l14.29-.4a1.07 1.07 0 0 1 1.1 1 1.07 1.07 0 0 1-1 1.14ZM216.92 98.32l-14.28.4a1.08 1.08 0 1 0 .06 2.15l1.56-.05 2.2 3.9a1.38 1.38 0 0 0 1.24.71l5.1-.15a1.37 1.37 0 0 0 1.21-.78l1.91-4h1.06a1.08 1.08 0 0 0 1-1.11 1.07 1.07 0 0 0-1.06-1.07Z" style="fill:#263238"/><g style="opacity:.2"><path d="M196.39 60.79a13.71 13.71 0 0 1 3.73-2.63 10.22 10.22 0 0 1 2.9-.94c.72-.09 1.13 0 1.17.12.09.34-1.34.89-3.24 2.24a15.63 15.63 0 0 0-6.68 15.53c.32 2.31.9 3.72.59 3.89-.14.08-.46-.18-.88-.77a9.78 9.78 0 0 1-1.32-2.75A14 14 0 0 1 192 71a14.77 14.77 0 0 1 1.17-5.52" style="fill:#fff"/></g><g style="opacity:.2"><path d="M208.77 58c-1.2 0-2.27-.28-2.41-.91-.06-.32.15-.66.58-.94a3.58 3.58 0 0 1 1.78-.49 3.67 3.67 0 0 1 1.81.41c.43.26.66.59.62.91" style="fill:#fff"/></g><path d="M213.75 104.84a7.4 7.4 0 0 1-1-.27 8.17 8.17 0 0 0-2.43-.24 8 8 0 0 0-2.39.52c-.59.22-.93.41-.95.38a2.79 2.79 0 0 1 .88-.54 7 7 0 0 1 4.93-.28 3 3 0 0 1 .96.43ZM216 100.54c0 .07-2.58.19-5.77.28s-5.77.11-5.77.05 2.58-.19 5.77-.28 5.77-.11 5.77-.05ZM215.1 102.26a7.36 7.36 0 0 1-1.4.18c-.87.08-2.07.17-3.4.22s-2.54.08-3.41.07a7.9 7.9 0 0 1-1.42-.06 8.54 8.54 0 0 1 1.41-.1l3.41-.14 3.4-.15a9 9 0 0 1 1.41-.02Z" style="fill:#455a64"/></g><g id="freepik--speech-bubble-1--inject-39"><circle cx="85.54" cy="176.79" r="55.27" transform="rotate(-29.17 85.552 176.794)" style="fill:#fff"/><path d="M156.84 181s-.47.38-1.11 1.23a7.37 7.37 0 0 0-1.39 4.18 6.9 6.9 0 0 0 .58 3 6 6 0 0 0 2.25 2.6 6.62 6.62 0 0 0 10.27-7 6.09 6.09 0 0 0-1.59-3.05 6.85 6.85 0 0 0-2.57-1.63 7.31 7.31 0 0 0-4.4-.23c-1 .28-1.53.62-1.55.57a1.49 1.49 0 0 1 .35-.25 2.86 2.86 0 0 1 .47-.25 4.58 4.58 0 0 1 .68-.27 7.33 7.33 0 0 1 4.57.08 7.18 7.18 0 0 1 2.75 1.68 6.47 6.47 0 0 1 1.75 3.25 7.49 7.49 0 0 1-.26 4.07 6.67 6.67 0 0 1-6.84 4.66 7.54 7.54 0 0 1-3.89-1.24 6.5 6.5 0 0 1-2.39-2.82 7.47 7.47 0 0 1 1-7.46 3.71 3.71 0 0 1 .5-.53 2.84 2.84 0 0 1 .4-.35c.28-.19.41-.24.42-.24ZM136 151.83s-.17-.26-.47-.78l-1.32-2.3-1-1.69c-.38-.61-.86-1.23-1.35-1.93l-1.59-2.24a8.53 8.53 0 0 0-.94-1.18l-1-1.22A53.13 53.13 0 0 0 116.25 130a55.41 55.41 0 0 0-19.64-7.83l-3-.54c-1-.12-2-.18-3-.27l-1.55-.13a10.26 10.26 0 0 0-1.57-.07H82.68l-1.63.18-3.3.37c-1.1.16-2.2.45-3.32.67l-1.67.36c-.28.06-.57.11-.84.19l-.83.26a52.82 52.82 0 0 0-6.64 2.39c-1.09.5-2.22.93-3.3 1.48l-3.2 1.8c-.54.32-1.1.59-1.61.94l-1.53 1.07c-1 .73-2.07 1.42-3.07 2.2a59.23 59.23 0 0 0-5.66 5.23l-1.35 1.42-.67.72-.6.78-2.46 3.19c-.77 1.09-1.45 2.25-2.18 3.38-.34.58-.75 1.13-1.05 1.73l-.92 1.83a61.78 61.78 0 0 0-3.26 7.58c-.37 1.34-.76 2.68-1.14 4l-.29 1c-.07.35-.13.69-.19 1l-.38 2.09-.39 2.09-.2 2.21-.18 2.14-.09 1.07v1.08c0 1.44 0 2.89.05 4.34l.48 4.34a54.82 54.82 0 0 0 15.55 31.33l3.17 3 3.43 2.67.85.65.91.58 1.83 1.16 1.81 1.14 1.9 1 1.89.95.95.48 1 .38 3.9 1.53a64.17 64.17 0 0 0 8 2l2 .36c.67.13 1.35.14 2 .21 1.35.1 2.68.26 4 .31h5l1-.1 1.94-.22a59 59 0 0 0 7.59-1.34c1.23-.33 2.41-.76 3.61-1.12l1.78-.57c.59-.2 1.15-.48 1.72-.72l3.37-1.46c1.09-.52 2.12-1.17 3.17-1.73a51.42 51.42 0 0 0 5.92-3.85l.71-.5c.23-.17.44-.37.66-.56l1.3-1.12c.85-.75 1.74-1.45 2.53-2.23L127 214l1.13-1.19 1-1.27 2-2.52a11 11 0 0 0 .89-1.29l.84-1.32c.54-.87 1.11-1.72 1.62-2.59l1.35-2.67a55.19 55.19 0 0 0 5.63-20.38c.06-.78.15-1.55.19-2.3s0-1.5 0-2.23v-3.14c0-.3-.08-.68-.11-1-.14-1.34-.28-2.62-.41-3.84s-.47-2.34-.67-3.42c-.12-.54-.23-1.07-.33-1.58a9.89 9.89 0 0 0-.38-1.47c-.29-.93-.57-1.8-.82-2.61s-.47-1.57-.73-2.24l-.76-1.8-1-2.43c-.23-.55-.33-.84-.33-.84s.14.27.38.81l1.08 2.42.79 1.79c.26.67.48 1.43.75 2.24s.55 1.68.85 2.62a9.3 9.3 0 0 1 .39 1.47c.11.51.22 1 .34 1.57.22 1.09.53 2.22.7 3.44s.28 2.51.43 3.85l.12 1v5.4c0 .76-.12 1.52-.18 2.31a55.39 55.39 0 0 1-5.59 20.52c-.45.89-.9 1.78-1.35 2.69s-1.09 1.73-1.63 2.62l-.84 1.32a10.42 10.42 0 0 1-.89 1.31l-2 2.54c-.33.42-.66.86-1 1.28l-1.14 1.2-2.3 2.43c-.79.8-1.69 1.5-2.55 2.26l-1.3 1.13c-.23.19-.44.39-.67.57l-.71.5a50.89 50.89 0 0 1-6 3.89c-1.06.58-2.09 1.22-3.2 1.75l-3.39 1.48c-.58.24-1.14.52-1.73.73l-1.79.57c-1.21.38-2.41.81-3.64 1.14a58.24 58.24 0 0 1-7.65 1.36l-2 .22c-.33 0-.65.08-1 .1h-5c-1.34 0-2.69-.21-4-.31-.67-.07-1.36-.08-2-.21l-2-.37a62 62 0 0 1-8.09-2l-3.94-1.54-1-.38-.95-.48-1.91-1-1.92-1-1.83-1.15-1.82-.96-.92-.58-.86-.66-3.46-2.76-3.2-3a55.3 55.3 0 0 1-15.7-31.61l-.48-4.39v-5.47l.09-1.08.19-2.16.19-2.15.39-2.11.38-2.1c.07-.35.13-.71.2-1l.29-1c.39-1.37.78-2.72 1.16-4.07a63.61 63.61 0 0 1 3.29-7.65l.93-1.83c.31-.62.71-1.17 1.06-1.75.74-1.14 1.43-2.31 2.2-3.41l2.41-3.22.61-.79c.22-.25.45-.48.68-.72l1.36-1.49a58.8 58.8 0 0 1 5.71-5.26c1-.79 2.08-1.48 3.1-2.22l1.54-1.08c.52-.35 1.09-.62 1.62-.94l3.29-1.79c1.09-.56 2.23-1 3.32-1.48a52.69 52.69 0 0 1 6.7-2.4l.84-.26c.28-.08.56-.13.84-.19l1.7-.36c1.12-.22 2.22-.51 3.34-.67L81 121l1.63-.18h4.85a10.33 10.33 0 0 1 1.58.07l1.57.14c1 .1 2.06.16 3.06.28l3 .55a55.31 55.31 0 0 1 19.73 8 52.89 52.89 0 0 1 12.09 10.62l1 1.23a10.21 10.21 0 0 1 .94 1.19l1.57 2.26c.48.71.95 1.34 1.33 2l.94 1.71c.56 1 1 1.79 1.28 2.33s.43.63.43.63Z" style="fill:#263238"/><path transform="rotate(-.77 87.352 178.432)" style="fill:#ebebeb" d="M55.77 152.95h62.68v50.11H55.77z"/><path transform="rotate(-.77 87.352 178.432)" style="fill:#ffc100" d="M57.94 156.11h58.27v43.8H57.94z"/><path d="M96.13 169.22a4.59 4.59 0 1 1-4.65-4.52 4.58 4.58 0 0 1 4.65 4.52Z" style="fill:#ffc100"/><path d="m58.35 200.3 19.99-27.49 12.83 16.86 8.43-9.22 17.02 19.07-58.27.78zM96.25 169.23a4.59 4.59 0 1 1-4.65-4.53 4.58 4.58 0 0 1 4.65 4.53Z" style="opacity:.2"/></g><path d="M443.06 470.68c0 .15-86.44.26-193 .26s-193.07-.11-193.07-.26 86.42-.26 193.07-.26 193 .12 193 .26Z" style="fill:#263238" id="freepik--Table--inject-39"/></svg>