<svg xmlns="http://www.w3.org/2000/svg" viewBox="0 0 140 140"><defs><style>.cls-2{fill:#407bff}</style></defs><g id="Layer_2" data-name="Layer 2"><g id="Layer_1-2" data-name="Layer 1"><path d="M18.12 7.5h103.76a10.62 10.62 0 0 1 10.62 10.62V75A57.5 57.5 0 0 1 75 132.5H65A57.5 57.5 0 0 1 7.5 75V18.12A10.62 10.62 0 0 1 18.12 7.5Z" style="fill:#fff;stroke:#407bff;stroke-linecap:round;stroke-miterlimit:10;stroke-width:15px"/><rect class="cls-2" x="27.1" y="63.64" width="85.79" height="12.72" rx="2.78"/><rect class="cls-2" x="27.1" y="63.64" width="85.79" height="12.72" rx="2.78" transform="rotate(-45 70.002 69.994)"/><rect class="cls-2" x="27.1" y="63.64" width="85.79" height="12.72" rx="2.78" transform="rotate(-90 70 70)"/><rect class="cls-2" x="27.1" y="63.64" width="85.79" height="12.72" rx="2.78" transform="rotate(-135 69.999 69.998)"/></g></g></svg>