<svg xmlns="http://www.w3.org/2000/svg" viewBox="0 0 140 140"><defs><style>.cls-1{fill:#fff;stroke:#407bff;stroke-linecap:round;stroke-miterlimit:10;stroke-width:15px;}.cls-2{fill:#407bff;}</style></defs><g id="Layer_2" data-name="Layer 2"><g id="Layer_1-2" data-name="Layer 1"><path class="cls-1" d="M18.12,7.5H121.88A10.62,10.62,0,0,1,132.5,18.12V75A57.5,57.5,0,0,1,75,132.5H65A57.5,57.5,0,0,1,7.5,75V18.12A10.62,10.62,0,0,1,18.12,7.5Z"/><rect class="cls-2" x="27.1" y="63.64" width="85.79" height="12.72" rx="2.78"/><rect class="cls-2" x="27.1" y="63.64" width="85.79" height="12.72" rx="2.78" transform="translate(-28.99 70) rotate(-45)"/><rect class="cls-2" x="27.1" y="63.64" width="85.79" height="12.72" rx="2.78" transform="translate(0 140) rotate(-90)"/><rect class="cls-2" x="27.1" y="63.64" width="85.79" height="12.72" rx="2.78" transform="translate(70 168.99) rotate(-135)"/></g></g></svg>